G04 Layer_Color=65535*
%FSLAX25Y25*%
%MOIN*%
G70*
G01*
G75*
%ADD37C,0.01500*%
%ADD63C,0.00787*%
%ADD64C,0.00984*%
%ADD65C,0.01181*%
%ADD66C,0.01575*%
%ADD67C,0.02362*%
%ADD68C,0.01000*%
%ADD69C,0.00800*%
D37*
X110832Y19500D02*
X105500D01*
X110832Y24832D01*
Y26164D01*
X109499Y27497D01*
X106833D01*
X105500Y26164D01*
X113497D02*
X114830Y27497D01*
X117496D01*
X118829Y26164D01*
Y20833D01*
X117496Y19500D01*
X114830D01*
X113497Y20833D01*
Y26164D01*
X121495Y19500D02*
X124161D01*
X122828D01*
Y27497D01*
X121495Y26164D01*
X128159Y27497D02*
X133491D01*
Y26164D01*
X128159Y20833D01*
Y19500D01*
X136157D02*
X138822D01*
X137490D01*
Y27497D01*
X136157Y26164D01*
X148153Y19500D02*
X142821D01*
X148153Y24832D01*
Y26164D01*
X146820Y27497D01*
X144154D01*
X142821Y26164D01*
X150819D02*
X152152Y27497D01*
X154817D01*
X156150Y26164D01*
Y20833D01*
X154817Y19500D01*
X152152D01*
X150819Y20833D01*
Y26164D01*
X158816D02*
X160149Y27497D01*
X162815D01*
X164148Y26164D01*
Y24832D01*
X162815Y23499D01*
X161482D01*
X162815D01*
X164148Y22166D01*
Y20833D01*
X162815Y19500D01*
X160149D01*
X158816Y20833D01*
X110500Y58500D02*
Y63832D01*
X111833D01*
X113166Y62499D01*
Y58500D01*
Y62499D01*
X114499Y63832D01*
X115832Y62499D01*
Y58500D01*
X118497D02*
X121163D01*
X119830D01*
Y63832D01*
X118497D01*
X125162Y58500D02*
Y63832D01*
X129161D01*
X130493Y62499D01*
Y58500D01*
X133159D02*
X135825D01*
X134492D01*
Y63832D01*
X133159D01*
X139824Y62499D02*
X145155D01*
X153153Y66497D02*
X147821D01*
Y58500D01*
X153153D01*
X147821Y62499D02*
X150487D01*
X155819Y66497D02*
X161150D01*
X158484D01*
Y58500D01*
X60329Y46665D02*
X58996Y47997D01*
X56330D01*
X54997Y46665D01*
Y41333D01*
X56330Y40000D01*
X58996D01*
X60329Y41333D01*
X62995Y47997D02*
Y41333D01*
X64328Y40000D01*
X66993D01*
X68326Y41333D01*
Y47997D01*
X70992D02*
X73658D01*
X72325D01*
Y40000D01*
X70992D01*
X73658D01*
X77657Y47997D02*
X82988D01*
Y46665D01*
X77657Y41333D01*
Y40000D01*
X82988D01*
X85654Y47997D02*
X88320D01*
X86987D01*
Y40000D01*
X85654D01*
X88320D01*
X97650Y41333D02*
Y46665D01*
X96317Y47997D01*
X93652D01*
X92319Y46665D01*
Y41333D01*
X93652Y40000D01*
X96317D01*
X94985Y42666D02*
X97650Y40000D01*
X96317D02*
X97650Y41333D01*
X100316Y47997D02*
X102982D01*
X101649D01*
Y40000D01*
X100316D01*
X102982D01*
X106981D02*
Y45332D01*
X109646Y47997D01*
X112312Y45332D01*
Y40000D01*
Y43999D01*
X106981D01*
X114978Y40000D02*
Y47997D01*
X120310Y40000D01*
Y47997D01*
X128307Y46665D02*
X126974Y47997D01*
X124308D01*
X122975Y46665D01*
Y41333D01*
X124308Y40000D01*
X126974D01*
X128307Y41333D01*
Y43999D01*
X125641D01*
X134971Y42666D02*
Y43999D01*
X133639D01*
Y42666D01*
X134971D01*
X136304Y43999D01*
Y46665D01*
X134971Y47997D01*
X132306D01*
X130973Y46665D01*
Y41333D01*
X132306Y40000D01*
X136304D01*
X138970Y47997D02*
X144302D01*
X141636D01*
Y40000D01*
X152299Y47997D02*
X149633D01*
X150966D01*
Y41333D01*
X149633Y40000D01*
X148301D01*
X146968Y41333D01*
X154965Y47997D02*
Y41333D01*
X156298Y40000D01*
X158964D01*
X160297Y41333D01*
Y47997D01*
X162962Y40000D02*
Y41333D01*
X164295D01*
Y40000D01*
X162962D01*
X174959Y47997D02*
X169627D01*
Y40000D01*
X174959D01*
X169627Y43999D02*
X172293D01*
X177624Y47997D02*
Y40000D01*
X181623D01*
X182956Y41333D01*
Y46665D01*
X181623Y47997D01*
X177624D01*
X185622D02*
Y41333D01*
X186955Y40000D01*
X189620D01*
X190953Y41333D01*
Y47997D01*
X193619Y40000D02*
Y41333D01*
X194952D01*
Y40000D01*
X193619D01*
X205615Y46665D02*
X204282Y47997D01*
X201617D01*
X200284Y46665D01*
Y41333D01*
X201617Y40000D01*
X204282D01*
X205615Y41333D01*
X208281Y40000D02*
Y47997D01*
X213613Y40000D01*
Y47997D01*
D63*
X471925Y365606D02*
X472386Y364493D01*
X473500Y364032D01*
X478500Y364032D02*
X479614Y364493D01*
X480075Y365606D01*
X480075Y376394D02*
X479614Y377507D01*
X478500Y377969D01*
X473500Y377969D02*
X472386Y377507D01*
X471925Y376394D01*
X525425Y91102D02*
X525886Y89989D01*
X527000Y89527D01*
X532000Y89527D02*
X533114Y89989D01*
X533575Y91102D01*
X533575Y101890D02*
X533114Y103003D01*
X532000Y103465D01*
X527000Y103465D02*
X525886Y103003D01*
X525425Y101890D01*
X523575Y101890D02*
X523114Y103003D01*
X522000Y103465D01*
X517000Y103465D02*
X515886Y103003D01*
X515425Y101890D01*
X515425Y91102D02*
X515886Y89989D01*
X517000Y89527D01*
X522000Y89527D02*
X523114Y89989D01*
X523575Y91102D01*
X503575Y101890D02*
X503114Y103003D01*
X502000Y103465D01*
X497000Y103465D02*
X495886Y103003D01*
X495425Y101890D01*
X495425Y91102D02*
X495886Y89989D01*
X497000Y89528D01*
X502000Y89528D02*
X503114Y89989D01*
X503575Y91102D01*
X493075Y89394D02*
X492614Y90507D01*
X491500Y90969D01*
X486500Y90969D02*
X485386Y90507D01*
X484925Y89394D01*
X484925Y78606D02*
X485386Y77493D01*
X486500Y77031D01*
X491500Y77031D02*
X492614Y77493D01*
X493075Y78606D01*
X466394Y17925D02*
X467507Y18386D01*
X467969Y19500D01*
X467969Y24500D02*
X467507Y25614D01*
X466394Y26075D01*
X455606Y26075D02*
X454493Y25613D01*
X454032Y24500D01*
X454032Y19500D02*
X454493Y18386D01*
X455606Y17925D01*
X430425Y42106D02*
X430886Y40993D01*
X432000Y40532D01*
X437000Y40532D02*
X438114Y40993D01*
X438575Y42106D01*
X438575Y52894D02*
X438114Y54007D01*
X437000Y54469D01*
X432000Y54469D02*
X430886Y54007D01*
X430425Y52894D01*
X420425Y24606D02*
X420886Y23493D01*
X422000Y23031D01*
X427000Y23031D02*
X428114Y23493D01*
X428575Y24606D01*
X428575Y35394D02*
X428114Y36507D01*
X427000Y36968D01*
X422000Y36968D02*
X420886Y36507D01*
X420425Y35394D01*
X393575Y22894D02*
X393114Y24007D01*
X392000Y24468D01*
X387000Y24468D02*
X385886Y24007D01*
X385425Y22894D01*
X385425Y12106D02*
X385887Y10993D01*
X387000Y10531D01*
X392000Y10531D02*
X393114Y10993D01*
X393575Y12106D01*
X289894Y185925D02*
X291007Y186386D01*
X291469Y187500D01*
X291469Y192500D02*
X291007Y193614D01*
X289894Y194075D01*
X279106Y194075D02*
X277993Y193614D01*
X277532Y192500D01*
X277532Y187500D02*
X277993Y186386D01*
X279106Y185925D01*
X291075Y180394D02*
X290614Y181507D01*
X289500Y181968D01*
X284500Y181968D02*
X283386Y181507D01*
X282925Y180394D01*
X282925Y169606D02*
X283386Y168493D01*
X284500Y168032D01*
X289500Y168032D02*
X290614Y168493D01*
X291075Y169606D01*
X302965Y180394D02*
X302503Y181507D01*
X301390Y181968D01*
X296390Y181968D02*
X295276Y181507D01*
X294815Y180394D01*
X294815Y169606D02*
X295276Y168493D01*
X296390Y168032D01*
X301390Y168032D02*
X302503Y168493D01*
X302965Y169606D01*
X301390Y153425D02*
X302503Y153886D01*
X302965Y155000D01*
X302965Y160000D02*
X302503Y161114D01*
X301390Y161575D01*
X290602Y161575D02*
X289489Y161114D01*
X289028Y160000D01*
X289028Y155000D02*
X289489Y153886D01*
X290602Y153425D01*
X346606Y116181D02*
X345493Y115720D01*
X345031Y114606D01*
X345031Y109606D02*
X345493Y108493D01*
X346606Y108031D01*
X357394Y108031D02*
X358507Y108493D01*
X358968Y109606D01*
X358968Y114606D02*
X358507Y115720D01*
X357394Y116181D01*
X342394Y108031D02*
X343507Y108493D01*
X343969Y109606D01*
X343969Y114606D02*
X343507Y115720D01*
X342394Y116181D01*
X331606Y116181D02*
X330493Y115720D01*
X330031Y114606D01*
X330031Y109606D02*
X330493Y108493D01*
X331606Y108031D01*
X388575Y120394D02*
X388114Y121507D01*
X387000Y121968D01*
X382000Y121968D02*
X380886Y121507D01*
X380425Y120394D01*
X380425Y109606D02*
X380887Y108493D01*
X382000Y108031D01*
X387000Y108031D02*
X388114Y108493D01*
X388575Y109606D01*
X428575Y120394D02*
X428114Y121507D01*
X427000Y121968D01*
X422000Y121968D02*
X420886Y121507D01*
X420425Y120394D01*
X420425Y109606D02*
X420886Y108493D01*
X422000Y108031D01*
X427000Y108031D02*
X428114Y108493D01*
X428575Y109606D01*
Y101890D02*
X428114Y103003D01*
X427000Y103465D01*
X422000Y103465D02*
X420886Y103003D01*
X420425Y101890D01*
X420425Y91102D02*
X420886Y89989D01*
X422000Y89528D01*
X427000Y89528D02*
X428114Y89989D01*
X428575Y91102D01*
X370425D02*
X370886Y89989D01*
X372000Y89528D01*
X377000Y89528D02*
X378114Y89989D01*
X378575Y91102D01*
X378575Y101890D02*
X378114Y103003D01*
X377000Y103465D01*
X372000Y103465D02*
X370886Y103003D01*
X370425Y101890D01*
X418575Y180394D02*
X418114Y181507D01*
X417000Y181968D01*
X412000Y181968D02*
X410886Y181507D01*
X410425Y180394D01*
X410425Y169606D02*
X410886Y168493D01*
X412000Y168032D01*
X417000Y168032D02*
X418114Y168493D01*
X418575Y169606D01*
X408575Y180394D02*
X408114Y181507D01*
X407000Y181968D01*
X402000Y181968D02*
X400886Y181507D01*
X400425Y180394D01*
X400425Y169606D02*
X400886Y168493D01*
X402000Y168032D01*
X407000Y168032D02*
X408114Y168493D01*
X408575Y169606D01*
X398394Y173925D02*
X399507Y174386D01*
X399969Y175500D01*
X399969Y180500D02*
X399507Y181614D01*
X398394Y182075D01*
X387606Y182075D02*
X386493Y181614D01*
X386032Y180500D01*
X386032Y175500D02*
X386493Y174386D01*
X387606Y173925D01*
X437000Y163031D02*
X438114Y163493D01*
X438575Y164606D01*
X438575Y169606D02*
X438114Y170720D01*
X437000Y171181D01*
X426213Y171181D02*
X425099Y170720D01*
X424638Y169606D01*
X424638Y164606D02*
X425099Y163493D01*
X426213Y163031D01*
Y181575D02*
X425099Y181114D01*
X424638Y180000D01*
X424638Y175000D02*
X425099Y173886D01*
X426213Y173425D01*
X437000Y173425D02*
X438114Y173886D01*
X438575Y175000D01*
X438575Y180000D02*
X438114Y181114D01*
X437000Y181575D01*
X517925Y164606D02*
X518386Y163493D01*
X519500Y163031D01*
X524500Y163031D02*
X525614Y163493D01*
X526075Y164606D01*
X526075Y175394D02*
X525614Y176507D01*
X524500Y176969D01*
X519500Y176969D02*
X518386Y176507D01*
X517925Y175394D01*
X430925Y246606D02*
X431386Y245493D01*
X432500Y245031D01*
X437500Y245031D02*
X438614Y245493D01*
X439075Y246606D01*
X439075Y257394D02*
X438614Y258507D01*
X437500Y258968D01*
X432500Y258968D02*
X431386Y258507D01*
X430925Y257394D01*
X428075Y250394D02*
X427614Y251507D01*
X426500Y251969D01*
X421500Y251969D02*
X420386Y251507D01*
X419925Y250394D01*
X419925Y239606D02*
X420386Y238493D01*
X421500Y238032D01*
X426500Y238032D02*
X427614Y238493D01*
X428075Y239606D01*
X464606Y253181D02*
X463493Y252720D01*
X463031Y251606D01*
X463031Y246606D02*
X463493Y245493D01*
X464606Y245031D01*
X475394Y245031D02*
X476507Y245493D01*
X476968Y246606D01*
X476968Y251606D02*
X476507Y252720D01*
X475394Y253181D01*
X233075Y371394D02*
X232614Y372507D01*
X231500Y372969D01*
X226500Y372969D02*
X225386Y372507D01*
X224925Y371394D01*
X224925Y360606D02*
X225387Y359493D01*
X226500Y359032D01*
X231500Y359032D02*
X232614Y359493D01*
X233075Y360606D01*
X223075Y371394D02*
X222614Y372507D01*
X221500Y372969D01*
X216500Y372969D02*
X215386Y372507D01*
X214925Y371394D01*
X214925Y360606D02*
X215387Y359493D01*
X216500Y359032D01*
X221500Y359032D02*
X222614Y359493D01*
X223075Y360606D01*
X529087Y25000D02*
X529018Y25986D01*
X528812Y26953D01*
X528474Y27882D01*
X528010Y28755D01*
X527429Y29555D01*
X526742Y30266D01*
X525963Y30875D01*
X525107Y31369D01*
X524190Y31740D01*
X523231Y31979D01*
X522247Y32082D01*
X521259Y32048D01*
X520286Y31876D01*
X519345Y31571D01*
X518457Y31137D01*
X517637Y30584D01*
X516902Y29923D01*
X516267Y29165D01*
X515743Y28327D01*
X515341Y27424D01*
X515068Y26473D01*
X514931Y25494D01*
Y24506D01*
X515068Y23527D01*
X515341Y22576D01*
X515743Y21673D01*
X516267Y20835D01*
X516902Y20077D01*
X517637Y19416D01*
X518457Y18863D01*
X519345Y18429D01*
X520286Y18124D01*
X521259Y17952D01*
X522247Y17918D01*
X523231Y18021D01*
X524190Y18260D01*
X525107Y18631D01*
X525963Y19125D01*
X526742Y19734D01*
X527429Y20445D01*
X528010Y21245D01*
X528474Y22118D01*
X528812Y23047D01*
X529018Y24014D01*
X529087Y25000D01*
X428575Y67894D02*
X428114Y69007D01*
X427000Y69468D01*
X422000Y69468D02*
X420886Y69007D01*
X420425Y67894D01*
X420425Y57106D02*
X420886Y55993D01*
X422000Y55532D01*
X427000Y55532D02*
X428114Y55993D01*
X428575Y57106D01*
X493575Y62894D02*
X493114Y64007D01*
X492000Y64468D01*
X487000Y64468D02*
X485886Y64007D01*
X485425Y62894D01*
X485425Y52106D02*
X485886Y50993D01*
X487000Y50532D01*
X492000Y50532D02*
X493114Y50993D01*
X493575Y52106D01*
X495898Y159925D02*
X497011Y160386D01*
X497472Y161500D01*
X497472Y166500D02*
X497011Y167614D01*
X495898Y168075D01*
X485110Y168075D02*
X483997Y167614D01*
X483535Y166500D01*
X483535Y161500D02*
X483997Y160386D01*
X485110Y159925D01*
X525925Y60102D02*
X526386Y58989D01*
X527500Y58527D01*
X532500Y58527D02*
X533614Y58989D01*
X534075Y60102D01*
X534075Y70890D02*
X533614Y72003D01*
X532500Y72465D01*
X527500Y72465D02*
X526386Y72003D01*
X525925Y70890D01*
X523610Y154075D02*
X522497Y153614D01*
X522035Y152500D01*
X522035Y147500D02*
X522497Y146386D01*
X523610Y145925D01*
X534398Y145925D02*
X535511Y146386D01*
X535972Y147500D01*
X535972Y152500D02*
X535511Y153614D01*
X534398Y154075D01*
X471925Y333606D02*
X472386Y332493D01*
X473500Y332031D01*
X478500Y332031D02*
X479614Y332493D01*
X480075Y333606D01*
X480075Y344394D02*
X479614Y345507D01*
X478500Y345969D01*
X473500Y345969D02*
X472386Y345507D01*
X471925Y344394D01*
X173925Y357606D02*
X174386Y356493D01*
X175500Y356031D01*
X180500Y356031D02*
X181614Y356493D01*
X182075Y357606D01*
X182075Y368394D02*
X181614Y369507D01*
X180500Y369969D01*
X175500Y369969D02*
X174386Y369507D01*
X173925Y368394D01*
X440925Y246606D02*
X441386Y245493D01*
X442500Y245031D01*
X447500Y245031D02*
X448614Y245493D01*
X449075Y246606D01*
X449075Y257394D02*
X448614Y258507D01*
X447500Y258968D01*
X442500Y258968D02*
X441386Y258507D01*
X440925Y257394D01*
X339106Y126575D02*
X337993Y126114D01*
X337531Y125000D01*
X337531Y120000D02*
X337993Y118886D01*
X339106Y118425D01*
X349894Y118425D02*
X351007Y118886D01*
X351468Y120000D01*
X351468Y125000D02*
X351007Y126114D01*
X349894Y126575D01*
X313575Y158287D02*
X313114Y159401D01*
X312000Y159862D01*
X307000Y159862D02*
X305886Y159401D01*
X305425Y158287D01*
X305425Y147500D02*
X305887Y146386D01*
X307000Y145925D01*
X312000Y145925D02*
X313114Y146386D01*
X313575Y147500D01*
X245394Y104509D02*
X246507Y104970D01*
X246969Y106084D01*
X246969Y111083D02*
X246507Y112197D01*
X245394Y112658D01*
X234606Y112658D02*
X233493Y112197D01*
X233032Y111083D01*
X233032Y106084D02*
X233493Y104970D01*
X234606Y104509D01*
X243102Y204075D02*
X241989Y203614D01*
X241528Y202500D01*
X241528Y197500D02*
X241989Y196386D01*
X243102Y195925D01*
X253890Y195925D02*
X255003Y196386D01*
X255465Y197500D01*
X255465Y202500D02*
X255003Y203614D01*
X253890Y204075D01*
X350425Y39606D02*
X350886Y38493D01*
X352000Y38032D01*
X357000Y38032D02*
X358114Y38493D01*
X358575Y39606D01*
X358575Y50394D02*
X358114Y51507D01*
X357000Y51968D01*
X352000Y51968D02*
X350886Y51507D01*
X350425Y50394D01*
X517925Y299606D02*
X518386Y298493D01*
X519500Y298031D01*
X524500Y298031D02*
X525614Y298493D01*
X526075Y299606D01*
X526075Y310394D02*
X525614Y311507D01*
X524500Y311968D01*
X519500Y311968D02*
X518386Y311507D01*
X517925Y310394D01*
Y254606D02*
X518386Y253493D01*
X519500Y253031D01*
X524500Y253031D02*
X525614Y253493D01*
X526075Y254606D01*
X526075Y265394D02*
X525614Y266507D01*
X524500Y266968D01*
X519500Y266968D02*
X518386Y266507D01*
X517925Y265394D01*
Y209110D02*
X518386Y207997D01*
X519500Y207535D01*
X524500Y207535D02*
X525614Y207997D01*
X526075Y209110D01*
X526075Y219898D02*
X525614Y221011D01*
X524500Y221472D01*
X519500Y221472D02*
X518386Y221011D01*
X517925Y219898D01*
X408394Y61925D02*
X409507Y62386D01*
X409969Y63500D01*
X409969Y68500D02*
X409507Y69614D01*
X408394Y70075D01*
X397606Y70075D02*
X396493Y69613D01*
X396031Y68500D01*
X396031Y63500D02*
X396493Y62386D01*
X397606Y61925D01*
X501842Y359488D02*
Y370512D01*
X482158Y359488D02*
Y370512D01*
X473500Y364032D02*
X478500D01*
X480075Y365606D02*
Y369228D01*
X473500Y377969D02*
X478500D01*
X480075Y372772D02*
Y376394D01*
X471925Y372772D02*
Y376394D01*
Y365606D02*
Y369228D01*
X19000Y336000D02*
X39000D01*
X19000Y296000D02*
X39000D01*
X19000D02*
Y336000D01*
X39000Y296000D02*
Y336000D01*
X19000Y287000D02*
X29000D01*
X19000Y227000D02*
X29000D01*
X19000D02*
Y287000D01*
X29000Y227000D02*
Y287000D01*
X526158Y121457D02*
Y128543D01*
X545843Y121457D02*
Y128543D01*
X526158Y121457D02*
X545843D01*
X526158Y128543D02*
X545843D01*
X527000Y89527D02*
X532000D01*
X533575Y91102D02*
Y94724D01*
X527000Y103465D02*
X532000D01*
X533575Y98268D02*
Y101890D01*
X525425Y98268D02*
Y101890D01*
Y91102D02*
Y94724D01*
X513575Y112772D02*
Y117968D01*
Y104032D02*
Y109228D01*
X505425Y104032D02*
Y109228D01*
Y112772D02*
Y117968D01*
X513575D01*
X505425Y104032D02*
X513575D01*
X517000Y103465D02*
X522000D01*
X515425Y101890D02*
X515425Y98268D01*
X517000Y89527D02*
X522000D01*
X515425Y91102D02*
X515425Y94724D01*
X523575Y91102D02*
Y94724D01*
Y98268D02*
Y101890D01*
X502157Y66457D02*
Y73543D01*
X521842Y66457D02*
Y73543D01*
X502157Y66457D02*
X521842D01*
X502157Y73543D02*
X521842D01*
X513575Y98268D02*
Y103465D01*
Y89528D02*
Y94724D01*
X505425Y89528D02*
Y94724D01*
Y98268D02*
Y103465D01*
X513575D01*
X505425Y89528D02*
X513575D01*
X497000Y103465D02*
X502000D01*
X495425Y98268D02*
Y101890D01*
X497000Y89528D02*
X502000D01*
X495425Y91102D02*
Y94724D01*
X503575Y91102D02*
Y94724D01*
Y98268D02*
Y101890D01*
X483575Y98268D02*
Y103465D01*
Y89528D02*
Y94725D01*
X475425Y89528D02*
Y94725D01*
Y98268D02*
Y103465D01*
X483575D01*
X475425Y89528D02*
X483575D01*
X473575Y98268D02*
Y103465D01*
Y89528D02*
Y94725D01*
X465425Y89528D02*
Y94725D01*
Y98268D02*
Y103465D01*
X473575D01*
X465425Y89528D02*
X473575D01*
X486500Y90969D02*
X491500D01*
X484925Y85772D02*
Y89394D01*
X486500Y77031D02*
X491500D01*
X484925Y78606D02*
Y82228D01*
X493075Y78606D02*
Y82228D01*
Y85772D02*
Y89394D01*
X483075Y78772D02*
Y83969D01*
Y70031D02*
Y75228D01*
X474925Y70031D02*
Y75228D01*
Y78772D02*
Y83969D01*
X483075D01*
X474925Y70031D02*
X483075D01*
X467969Y19500D02*
Y24500D01*
X462772Y26075D02*
X466394D01*
X454032Y19500D02*
Y24500D01*
X455606Y26075D02*
X459228D01*
X455606Y17925D02*
X459228D01*
X462772D02*
X466394D01*
X463457Y30158D02*
X470543D01*
X463457Y49843D02*
X470543D01*
Y30158D02*
Y49843D01*
X463457Y30158D02*
Y49843D01*
X430425Y69468D02*
X438575D01*
X430425Y55532D02*
X438575D01*
Y60728D01*
Y64272D02*
Y69468D01*
X430425Y64272D02*
Y69468D01*
Y55532D02*
Y60728D01*
X432000Y40532D02*
X437000D01*
X438575Y42106D02*
Y45728D01*
X432000Y54469D02*
X437000D01*
X438575Y49272D02*
Y52894D01*
X430425Y49272D02*
Y52894D01*
Y42106D02*
Y45728D01*
X422000Y23031D02*
X427000D01*
X428575Y24606D02*
Y28228D01*
X422000Y36968D02*
X427000D01*
X428575Y31772D02*
Y35394D01*
X420425Y31772D02*
Y35394D01*
Y24606D02*
Y28228D01*
X387000Y24468D02*
X392000D01*
X385425Y19272D02*
Y22894D01*
X387000Y10531D02*
X392000D01*
X385425Y12106D02*
Y15728D01*
X393575Y12106D02*
Y15728D01*
Y19272D02*
Y22894D01*
X403575Y19272D02*
Y24468D01*
Y10531D02*
Y15728D01*
X395425Y10531D02*
Y15728D01*
Y19272D02*
Y24468D01*
X403575D01*
X395425Y10531D02*
X403575D01*
X405425Y24468D02*
X413575D01*
X405425Y10531D02*
X413575D01*
Y15728D01*
Y19272D02*
Y24468D01*
X405425Y19272D02*
Y24468D01*
Y10531D02*
Y15728D01*
X378575Y31772D02*
Y36968D01*
Y23031D02*
Y28228D01*
X370425Y23031D02*
Y28228D01*
Y31772D02*
Y36968D01*
X378575D01*
X370425Y23031D02*
X378575D01*
X360425D02*
Y28228D01*
Y31772D02*
Y36968D01*
X368575Y31772D02*
Y36968D01*
Y23031D02*
Y28228D01*
X360425Y23031D02*
X368575D01*
X360425Y36968D02*
X368575D01*
X339756Y21595D02*
Y24744D01*
X336606Y21595D02*
X339756D01*
Y30256D02*
Y33406D01*
X336606D02*
X339756D01*
X350425Y15531D02*
Y20728D01*
Y24272D02*
Y29469D01*
X358575Y24272D02*
Y29469D01*
Y15531D02*
Y20728D01*
X350425Y15531D02*
X358575D01*
X350425Y29469D02*
X358575D01*
X267032Y63681D02*
X272228D01*
X275772D02*
X280968D01*
X275772Y55532D02*
X280968D01*
X267032D02*
X272228D01*
X267032D02*
Y63681D01*
X280968Y55532D02*
Y63681D01*
X249528D02*
X254724D01*
X258268D02*
X263465D01*
X258268Y55532D02*
X263465D01*
X249528D02*
X254724D01*
X249528D02*
Y63681D01*
X263465Y55532D02*
Y63681D01*
X248811Y42094D02*
X275189D01*
X248811Y31071D02*
X275189D01*
Y42094D01*
X248811Y31071D02*
Y42094D01*
X291469Y187500D02*
Y192500D01*
X286272Y194075D02*
X289894D01*
X277532Y187500D02*
Y192500D01*
X279106Y194075D02*
X282728D01*
X279106Y185925D02*
X282728D01*
X286272D02*
X289894D01*
X284500Y181968D02*
X289500D01*
X282925Y176772D02*
Y180394D01*
X284500Y168032D02*
X289500D01*
X282925Y169606D02*
Y173228D01*
X291075Y169606D02*
Y173228D01*
Y176772D02*
Y180394D01*
X296390Y181968D02*
X301390D01*
X294815Y176772D02*
Y180394D01*
X296390Y168032D02*
X301390D01*
X294815Y169606D02*
Y173228D01*
X302965Y169606D02*
Y173228D01*
Y176772D02*
Y180394D01*
X302965Y155000D02*
Y160000D01*
X297768Y161575D02*
X301390D01*
X289028Y155000D02*
Y160000D01*
X290602Y161575D02*
X294224D01*
X290602Y153425D02*
X294224D01*
X297768D02*
X301390D01*
X345031Y109606D02*
Y114606D01*
X346606Y108031D02*
X350228D01*
X358968Y109606D02*
Y114606D01*
X353772Y108031D02*
X357394D01*
X353772Y116181D02*
X357394D01*
X346606D02*
X350228D01*
X343969Y109606D02*
Y114606D01*
X338772Y116181D02*
X342394D01*
X330031Y109606D02*
Y114606D01*
X331606Y116181D02*
X335228D01*
X331606Y108031D02*
X335228D01*
X338772D02*
X342394D01*
X370425D02*
X378575D01*
X370425Y121968D02*
X378575D01*
X370425Y116772D02*
Y121968D01*
Y108031D02*
Y113228D01*
X378575Y108031D02*
Y113228D01*
Y116772D02*
Y121968D01*
X382000Y121968D02*
X387000D01*
X380425Y116772D02*
Y120394D01*
X382000Y108031D02*
X387000D01*
X380425Y109606D02*
Y113228D01*
X388575Y109606D02*
Y113228D01*
Y116772D02*
Y120394D01*
X390425Y108031D02*
Y113228D01*
Y116772D02*
Y121968D01*
X398575Y116772D02*
Y121968D01*
Y108031D02*
Y113228D01*
X390425Y108031D02*
X398575D01*
X390425Y121968D02*
X398575D01*
X400425Y108031D02*
Y113228D01*
Y116772D02*
Y121968D01*
X408575Y116772D02*
Y121968D01*
Y108031D02*
Y113228D01*
X400425Y108031D02*
X408575D01*
X400425Y121968D02*
X408575D01*
X410425Y108031D02*
X418575D01*
X410425Y121968D02*
X418575D01*
X410425Y116772D02*
Y121968D01*
Y108031D02*
Y113228D01*
X418575Y108031D02*
Y113228D01*
Y116772D02*
Y121968D01*
X422000Y121968D02*
X427000D01*
X420425Y116772D02*
Y120394D01*
X422000Y108031D02*
X427000D01*
X420425Y109606D02*
Y113228D01*
X428575Y109606D02*
Y113228D01*
Y116772D02*
Y120394D01*
X422000Y103465D02*
X427000D01*
X420425Y98268D02*
Y101890D01*
X422000Y89528D02*
X427000D01*
X420425Y91102D02*
Y94724D01*
X428575Y91102D02*
Y94724D01*
Y98268D02*
Y101890D01*
X372000Y89528D02*
X377000D01*
X378575Y91102D02*
Y94724D01*
X372000Y103465D02*
X377000D01*
X378575Y98268D02*
Y101890D01*
X370425Y98268D02*
Y101890D01*
Y91102D02*
Y94724D01*
X412000Y181968D02*
X417000D01*
X410425Y176772D02*
Y180394D01*
X412000Y168032D02*
X417000D01*
X410425Y169606D02*
Y173228D01*
X418575Y169606D02*
Y173228D01*
Y176772D02*
Y180394D01*
X402000Y181968D02*
X407000D01*
X400425Y176772D02*
Y180394D01*
X402000Y168032D02*
X407000D01*
X400425Y169606D02*
Y173228D01*
X408575Y169606D02*
Y173228D01*
Y176772D02*
Y180394D01*
X399969Y175500D02*
Y180500D01*
X394772Y182075D02*
X398394D01*
X386032Y175500D02*
Y180500D01*
X387606Y182075D02*
X391228D01*
X387606Y173925D02*
X391228D01*
X394772D02*
X398394D01*
X438575Y164606D02*
Y169606D01*
X433378Y171181D02*
X437000D01*
X424638Y164606D02*
Y169606D01*
X426213Y171181D02*
X429835D01*
X426213Y163031D02*
X429835D01*
X433378D02*
X437000D01*
X424638Y175000D02*
Y180000D01*
X426213Y173425D02*
X429835D01*
X438575Y175000D02*
Y180000D01*
X433378Y173425D02*
X437000D01*
X433378Y181575D02*
X437000D01*
X426213D02*
X429835D01*
X430425Y159862D02*
X438575D01*
X430425Y145925D02*
X438575D01*
Y151122D01*
Y154665D02*
Y159862D01*
X430425Y154665D02*
Y159862D01*
Y145925D02*
Y151122D01*
X428575Y154665D02*
Y159862D01*
Y145925D02*
Y151122D01*
X420425Y145925D02*
Y151122D01*
Y154665D02*
Y159862D01*
X428575D01*
X420425Y145925D02*
X428575D01*
X519500Y163031D02*
X524500D01*
X526075Y164606D02*
Y168228D01*
X519500Y176969D02*
X524500D01*
X526075Y171772D02*
Y175394D01*
X517925Y171772D02*
Y175394D01*
Y164606D02*
Y168228D01*
X432500Y245031D02*
X437500D01*
X439075Y246606D02*
Y250228D01*
X432500Y258968D02*
X437500D01*
X439075Y253772D02*
Y257394D01*
X430925Y253772D02*
Y257394D01*
Y246606D02*
Y250228D01*
X421500Y251969D02*
X426500D01*
X419925Y246772D02*
Y250394D01*
X421500Y238032D02*
X426500D01*
X419925Y239606D02*
Y243228D01*
X428075Y239606D02*
Y243228D01*
Y246772D02*
Y250394D01*
X463031Y246606D02*
Y251606D01*
X464606Y245031D02*
X468228D01*
X476968Y246606D02*
Y251606D01*
X471772Y245031D02*
X475394D01*
X471772Y253181D02*
X475394D01*
X464606D02*
X468228D01*
X546500Y351000D02*
Y359000D01*
X522500Y351000D02*
X546500D01*
X522500D02*
Y359000D01*
X546500D01*
Y355000D02*
X550500D01*
X518500D02*
X522500D01*
X546500Y361000D02*
Y369000D01*
X522500Y361000D02*
X546500D01*
X522500D02*
Y369000D01*
X546500D01*
Y365000D02*
X550500D01*
X518500D02*
X522500D01*
X546500Y371000D02*
Y379000D01*
X522500Y371000D02*
X546500D01*
X522500D02*
Y379000D01*
X546500D01*
Y375000D02*
X550500D01*
X518500D02*
X522500D01*
X226500Y372969D02*
X231500D01*
X224925Y367772D02*
Y371394D01*
X226500Y359032D02*
X231500D01*
X224925Y360606D02*
Y364228D01*
X233075Y360606D02*
Y364228D01*
Y367772D02*
Y371394D01*
X216500Y372969D02*
X221500D01*
X214925Y367772D02*
Y371394D01*
X216500Y359032D02*
X221500D01*
X214925Y360606D02*
Y364228D01*
X223075Y360606D02*
Y364228D01*
Y367772D02*
Y371394D01*
X53031Y305075D02*
X58228D01*
X61772D02*
X66969D01*
X61772Y296925D02*
X66969D01*
X53031D02*
X58228D01*
X53031D02*
Y305075D01*
X66969Y296925D02*
Y305075D01*
X61772Y306925D02*
X66969D01*
X53031D02*
X58228D01*
X53031Y315075D02*
X58228D01*
X61772D02*
X66969D01*
Y306925D02*
Y315075D01*
X53031Y306925D02*
Y315075D01*
Y335075D02*
X58228D01*
X61772D02*
X66969D01*
X61772Y326925D02*
X66969D01*
X53031D02*
X58228D01*
X53031D02*
Y335075D01*
X66969Y326925D02*
Y335075D01*
X53031Y325075D02*
X58228D01*
X61772D02*
X66969D01*
X61772Y316925D02*
X66969D01*
X53031D02*
X58228D01*
X53031D02*
Y325075D01*
X66969Y316925D02*
Y325075D01*
X214925Y323031D02*
X223075D01*
X214925Y336968D02*
X223075D01*
X214925Y331772D02*
Y336968D01*
Y323031D02*
Y328228D01*
X223075Y323031D02*
Y328228D01*
Y331772D02*
Y336968D01*
X509598Y21063D02*
Y28937D01*
X518063Y12598D02*
X525937D01*
X534402Y21063D02*
Y28937D01*
X518063Y37402D02*
X525937D01*
X395957Y30158D02*
X403043D01*
X395957Y49843D02*
X403043D01*
Y30158D02*
Y49843D01*
X395957Y30158D02*
Y49843D01*
X232689Y122441D02*
Y193701D01*
X256311Y122441D02*
Y193701D01*
X232689D02*
X256311D01*
X232689Y122441D02*
X256311D01*
X330799Y184468D02*
X368201D01*
X330799Y147067D02*
X368201D01*
X330799D02*
Y184468D01*
X368201Y147067D02*
Y184468D01*
X455957Y137815D02*
Y177185D01*
X463043Y137815D02*
Y177185D01*
X455957D02*
X463043D01*
X455957Y137815D02*
X463043D01*
X149500Y260000D02*
X382000D01*
X142000D02*
X149500D01*
X142000Y250000D02*
Y260000D01*
Y250000D02*
X382000D01*
Y260000D01*
X142000Y310000D02*
X374500D01*
X382000D01*
Y320000D01*
X142000D02*
X382000D01*
X142000Y310000D02*
Y320000D01*
X422000Y69468D02*
X427000D01*
X420425Y64272D02*
Y67894D01*
X422000Y55532D02*
X427000D01*
X420425Y57106D02*
Y60728D01*
X428575Y57106D02*
Y60728D01*
Y64272D02*
Y67894D01*
X487000Y64468D02*
X492000D01*
X485425Y59272D02*
Y62894D01*
X487000Y50532D02*
X492000D01*
X485425Y52106D02*
Y55728D01*
X493575Y52106D02*
Y55728D01*
Y59272D02*
Y62894D01*
X497472Y161500D02*
Y166500D01*
X492276Y168075D02*
X495898D01*
X483535Y161500D02*
Y166500D01*
X485110Y168075D02*
X488732D01*
X485110Y159925D02*
X488732D01*
X492276D02*
X495898D01*
X527500Y58527D02*
X532500D01*
X534075Y60102D02*
Y63724D01*
X527500Y72465D02*
X532500D01*
X534075Y67268D02*
Y70890D01*
X525925Y67268D02*
Y70890D01*
Y60102D02*
Y63724D01*
X467842Y339488D02*
Y350512D01*
X448158Y339488D02*
Y350512D01*
X522035Y147500D02*
Y152500D01*
X523610Y145925D02*
X527232D01*
X535972Y147500D02*
Y152500D01*
X530776Y145925D02*
X534398D01*
X530776Y154075D02*
X534398D01*
X523610D02*
X527232D01*
X473500Y332031D02*
X478500D01*
X480075Y333606D02*
Y337228D01*
X473500Y345969D02*
X478500D01*
X480075Y340772D02*
Y344394D01*
X471925Y340772D02*
Y344394D01*
Y333606D02*
Y337228D01*
X175500Y356031D02*
X180500D01*
X182075Y357606D02*
Y361228D01*
X175500Y369969D02*
X180500D01*
X182075Y364772D02*
Y368394D01*
X173925Y364772D02*
Y368394D01*
Y357606D02*
Y361228D01*
X442500Y245031D02*
X447500D01*
X449075Y246606D02*
Y250228D01*
X442500Y258968D02*
X447500D01*
X449075Y253772D02*
Y257394D01*
X440925Y253772D02*
Y257394D01*
Y246606D02*
Y250228D01*
X337531Y120000D02*
Y125000D01*
X339106Y118425D02*
X342728D01*
X351468Y120000D02*
Y125000D01*
X346272Y118425D02*
X349894D01*
X346272Y126575D02*
X349894D01*
X339106D02*
X342728D01*
X307000Y159862D02*
X312000D01*
X305425Y154665D02*
Y158287D01*
X307000Y145925D02*
X312000D01*
X305425Y147500D02*
Y151122D01*
X313575Y147500D02*
Y151122D01*
Y154665D02*
Y158287D01*
X246969Y106084D02*
Y111083D01*
X241772Y112658D02*
X245394D01*
X233032Y106084D02*
Y111083D01*
X234606Y112658D02*
X238228D01*
X234606Y104509D02*
X238228D01*
X241772D02*
X245394D01*
X241528Y197500D02*
Y202500D01*
X243102Y195925D02*
X246724D01*
X255465Y197500D02*
Y202500D01*
X250268Y195925D02*
X253890D01*
X250268Y204075D02*
X253890D01*
X243102D02*
X246724D01*
X553000Y93000D02*
X561000D01*
X553000D02*
Y117000D01*
X561000D01*
Y93000D02*
Y117000D01*
X557000Y89000D02*
Y93000D01*
Y117000D02*
Y121000D01*
X563000Y93000D02*
X571000D01*
X563000D02*
Y117000D01*
X571000D01*
Y93000D02*
Y117000D01*
X567000Y89000D02*
Y93000D01*
Y117000D02*
Y121000D01*
X131000Y310000D02*
Y320000D01*
X91000Y310000D02*
X131000D01*
X91000Y320000D02*
X131000D01*
X91000Y310000D02*
Y320000D01*
X313772Y86925D02*
X318969D01*
X305031D02*
X310228D01*
X305031Y95075D02*
X310228D01*
X313772D02*
X318969D01*
Y86925D02*
Y95075D01*
X305031Y86925D02*
Y95075D01*
X485075Y302276D02*
Y307472D01*
Y293535D02*
Y298732D01*
X476925Y293535D02*
Y298732D01*
Y302276D02*
Y307472D01*
X485075D01*
X476925Y293535D02*
X485075D01*
X430925Y287535D02*
Y292732D01*
Y296276D02*
Y301472D01*
X439075Y296276D02*
Y301472D01*
Y287535D02*
Y292732D01*
X430925Y287535D02*
X439075D01*
X430925Y301472D02*
X439075D01*
X459638Y116181D02*
X464835D01*
X468378D02*
X473575D01*
X468378Y108031D02*
X473575D01*
X459638D02*
X464835D01*
X459638D02*
Y116181D01*
X473575Y108031D02*
Y116181D01*
X485425Y108031D02*
Y113228D01*
Y116772D02*
Y121968D01*
X493575Y116772D02*
Y121968D01*
Y108031D02*
Y113228D01*
X485425Y108031D02*
X493575D01*
X485425Y121968D02*
X493575D01*
X404028Y145925D02*
Y154075D01*
X417965Y145925D02*
Y154075D01*
X412768D02*
X417965D01*
X404028D02*
X409224D01*
X404028Y145925D02*
X409224D01*
X412768D02*
X417965D01*
X430425Y84469D02*
X438575D01*
X430425Y70531D02*
X438575D01*
Y75728D01*
Y79272D02*
Y84469D01*
X430425Y79272D02*
Y84469D01*
Y70531D02*
Y75728D01*
X331272Y118425D02*
X336469D01*
X322532D02*
X327728D01*
X322532Y126575D02*
X327728D01*
X331272D02*
X336469D01*
Y118425D02*
Y126575D01*
X322532Y118425D02*
Y126575D01*
X272425Y131032D02*
Y136228D01*
Y139772D02*
Y144968D01*
X280575Y139772D02*
Y144968D01*
Y131032D02*
Y136228D01*
X272425Y131032D02*
X280575D01*
X272425Y144968D02*
X280575D01*
X460032Y64075D02*
X465228D01*
X468772D02*
X473969D01*
X468772Y55925D02*
X473969D01*
X460032D02*
X465228D01*
X460032D02*
Y64075D01*
X473969Y55925D02*
Y64075D01*
X403043Y75157D02*
Y94842D01*
X395957Y75157D02*
Y94842D01*
Y75157D02*
X403043D01*
X395957Y94842D02*
X403043D01*
X297374Y282323D02*
Y297677D01*
X281626Y285157D02*
Y297677D01*
X285425Y261531D02*
Y266728D01*
Y270272D02*
Y275468D01*
X293575Y270272D02*
Y275468D01*
Y261531D02*
Y266728D01*
X285425Y261531D02*
X293575D01*
X285425Y275468D02*
X293575D01*
X348575Y46772D02*
Y51968D01*
Y38032D02*
Y43228D01*
X340425Y38032D02*
Y43228D01*
Y46772D02*
Y51968D01*
X348575D01*
X340425Y38032D02*
X348575D01*
X352000Y38032D02*
X357000D01*
X358575Y39606D02*
Y43228D01*
X352000Y51968D02*
X357000D01*
X358575Y46772D02*
Y50394D01*
X350425Y46772D02*
Y50394D01*
Y39606D02*
Y43228D01*
X368575Y46772D02*
Y51968D01*
Y38032D02*
Y43228D01*
X360425Y38032D02*
Y43228D01*
Y46772D02*
Y51968D01*
X368575D01*
X360425Y38032D02*
X368575D01*
X378575Y46772D02*
Y51968D01*
Y38032D02*
Y43228D01*
X370425Y38032D02*
Y43228D01*
Y46772D02*
Y51968D01*
X378575D01*
X370425Y38032D02*
X378575D01*
X173925Y340968D02*
X182075D01*
X173925Y327031D02*
X182075D01*
Y332228D01*
Y335772D02*
Y340968D01*
X173925Y335772D02*
Y340968D01*
Y327031D02*
Y332228D01*
X519500Y298031D02*
X524500D01*
X526075Y299606D02*
Y303228D01*
X519500Y311968D02*
X524500D01*
X526075Y306772D02*
Y310394D01*
X517925Y306772D02*
Y310394D01*
Y299606D02*
Y303228D01*
X519500Y253031D02*
X524500D01*
X526075Y254606D02*
Y258228D01*
X519500Y266968D02*
X524500D01*
X526075Y261772D02*
Y265394D01*
X517925Y261772D02*
Y265394D01*
Y254606D02*
Y258228D01*
X519500Y207535D02*
X524500D01*
X526075Y209110D02*
Y212732D01*
X519500Y221472D02*
X524500D01*
X526075Y216276D02*
Y219898D01*
X517925Y216276D02*
Y219898D01*
Y209110D02*
Y212732D01*
X313075Y77772D02*
Y82968D01*
Y69032D02*
Y74228D01*
X304925Y69032D02*
Y74228D01*
Y77772D02*
Y82968D01*
X313075D01*
X304925Y69032D02*
X313075D01*
X326488Y58811D02*
Y85189D01*
X337512Y58811D02*
Y85189D01*
X326488D02*
X337512D01*
X326488Y58811D02*
X337512D01*
X409969Y63500D02*
Y68500D01*
X404772Y70075D02*
X408394D01*
X396031Y63500D02*
Y68500D01*
X397606Y70075D02*
X401228D01*
X397606Y61925D02*
X401228D01*
X404772D02*
X408394D01*
D64*
X547339Y134449D02*
X546600Y134875D01*
Y134023D01*
X547339Y134449D01*
X523339Y79449D02*
X522600Y79875D01*
Y79023D01*
X523339Y79449D01*
X458043Y50846D02*
X457305Y51273D01*
Y50420D01*
X458043Y50846D01*
X342807Y30847D02*
X342069Y31273D01*
Y30420D01*
X342807Y30847D01*
X275681Y48000D02*
X274943Y48426D01*
Y47574D01*
X275681Y48000D01*
X390543Y50846D02*
X389805Y51273D01*
Y50420D01*
X390543Y50846D01*
X227079Y193917D02*
X226341Y194343D01*
Y193491D01*
X227079Y193917D01*
X374205Y146772D02*
X373466Y147198D01*
Y146345D01*
X374205Y146772D01*
X450543Y178347D02*
X449805Y178773D01*
Y177920D01*
X450543Y178347D01*
X409441Y74154D02*
X408703Y74580D01*
Y73727D01*
X409441Y74154D01*
X281547Y282520D02*
X280809Y282946D01*
Y282094D01*
X281547Y282520D01*
X321075Y85189D02*
X320337Y85615D01*
Y84763D01*
X321075Y85189D01*
D65*
X554008Y169331D02*
X553417Y169921D01*
X552827Y169331D01*
X553417Y168740D01*
X554008Y169331D01*
Y214331D02*
X553417Y214921D01*
X552827Y214331D01*
X553417Y213740D01*
X554008Y214331D01*
X553772Y259331D02*
X553181Y259921D01*
X552591Y259331D01*
X553181Y258740D01*
X553772Y259331D01*
X554008Y304331D02*
X553417Y304921D01*
X552827Y304331D01*
X553417Y303740D01*
X554008Y304331D01*
X186992Y363929D02*
X186402Y364520D01*
X185811Y363929D01*
X186402Y363339D01*
X186992Y363929D01*
X473289Y259371D02*
X472698Y259961D01*
X472108Y259371D01*
X472698Y258780D01*
X473289Y259371D01*
D66*
X545543Y173071D02*
X544999Y173820D01*
X544119Y173534D01*
Y172608D01*
X544999Y172322D01*
X545543Y173071D01*
Y218071D02*
X544999Y218820D01*
X544119Y218534D01*
Y217608D01*
X544999Y217322D01*
X545543Y218071D01*
X545307Y263071D02*
X544763Y263820D01*
X543883Y263534D01*
Y262608D01*
X544763Y262322D01*
X545307Y263071D01*
X545543Y308071D02*
X544999Y308820D01*
X544119Y308534D01*
Y307608D01*
X544999Y307322D01*
X545543Y308071D01*
X195850Y359992D02*
X195306Y360741D01*
X194426Y360455D01*
Y359529D01*
X195306Y359243D01*
X195850Y359992D01*
X464824Y263308D02*
X464280Y264057D01*
X463400Y263771D01*
Y262845D01*
X464280Y262559D01*
X464824Y263308D01*
D67*
X237807Y189764D02*
X237362Y190687D01*
X236363Y190915D01*
X235562Y190276D01*
Y189251D01*
X236363Y188612D01*
X237362Y188840D01*
X237807Y189764D01*
X365445Y151004D02*
X365000Y151927D01*
X364001Y152155D01*
X363200Y151516D01*
Y150491D01*
X364001Y149852D01*
X365000Y150081D01*
X365445Y151004D01*
D68*
X23250Y20000D02*
X23206Y20994D01*
X23074Y21981D01*
X22856Y22952D01*
X22553Y23900D01*
X22167Y24817D01*
X21701Y25697D01*
X21160Y26532D01*
X20547Y27316D01*
X19866Y28043D01*
X19125Y28706D01*
X18327Y29302D01*
X17481Y29825D01*
X16591Y30271D01*
X15665Y30636D01*
X14711Y30918D01*
X13735Y31115D01*
X12746Y31225D01*
X11751Y31247D01*
X10758Y31181D01*
X9775Y31028D01*
X8809Y30788D01*
X7868Y30464D01*
X6959Y30057D01*
X6090Y29573D01*
X5267Y29013D01*
X4497Y28383D01*
X3785Y27687D01*
X3138Y26931D01*
X2561Y26120D01*
X2056Y25262D01*
X1630Y24363D01*
X1285Y23429D01*
X1024Y22469D01*
X849Y21489D01*
X761Y20498D01*
Y19502D01*
X849Y18511D01*
X1024Y17531D01*
X1285Y16571D01*
X1630Y15637D01*
X2056Y14738D01*
X2560Y13880D01*
X3138Y13070D01*
X3785Y12313D01*
X4497Y11618D01*
X5267Y10987D01*
X6090Y10427D01*
X6959Y9943D01*
X7868Y9536D01*
X8809Y9212D01*
X9775Y8972D01*
X10758Y8819D01*
X11751Y8753D01*
X12746Y8775D01*
X13735Y8885D01*
X14711Y9082D01*
X15665Y9364D01*
X16591Y9729D01*
X17481Y10175D01*
X18327Y10698D01*
X19125Y11294D01*
X19866Y11958D01*
X20547Y12684D01*
X21160Y13468D01*
X21701Y14303D01*
X22167Y15183D01*
X22553Y16100D01*
X22856Y17048D01*
X23074Y18019D01*
X23206Y19006D01*
X23250Y20000D01*
Y370000D02*
X23206Y370994D01*
X23074Y371981D01*
X22856Y372952D01*
X22553Y373900D01*
X22167Y374817D01*
X21701Y375697D01*
X21160Y376532D01*
X20547Y377316D01*
X19866Y378043D01*
X19125Y378706D01*
X18327Y379302D01*
X17481Y379825D01*
X16591Y380271D01*
X15665Y380636D01*
X14711Y380919D01*
X13735Y381115D01*
X12746Y381225D01*
X11751Y381247D01*
X10758Y381181D01*
X9775Y381028D01*
X8809Y380788D01*
X7868Y380464D01*
X6959Y380058D01*
X6090Y379573D01*
X5267Y379013D01*
X4497Y378382D01*
X3785Y377687D01*
X3138Y376931D01*
X2561Y376120D01*
X2056Y375262D01*
X1630Y374363D01*
X1285Y373429D01*
X1024Y372469D01*
X849Y371489D01*
X761Y370498D01*
Y369502D01*
X849Y368511D01*
X1024Y367531D01*
X1285Y366571D01*
X1630Y365637D01*
X2056Y364738D01*
X2560Y363880D01*
X3138Y363070D01*
X3785Y362313D01*
X4497Y361617D01*
X5267Y360987D01*
X6090Y360427D01*
X6959Y359943D01*
X7868Y359536D01*
X8809Y359212D01*
X9775Y358972D01*
X10758Y358819D01*
X11751Y358753D01*
X12746Y358775D01*
X13735Y358885D01*
X14711Y359082D01*
X15665Y359364D01*
X16591Y359729D01*
X17481Y360175D01*
X18327Y360698D01*
X19125Y361294D01*
X19866Y361958D01*
X20547Y362684D01*
X21160Y363468D01*
X21701Y364303D01*
X22167Y365183D01*
X22553Y366100D01*
X22856Y367048D01*
X23074Y368019D01*
X23206Y369006D01*
X23250Y370000D01*
X499657Y121658D02*
Y141343D01*
X519343Y121658D02*
Y141343D01*
X499657D02*
X501626D01*
X517374D02*
X519343D01*
X499657Y121658D02*
X504579D01*
X514421D02*
X519343D01*
X552012Y66055D02*
Y73945D01*
X571988Y66055D02*
Y73945D01*
X552012D02*
X559638D01*
X564362D02*
X571988D01*
X564362Y66055D02*
X571988D01*
X552012D02*
X559638D01*
X550295Y67638D02*
Y72362D01*
Y67638D02*
X552012Y66055D01*
X550295Y72362D02*
X552012Y73945D01*
X311862Y141705D02*
X313445Y139988D01*
X305555D02*
X307138Y141705D01*
X311862D01*
X305555Y132362D02*
Y139988D01*
Y120012D02*
Y127638D01*
X313445Y120012D02*
Y127638D01*
Y132362D02*
Y139988D01*
X305555Y120012D02*
X313445D01*
X305555Y139988D02*
X313445D01*
X354488Y98555D02*
X356205Y100138D01*
X354488Y106445D02*
X356205Y104862D01*
Y100138D02*
Y104862D01*
X346862Y106445D02*
X354488D01*
X334512D02*
X342138D01*
X334512Y98555D02*
X342138D01*
X346862D02*
X354488D01*
X334512D02*
Y106445D01*
X354488Y98555D02*
Y106445D01*
X350055Y75012D02*
X357945D01*
X350055Y94988D02*
X357945D01*
X350055Y75012D02*
Y82638D01*
Y87362D02*
Y94988D01*
X357945Y87362D02*
Y94988D01*
Y75012D02*
Y82638D01*
X351638Y73295D02*
X356362D01*
X357945Y75012D01*
X350055D02*
X351638Y73295D01*
X429988Y229055D02*
Y236945D01*
X410012Y229055D02*
Y236945D01*
X422362Y229055D02*
X429988D01*
X410012D02*
X417638D01*
X410012Y236945D02*
X417638D01*
X422362D02*
X429988D01*
X431705Y230638D02*
Y235362D01*
X429988Y236945D02*
X431705Y235362D01*
X429988Y229055D02*
X431705Y230638D01*
X419512Y202189D02*
Y225811D01*
X408488Y202189D02*
X419512D01*
X408488D02*
Y225811D01*
X419512D01*
X547512Y170413D02*
Y209587D01*
X536488Y170413D02*
Y209587D01*
Y170413D02*
X547512D01*
X536488Y209587D02*
X547512D01*
Y215413D02*
Y254587D01*
X536488Y215413D02*
Y254587D01*
Y215413D02*
X547512D01*
X536488Y254587D02*
X547512D01*
X547276Y260413D02*
Y299587D01*
X536252Y260413D02*
Y299587D01*
Y260413D02*
X547276D01*
X536252Y299587D02*
X547276D01*
X547512Y305413D02*
Y344587D01*
X536488Y305413D02*
Y344587D01*
Y305413D02*
X547512D01*
X536488Y344587D02*
X547512D01*
X192701Y331449D02*
Y362551D01*
X205299Y331449D02*
Y362551D01*
X192701D02*
X205299D01*
X192701Y331449D02*
X205299D01*
X269988Y66055D02*
Y73945D01*
X250012Y66055D02*
Y73945D01*
X262362Y66055D02*
X269988D01*
X250012D02*
X257638D01*
X250012Y73945D02*
X257638D01*
X262362D02*
X269988D01*
X271705Y67638D02*
Y72362D01*
X269988Y73945D02*
X271705Y72362D01*
X269988Y66055D02*
X271705Y67638D01*
X399012Y190055D02*
Y197945D01*
X418988Y190055D02*
Y197945D01*
X399012D02*
X406638D01*
X411362D02*
X418988D01*
X411362Y190055D02*
X418988D01*
X399012D02*
X406638D01*
X397295Y191638D02*
Y196362D01*
Y191638D02*
X399012Y190055D01*
X397295Y196362D02*
X399012Y197945D01*
X466399Y260749D02*
Y291851D01*
X453801Y260749D02*
Y291851D01*
Y260749D02*
X466399D01*
X453801Y291851D02*
X466399D01*
X607000Y10200D02*
Y35200D01*
X637000Y10200D02*
Y20200D01*
X657000D02*
Y370200D01*
X637000D02*
Y380200D01*
X607000Y355200D02*
Y380200D01*
X612000Y35200D02*
Y355200D01*
X607000Y10200D02*
X637000D01*
Y20200D02*
X657000D01*
X637000Y370200D02*
X657000D01*
X607000Y380200D02*
X637000D01*
X607000Y355200D02*
X612000D01*
X607000Y35200D02*
X612000D01*
X22000Y380200D02*
X607000D01*
X271130Y106283D02*
Y125969D01*
X290815Y106283D02*
Y125969D01*
X271130D02*
X273098D01*
X288846D02*
X290815D01*
X271130Y106283D02*
X276051D01*
X285894D02*
X290815D01*
X283300Y130800D02*
Y134799D01*
X285299D01*
X285966Y134132D01*
Y132799D01*
X285299Y132133D01*
X283300D01*
X284633D02*
X285966Y130800D01*
X289298D02*
Y134799D01*
X287299Y132799D01*
X289965D01*
X293963Y130800D02*
X291297D01*
X293963Y133466D01*
Y134132D01*
X293297Y134799D01*
X291964D01*
X291297Y134132D01*
X454166Y31332D02*
X453499Y31999D01*
X452166D01*
X451500Y31332D01*
Y28666D01*
X452166Y28000D01*
X453499D01*
X454166Y28666D01*
X455499Y28000D02*
X456832D01*
X456165D01*
Y31999D01*
X455499Y31332D01*
X461497Y28000D02*
X458831D01*
X461497Y30666D01*
Y31332D01*
X460830Y31999D01*
X459497D01*
X458831Y31332D01*
X296800Y78300D02*
Y82299D01*
X298799D01*
X299466Y81632D01*
Y80299D01*
X298799Y79633D01*
X296800D01*
X298133D02*
X299466Y78300D01*
X300799D02*
X302132D01*
X301465D01*
Y82299D01*
X300799Y81632D01*
X583200Y383700D02*
Y387699D01*
X585199D01*
X585866Y387032D01*
Y385699D01*
X585199Y385033D01*
X583200D01*
X587199Y383700D02*
X588532D01*
X587865D01*
Y387699D01*
X587199Y387032D01*
X395000Y229999D02*
Y227333D01*
X396333Y226000D01*
X397666Y227333D01*
Y229999D01*
X398999Y226000D02*
Y229999D01*
X400998D01*
X401664Y229332D01*
Y227999D01*
X400998Y227333D01*
X398999D01*
X400332D02*
X401664Y226000D01*
X402997D02*
X404330D01*
X403664D01*
Y229999D01*
X402997Y229332D01*
X385500Y102999D02*
Y99666D01*
X386166Y99000D01*
X387499D01*
X388166Y99666D01*
Y102999D01*
X389499Y99000D02*
X390832D01*
X390165D01*
Y102999D01*
X389499Y102332D01*
X392831D02*
X393497Y102999D01*
X394830D01*
X395497Y102332D01*
Y101666D01*
X394830Y100999D01*
X394164D01*
X394830D01*
X395497Y100333D01*
Y99666D01*
X394830Y99000D01*
X393497D01*
X392831Y99666D01*
X539000Y214499D02*
Y211166D01*
X539666Y210500D01*
X540999D01*
X541666Y211166D01*
Y214499D01*
X542999Y213832D02*
X543665Y214499D01*
X544998D01*
X545665Y213832D01*
Y213166D01*
X544998Y212499D01*
X545665Y211833D01*
Y211166D01*
X544998Y210500D01*
X543665D01*
X542999Y211166D01*
Y211833D01*
X543665Y212499D01*
X542999Y213166D01*
Y213832D01*
X543665Y212499D02*
X544998D01*
X539000Y258999D02*
Y255666D01*
X539666Y255000D01*
X540999D01*
X541666Y255666D01*
Y258999D01*
X542999D02*
X545665D01*
Y258332D01*
X542999Y255666D01*
Y255000D01*
X189000Y369499D02*
Y366166D01*
X189666Y365500D01*
X190999D01*
X191666Y366166D01*
Y369499D01*
X195665D02*
X194332Y368832D01*
X192999Y367499D01*
Y366166D01*
X193665Y365500D01*
X194998D01*
X195665Y366166D01*
Y366833D01*
X194998Y367499D01*
X192999D01*
X539000Y304499D02*
Y301166D01*
X539666Y300500D01*
X540999D01*
X541666Y301166D01*
Y304499D01*
X545665D02*
X542999D01*
Y302499D01*
X544332Y303166D01*
X544998D01*
X545665Y302499D01*
Y301166D01*
X544998Y300500D01*
X543665D01*
X542999Y301166D01*
X539000Y349999D02*
Y346666D01*
X539666Y346000D01*
X540999D01*
X541666Y346666D01*
Y349999D01*
X544998Y346000D02*
Y349999D01*
X542999Y347999D01*
X545665D01*
X446700Y299399D02*
Y296066D01*
X447366Y295400D01*
X448699D01*
X449366Y296066D01*
Y299399D01*
X450699Y298732D02*
X451365Y299399D01*
X452698D01*
X453365Y298732D01*
Y298066D01*
X452698Y297399D01*
X452032D01*
X452698D01*
X453365Y296733D01*
Y296066D01*
X452698Y295400D01*
X451365D01*
X450699Y296066D01*
X396000Y25500D02*
Y29499D01*
X397999D01*
X398666Y28832D01*
Y27499D01*
X397999Y26833D01*
X396000D01*
X397333D02*
X398666Y25500D01*
X399999Y28832D02*
X400665Y29499D01*
X401998D01*
X402665Y28832D01*
Y28166D01*
X401998Y27499D01*
X401332D01*
X401998D01*
X402665Y26833D01*
Y26166D01*
X401998Y25500D01*
X400665D01*
X399999Y26166D01*
X403997Y28832D02*
X404664Y29499D01*
X405997D01*
X406663Y28832D01*
Y28166D01*
X405997Y27499D01*
X406663Y26833D01*
Y26166D01*
X405997Y25500D01*
X404664D01*
X403997Y26166D01*
Y26833D01*
X404664Y27499D01*
X403997Y28166D01*
Y28832D01*
X404664Y27499D02*
X405997D01*
X460600Y67500D02*
Y71499D01*
X462599D01*
X463266Y70832D01*
Y69499D01*
X462599Y68833D01*
X460600D01*
X461933D02*
X463266Y67500D01*
X464599Y70832D02*
X465265Y71499D01*
X466598D01*
X467265Y70832D01*
Y70166D01*
X466598Y69499D01*
X465932D01*
X466598D01*
X467265Y68833D01*
Y68166D01*
X466598Y67500D01*
X465265D01*
X464599Y68166D01*
X468597Y71499D02*
X471263D01*
Y70832D01*
X468597Y68166D01*
Y67500D01*
X376000Y53500D02*
X372001D01*
Y55499D01*
X372668Y56166D01*
X374001D01*
X374667Y55499D01*
Y53500D01*
Y54833D02*
X376000Y56166D01*
X372668Y57499D02*
X372001Y58165D01*
Y59498D01*
X372668Y60164D01*
X373334D01*
X374001Y59498D01*
Y58832D01*
Y59498D01*
X374667Y60164D01*
X375334D01*
X376000Y59498D01*
Y58165D01*
X375334Y57499D01*
X372001Y64163D02*
X372668Y62830D01*
X374001Y61497D01*
X375334D01*
X376000Y62164D01*
Y63497D01*
X375334Y64163D01*
X374667D01*
X374001Y63497D01*
Y61497D01*
X384000Y24500D02*
X380001D01*
Y26499D01*
X380668Y27166D01*
X382001D01*
X382667Y26499D01*
Y24500D01*
Y25833D02*
X384000Y27166D01*
X380668Y28499D02*
X380001Y29165D01*
Y30498D01*
X380668Y31165D01*
X381334D01*
X382001Y30498D01*
Y29832D01*
Y30498D01*
X382667Y31165D01*
X383334D01*
X384000Y30498D01*
Y29165D01*
X383334Y28499D01*
X380001Y35163D02*
Y32497D01*
X382001D01*
X381334Y33830D01*
Y34497D01*
X382001Y35163D01*
X383334D01*
X384000Y34497D01*
Y33164D01*
X383334Y32497D01*
X70600Y299000D02*
Y302999D01*
X72599D01*
X73266Y302332D01*
Y300999D01*
X72599Y300333D01*
X70600D01*
X71933D02*
X73266Y299000D01*
X74599Y302332D02*
X75265Y302999D01*
X76598D01*
X77264Y302332D01*
Y301666D01*
X76598Y300999D01*
X75932D01*
X76598D01*
X77264Y300333D01*
Y299666D01*
X76598Y299000D01*
X75265D01*
X74599Y299666D01*
X80597Y299000D02*
Y302999D01*
X78597Y300999D01*
X81263D01*
X348000Y31500D02*
Y35499D01*
X349999D01*
X350666Y34832D01*
Y33499D01*
X349999Y32833D01*
X348000D01*
X349333D02*
X350666Y31500D01*
X351999Y34832D02*
X352665Y35499D01*
X353998D01*
X354664Y34832D01*
Y34166D01*
X353998Y33499D01*
X353332D01*
X353998D01*
X354664Y32833D01*
Y32166D01*
X353998Y31500D01*
X352665D01*
X351999Y32166D01*
X355997Y34832D02*
X356664Y35499D01*
X357997D01*
X358663Y34832D01*
Y34166D01*
X357997Y33499D01*
X357330D01*
X357997D01*
X358663Y32833D01*
Y32166D01*
X357997Y31500D01*
X356664D01*
X355997Y32166D01*
X273000Y148400D02*
Y152399D01*
X274999D01*
X275666Y151732D01*
Y150399D01*
X274999Y149733D01*
X273000D01*
X274333D02*
X275666Y148400D01*
X276999Y151732D02*
X277665Y152399D01*
X278998D01*
X279664Y151732D01*
Y151066D01*
X278998Y150399D01*
X278332D01*
X278998D01*
X279664Y149733D01*
Y149066D01*
X278998Y148400D01*
X277665D01*
X276999Y149066D01*
X283663Y148400D02*
X280997D01*
X283663Y151066D01*
Y151732D01*
X282997Y152399D01*
X281664D01*
X280997Y151732D01*
X361000Y16500D02*
Y20499D01*
X362999D01*
X363666Y19832D01*
Y18499D01*
X362999Y17833D01*
X361000D01*
X362333D02*
X363666Y16500D01*
X364999Y19832D02*
X365665Y20499D01*
X366998D01*
X367665Y19832D01*
Y19166D01*
X366998Y18499D01*
X366332D01*
X366998D01*
X367665Y17833D01*
Y17166D01*
X366998Y16500D01*
X365665D01*
X364999Y17166D01*
X368997Y16500D02*
X370330D01*
X369664D01*
Y20499D01*
X368997Y19832D01*
X70600Y309000D02*
Y312999D01*
X72599D01*
X73266Y312332D01*
Y310999D01*
X72599Y310333D01*
X70600D01*
X71933D02*
X73266Y309000D01*
X74599Y312332D02*
X75265Y312999D01*
X76598D01*
X77264Y312332D01*
Y311666D01*
X76598Y310999D01*
X75932D01*
X76598D01*
X77264Y310333D01*
Y309666D01*
X76598Y309000D01*
X75265D01*
X74599Y309666D01*
X78597Y312332D02*
X79264Y312999D01*
X80597D01*
X81263Y312332D01*
Y309666D01*
X80597Y309000D01*
X79264D01*
X78597Y309666D01*
Y312332D01*
X366500Y53500D02*
X362501D01*
Y55499D01*
X363168Y56166D01*
X364501D01*
X365167Y55499D01*
Y53500D01*
Y54833D02*
X366500Y56166D01*
Y60164D02*
Y57499D01*
X363834Y60164D01*
X363168D01*
X362501Y59498D01*
Y58165D01*
X363168Y57499D01*
X365834Y61497D02*
X366500Y62164D01*
Y63497D01*
X365834Y64163D01*
X363168D01*
X362501Y63497D01*
Y62164D01*
X363168Y61497D01*
X363834D01*
X364501Y62164D01*
Y64163D01*
X346000Y53500D02*
X342001D01*
Y55499D01*
X342668Y56166D01*
X344001D01*
X344667Y55499D01*
Y53500D01*
Y54833D02*
X346000Y56166D01*
Y60164D02*
Y57499D01*
X343334Y60164D01*
X342668D01*
X342001Y59498D01*
Y58165D01*
X342668Y57499D01*
Y61497D02*
X342001Y62164D01*
Y63497D01*
X342668Y64163D01*
X343334D01*
X344001Y63497D01*
X344667Y64163D01*
X345334D01*
X346000Y63497D01*
Y62164D01*
X345334Y61497D01*
X344667D01*
X344001Y62164D01*
X343334Y61497D01*
X342668D01*
X344001Y62164D02*
Y63497D01*
X323100Y130000D02*
Y133999D01*
X325099D01*
X325766Y133332D01*
Y131999D01*
X325099Y131333D01*
X323100D01*
X324433D02*
X325766Y130000D01*
X329765D02*
X327099D01*
X329765Y132666D01*
Y133332D01*
X329098Y133999D01*
X327765D01*
X327099Y133332D01*
X331097Y133999D02*
X333763D01*
Y133332D01*
X331097Y130666D01*
Y130000D01*
X444000Y57000D02*
X440001D01*
Y58999D01*
X440668Y59666D01*
X442001D01*
X442667Y58999D01*
Y57000D01*
Y58333D02*
X444000Y59666D01*
Y63665D02*
Y60999D01*
X441334Y63665D01*
X440668D01*
X440001Y62998D01*
Y61665D01*
X440668Y60999D01*
X440001Y67663D02*
X440668Y66330D01*
X442001Y64997D01*
X443334D01*
X444000Y65664D01*
Y66997D01*
X443334Y67663D01*
X442667D01*
X442001Y66997D01*
Y64997D01*
X473000Y73500D02*
X469001D01*
Y75499D01*
X469668Y76166D01*
X471001D01*
X471667Y75499D01*
Y73500D01*
Y74833D02*
X473000Y76166D01*
Y80164D02*
Y77499D01*
X470334Y80164D01*
X469668D01*
X469001Y79498D01*
Y78165D01*
X469668Y77499D01*
X469001Y84163D02*
Y81497D01*
X471001D01*
X470334Y82830D01*
Y83497D01*
X471001Y84163D01*
X472334D01*
X473000Y83497D01*
Y82164D01*
X472334Y81497D01*
X431000Y87900D02*
Y91899D01*
X432999D01*
X433666Y91232D01*
Y89899D01*
X432999Y89233D01*
X431000D01*
X432333D02*
X433666Y87900D01*
X437665D02*
X434999D01*
X437665Y90566D01*
Y91232D01*
X436998Y91899D01*
X435665D01*
X434999Y91232D01*
X440997Y87900D02*
Y91899D01*
X438997Y89899D01*
X441663D01*
X406500Y123800D02*
X402501D01*
Y125799D01*
X403168Y126466D01*
X404501D01*
X405167Y125799D01*
Y123800D01*
Y125133D02*
X406500Y126466D01*
Y130464D02*
Y127799D01*
X403834Y130464D01*
X403168D01*
X402501Y129798D01*
Y128465D01*
X403168Y127799D01*
Y131797D02*
X402501Y132464D01*
Y133797D01*
X403168Y134463D01*
X403834D01*
X404501Y133797D01*
Y133130D01*
Y133797D01*
X405167Y134463D01*
X405834D01*
X406500Y133797D01*
Y132464D01*
X405834Y131797D01*
X389500Y124000D02*
Y127999D01*
X391499D01*
X392166Y127332D01*
Y125999D01*
X391499Y125333D01*
X389500D01*
X390833D02*
X392166Y124000D01*
X396164D02*
X393499D01*
X396164Y126666D01*
Y127332D01*
X395498Y127999D01*
X394165D01*
X393499Y127332D01*
X400163Y124000D02*
X397497D01*
X400163Y126666D01*
Y127332D01*
X399497Y127999D01*
X398164D01*
X397497Y127332D01*
X404600Y157500D02*
Y161499D01*
X406599D01*
X407266Y160832D01*
Y159499D01*
X406599Y158833D01*
X404600D01*
X405933D02*
X407266Y157500D01*
X411265D02*
X408599D01*
X411265Y160166D01*
Y160832D01*
X410598Y161499D01*
X409265D01*
X408599Y160832D01*
X412597Y157500D02*
X413930D01*
X413264D01*
Y161499D01*
X412597Y160832D01*
X370000Y124000D02*
Y127999D01*
X371999D01*
X372666Y127332D01*
Y125999D01*
X371999Y125333D01*
X370000D01*
X371333D02*
X372666Y124000D01*
X376664D02*
X373999D01*
X376664Y126666D01*
Y127332D01*
X375998Y127999D01*
X374665D01*
X373999Y127332D01*
X377997D02*
X378664Y127999D01*
X379997D01*
X380663Y127332D01*
Y124667D01*
X379997Y124000D01*
X378664D01*
X377997Y124667D01*
Y127332D01*
X410500Y123500D02*
Y127499D01*
X412499D01*
X413166Y126832D01*
Y125499D01*
X412499Y124833D01*
X410500D01*
X411833D02*
X413166Y123500D01*
X414499D02*
X415832D01*
X415165D01*
Y127499D01*
X414499Y126832D01*
X417831Y124167D02*
X418497Y123500D01*
X419830D01*
X420497Y124167D01*
Y126832D01*
X419830Y127499D01*
X418497D01*
X417831Y126832D01*
Y126166D01*
X418497Y125499D01*
X420497D01*
X486000Y125400D02*
Y129399D01*
X487999D01*
X488666Y128732D01*
Y127399D01*
X487999Y126733D01*
X486000D01*
X487333D02*
X488666Y125400D01*
X489999D02*
X491332D01*
X490665D01*
Y129399D01*
X489999Y128732D01*
X493331D02*
X493997Y129399D01*
X495330D01*
X495997Y128732D01*
Y128066D01*
X495330Y127399D01*
X495997Y126733D01*
Y126067D01*
X495330Y125400D01*
X493997D01*
X493331Y126067D01*
Y126733D01*
X493997Y127399D01*
X493331Y128066D01*
Y128732D01*
X493997Y127399D02*
X495330D01*
X432000Y138000D02*
Y141999D01*
X433999D01*
X434666Y141332D01*
Y139999D01*
X433999Y139333D01*
X432000D01*
X433333D02*
X434666Y138000D01*
X435999D02*
X437332D01*
X436665D01*
Y141999D01*
X435999Y141332D01*
X439331Y141999D02*
X441997D01*
Y141332D01*
X439331Y138666D01*
Y138000D01*
X460200Y119600D02*
Y123599D01*
X462199D01*
X462866Y122932D01*
Y121599D01*
X462199Y120933D01*
X460200D01*
X461533D02*
X462866Y119600D01*
X464199D02*
X465532D01*
X464865D01*
Y123599D01*
X464199Y122932D01*
X470197Y123599D02*
X468864Y122932D01*
X467531Y121599D01*
Y120266D01*
X468197Y119600D01*
X469530D01*
X470197Y120266D01*
Y120933D01*
X469530Y121599D01*
X467531D01*
X419000Y138000D02*
Y141999D01*
X420999D01*
X421666Y141332D01*
Y139999D01*
X420999Y139333D01*
X419000D01*
X420333D02*
X421666Y138000D01*
X422999D02*
X424332D01*
X423665D01*
Y141999D01*
X422999Y141332D01*
X428997Y141999D02*
X426331D01*
Y139999D01*
X427664Y140666D01*
X428330D01*
X428997Y139999D01*
Y138666D01*
X428330Y138000D01*
X426997D01*
X426331Y138666D01*
X475000Y105000D02*
Y108999D01*
X476999D01*
X477666Y108332D01*
Y106999D01*
X476999Y106333D01*
X475000D01*
X476333D02*
X477666Y105000D01*
X478999D02*
X480332D01*
X479665D01*
Y108999D01*
X478999Y108332D01*
X484330Y105000D02*
Y108999D01*
X482331Y106999D01*
X484997D01*
X462500Y91000D02*
X458501D01*
Y92999D01*
X459168Y93666D01*
X460501D01*
X461167Y92999D01*
Y91000D01*
Y92333D02*
X462500Y93666D01*
Y94999D02*
Y96332D01*
Y95665D01*
X458501D01*
X459168Y94999D01*
Y98331D02*
X458501Y98997D01*
Y100330D01*
X459168Y100997D01*
X459834D01*
X460501Y100330D01*
Y99664D01*
Y100330D01*
X461167Y100997D01*
X461834D01*
X462500Y100330D01*
Y98997D01*
X461834Y98331D01*
X507000Y84500D02*
Y88499D01*
X508999D01*
X509666Y87832D01*
Y86499D01*
X508999Y85833D01*
X507000D01*
X508333D02*
X509666Y84500D01*
X510999D02*
X512332D01*
X511665D01*
Y88499D01*
X510999Y87832D01*
X516997Y84500D02*
X514331D01*
X516997Y87166D01*
Y87832D01*
X516330Y88499D01*
X514997D01*
X514331Y87832D01*
X495500Y114500D02*
Y118499D01*
X497499D01*
X498166Y117832D01*
Y116499D01*
X497499Y115833D01*
X495500D01*
X496833D02*
X498166Y114500D01*
X499499D02*
X500832D01*
X500165D01*
Y118499D01*
X499499Y117832D01*
X502831Y114500D02*
X504164D01*
X503497D01*
Y118499D01*
X502831Y117832D01*
X495500Y146000D02*
Y149999D01*
X497499D01*
X498166Y149332D01*
Y147999D01*
X497499Y147333D01*
X495500D01*
X496833D02*
X498166Y146000D01*
X499499D02*
X500832D01*
X500165D01*
Y149999D01*
X499499Y149332D01*
X502831D02*
X503497Y149999D01*
X504830D01*
X505497Y149332D01*
Y146667D01*
X504830Y146000D01*
X503497D01*
X502831Y146667D01*
Y149332D01*
X297500Y271000D02*
Y274999D01*
X299499D01*
X300166Y274332D01*
Y272999D01*
X299499Y272333D01*
X297500D01*
X298833D02*
X300166Y271000D01*
X301499Y271666D02*
X302165Y271000D01*
X303498D01*
X304165Y271666D01*
Y274332D01*
X303498Y274999D01*
X302165D01*
X301499Y274332D01*
Y273666D01*
X302165Y272999D01*
X304165D01*
X70600Y319000D02*
Y322999D01*
X72599D01*
X73266Y322332D01*
Y320999D01*
X72599Y320333D01*
X70600D01*
X71933D02*
X73266Y319000D01*
X74599Y322332D02*
X75265Y322999D01*
X76598D01*
X77264Y322332D01*
Y321666D01*
X76598Y320999D01*
X77264Y320333D01*
Y319666D01*
X76598Y319000D01*
X75265D01*
X74599Y319666D01*
Y320333D01*
X75265Y320999D01*
X74599Y321666D01*
Y322332D01*
X75265Y320999D02*
X76598D01*
X70600Y329000D02*
Y332999D01*
X72599D01*
X73266Y332332D01*
Y330999D01*
X72599Y330333D01*
X70600D01*
X71933D02*
X73266Y329000D01*
X74599Y332999D02*
X77264D01*
Y332332D01*
X74599Y329666D01*
Y329000D01*
X431500Y304900D02*
Y308899D01*
X433499D01*
X434166Y308232D01*
Y306899D01*
X433499Y306233D01*
X431500D01*
X432833D02*
X434166Y304900D01*
X438165Y308899D02*
X436832Y308232D01*
X435499Y306899D01*
Y305566D01*
X436165Y304900D01*
X437498D01*
X438165Y305566D01*
Y306233D01*
X437498Y306899D01*
X435499D01*
X477500Y310900D02*
Y314899D01*
X479499D01*
X480166Y314232D01*
Y312899D01*
X479499Y312233D01*
X477500D01*
X478833D02*
X480166Y310900D01*
X484164Y314899D02*
X481499D01*
Y312899D01*
X482832Y313566D01*
X483498D01*
X484164Y312899D01*
Y311566D01*
X483498Y310900D01*
X482165D01*
X481499Y311566D01*
X240500Y58000D02*
Y61999D01*
X242499D01*
X243166Y61332D01*
Y59999D01*
X242499Y59333D01*
X240500D01*
X241833D02*
X243166Y58000D01*
X246498D02*
Y61999D01*
X244499Y59999D01*
X247165D01*
X284500Y58000D02*
Y61999D01*
X286499D01*
X287166Y61332D01*
Y59999D01*
X286499Y59333D01*
X284500D01*
X285833D02*
X287166Y58000D01*
X288499Y61332D02*
X289165Y61999D01*
X290498D01*
X291164Y61332D01*
Y60666D01*
X290498Y59999D01*
X289832D01*
X290498D01*
X291164Y59333D01*
Y58666D01*
X290498Y58000D01*
X289165D01*
X288499Y58666D01*
X305600Y98500D02*
Y102499D01*
X307599D01*
X308266Y101832D01*
Y100499D01*
X307599Y99833D01*
X305600D01*
X306933D02*
X308266Y98500D01*
X312264D02*
X309599D01*
X312264Y101166D01*
Y101832D01*
X311598Y102499D01*
X310265D01*
X309599Y101832D01*
X91600Y323400D02*
Y327399D01*
X93599D01*
X94266Y326732D01*
Y325399D01*
X93599Y324733D01*
X91600D01*
X97598Y323400D02*
Y327399D01*
X95599Y325399D01*
X98264D01*
X9000Y288000D02*
Y291999D01*
X10999D01*
X11666Y291332D01*
Y289999D01*
X10999Y289333D01*
X9000D01*
X12999Y291332D02*
X13665Y291999D01*
X14998D01*
X15664Y291332D01*
Y290666D01*
X14998Y289999D01*
X14332D01*
X14998D01*
X15664Y289333D01*
Y288666D01*
X14998Y288000D01*
X13665D01*
X12999Y288666D01*
X563600Y134999D02*
Y131000D01*
X566266D01*
X570264Y134999D02*
X567599D01*
Y132999D01*
X568932Y133666D01*
X569598D01*
X570264Y132999D01*
Y131667D01*
X569598Y131000D01*
X568265D01*
X567599Y131667D01*
X553600Y134999D02*
Y131000D01*
X556266D01*
X559598D02*
Y134999D01*
X557599Y132999D01*
X560264D01*
X560500Y356399D02*
Y352400D01*
X563166D01*
X564499Y355732D02*
X565165Y356399D01*
X566498D01*
X567165Y355732D01*
Y355066D01*
X566498Y354399D01*
X565832D01*
X566498D01*
X567165Y353733D01*
Y353066D01*
X566498Y352400D01*
X565165D01*
X564499Y353066D01*
X560500Y366399D02*
Y362400D01*
X563166D01*
X567165D02*
X564499D01*
X567165Y365066D01*
Y365732D01*
X566498Y366399D01*
X565165D01*
X564499Y365732D01*
X560500Y376399D02*
Y372400D01*
X563166D01*
X564499D02*
X565832D01*
X565165D01*
Y376399D01*
X564499Y375732D01*
X322100Y34799D02*
Y30800D01*
X324099D01*
X324766Y31466D01*
Y34132D01*
X324099Y34799D01*
X322100D01*
X326099Y30800D02*
X327432D01*
X326765D01*
Y34799D01*
X326099Y34132D01*
X422666Y41332D02*
X421999Y41999D01*
X420666D01*
X420000Y41332D01*
Y38666D01*
X420666Y38000D01*
X421999D01*
X422666Y38666D01*
X426664Y41999D02*
X425332Y41332D01*
X423999Y39999D01*
Y38666D01*
X424665Y38000D01*
X425998D01*
X426664Y38666D01*
Y39333D01*
X425998Y39999D01*
X423999D01*
X427997Y38000D02*
X429330D01*
X428664D01*
Y41999D01*
X427997Y41332D01*
X440668Y45166D02*
X440001Y44499D01*
Y43166D01*
X440668Y42500D01*
X443334D01*
X444000Y43166D01*
Y44499D01*
X443334Y45166D01*
X440001Y49165D02*
X440668Y47832D01*
X442001Y46499D01*
X443334D01*
X444000Y47165D01*
Y48498D01*
X443334Y49165D01*
X442667D01*
X442001Y48498D01*
Y46499D01*
X440668Y50497D02*
X440001Y51164D01*
Y52497D01*
X440668Y53163D01*
X443334D01*
X444000Y52497D01*
Y51164D01*
X443334Y50497D01*
X440668D01*
X293166Y166332D02*
X292499Y166999D01*
X291166D01*
X290500Y166332D01*
Y163666D01*
X291166Y163000D01*
X292499D01*
X293166Y163666D01*
X297165Y166999D02*
X294499D01*
Y164999D01*
X295832Y165666D01*
X296498D01*
X297165Y164999D01*
Y163666D01*
X296498Y163000D01*
X295165D01*
X294499Y163666D01*
X298497D02*
X299164Y163000D01*
X300497D01*
X301163Y163666D01*
Y166332D01*
X300497Y166999D01*
X299164D01*
X298497Y166332D01*
Y165666D01*
X299164Y164999D01*
X301163D01*
X244766Y210832D02*
X244099Y211499D01*
X242766D01*
X242100Y210832D01*
Y208166D01*
X242766Y207500D01*
X244099D01*
X244766Y208166D01*
X248764Y211499D02*
X246099D01*
Y209499D01*
X247432Y210166D01*
X248098D01*
X248764Y209499D01*
Y208166D01*
X248098Y207500D01*
X246765D01*
X246099Y208166D01*
X250097Y210832D02*
X250764Y211499D01*
X252097D01*
X252763Y210832D01*
Y210166D01*
X252097Y209499D01*
X252763Y208833D01*
Y208166D01*
X252097Y207500D01*
X250764D01*
X250097Y208166D01*
Y208833D01*
X250764Y209499D01*
X250097Y210166D01*
Y210832D01*
X250764Y209499D02*
X252097D01*
X236266Y119416D02*
X235599Y120082D01*
X234266D01*
X233600Y119416D01*
Y116750D01*
X234266Y116084D01*
X235599D01*
X236266Y116750D01*
X240265Y120082D02*
X237599D01*
Y118083D01*
X238932Y118749D01*
X239598D01*
X240265Y118083D01*
Y116750D01*
X239598Y116084D01*
X238265D01*
X237599Y116750D01*
X241597Y120082D02*
X244263D01*
Y119416D01*
X241597Y116750D01*
Y116084D01*
X352668Y56166D02*
X352001Y55499D01*
Y54166D01*
X352668Y53500D01*
X355334D01*
X356000Y54166D01*
Y55499D01*
X355334Y56166D01*
X352001Y60164D02*
Y57499D01*
X354001D01*
X353334Y58832D01*
Y59498D01*
X354001Y60164D01*
X355334D01*
X356000Y59498D01*
Y58165D01*
X355334Y57499D01*
X352001Y64163D02*
X352668Y62830D01*
X354001Y61497D01*
X355334D01*
X356000Y62164D01*
Y63497D01*
X355334Y64163D01*
X354667D01*
X354001Y63497D01*
Y61497D01*
X308666Y166632D02*
X307999Y167299D01*
X306666D01*
X306000Y166632D01*
Y163967D01*
X306666Y163300D01*
X307999D01*
X308666Y163967D01*
X312665Y167299D02*
X309999D01*
Y165299D01*
X311332Y165966D01*
X311998D01*
X312665Y165299D01*
Y163967D01*
X311998Y163300D01*
X310665D01*
X309999Y163967D01*
X316663Y167299D02*
X313997D01*
Y165299D01*
X315330Y165966D01*
X315997D01*
X316663Y165299D01*
Y163967D01*
X315997Y163300D01*
X314664D01*
X313997Y163967D01*
X299168Y132666D02*
X298501Y131999D01*
Y130666D01*
X299168Y130000D01*
X301834D01*
X302500Y130666D01*
Y131999D01*
X301834Y132666D01*
X298501Y136664D02*
Y133999D01*
X300501D01*
X299834Y135332D01*
Y135998D01*
X300501Y136664D01*
X301834D01*
X302500Y135998D01*
Y134665D01*
X301834Y133999D01*
X302500Y139997D02*
X298501D01*
X300501Y137997D01*
Y140663D01*
X319666Y112332D02*
X318999Y112999D01*
X317666D01*
X317000Y112332D01*
Y109667D01*
X317666Y109000D01*
X318999D01*
X319666Y109667D01*
X323664Y112999D02*
X320999D01*
Y110999D01*
X322332Y111666D01*
X322998D01*
X323664Y110999D01*
Y109667D01*
X322998Y109000D01*
X321665D01*
X320999Y109667D01*
X324997Y112332D02*
X325664Y112999D01*
X326997D01*
X327663Y112332D01*
Y111666D01*
X326997Y110999D01*
X326330D01*
X326997D01*
X327663Y110333D01*
Y109667D01*
X326997Y109000D01*
X325664D01*
X324997Y109667D01*
X340766Y133332D02*
X340099Y133999D01*
X338766D01*
X338100Y133332D01*
Y130666D01*
X338766Y130000D01*
X340099D01*
X340766Y130666D01*
X344764Y133999D02*
X342099D01*
Y131999D01*
X343432Y132666D01*
X344098D01*
X344764Y131999D01*
Y130666D01*
X344098Y130000D01*
X342765D01*
X342099Y130666D01*
X348763Y130000D02*
X346097D01*
X348763Y132666D01*
Y133332D01*
X348097Y133999D01*
X346764D01*
X346097Y133332D01*
X387466Y68632D02*
X386799Y69299D01*
X385466D01*
X384800Y68632D01*
Y65966D01*
X385466Y65300D01*
X386799D01*
X387466Y65966D01*
X391464Y69299D02*
X388799D01*
Y67299D01*
X390132Y67966D01*
X390798D01*
X391464Y67299D01*
Y65966D01*
X390798Y65300D01*
X389465D01*
X388799Y65966D01*
X392797Y65300D02*
X394130D01*
X393464D01*
Y69299D01*
X392797Y68632D01*
X322666Y103832D02*
X321999Y104499D01*
X320666D01*
X320000Y103832D01*
Y101166D01*
X320666Y100500D01*
X321999D01*
X322666Y101166D01*
X326664Y104499D02*
X323999D01*
Y102499D01*
X325332Y103166D01*
X325998D01*
X326664Y102499D01*
Y101166D01*
X325998Y100500D01*
X324665D01*
X323999Y101166D01*
X327997Y103832D02*
X328664Y104499D01*
X329997D01*
X330663Y103832D01*
Y101166D01*
X329997Y100500D01*
X328664D01*
X327997Y101166D01*
Y103832D01*
X361668Y111666D02*
X361001Y110999D01*
Y109667D01*
X361668Y109000D01*
X364334D01*
X365000Y109667D01*
Y110999D01*
X364334Y111666D01*
X365000Y114998D02*
X361001D01*
X363001Y112999D01*
Y115665D01*
X364334Y116997D02*
X365000Y117664D01*
Y118997D01*
X364334Y119663D01*
X361668D01*
X361001Y118997D01*
Y117664D01*
X361668Y116997D01*
X362334D01*
X363001Y117664D01*
Y119663D01*
X382666Y132832D02*
X381999Y133499D01*
X380666D01*
X380000Y132832D01*
Y130166D01*
X380666Y129500D01*
X381999D01*
X382666Y130166D01*
X385998Y129500D02*
Y133499D01*
X383999Y131499D01*
X386665D01*
X387997Y132832D02*
X388664Y133499D01*
X389997D01*
X390663Y132832D01*
Y132166D01*
X389997Y131499D01*
X390663Y130833D01*
Y130166D01*
X389997Y129500D01*
X388664D01*
X387997Y130166D01*
Y130833D01*
X388664Y131499D01*
X387997Y132166D01*
Y132832D01*
X388664Y131499D02*
X389997D01*
X431168Y112666D02*
X430501Y111999D01*
Y110667D01*
X431168Y110000D01*
X433834D01*
X434500Y110667D01*
Y111999D01*
X433834Y112666D01*
X434500Y115998D02*
X430501D01*
X432501Y113999D01*
Y116665D01*
X430501Y117997D02*
Y120663D01*
X431168D01*
X433834Y117997D01*
X434500D01*
X487166Y101832D02*
X486499Y102499D01*
X485166D01*
X484500Y101832D01*
Y99166D01*
X485166Y98500D01*
X486499D01*
X487166Y99166D01*
X490498Y98500D02*
Y102499D01*
X488499Y100499D01*
X491164D01*
X495163Y102499D02*
X493830Y101832D01*
X492497Y100499D01*
Y99166D01*
X493164Y98500D01*
X494497D01*
X495163Y99166D01*
Y99833D01*
X494497Y100499D01*
X492497D01*
X518166Y108832D02*
X517499Y109499D01*
X516166D01*
X515500Y108832D01*
Y106167D01*
X516166Y105500D01*
X517499D01*
X518166Y106167D01*
X521498Y105500D02*
Y109499D01*
X519499Y107499D01*
X522164D01*
X526163Y109499D02*
X523497D01*
Y107499D01*
X524830Y108166D01*
X525497D01*
X526163Y107499D01*
Y106167D01*
X525497Y105500D01*
X524164D01*
X523497Y106167D01*
X296666Y191832D02*
X295999Y192499D01*
X294666D01*
X294000Y191832D01*
Y189166D01*
X294666Y188500D01*
X295999D01*
X296666Y189166D01*
X299998Y188500D02*
Y192499D01*
X297999Y190499D01*
X300664D01*
X303997Y188500D02*
Y192499D01*
X301997Y190499D01*
X304663D01*
X229166Y378332D02*
X228499Y378999D01*
X227166D01*
X226500Y378332D01*
Y375666D01*
X227166Y375000D01*
X228499D01*
X229166Y375666D01*
X232498Y375000D02*
Y378999D01*
X230499Y376999D01*
X233165D01*
X234497Y378332D02*
X235164Y378999D01*
X236497D01*
X237163Y378332D01*
Y377666D01*
X236497Y376999D01*
X235830D01*
X236497D01*
X237163Y376333D01*
Y375666D01*
X236497Y375000D01*
X235164D01*
X234497Y375666D01*
X214666Y378332D02*
X213999Y378999D01*
X212666D01*
X212000Y378332D01*
Y375666D01*
X212666Y375000D01*
X213999D01*
X214666Y375666D01*
X217998Y375000D02*
Y378999D01*
X215999Y376999D01*
X218665D01*
X222663Y375000D02*
X219997D01*
X222663Y377666D01*
Y378332D01*
X221997Y378999D01*
X220664D01*
X219997Y378332D01*
X433166Y265332D02*
X432499Y265999D01*
X431166D01*
X430500Y265332D01*
Y262666D01*
X431166Y262000D01*
X432499D01*
X433166Y262666D01*
X436498Y262000D02*
Y265999D01*
X434499Y263999D01*
X437164D01*
X438497Y262000D02*
X439830D01*
X439164D01*
Y265999D01*
X438497Y265332D01*
X444166Y265732D02*
X443499Y266399D01*
X442166D01*
X441500Y265732D01*
Y263066D01*
X442166Y262400D01*
X443499D01*
X444166Y263066D01*
X447498Y262400D02*
Y266399D01*
X445499Y264399D01*
X448165D01*
X449497Y265732D02*
X450164Y266399D01*
X451497D01*
X452163Y265732D01*
Y263066D01*
X451497Y262400D01*
X450164D01*
X449497Y263066D01*
Y265732D01*
X386666Y186832D02*
X385999Y187499D01*
X384666D01*
X384000Y186832D01*
Y184167D01*
X384666Y183500D01*
X385999D01*
X386666Y184167D01*
X387999Y186832D02*
X388665Y187499D01*
X389998D01*
X390665Y186832D01*
Y186166D01*
X389998Y185499D01*
X389332D01*
X389998D01*
X390665Y184833D01*
Y184167D01*
X389998Y183500D01*
X388665D01*
X387999Y184167D01*
X391997D02*
X392664Y183500D01*
X393997D01*
X394663Y184167D01*
Y186832D01*
X393997Y187499D01*
X392664D01*
X391997Y186832D01*
Y186166D01*
X392664Y185499D01*
X394663D01*
X394566Y204732D02*
X393899Y205399D01*
X392566D01*
X391900Y204732D01*
Y202066D01*
X392566Y201400D01*
X393899D01*
X394566Y202066D01*
X395899Y204732D02*
X396565Y205399D01*
X397898D01*
X398565Y204732D01*
Y204066D01*
X397898Y203399D01*
X397232D01*
X397898D01*
X398565Y202733D01*
Y202066D01*
X397898Y201400D01*
X396565D01*
X395899Y202066D01*
X399897Y205399D02*
X402563D01*
Y204732D01*
X399897Y202066D01*
Y201400D01*
X400666Y186832D02*
X399999Y187499D01*
X398666D01*
X398000Y186832D01*
Y184167D01*
X398666Y183500D01*
X399999D01*
X400666Y184167D01*
X401999Y186832D02*
X402665Y187499D01*
X403998D01*
X404665Y186832D01*
Y186166D01*
X403998Y185499D01*
X403332D01*
X403998D01*
X404665Y184833D01*
Y184167D01*
X403998Y183500D01*
X402665D01*
X401999Y184167D01*
X408663Y187499D02*
X407330Y186832D01*
X405997Y185499D01*
Y184167D01*
X406664Y183500D01*
X407997D01*
X408663Y184167D01*
Y184833D01*
X407997Y185499D01*
X405997D01*
X413166Y186832D02*
X412499Y187499D01*
X411166D01*
X410500Y186832D01*
Y184167D01*
X411166Y183500D01*
X412499D01*
X413166Y184167D01*
X414499Y186832D02*
X415165Y187499D01*
X416498D01*
X417165Y186832D01*
Y186166D01*
X416498Y185499D01*
X415832D01*
X416498D01*
X417165Y184833D01*
Y184167D01*
X416498Y183500D01*
X415165D01*
X414499Y184167D01*
X421163Y187499D02*
X418497D01*
Y185499D01*
X419830Y186166D01*
X420497D01*
X421163Y185499D01*
Y184167D01*
X420497Y183500D01*
X419164D01*
X418497Y184167D01*
X306168Y173166D02*
X305501Y172499D01*
Y171167D01*
X306168Y170500D01*
X308834D01*
X309500Y171167D01*
Y172499D01*
X308834Y173166D01*
X306168Y174499D02*
X305501Y175165D01*
Y176498D01*
X306168Y177164D01*
X306834D01*
X307501Y176498D01*
Y175832D01*
Y176498D01*
X308167Y177164D01*
X308834D01*
X309500Y176498D01*
Y175165D01*
X308834Y174499D01*
X309500Y180497D02*
X305501D01*
X307501Y178497D01*
Y181163D01*
X277668Y172166D02*
X277001Y171499D01*
Y170167D01*
X277668Y169500D01*
X280334D01*
X281000Y170167D01*
Y171499D01*
X280334Y172166D01*
X277668Y173499D02*
X277001Y174165D01*
Y175498D01*
X277668Y176164D01*
X278334D01*
X279001Y175498D01*
Y174832D01*
Y175498D01*
X279667Y176164D01*
X280334D01*
X281000Y175498D01*
Y174165D01*
X280334Y173499D01*
X277668Y177497D02*
X277001Y178164D01*
Y179497D01*
X277668Y180163D01*
X278334D01*
X279001Y179497D01*
Y178830D01*
Y179497D01*
X279667Y180163D01*
X280334D01*
X281000Y179497D01*
Y178164D01*
X280334Y177497D01*
X516866Y318232D02*
X516199Y318899D01*
X514866D01*
X514200Y318232D01*
Y315566D01*
X514866Y314900D01*
X516199D01*
X516866Y315566D01*
X518199Y318232D02*
X518865Y318899D01*
X520198D01*
X520864Y318232D01*
Y317566D01*
X520198Y316899D01*
X519532D01*
X520198D01*
X520864Y316233D01*
Y315566D01*
X520198Y314900D01*
X518865D01*
X518199Y315566D01*
X524863Y314900D02*
X522197D01*
X524863Y317566D01*
Y318232D01*
X524197Y318899D01*
X522864D01*
X522197Y318232D01*
X519566Y273732D02*
X518899Y274399D01*
X517566D01*
X516900Y273732D01*
Y271066D01*
X517566Y270400D01*
X518899D01*
X519566Y271066D01*
X520899Y273732D02*
X521565Y274399D01*
X522898D01*
X523564Y273732D01*
Y273066D01*
X522898Y272399D01*
X522232D01*
X522898D01*
X523564Y271733D01*
Y271066D01*
X522898Y270400D01*
X521565D01*
X520899Y271066D01*
X524897Y270400D02*
X526230D01*
X525564D01*
Y274399D01*
X524897Y273732D01*
X517866Y227532D02*
X517199Y228199D01*
X515866D01*
X515200Y227532D01*
Y224866D01*
X515866Y224200D01*
X517199D01*
X517866Y224866D01*
X519199Y227532D02*
X519865Y228199D01*
X521198D01*
X521865Y227532D01*
Y226866D01*
X521198Y226199D01*
X520532D01*
X521198D01*
X521865Y225533D01*
Y224866D01*
X521198Y224200D01*
X519865D01*
X519199Y224866D01*
X523197Y227532D02*
X523864Y228199D01*
X525197D01*
X525863Y227532D01*
Y224866D01*
X525197Y224200D01*
X523864D01*
X523197Y224866D01*
Y227532D01*
X518666Y182832D02*
X517999Y183499D01*
X516666D01*
X516000Y182832D01*
Y180166D01*
X516666Y179500D01*
X517999D01*
X518666Y180166D01*
X522664Y179500D02*
X519999D01*
X522664Y182166D01*
Y182832D01*
X521998Y183499D01*
X520665D01*
X519999Y182832D01*
X523997Y180166D02*
X524664Y179500D01*
X525997D01*
X526663Y180166D01*
Y182832D01*
X525997Y183499D01*
X524664D01*
X523997Y182832D01*
Y182166D01*
X524664Y181499D01*
X526663D01*
X421166Y257832D02*
X420499Y258499D01*
X419166D01*
X418500Y257832D01*
Y255166D01*
X419166Y254500D01*
X420499D01*
X421166Y255166D01*
X425165Y254500D02*
X422499D01*
X425165Y257166D01*
Y257832D01*
X424498Y258499D01*
X423165D01*
X422499Y257832D01*
X428497Y254500D02*
Y258499D01*
X426497Y256499D01*
X429163D01*
X177166Y376732D02*
X176499Y377399D01*
X175166D01*
X174500Y376732D01*
Y374066D01*
X175166Y373400D01*
X176499D01*
X177166Y374066D01*
X181165Y373400D02*
X178499D01*
X181165Y376066D01*
Y376732D01*
X180498Y377399D01*
X179165D01*
X178499Y376732D01*
X182497D02*
X183164Y377399D01*
X184497D01*
X185163Y376732D01*
Y376066D01*
X184497Y375399D01*
X183830D01*
X184497D01*
X185163Y374733D01*
Y374066D01*
X184497Y373400D01*
X183164D01*
X182497Y374066D01*
X467166Y241332D02*
X466499Y241999D01*
X465166D01*
X464500Y241332D01*
Y238666D01*
X465166Y238000D01*
X466499D01*
X467166Y238666D01*
X471165Y238000D02*
X468499D01*
X471165Y240666D01*
Y241332D01*
X470498Y241999D01*
X469165D01*
X468499Y241332D01*
X475163Y238000D02*
X472497D01*
X475163Y240666D01*
Y241332D01*
X474497Y241999D01*
X473164D01*
X472497Y241332D01*
X425166Y186832D02*
X424499Y187499D01*
X423166D01*
X422500Y186832D01*
Y184167D01*
X423166Y183500D01*
X424499D01*
X425166Y184167D01*
X429165Y183500D02*
X426499D01*
X429165Y186166D01*
Y186832D01*
X428498Y187499D01*
X427165D01*
X426499Y186832D01*
X430497Y183500D02*
X431830D01*
X431164D01*
Y187499D01*
X430497Y186832D01*
X409166Y242332D02*
X408499Y242999D01*
X407166D01*
X406500Y242332D01*
Y239666D01*
X407166Y239000D01*
X408499D01*
X409166Y239666D01*
X413165Y239000D02*
X410499D01*
X413165Y241666D01*
Y242332D01*
X412498Y242999D01*
X411165D01*
X410499Y242332D01*
X414497D02*
X415164Y242999D01*
X416497D01*
X417163Y242332D01*
Y239666D01*
X416497Y239000D01*
X415164D01*
X414497Y239666D01*
Y242332D01*
X553666Y79332D02*
X552999Y79999D01*
X551666D01*
X551000Y79332D01*
Y76666D01*
X551666Y76000D01*
X552999D01*
X553666Y76666D01*
X554999Y76000D02*
X556332D01*
X555665D01*
Y79999D01*
X554999Y79332D01*
X558331Y76666D02*
X558997Y76000D01*
X560330D01*
X560997Y76666D01*
Y79332D01*
X560330Y79999D01*
X558997D01*
X558331Y79332D01*
Y78666D01*
X558997Y77999D01*
X560997D01*
X365168Y93666D02*
X364501Y92999D01*
Y91666D01*
X365168Y91000D01*
X367834D01*
X368500Y91666D01*
Y92999D01*
X367834Y93666D01*
X368500Y94999D02*
Y96332D01*
Y95665D01*
X364501D01*
X365168Y94999D01*
Y98331D02*
X364501Y98997D01*
Y100330D01*
X365168Y100997D01*
X365834D01*
X366501Y100330D01*
X367167Y100997D01*
X367834D01*
X368500Y100330D01*
Y98997D01*
X367834Y98331D01*
X367167D01*
X366501Y98997D01*
X365834Y98331D01*
X365168D01*
X366501Y98997D02*
Y100330D01*
X251466Y80732D02*
X250799Y81399D01*
X249466D01*
X248800Y80732D01*
Y78066D01*
X249466Y77400D01*
X250799D01*
X251466Y78066D01*
X252799Y77400D02*
X254132D01*
X253465D01*
Y81399D01*
X252799Y80732D01*
X256131Y81399D02*
X258797D01*
Y80732D01*
X256131Y78066D01*
Y77400D01*
X430668Y97166D02*
X430001Y96499D01*
Y95166D01*
X430668Y94500D01*
X433334D01*
X434000Y95166D01*
Y96499D01*
X433334Y97166D01*
X434000Y98499D02*
Y99832D01*
Y99165D01*
X430001D01*
X430668Y98499D01*
X430001Y104497D02*
X430668Y103164D01*
X432001Y101831D01*
X433334D01*
X434000Y102497D01*
Y103830D01*
X433334Y104497D01*
X432667D01*
X432001Y103830D01*
Y101831D01*
X343668Y83166D02*
X343001Y82499D01*
Y81166D01*
X343668Y80500D01*
X346334D01*
X347000Y81166D01*
Y82499D01*
X346334Y83166D01*
X347000Y84499D02*
Y85832D01*
Y85165D01*
X343001D01*
X343668Y84499D01*
X343001Y90497D02*
Y87831D01*
X345001D01*
X344334Y89164D01*
Y89830D01*
X345001Y90497D01*
X346334D01*
X347000Y89830D01*
Y88497D01*
X346334Y87831D01*
X497666Y87832D02*
X496999Y88499D01*
X495666D01*
X495000Y87832D01*
Y85166D01*
X495666Y84500D01*
X496999D01*
X497666Y85166D01*
X498999Y84500D02*
X500332D01*
X499665D01*
Y88499D01*
X498999Y87832D01*
X504330Y84500D02*
Y88499D01*
X502331Y86499D01*
X504997D01*
X420168Y169166D02*
X419501Y168499D01*
Y167166D01*
X420168Y166500D01*
X422834D01*
X423500Y167166D01*
Y168499D01*
X422834Y169166D01*
X423500Y170499D02*
Y171832D01*
Y171165D01*
X419501D01*
X420168Y170499D01*
Y173831D02*
X419501Y174497D01*
Y175830D01*
X420168Y176497D01*
X420834D01*
X421501Y175830D01*
Y175164D01*
Y175830D01*
X422167Y176497D01*
X422834D01*
X423500Y175830D01*
Y174497D01*
X422834Y173831D01*
X388166Y28832D02*
X387499Y29499D01*
X386166D01*
X385500Y28832D01*
Y26166D01*
X386166Y25500D01*
X387499D01*
X388166Y26166D01*
X389499Y25500D02*
X390832D01*
X390165D01*
Y29499D01*
X389499Y28832D01*
X392831Y25500D02*
X394164D01*
X393497D01*
Y29499D01*
X392831Y28832D01*
X475166Y352732D02*
X474499Y353399D01*
X473166D01*
X472500Y352732D01*
Y350066D01*
X473166Y349400D01*
X474499D01*
X475166Y350066D01*
X476499Y349400D02*
X477832D01*
X477165D01*
Y353399D01*
X476499Y352732D01*
X479831D02*
X480497Y353399D01*
X481830D01*
X482497Y352732D01*
Y350066D01*
X481830Y349400D01*
X480497D01*
X479831Y350066D01*
Y352732D01*
X525270Y160832D02*
X524603Y161499D01*
X523270D01*
X522604Y160832D01*
Y158167D01*
X523270Y157500D01*
X524603D01*
X525270Y158167D01*
X526603D02*
X527269Y157500D01*
X528602D01*
X529269Y158167D01*
Y160832D01*
X528602Y161499D01*
X527269D01*
X526603Y160832D01*
Y160166D01*
X527269Y159499D01*
X529269D01*
X450866Y364532D02*
X450199Y365199D01*
X448866D01*
X448200Y364532D01*
Y361866D01*
X448866Y361200D01*
X450199D01*
X450866Y361866D01*
X452199Y364532D02*
X452865Y365199D01*
X454198D01*
X454865Y364532D01*
Y363866D01*
X454198Y363199D01*
X454865Y362533D01*
Y361866D01*
X454198Y361200D01*
X452865D01*
X452199Y361866D01*
Y362533D01*
X452865Y363199D01*
X452199Y363866D01*
Y364532D01*
X452865Y363199D02*
X454198D01*
X529166Y79232D02*
X528499Y79899D01*
X527166D01*
X526500Y79232D01*
Y76566D01*
X527166Y75900D01*
X528499D01*
X529166Y76566D01*
X533165Y79899D02*
X531832Y79232D01*
X530499Y77899D01*
Y76566D01*
X531165Y75900D01*
X532498D01*
X533165Y76566D01*
Y77233D01*
X532498Y77899D01*
X530499D01*
X486766Y174832D02*
X486099Y175499D01*
X484766D01*
X484100Y174832D01*
Y172167D01*
X484766Y171500D01*
X486099D01*
X486766Y172167D01*
X490765Y175499D02*
X488099D01*
Y173499D01*
X489432Y174166D01*
X490098D01*
X490765Y173499D01*
Y172167D01*
X490098Y171500D01*
X488765D01*
X488099Y172167D01*
X488666Y71232D02*
X487999Y71899D01*
X486666D01*
X486000Y71232D01*
Y68566D01*
X486666Y67900D01*
X487999D01*
X488666Y68566D01*
X491998Y67900D02*
Y71899D01*
X489999Y69899D01*
X492664D01*
X423666Y76232D02*
X422999Y76899D01*
X421666D01*
X421000Y76232D01*
Y73566D01*
X421666Y72900D01*
X422999D01*
X423666Y73566D01*
X424999Y76232D02*
X425665Y76899D01*
X426998D01*
X427665Y76232D01*
Y75566D01*
X426998Y74899D01*
X426332D01*
X426998D01*
X427665Y74233D01*
Y73566D01*
X426998Y72900D01*
X425665D01*
X424999Y73566D01*
X464666Y376332D02*
X463999Y376999D01*
X462666D01*
X462000Y376332D01*
Y373666D01*
X462666Y373000D01*
X463999D01*
X464666Y373666D01*
X468665Y373000D02*
X465999D01*
X468665Y375666D01*
Y376332D01*
X467998Y376999D01*
X466665D01*
X465999Y376332D01*
X508166Y375832D02*
X507499Y376499D01*
X506166D01*
X505500Y375832D01*
Y373166D01*
X506166Y372500D01*
X507499D01*
X508166Y373166D01*
X509499Y372500D02*
X510832D01*
X510165D01*
Y376499D01*
X509499Y375832D01*
X145266Y327399D02*
X143933D01*
X144599D01*
Y324066D01*
X143933Y323400D01*
X143266D01*
X142600Y324066D01*
X149265Y323400D02*
X146599D01*
X149265Y326066D01*
Y326732D01*
X148598Y327399D01*
X147265D01*
X146599Y326732D01*
X145266Y267399D02*
X143933D01*
X144599D01*
Y264066D01*
X143933Y263400D01*
X143266D01*
X142600Y264066D01*
X146599Y263400D02*
X147932D01*
X147265D01*
Y267399D01*
X146599Y266732D01*
X8500Y337000D02*
Y340999D01*
X10499D01*
X11166Y340332D01*
Y338999D01*
X10499Y338333D01*
X8500D01*
X15165Y337000D02*
X12499D01*
X15165Y339666D01*
Y340332D01*
X14498Y340999D01*
X13165D01*
X12499Y340332D01*
X323300Y92099D02*
Y88766D01*
X323966Y88100D01*
X325299D01*
X325966Y88766D01*
Y92099D01*
X327299Y88100D02*
X328632D01*
X327965D01*
Y92099D01*
X327299Y91432D01*
X240000Y52999D02*
Y49666D01*
X240666Y49000D01*
X241999D01*
X242666Y49666D01*
Y52999D01*
X246665Y49000D02*
X243999D01*
X246665Y51666D01*
Y52332D01*
X245998Y52999D01*
X244665D01*
X243999Y52332D01*
X286000Y307499D02*
Y304166D01*
X286666Y303500D01*
X287999D01*
X288666Y304166D01*
Y307499D01*
X289999Y304166D02*
X290665Y303500D01*
X291998D01*
X292665Y304166D01*
Y306832D01*
X291998Y307499D01*
X290665D01*
X289999Y306832D01*
Y306166D01*
X290665Y305499D01*
X292665D01*
X496001Y67000D02*
X499334D01*
X500000Y67666D01*
Y68999D01*
X499334Y69666D01*
X496001D01*
X500000Y70999D02*
Y72332D01*
Y71665D01*
X496001D01*
X496668Y70999D01*
Y74331D02*
X496001Y74997D01*
Y76330D01*
X496668Y76997D01*
X499334D01*
X500000Y76330D01*
Y74997D01*
X499334Y74331D01*
X496668D01*
X548001Y120000D02*
X551334D01*
X552000Y120667D01*
Y121999D01*
X551334Y122666D01*
X548001D01*
X552000Y123999D02*
Y125332D01*
Y124665D01*
X548001D01*
X548668Y123999D01*
X552000Y127331D02*
Y128664D01*
Y127997D01*
X548001D01*
X548668Y127331D01*
X445500Y186299D02*
Y182966D01*
X446166Y182300D01*
X447499D01*
X448166Y182966D01*
Y186299D01*
X449499Y182300D02*
X450832D01*
X450165D01*
Y186299D01*
X449499Y185632D01*
X455497Y182300D02*
X452831D01*
X455497Y184966D01*
Y185632D01*
X454830Y186299D01*
X453497D01*
X452831Y185632D01*
X321400Y201899D02*
Y198566D01*
X322066Y197900D01*
X323399D01*
X324066Y198566D01*
Y201899D01*
X325399Y197900D02*
X326732D01*
X326065D01*
Y201899D01*
X325399Y201232D01*
X330730Y197900D02*
Y201899D01*
X328731Y199899D01*
X331397D01*
X222000Y201899D02*
Y198566D01*
X222666Y197900D01*
X223999D01*
X224666Y198566D01*
Y201899D01*
X225999Y197900D02*
X227332D01*
X226665D01*
Y201899D01*
X225999Y201232D01*
X231997Y201899D02*
X229331D01*
Y199899D01*
X230664Y200566D01*
X231330D01*
X231997Y199899D01*
Y198566D01*
X231330Y197900D01*
X229997D01*
X229331Y198566D01*
X448500Y56499D02*
Y53166D01*
X449166Y52500D01*
X450499D01*
X451166Y53166D01*
Y56499D01*
X452499Y52500D02*
X453832D01*
X453165D01*
Y56499D01*
X452499Y55832D01*
X455831Y56499D02*
X458497D01*
Y55832D01*
X455831Y53166D01*
Y52500D01*
X385500Y58799D02*
Y55466D01*
X386166Y54800D01*
X387499D01*
X388166Y55466D01*
Y58799D01*
X389499Y54800D02*
X390832D01*
X390165D01*
Y58799D01*
X389499Y58132D01*
X392831D02*
X393497Y58799D01*
X394830D01*
X395497Y58132D01*
Y57466D01*
X394830Y56799D01*
X395497Y56133D01*
Y55466D01*
X394830Y54800D01*
X393497D01*
X392831Y55466D01*
Y56133D01*
X393497Y56799D01*
X392831Y57466D01*
Y58132D01*
X393497Y56799D02*
X394830D01*
X507200Y43800D02*
Y47799D01*
X509199D01*
X509866Y47132D01*
Y45799D01*
X509199Y45133D01*
X507200D01*
X513865Y47799D02*
X511199D01*
Y45799D01*
X512532Y46466D01*
X513198D01*
X513865Y45799D01*
Y44466D01*
X513198Y43800D01*
X511865D01*
X511199Y44466D01*
X170100Y344700D02*
Y348699D01*
X172099D01*
X172766Y348032D01*
Y346699D01*
X172099Y346033D01*
X170100D01*
X171433D02*
X172766Y344700D01*
X174099Y348032D02*
X174765Y348699D01*
X176098D01*
X176765Y348032D01*
Y347366D01*
X176098Y346699D01*
X175432D01*
X176098D01*
X176765Y346033D01*
Y345366D01*
X176098Y344700D01*
X174765D01*
X174099Y345366D01*
X178097D02*
X178764Y344700D01*
X180097D01*
X180763Y345366D01*
Y348032D01*
X180097Y348699D01*
X178764D01*
X178097Y348032D01*
Y347366D01*
X178764Y346699D01*
X180763D01*
X215500Y340400D02*
Y344399D01*
X217499D01*
X218166Y343732D01*
Y342399D01*
X217499Y341733D01*
X215500D01*
X216833D02*
X218166Y340400D01*
X221498D02*
Y344399D01*
X219499Y342399D01*
X222165D01*
X223497Y343732D02*
X224164Y344399D01*
X225497D01*
X226163Y343732D01*
Y341066D01*
X225497Y340400D01*
X224164D01*
X223497Y341066D01*
Y343732D01*
X419500Y13000D02*
X415501D01*
Y14999D01*
X416168Y15666D01*
X417501D01*
X418167Y14999D01*
Y13000D01*
Y14333D02*
X419500Y15666D01*
Y18998D02*
X415501D01*
X417501Y16999D01*
Y19665D01*
X419500Y20997D02*
Y22330D01*
Y21664D01*
X415501D01*
X416168Y20997D01*
X532166Y108832D02*
X531499Y109499D01*
X530166D01*
X529500Y108832D01*
Y106167D01*
X530166Y105500D01*
X531499D01*
X532166Y106167D01*
X533499Y109499D02*
X536165D01*
Y108832D01*
X533499Y106167D01*
Y105500D01*
X128332Y304834D02*
X128999Y305501D01*
Y306834D01*
X128332Y307500D01*
X127666D01*
X126999Y306834D01*
Y305501D01*
X126333Y304834D01*
X125666D01*
X125000Y305501D01*
Y306834D01*
X125666Y307500D01*
X128332Y300835D02*
X128999Y301502D01*
Y302835D01*
X128332Y303501D01*
X125666D01*
X125000Y302835D01*
Y301502D01*
X125666Y300835D01*
X128999Y299503D02*
X125000D01*
Y296837D01*
X128999Y295504D02*
X125000D01*
Y293505D01*
X125666Y292838D01*
X126333D01*
X126999Y293505D01*
Y295504D01*
Y293505D01*
X127666Y292838D01*
X128332D01*
X128999Y293505D01*
Y295504D01*
X117999Y304834D02*
X118665Y305501D01*
Y306834D01*
X117999Y307500D01*
X117332D01*
X116666Y306834D01*
Y305501D01*
X116000Y304834D01*
X115333D01*
X114667Y305501D01*
Y306834D01*
X115333Y307500D01*
X118665Y303501D02*
X114667D01*
Y301502D01*
X115333Y300835D01*
X117999D01*
X118665Y301502D01*
Y303501D01*
X114667Y299503D02*
X117332D01*
X118665Y298170D01*
X117332Y296837D01*
X114667D01*
X116666D01*
Y299503D01*
X118665Y295504D02*
X114667D01*
Y293505D01*
X115333Y292838D01*
X116000D01*
X116666Y293505D01*
Y295504D01*
Y293505D01*
X117332Y292838D01*
X117999D01*
X118665Y293505D01*
Y295504D01*
X108332Y307500D02*
X105666D01*
X104333Y306167D01*
X105666Y304834D01*
X108332D01*
Y303501D02*
X105000D01*
X104333Y302835D01*
Y301502D01*
X105000Y300835D01*
X108332D01*
X97999Y307500D02*
X94000D01*
Y305501D01*
X94666Y304834D01*
X97332D01*
X97999Y305501D01*
Y307500D01*
X97332Y300835D02*
X97999Y301502D01*
Y302835D01*
X97332Y303501D01*
X94666D01*
X94000Y302835D01*
Y301502D01*
X94666Y300835D01*
X95999D01*
Y302168D01*
X94000Y299503D02*
X97999D01*
X94000Y296837D01*
X97999D01*
Y295504D02*
X94000D01*
Y293505D01*
X94666Y292838D01*
X97332D01*
X97999Y293505D01*
Y295504D01*
X590035Y359770D02*
X589749Y360342D01*
X589178Y360913D01*
X588607Y361199D01*
X587464D01*
X586893Y360913D01*
X586321Y360342D01*
X586036Y359770D01*
X585750Y358913D01*
Y357485D01*
X586036Y356628D01*
X586321Y356057D01*
X586893Y355486D01*
X587464Y355200D01*
X588607D01*
X589178Y355486D01*
X589749Y356057D01*
X590035Y356628D01*
X593250Y361199D02*
Y355200D01*
Y361199D02*
X595821D01*
X596678Y360913D01*
X596964Y360627D01*
X597249Y360056D01*
Y359485D01*
X596964Y358913D01*
X596678Y358628D01*
X595821Y358342D01*
X593250D02*
X595821D01*
X596678Y358056D01*
X596964Y357771D01*
X597249Y357200D01*
Y356343D01*
X596964Y355771D01*
X596678Y355486D01*
X595821Y355200D01*
X593250D01*
X605320D02*
X603035Y361199D01*
X600750Y355200D01*
X601607Y357200D02*
X604463D01*
X590035Y33520D02*
X589749Y34092D01*
X589178Y34663D01*
X588607Y34949D01*
X587464D01*
X586893Y34663D01*
X586321Y34092D01*
X586036Y33520D01*
X585750Y32664D01*
Y31235D01*
X586036Y30378D01*
X586321Y29807D01*
X586893Y29236D01*
X587464Y28950D01*
X588607D01*
X589178Y29236D01*
X589749Y29807D01*
X590035Y30378D01*
X594500Y34949D02*
Y28950D01*
Y34949D02*
X597071D01*
X597928Y34663D01*
X598213Y34377D01*
X598499Y33806D01*
Y33235D01*
X598213Y32664D01*
X597928Y32378D01*
X597071Y32092D01*
X594500D02*
X597071D01*
X597928Y31806D01*
X598213Y31521D01*
X598499Y30950D01*
Y30093D01*
X598213Y29521D01*
X597928Y29236D01*
X597071Y28950D01*
X594500D01*
X606570D02*
X604285Y34949D01*
X602000Y28950D01*
X602857Y30950D02*
X605714D01*
X616001Y35771D02*
Y38914D01*
X618287Y37200D01*
Y38056D01*
X618572Y38628D01*
X618858Y38914D01*
X619715Y39199D01*
X620286D01*
X621143Y38914D01*
X621714Y38342D01*
X622000Y37485D01*
Y36628D01*
X621714Y35771D01*
X621429Y35486D01*
X620857Y35200D01*
X617430Y40827D02*
X617144D01*
X616573Y41113D01*
X616287Y41399D01*
X616001Y41970D01*
Y43113D01*
X616287Y43684D01*
X616573Y43970D01*
X617144Y44255D01*
X617715D01*
X618287Y43970D01*
X619143Y43398D01*
X622000Y40542D01*
Y44541D01*
X617144Y348950D02*
X616858Y349521D01*
X616001Y350378D01*
X622000D01*
X573500Y374999D02*
X576166D01*
X574833Y376332D02*
Y373666D01*
X577499Y373000D02*
X578832D01*
X578165D01*
Y376999D01*
X577499Y376332D01*
X583497Y373000D02*
X580831D01*
X583497Y375666D01*
Y376332D01*
X582830Y376999D01*
X581497D01*
X580831Y376332D01*
X576166Y365332D02*
X575499Y365999D01*
X574166D01*
X573500Y365332D01*
Y362666D01*
X574166Y362000D01*
X575499D01*
X576166Y362666D01*
Y363999D01*
X574833D01*
X577499Y362000D02*
Y365999D01*
X580164Y362000D01*
Y365999D01*
X581497D02*
Y362000D01*
X583497D01*
X584163Y362666D01*
Y365332D01*
X583497Y365999D01*
X581497D01*
X571500Y353999D02*
X574166D01*
X575499Y352000D02*
X576832D01*
X576165D01*
Y355999D01*
X575499Y355332D01*
X581497Y352000D02*
X578831D01*
X581497Y354666D01*
Y355332D01*
X580830Y355999D01*
X579497D01*
X578831Y355332D01*
X144000Y309000D02*
X147999D01*
Y307001D01*
X147332Y306334D01*
X145999D01*
X145333Y307001D01*
Y309000D01*
X147999Y305001D02*
Y303668D01*
Y304335D01*
X144000D01*
Y305001D01*
Y303668D01*
X147999Y299670D02*
Y301003D01*
X147332Y301669D01*
X144667D01*
X144000Y301003D01*
Y299670D01*
X144667Y299003D01*
X147332D01*
X147999Y299670D01*
X144000Y295671D02*
X147999D01*
X145999Y297670D01*
Y295005D01*
X147332Y293672D02*
X147999Y293005D01*
Y291672D01*
X147332Y291006D01*
X146666D01*
X145999Y291672D01*
X145333Y291006D01*
X144667D01*
X144000Y291672D01*
Y293005D01*
X144667Y293672D01*
X145333D01*
X145999Y293005D01*
X146666Y293672D01*
X147332D01*
X145999Y293005D02*
Y291672D01*
X154043Y309000D02*
X158042D01*
Y307001D01*
X157376Y306334D01*
X156043D01*
X155376Y307001D01*
Y309000D01*
X158042Y305001D02*
Y303668D01*
Y304335D01*
X154043D01*
Y305001D01*
Y303668D01*
X158042Y299670D02*
Y301003D01*
X157376Y301669D01*
X154710D01*
X154043Y301003D01*
Y299670D01*
X154710Y299003D01*
X157376D01*
X158042Y299670D01*
X154043Y295671D02*
X158042D01*
X156043Y297670D01*
Y295005D01*
X158042Y293672D02*
Y291006D01*
X157376D01*
X154710Y293672D01*
X154043D01*
X164087Y309000D02*
X168086D01*
Y307001D01*
X167419Y306334D01*
X166086D01*
X165420Y307001D01*
Y309000D01*
X168086Y305001D02*
Y303668D01*
Y304335D01*
X164087D01*
Y305001D01*
Y303668D01*
X168086Y299670D02*
Y301003D01*
X167419Y301669D01*
X164753D01*
X164087Y301003D01*
Y299670D01*
X164753Y299003D01*
X167419D01*
X168086Y299670D01*
X164087Y295671D02*
X168086D01*
X166086Y297670D01*
Y295005D01*
X168086Y291006D02*
X167419Y292339D01*
X166086Y293672D01*
X164753D01*
X164087Y293005D01*
Y291672D01*
X164753Y291006D01*
X165420D01*
X166086Y291672D01*
Y293672D01*
X174130Y309000D02*
X178129D01*
Y307001D01*
X177463Y306334D01*
X176130D01*
X175463Y307001D01*
Y309000D01*
X178129Y305001D02*
Y303668D01*
Y304335D01*
X174130D01*
Y305001D01*
Y303668D01*
X178129Y299670D02*
Y301003D01*
X177463Y301669D01*
X174797D01*
X174130Y301003D01*
Y299670D01*
X174797Y299003D01*
X177463D01*
X178129Y299670D01*
X174130Y295671D02*
X178129D01*
X176130Y297670D01*
Y295005D01*
X178129Y291006D02*
Y293672D01*
X176130D01*
X176796Y292339D01*
Y291672D01*
X176130Y291006D01*
X174797D01*
X174130Y291672D01*
Y293005D01*
X174797Y293672D01*
X184174Y309000D02*
X188173D01*
Y307001D01*
X187506Y306334D01*
X186173D01*
X185507Y307001D01*
Y309000D01*
X188173Y305001D02*
Y303668D01*
Y304335D01*
X184174D01*
Y305001D01*
Y303668D01*
X188173Y299670D02*
Y301003D01*
X187506Y301669D01*
X184840D01*
X184174Y301003D01*
Y299670D01*
X184840Y299003D01*
X187506D01*
X188173Y299670D01*
X184174Y295671D02*
X188173D01*
X186173Y297670D01*
Y295005D01*
X184174Y291672D02*
X188173D01*
X186173Y293672D01*
Y291006D01*
X194217Y309000D02*
X198216D01*
Y307001D01*
X197550Y306334D01*
X196217D01*
X195550Y307001D01*
Y309000D01*
X198216Y305001D02*
Y303668D01*
Y304335D01*
X194217D01*
Y305001D01*
Y303668D01*
X198216Y299670D02*
Y301003D01*
X197550Y301669D01*
X194884D01*
X194217Y301003D01*
Y299670D01*
X194884Y299003D01*
X197550D01*
X198216Y299670D01*
X194217Y295671D02*
X198216D01*
X196217Y297670D01*
Y295005D01*
X197550Y293672D02*
X198216Y293005D01*
Y291672D01*
X197550Y291006D01*
X196883D01*
X196217Y291672D01*
Y292339D01*
Y291672D01*
X195550Y291006D01*
X194884D01*
X194217Y291672D01*
Y293005D01*
X194884Y293672D01*
X204261Y309000D02*
X208260D01*
Y307001D01*
X207593Y306334D01*
X206260D01*
X205594Y307001D01*
Y309000D01*
X208260Y305001D02*
Y303668D01*
Y304335D01*
X204261D01*
Y305001D01*
Y303668D01*
X208260Y299670D02*
Y301003D01*
X207593Y301669D01*
X204927D01*
X204261Y301003D01*
Y299670D01*
X204927Y299003D01*
X207593D01*
X208260Y299670D01*
X204261Y295671D02*
X208260D01*
X206260Y297670D01*
Y295005D01*
X204261Y291006D02*
Y293672D01*
X206927Y291006D01*
X207593D01*
X208260Y291672D01*
Y293005D01*
X207593Y293672D01*
X214304Y309000D02*
X218303D01*
Y307001D01*
X217636Y306334D01*
X216304D01*
X215637Y307001D01*
Y309000D01*
X218303Y305001D02*
Y303668D01*
Y304335D01*
X214304D01*
Y305001D01*
Y303668D01*
X218303Y299670D02*
Y301003D01*
X217636Y301669D01*
X214971D01*
X214304Y301003D01*
Y299670D01*
X214971Y299003D01*
X217636D01*
X218303Y299670D01*
X214304Y295671D02*
X218303D01*
X216304Y297670D01*
Y295005D01*
X214304Y293672D02*
Y292339D01*
Y293005D01*
X218303D01*
X217636Y293672D01*
X224348Y309000D02*
X228346D01*
Y307001D01*
X227680Y306334D01*
X226347D01*
X225681Y307001D01*
Y309000D01*
X228346Y305001D02*
Y303668D01*
Y304335D01*
X224348D01*
Y305001D01*
Y303668D01*
X228346Y299670D02*
Y301003D01*
X227680Y301669D01*
X225014D01*
X224348Y301003D01*
Y299670D01*
X225014Y299003D01*
X227680D01*
X228346Y299670D01*
X224348Y295671D02*
X228346D01*
X226347Y297670D01*
Y295005D01*
X227680Y293672D02*
X228346Y293005D01*
Y291672D01*
X227680Y291006D01*
X225014D01*
X224348Y291672D01*
Y293005D01*
X225014Y293672D01*
X227680D01*
X234391Y309000D02*
X238390D01*
Y307001D01*
X237723Y306334D01*
X236391D01*
X235724Y307001D01*
Y309000D01*
X238390Y305001D02*
Y303668D01*
Y304335D01*
X234391D01*
Y305001D01*
Y303668D01*
X238390Y299670D02*
Y301003D01*
X237723Y301669D01*
X235058D01*
X234391Y301003D01*
Y299670D01*
X235058Y299003D01*
X237723D01*
X238390Y299670D01*
X237723Y297670D02*
X238390Y297004D01*
Y295671D01*
X237723Y295005D01*
X237057D01*
X236391Y295671D01*
Y296337D01*
Y295671D01*
X235724Y295005D01*
X235058D01*
X234391Y295671D01*
Y297004D01*
X235058Y297670D01*
Y293672D02*
X234391Y293005D01*
Y291672D01*
X235058Y291006D01*
X237723D01*
X238390Y291672D01*
Y293005D01*
X237723Y293672D01*
X237057D01*
X236391Y293005D01*
Y291006D01*
X244435Y309000D02*
X248433D01*
Y307001D01*
X247767Y306334D01*
X246434D01*
X245768Y307001D01*
Y309000D01*
X248433Y305001D02*
Y303668D01*
Y304335D01*
X244435D01*
Y305001D01*
Y303668D01*
X248433Y299670D02*
Y301003D01*
X247767Y301669D01*
X245101D01*
X244435Y301003D01*
Y299670D01*
X245101Y299003D01*
X247767D01*
X248433Y299670D01*
X247767Y297670D02*
X248433Y297004D01*
Y295671D01*
X247767Y295005D01*
X247100D01*
X246434Y295671D01*
Y296337D01*
Y295671D01*
X245768Y295005D01*
X245101D01*
X244435Y295671D01*
Y297004D01*
X245101Y297670D01*
X247767Y293672D02*
X248433Y293005D01*
Y291672D01*
X247767Y291006D01*
X247100D01*
X246434Y291672D01*
X245768Y291006D01*
X245101D01*
X244435Y291672D01*
Y293005D01*
X245101Y293672D01*
X245768D01*
X246434Y293005D01*
X247100Y293672D01*
X247767D01*
X246434Y293005D02*
Y291672D01*
X254478Y309000D02*
X258477D01*
Y307001D01*
X257810Y306334D01*
X256477D01*
X255811Y307001D01*
Y309000D01*
X258477Y305001D02*
Y303668D01*
Y304335D01*
X254478D01*
Y305001D01*
Y303668D01*
X258477Y299670D02*
Y301003D01*
X257810Y301669D01*
X255145D01*
X254478Y301003D01*
Y299670D01*
X255145Y299003D01*
X257810D01*
X258477Y299670D01*
X257810Y297670D02*
X258477Y297004D01*
Y295671D01*
X257810Y295005D01*
X257144D01*
X256477Y295671D01*
Y296337D01*
Y295671D01*
X255811Y295005D01*
X255145D01*
X254478Y295671D01*
Y297004D01*
X255145Y297670D01*
X258477Y293672D02*
Y291006D01*
X257810D01*
X255145Y293672D01*
X254478D01*
X264522Y309000D02*
X268520D01*
Y307001D01*
X267854Y306334D01*
X266521D01*
X265855Y307001D01*
Y309000D01*
X268520Y305001D02*
Y303668D01*
Y304335D01*
X264522D01*
Y305001D01*
Y303668D01*
X268520Y299670D02*
Y301003D01*
X267854Y301669D01*
X265188D01*
X264522Y301003D01*
Y299670D01*
X265188Y299003D01*
X267854D01*
X268520Y299670D01*
X267854Y297670D02*
X268520Y297004D01*
Y295671D01*
X267854Y295005D01*
X267187D01*
X266521Y295671D01*
Y296337D01*
Y295671D01*
X265855Y295005D01*
X265188D01*
X264522Y295671D01*
Y297004D01*
X265188Y297670D01*
X268520Y291006D02*
X267854Y292339D01*
X266521Y293672D01*
X265188D01*
X264522Y293005D01*
Y291672D01*
X265188Y291006D01*
X265855D01*
X266521Y291672D01*
Y293672D01*
X274565Y309000D02*
X278564D01*
Y307001D01*
X277897Y306334D01*
X276565D01*
X275898Y307001D01*
Y309000D01*
X278564Y305001D02*
Y303668D01*
Y304335D01*
X274565D01*
Y305001D01*
Y303668D01*
X278564Y299670D02*
Y301003D01*
X277897Y301669D01*
X275232D01*
X274565Y301003D01*
Y299670D01*
X275232Y299003D01*
X277897D01*
X278564Y299670D01*
X277897Y297670D02*
X278564Y297004D01*
Y295671D01*
X277897Y295005D01*
X277231D01*
X276565Y295671D01*
Y296337D01*
Y295671D01*
X275898Y295005D01*
X275232D01*
X274565Y295671D01*
Y297004D01*
X275232Y297670D01*
X278564Y291006D02*
Y293672D01*
X276565D01*
X277231Y292339D01*
Y291672D01*
X276565Y291006D01*
X275232D01*
X274565Y291672D01*
Y293005D01*
X275232Y293672D01*
X288500Y323000D02*
X284501D01*
Y324999D01*
X285168Y325666D01*
X286501D01*
X287167Y324999D01*
Y323000D01*
X284501Y326999D02*
Y328332D01*
Y327665D01*
X288500D01*
Y326999D01*
Y328332D01*
X284501Y332330D02*
Y330997D01*
X285168Y330331D01*
X287834D01*
X288500Y330997D01*
Y332330D01*
X287834Y332997D01*
X285168D01*
X284501Y332330D01*
X285168Y334330D02*
X284501Y334996D01*
Y336329D01*
X285168Y336996D01*
X285834D01*
X286501Y336329D01*
Y335663D01*
Y336329D01*
X287167Y336996D01*
X287834D01*
X288500Y336329D01*
Y334996D01*
X287834Y334330D01*
X288500Y340328D02*
X284501D01*
X286501Y338328D01*
Y340994D01*
X299500Y323000D02*
X295501D01*
Y324999D01*
X296168Y325666D01*
X297501D01*
X298167Y324999D01*
Y323000D01*
X295501Y326999D02*
Y328332D01*
Y327665D01*
X299500D01*
Y326999D01*
Y328332D01*
X295501Y332330D02*
Y330997D01*
X296168Y330331D01*
X298834D01*
X299500Y330997D01*
Y332330D01*
X298834Y332997D01*
X296168D01*
X295501Y332330D01*
X296168Y334330D02*
X295501Y334996D01*
Y336329D01*
X296168Y336996D01*
X296834D01*
X297501Y336329D01*
Y335663D01*
Y336329D01*
X298167Y336996D01*
X298834D01*
X299500Y336329D01*
Y334996D01*
X298834Y334330D01*
X296168Y338328D02*
X295501Y338995D01*
Y340328D01*
X296168Y340994D01*
X296834D01*
X297501Y340328D01*
Y339661D01*
Y340328D01*
X298167Y340994D01*
X298834D01*
X299500Y340328D01*
Y338995D01*
X298834Y338328D01*
X304696Y309000D02*
X308694D01*
Y307001D01*
X308028Y306334D01*
X306695D01*
X306028Y307001D01*
Y309000D01*
X308694Y305001D02*
Y303668D01*
Y304335D01*
X304696D01*
Y305001D01*
Y303668D01*
X308694Y299670D02*
Y301003D01*
X308028Y301669D01*
X305362D01*
X304696Y301003D01*
Y299670D01*
X305362Y299003D01*
X308028D01*
X308694Y299670D01*
X308028Y297670D02*
X308694Y297004D01*
Y295671D01*
X308028Y295005D01*
X307361D01*
X306695Y295671D01*
Y296337D01*
Y295671D01*
X306028Y295005D01*
X305362D01*
X304696Y295671D01*
Y297004D01*
X305362Y297670D01*
X304696Y291006D02*
Y293672D01*
X307361Y291006D01*
X308028D01*
X308694Y291672D01*
Y293005D01*
X308028Y293672D01*
X314739Y309000D02*
X318738D01*
Y307001D01*
X318071Y306334D01*
X316738D01*
X316072Y307001D01*
Y309000D01*
X318738Y305001D02*
Y303668D01*
Y304335D01*
X314739D01*
Y305001D01*
Y303668D01*
X318738Y299670D02*
Y301003D01*
X318071Y301669D01*
X315406D01*
X314739Y301003D01*
Y299670D01*
X315406Y299003D01*
X318071D01*
X318738Y299670D01*
X318071Y297670D02*
X318738Y297004D01*
Y295671D01*
X318071Y295005D01*
X317405D01*
X316738Y295671D01*
Y296337D01*
Y295671D01*
X316072Y295005D01*
X315406D01*
X314739Y295671D01*
Y297004D01*
X315406Y297670D01*
X314739Y293672D02*
Y292339D01*
Y293005D01*
X318738D01*
X318071Y293672D01*
X324782Y309000D02*
X328781D01*
Y307001D01*
X328115Y306334D01*
X326782D01*
X326115Y307001D01*
Y309000D01*
X328781Y305001D02*
Y303668D01*
Y304335D01*
X324782D01*
Y305001D01*
Y303668D01*
X328781Y299670D02*
Y301003D01*
X328115Y301669D01*
X325449D01*
X324782Y301003D01*
Y299670D01*
X325449Y299003D01*
X328115D01*
X328781Y299670D01*
X328115Y297670D02*
X328781Y297004D01*
Y295671D01*
X328115Y295005D01*
X327448D01*
X326782Y295671D01*
Y296337D01*
Y295671D01*
X326115Y295005D01*
X325449D01*
X324782Y295671D01*
Y297004D01*
X325449Y297670D01*
X328115Y293672D02*
X328781Y293005D01*
Y291672D01*
X328115Y291006D01*
X325449D01*
X324782Y291672D01*
Y293005D01*
X325449Y293672D01*
X328115D01*
X334826Y309000D02*
X338825D01*
Y307001D01*
X338158Y306334D01*
X336825D01*
X336159Y307001D01*
Y309000D01*
X338825Y305001D02*
Y303668D01*
Y304335D01*
X334826D01*
Y305001D01*
Y303668D01*
X338825Y299670D02*
Y301003D01*
X338158Y301669D01*
X335492D01*
X334826Y301003D01*
Y299670D01*
X335492Y299003D01*
X338158D01*
X338825Y299670D01*
X334826Y295005D02*
Y297670D01*
X337492Y295005D01*
X338158D01*
X338825Y295671D01*
Y297004D01*
X338158Y297670D01*
X335492Y293672D02*
X334826Y293005D01*
Y291672D01*
X335492Y291006D01*
X338158D01*
X338825Y291672D01*
Y293005D01*
X338158Y293672D01*
X337492D01*
X336825Y293005D01*
Y291006D01*
X344869Y309000D02*
X348868D01*
Y307001D01*
X348202Y306334D01*
X346869D01*
X346202Y307001D01*
Y309000D01*
X348868Y305001D02*
Y303668D01*
Y304335D01*
X344869D01*
Y305001D01*
Y303668D01*
X348868Y299670D02*
Y301003D01*
X348202Y301669D01*
X345536D01*
X344869Y301003D01*
Y299670D01*
X345536Y299003D01*
X348202D01*
X348868Y299670D01*
X344869Y295005D02*
Y297670D01*
X347535Y295005D01*
X348202D01*
X348868Y295671D01*
Y297004D01*
X348202Y297670D01*
Y293672D02*
X348868Y293005D01*
Y291672D01*
X348202Y291006D01*
X347535D01*
X346869Y291672D01*
X346202Y291006D01*
X345536D01*
X344869Y291672D01*
Y293005D01*
X345536Y293672D01*
X346202D01*
X346869Y293005D01*
X347535Y293672D01*
X348202D01*
X346869Y293005D02*
Y291672D01*
X354913Y309000D02*
X358912D01*
Y307001D01*
X358245Y306334D01*
X356912D01*
X356246Y307001D01*
Y309000D01*
X358912Y305001D02*
Y303668D01*
Y304335D01*
X354913D01*
Y305001D01*
Y303668D01*
X358912Y299670D02*
Y301003D01*
X358245Y301669D01*
X355579D01*
X354913Y301003D01*
Y299670D01*
X355579Y299003D01*
X358245D01*
X358912Y299670D01*
X354913Y295005D02*
Y297670D01*
X357579Y295005D01*
X358245D01*
X358912Y295671D01*
Y297004D01*
X358245Y297670D01*
X358912Y293672D02*
Y291006D01*
X358245D01*
X355579Y293672D01*
X354913D01*
X364956Y309000D02*
X368955D01*
Y307001D01*
X368289Y306334D01*
X366956D01*
X366289Y307001D01*
Y309000D01*
X368955Y305001D02*
Y303668D01*
Y304335D01*
X364956D01*
Y305001D01*
Y303668D01*
X368955Y299670D02*
Y301003D01*
X368289Y301669D01*
X365623D01*
X364956Y301003D01*
Y299670D01*
X365623Y299003D01*
X368289D01*
X368955Y299670D01*
X364956Y295005D02*
Y297670D01*
X367622Y295005D01*
X368289D01*
X368955Y295671D01*
Y297004D01*
X368289Y297670D01*
X368955Y291006D02*
X368289Y292339D01*
X366956Y293672D01*
X365623D01*
X364956Y293005D01*
Y291672D01*
X365623Y291006D01*
X366289D01*
X366956Y291672D01*
Y293672D01*
X378999Y309000D02*
X375000D01*
Y307001D01*
X375666Y306334D01*
X378332D01*
X378999Y307001D01*
Y309000D01*
X378332Y302336D02*
X378999Y303002D01*
Y304335D01*
X378332Y305001D01*
X375666D01*
X375000Y304335D01*
Y303002D01*
X375666Y302336D01*
X376999D01*
Y303668D01*
X375000Y301003D02*
X378999D01*
X375000Y298337D01*
X378999D01*
Y297004D02*
X375000D01*
Y295005D01*
X375666Y294338D01*
X378332D01*
X378999Y295005D01*
Y297004D01*
X378998Y248000D02*
X376333D01*
X375000Y246667D01*
X376333Y245334D01*
X378998D01*
Y244001D02*
X375666D01*
X375000Y243335D01*
Y242002D01*
X375666Y241336D01*
X378998D01*
X364956Y248000D02*
X368955D01*
Y246001D01*
X368289Y245334D01*
X366956D01*
X366289Y246001D01*
Y248000D01*
X368955Y244001D02*
Y242668D01*
Y243335D01*
X364956D01*
Y244001D01*
Y242668D01*
X368955Y238670D02*
Y240003D01*
X368289Y240669D01*
X365623D01*
X364956Y240003D01*
Y238670D01*
X365623Y238003D01*
X368289D01*
X368955Y238670D01*
X364956Y234004D02*
Y236670D01*
X367622Y234004D01*
X368289D01*
X368955Y234671D01*
Y236004D01*
X368289Y236670D01*
Y232672D02*
X368955Y232005D01*
Y230672D01*
X368289Y230006D01*
X367622D01*
X366956Y230672D01*
Y231339D01*
Y230672D01*
X366289Y230006D01*
X365623D01*
X364956Y230672D01*
Y232005D01*
X365623Y232672D01*
X354913Y248000D02*
X358912D01*
Y246001D01*
X358245Y245334D01*
X356912D01*
X356246Y246001D01*
Y248000D01*
X358912Y244001D02*
Y242668D01*
Y243335D01*
X354913D01*
Y244001D01*
Y242668D01*
X358912Y238670D02*
Y240003D01*
X358245Y240669D01*
X355579D01*
X354913Y240003D01*
Y238670D01*
X355579Y238003D01*
X358245D01*
X358912Y238670D01*
X354913Y234004D02*
Y236670D01*
X357579Y234004D01*
X358245D01*
X358912Y234671D01*
Y236004D01*
X358245Y236670D01*
X354913Y230006D02*
Y232672D01*
X357579Y230006D01*
X358245D01*
X358912Y230672D01*
Y232005D01*
X358245Y232672D01*
X344869Y248000D02*
X348868D01*
Y246001D01*
X348202Y245334D01*
X346869D01*
X346202Y246001D01*
Y248000D01*
X348868Y244001D02*
Y242668D01*
Y243335D01*
X344869D01*
Y244001D01*
Y242668D01*
X348868Y238670D02*
Y240003D01*
X348202Y240669D01*
X345536D01*
X344869Y240003D01*
Y238670D01*
X345536Y238003D01*
X348202D01*
X348868Y238670D01*
X344869Y234004D02*
Y236670D01*
X347535Y234004D01*
X348202D01*
X348868Y234671D01*
Y236004D01*
X348202Y236670D01*
X344869Y232672D02*
Y231339D01*
Y232005D01*
X348868D01*
X348202Y232672D01*
X334826Y248000D02*
X338825D01*
Y246001D01*
X338158Y245334D01*
X336825D01*
X336159Y246001D01*
Y248000D01*
X338825Y244001D02*
Y242668D01*
Y243335D01*
X334826D01*
Y244001D01*
Y242668D01*
X338825Y238670D02*
Y240003D01*
X338158Y240669D01*
X335492D01*
X334826Y240003D01*
Y238670D01*
X335492Y238003D01*
X338158D01*
X338825Y238670D01*
X334826Y234004D02*
Y236670D01*
X337492Y234004D01*
X338158D01*
X338825Y234671D01*
Y236004D01*
X338158Y236670D01*
Y232672D02*
X338825Y232005D01*
Y230672D01*
X338158Y230006D01*
X335492D01*
X334826Y230672D01*
Y232005D01*
X335492Y232672D01*
X338158D01*
X324782Y248000D02*
X328781D01*
Y246001D01*
X328115Y245334D01*
X326782D01*
X326115Y246001D01*
Y248000D01*
X328781Y244001D02*
Y242668D01*
Y243335D01*
X324782D01*
Y244001D01*
Y242668D01*
X328781Y238670D02*
Y240003D01*
X328115Y240669D01*
X325449D01*
X324782Y240003D01*
Y238670D01*
X325449Y238003D01*
X328115D01*
X328781Y238670D01*
X324782Y236670D02*
Y235337D01*
Y236004D01*
X328781D01*
X328115Y236670D01*
X325449Y233338D02*
X324782Y232672D01*
Y231339D01*
X325449Y230672D01*
X328115D01*
X328781Y231339D01*
Y232672D01*
X328115Y233338D01*
X327448D01*
X326782Y232672D01*
Y230672D01*
X314739Y248000D02*
X318738D01*
Y246001D01*
X318071Y245334D01*
X316738D01*
X316072Y246001D01*
Y248000D01*
X318738Y244001D02*
Y242668D01*
Y243335D01*
X314739D01*
Y244001D01*
Y242668D01*
X318738Y238670D02*
Y240003D01*
X318071Y240669D01*
X315405D01*
X314739Y240003D01*
Y238670D01*
X315405Y238003D01*
X318071D01*
X318738Y238670D01*
X314739Y236670D02*
Y235337D01*
Y236004D01*
X318738D01*
X318071Y236670D01*
Y233338D02*
X318738Y232672D01*
Y231339D01*
X318071Y230672D01*
X317405D01*
X316738Y231339D01*
X316072Y230672D01*
X315405D01*
X314739Y231339D01*
Y232672D01*
X315405Y233338D01*
X316072D01*
X316738Y232672D01*
X317405Y233338D01*
X318071D01*
X316738Y232672D02*
Y231339D01*
X304696Y248000D02*
X308694D01*
Y246001D01*
X308028Y245334D01*
X306695D01*
X306028Y246001D01*
Y248000D01*
X308694Y244001D02*
Y242668D01*
Y243335D01*
X304696D01*
Y244001D01*
Y242668D01*
X308694Y238670D02*
Y240003D01*
X308028Y240669D01*
X305362D01*
X304696Y240003D01*
Y238670D01*
X305362Y238003D01*
X308028D01*
X308694Y238670D01*
X304696Y236670D02*
Y235337D01*
Y236004D01*
X308694D01*
X308028Y236670D01*
X308694Y233338D02*
Y230672D01*
X308028D01*
X305362Y233338D01*
X304696D01*
X294652Y248000D02*
X298651D01*
Y246001D01*
X297984Y245334D01*
X296651D01*
X295985Y246001D01*
Y248000D01*
X298651Y244001D02*
Y242668D01*
Y243335D01*
X294652D01*
Y244001D01*
Y242668D01*
X298651Y238670D02*
Y240003D01*
X297984Y240669D01*
X295319D01*
X294652Y240003D01*
Y238670D01*
X295319Y238003D01*
X297984D01*
X298651Y238670D01*
X294652Y236670D02*
Y235337D01*
Y236004D01*
X298651D01*
X297984Y236670D01*
X298651Y230672D02*
X297984Y232005D01*
X296651Y233338D01*
X295319D01*
X294652Y232672D01*
Y231339D01*
X295319Y230672D01*
X295985D01*
X296651Y231339D01*
Y233338D01*
X284609Y248000D02*
X288607D01*
Y246001D01*
X287941Y245334D01*
X286608D01*
X285942Y246001D01*
Y248000D01*
X288607Y244001D02*
Y242668D01*
Y243335D01*
X284609D01*
Y244001D01*
Y242668D01*
X288607Y238670D02*
Y240003D01*
X287941Y240669D01*
X285275D01*
X284609Y240003D01*
Y238670D01*
X285275Y238003D01*
X287941D01*
X288607Y238670D01*
X284609Y236670D02*
Y235337D01*
Y236004D01*
X288607D01*
X287941Y236670D01*
X288607Y230672D02*
Y233338D01*
X286608D01*
X287274Y232005D01*
Y231339D01*
X286608Y230672D01*
X285275D01*
X284609Y231339D01*
Y232672D01*
X285275Y233338D01*
X274565Y248000D02*
X278564D01*
Y246001D01*
X277897Y245334D01*
X276565D01*
X275898Y246001D01*
Y248000D01*
X278564Y244001D02*
Y242668D01*
Y243335D01*
X274565D01*
Y244001D01*
Y242668D01*
X278564Y238670D02*
Y240003D01*
X277897Y240669D01*
X275232D01*
X274565Y240003D01*
Y238670D01*
X275232Y238003D01*
X277897D01*
X278564Y238670D01*
X274565Y236670D02*
Y235337D01*
Y236004D01*
X278564D01*
X277897Y236670D01*
X274565Y231339D02*
X278564D01*
X276565Y233338D01*
Y230672D01*
X264522Y248000D02*
X268520D01*
Y246001D01*
X267854Y245334D01*
X266521D01*
X265855Y246001D01*
Y248000D01*
X268520Y244001D02*
Y242668D01*
Y243335D01*
X264522D01*
Y244001D01*
Y242668D01*
X268520Y238670D02*
Y240003D01*
X267854Y240669D01*
X265188D01*
X264522Y240003D01*
Y238670D01*
X265188Y238003D01*
X267854D01*
X268520Y238670D01*
X264522Y236670D02*
Y235337D01*
Y236004D01*
X268520D01*
X267854Y236670D01*
Y233338D02*
X268520Y232672D01*
Y231339D01*
X267854Y230672D01*
X267187D01*
X266521Y231339D01*
Y232005D01*
Y231339D01*
X265855Y230672D01*
X265188D01*
X264522Y231339D01*
Y232672D01*
X265188Y233338D01*
X254478Y248000D02*
X258477D01*
Y246001D01*
X257810Y245334D01*
X256477D01*
X255811Y246001D01*
Y248000D01*
X258477Y244001D02*
Y242668D01*
Y243335D01*
X254478D01*
Y244001D01*
Y242668D01*
X258477Y238670D02*
Y240003D01*
X257810Y240669D01*
X255145D01*
X254478Y240003D01*
Y238670D01*
X255145Y238003D01*
X257810D01*
X258477Y238670D01*
X254478Y236670D02*
Y235337D01*
Y236004D01*
X258477D01*
X257810Y236670D01*
X254478Y230672D02*
Y233338D01*
X257144Y230672D01*
X257810D01*
X258477Y231339D01*
Y232672D01*
X257810Y233338D01*
X244435Y248000D02*
X248433D01*
Y246001D01*
X247767Y245334D01*
X246434D01*
X245768Y246001D01*
Y248000D01*
X248433Y244001D02*
Y242668D01*
Y243335D01*
X244435D01*
Y244001D01*
Y242668D01*
X248433Y238670D02*
Y240003D01*
X247767Y240669D01*
X245101D01*
X244435Y240003D01*
Y238670D01*
X245101Y238003D01*
X247767D01*
X248433Y238670D01*
X244435Y236670D02*
Y235337D01*
Y236004D01*
X248433D01*
X247767Y236670D01*
X244435Y233338D02*
Y232005D01*
Y232672D01*
X248433D01*
X247767Y233338D01*
X234391Y248000D02*
X238390D01*
Y246001D01*
X237723Y245334D01*
X236391D01*
X235724Y246001D01*
Y248000D01*
X238390Y244001D02*
Y242668D01*
Y243335D01*
X234391D01*
Y244001D01*
Y242668D01*
X238390Y238670D02*
Y240003D01*
X237723Y240669D01*
X235058D01*
X234391Y240003D01*
Y238670D01*
X235058Y238003D01*
X237723D01*
X238390Y238670D01*
X234391Y236670D02*
Y235337D01*
Y236004D01*
X238390D01*
X237723Y236670D01*
Y233338D02*
X238390Y232672D01*
Y231339D01*
X237723Y230672D01*
X235058D01*
X234391Y231339D01*
Y232672D01*
X235058Y233338D01*
X237723D01*
X224348Y248000D02*
X228346D01*
Y246001D01*
X227680Y245334D01*
X226347D01*
X225681Y246001D01*
Y248000D01*
X228346Y244001D02*
Y242668D01*
Y243335D01*
X224348D01*
Y244001D01*
Y242668D01*
X228346Y238670D02*
Y240003D01*
X227680Y240669D01*
X225014D01*
X224348Y240003D01*
Y238670D01*
X225014Y238003D01*
X227680D01*
X228346Y238670D01*
X227680Y236670D02*
X228346Y236004D01*
Y234671D01*
X227680Y234004D01*
X225014D01*
X224348Y234671D01*
Y236004D01*
X225014Y236670D01*
X227680D01*
X225014Y232672D02*
X224348Y232005D01*
Y230672D01*
X225014Y230006D01*
X227680D01*
X228346Y230672D01*
Y232005D01*
X227680Y232672D01*
X227014D01*
X226347Y232005D01*
Y230006D01*
X214304Y248000D02*
X218303D01*
Y246001D01*
X217636Y245334D01*
X216304D01*
X215637Y246001D01*
Y248000D01*
X218303Y244001D02*
Y242668D01*
Y243335D01*
X214304D01*
Y244001D01*
Y242668D01*
X218303Y238670D02*
Y240003D01*
X217636Y240669D01*
X214971D01*
X214304Y240003D01*
Y238670D01*
X214971Y238003D01*
X217636D01*
X218303Y238670D01*
X217636Y236670D02*
X218303Y236004D01*
Y234671D01*
X217636Y234004D01*
X214971D01*
X214304Y234671D01*
Y236004D01*
X214971Y236670D01*
X217636D01*
Y232672D02*
X218303Y232005D01*
Y230672D01*
X217636Y230006D01*
X216970D01*
X216304Y230672D01*
X215637Y230006D01*
X214971D01*
X214304Y230672D01*
Y232005D01*
X214971Y232672D01*
X215637D01*
X216304Y232005D01*
X216970Y232672D01*
X217636D01*
X216304Y232005D02*
Y230672D01*
X204261Y248000D02*
X208260D01*
Y246001D01*
X207593Y245334D01*
X206260D01*
X205594Y246001D01*
Y248000D01*
X208260Y244001D02*
Y242668D01*
Y243335D01*
X204261D01*
Y244001D01*
Y242668D01*
X208260Y238670D02*
Y240003D01*
X207593Y240669D01*
X204927D01*
X204261Y240003D01*
Y238670D01*
X204927Y238003D01*
X207593D01*
X208260Y238670D01*
X207593Y236670D02*
X208260Y236004D01*
Y234671D01*
X207593Y234004D01*
X204927D01*
X204261Y234671D01*
Y236004D01*
X204927Y236670D01*
X207593D01*
X208260Y232672D02*
Y230006D01*
X207593D01*
X204927Y232672D01*
X204261D01*
X194217Y248000D02*
X198216D01*
Y246001D01*
X197550Y245334D01*
X196217D01*
X195550Y246001D01*
Y248000D01*
X198216Y244001D02*
Y242668D01*
Y243335D01*
X194217D01*
Y244001D01*
Y242668D01*
X198216Y238670D02*
Y240003D01*
X197550Y240669D01*
X194884D01*
X194217Y240003D01*
Y238670D01*
X194884Y238003D01*
X197550D01*
X198216Y238670D01*
X197550Y236670D02*
X198216Y236004D01*
Y234671D01*
X197550Y234004D01*
X194884D01*
X194217Y234671D01*
Y236004D01*
X194884Y236670D01*
X197550D01*
X198216Y230006D02*
X197550Y231339D01*
X196217Y232672D01*
X194884D01*
X194217Y232005D01*
Y230672D01*
X194884Y230006D01*
X195550D01*
X196217Y230672D01*
Y232672D01*
X184174Y248000D02*
X188173D01*
Y246001D01*
X187506Y245334D01*
X186173D01*
X185507Y246001D01*
Y248000D01*
X188173Y244001D02*
Y242668D01*
Y243335D01*
X184174D01*
Y244001D01*
Y242668D01*
X188173Y238670D02*
Y240003D01*
X187506Y240669D01*
X184840D01*
X184174Y240003D01*
Y238670D01*
X184840Y238003D01*
X187506D01*
X188173Y238670D01*
X187506Y236670D02*
X188173Y236004D01*
Y234671D01*
X187506Y234004D01*
X184840D01*
X184174Y234671D01*
Y236004D01*
X184840Y236670D01*
X187506D01*
X188173Y230006D02*
Y232672D01*
X186173D01*
X186840Y231339D01*
Y230672D01*
X186173Y230006D01*
X184840D01*
X184174Y230672D01*
Y232005D01*
X184840Y232672D01*
X174130Y248000D02*
X178129D01*
Y246001D01*
X177463Y245334D01*
X176130D01*
X175463Y246001D01*
Y248000D01*
X178129Y244001D02*
Y242668D01*
Y243335D01*
X174130D01*
Y244001D01*
Y242668D01*
X178129Y238670D02*
Y240003D01*
X177463Y240669D01*
X174797D01*
X174130Y240003D01*
Y238670D01*
X174797Y238003D01*
X177463D01*
X178129Y238670D01*
X177463Y236670D02*
X178129Y236004D01*
Y234671D01*
X177463Y234004D01*
X174797D01*
X174130Y234671D01*
Y236004D01*
X174797Y236670D01*
X177463D01*
X174130Y230672D02*
X178129D01*
X176130Y232672D01*
Y230006D01*
X164087Y248000D02*
X168086D01*
Y246001D01*
X167419Y245334D01*
X166086D01*
X165420Y246001D01*
Y248000D01*
X168086Y244001D02*
Y242668D01*
Y243335D01*
X164087D01*
Y244001D01*
Y242668D01*
X168086Y238670D02*
Y240003D01*
X167419Y240669D01*
X164753D01*
X164087Y240003D01*
Y238670D01*
X164753Y238003D01*
X167419D01*
X168086Y238670D01*
X167419Y236670D02*
X168086Y236004D01*
Y234671D01*
X167419Y234004D01*
X164753D01*
X164087Y234671D01*
Y236004D01*
X164753Y236670D01*
X167419D01*
Y232672D02*
X168086Y232005D01*
Y230672D01*
X167419Y230006D01*
X166753D01*
X166086Y230672D01*
Y231339D01*
Y230672D01*
X165420Y230006D01*
X164753D01*
X164087Y230672D01*
Y232005D01*
X164753Y232672D01*
X154043Y248000D02*
X158042D01*
Y246001D01*
X157376Y245334D01*
X156043D01*
X155376Y246001D01*
Y248000D01*
X158042Y244001D02*
Y242668D01*
Y243335D01*
X154043D01*
Y244001D01*
Y242668D01*
X158042Y238670D02*
Y240003D01*
X157376Y240669D01*
X154710D01*
X154043Y240003D01*
Y238670D01*
X154710Y238003D01*
X157376D01*
X158042Y238670D01*
X157376Y236670D02*
X158042Y236004D01*
Y234671D01*
X157376Y234004D01*
X154710D01*
X154043Y234671D01*
Y236004D01*
X154710Y236670D01*
X157376D01*
X154043Y230006D02*
Y232672D01*
X156709Y230006D01*
X157376D01*
X158042Y230672D01*
Y232005D01*
X157376Y232672D01*
X144000Y248000D02*
X147999D01*
Y246001D01*
X147332Y245334D01*
X145999D01*
X145333Y246001D01*
Y248000D01*
X147999Y244001D02*
Y242668D01*
Y243335D01*
X144000D01*
Y244001D01*
Y242668D01*
X147999Y238670D02*
Y240003D01*
X147332Y240669D01*
X144667D01*
X144000Y240003D01*
Y238670D01*
X144667Y238003D01*
X147332D01*
X147999Y238670D01*
X147332Y236670D02*
X147999Y236004D01*
Y234671D01*
X147332Y234004D01*
X144667D01*
X144000Y234671D01*
Y236004D01*
X144667Y236670D01*
X147332D01*
X144000Y232672D02*
Y231339D01*
Y232005D01*
X147999D01*
X147332Y232672D01*
X32500Y283499D02*
Y280833D01*
X33833Y279500D01*
X35166Y280833D01*
Y283499D01*
X39165Y282832D02*
X38498Y283499D01*
X37165D01*
X36499Y282832D01*
Y280166D01*
X37165Y279500D01*
X38498D01*
X39165Y280166D01*
X43163Y282832D02*
X42497Y283499D01*
X41164D01*
X40497Y282832D01*
Y280166D01*
X41164Y279500D01*
X42497D01*
X43163Y280166D01*
X46496Y283499D02*
X45163D01*
X44496Y282832D01*
Y280166D01*
X45163Y279500D01*
X46496D01*
X47162Y280166D01*
Y282832D01*
X46496Y283499D01*
X32500Y274499D02*
Y270500D01*
X34499D01*
X35166Y271166D01*
Y273832D01*
X34499Y274499D01*
X32500D01*
X39165Y273832D02*
X38498Y274499D01*
X37165D01*
X36499Y273832D01*
Y271166D01*
X37165Y270500D01*
X38498D01*
X39165Y271166D01*
Y272499D01*
X37832D01*
X40497Y270500D02*
Y274499D01*
X43163Y270500D01*
Y274499D01*
X44496D02*
Y270500D01*
X46496D01*
X47162Y271166D01*
Y273832D01*
X46496Y274499D01*
X44496D01*
X35166Y263332D02*
X34499Y263999D01*
X33166D01*
X32500Y263332D01*
Y262666D01*
X33166Y261999D01*
X34499D01*
X35166Y261333D01*
Y260666D01*
X34499Y260000D01*
X33166D01*
X32500Y260666D01*
X39165Y263332D02*
X38498Y263999D01*
X37165D01*
X36499Y263332D01*
Y260666D01*
X37165Y260000D01*
X38498D01*
X39165Y260666D01*
X40497Y263999D02*
Y260000D01*
X43163D01*
X32500Y253999D02*
Y250000D01*
X35166D01*
X39165Y253999D02*
X36499D01*
Y250000D01*
X39165D01*
X36499Y251999D02*
X37832D01*
X40497Y253999D02*
Y250000D01*
X42497D01*
X43163Y250666D01*
Y253332D01*
X42497Y253999D01*
X40497D01*
X47162Y250000D02*
X44496D01*
X47162Y252666D01*
Y253332D01*
X46496Y253999D01*
X45163D01*
X44496Y253332D01*
X32500Y243999D02*
Y240000D01*
X35166D01*
X39165Y243999D02*
X36499D01*
Y240000D01*
X39165D01*
X36499Y241999D02*
X37832D01*
X40497Y243999D02*
Y240000D01*
X42497D01*
X43163Y240666D01*
Y243332D01*
X42497Y243999D01*
X40497D01*
X44496Y240000D02*
X45829D01*
X45163D01*
Y243999D01*
X44496Y243332D01*
X32500Y234499D02*
Y230500D01*
X35166D01*
X39165Y234499D02*
X36499D01*
Y230500D01*
X39165D01*
X36499Y232499D02*
X37832D01*
X40497Y234499D02*
Y230500D01*
X42497D01*
X43163Y231166D01*
Y233832D01*
X42497Y234499D01*
X40497D01*
X44496Y233832D02*
X45163Y234499D01*
X46496D01*
X47162Y233832D01*
Y231166D01*
X46496Y230500D01*
X45163D01*
X44496Y231166D01*
Y233832D01*
X12501Y308500D02*
X16500D01*
Y310499D01*
X15834Y311166D01*
X13168D01*
X12501Y310499D01*
Y308500D01*
X13168Y315164D02*
X12501Y314498D01*
Y313165D01*
X13168Y312499D01*
X15834D01*
X16500Y313165D01*
Y314498D01*
X15834Y315164D01*
X14501D01*
Y313832D01*
X16500Y316497D02*
X12501D01*
X16500Y319163D01*
X12501D01*
Y320496D02*
X16500D01*
Y322496D01*
X15834Y323162D01*
X13168D01*
X12501Y322496D01*
Y320496D01*
X553499Y63700D02*
Y61034D01*
X554832Y62367D02*
X552166D01*
X555499Y57035D02*
Y59701D01*
X553499D01*
X554166Y58368D01*
Y57702D01*
X553499Y57035D01*
X552166D01*
X551500Y57702D01*
Y59035D01*
X552166Y59701D01*
X555499Y55703D02*
Y54370D01*
Y55036D01*
X551500D01*
Y55703D01*
Y54370D01*
Y52370D02*
X555499D01*
X551500Y49705D01*
X555499D01*
X568832Y57834D02*
X569499Y58501D01*
Y59834D01*
X568832Y60500D01*
X566166D01*
X565500Y59834D01*
Y58501D01*
X566166Y57834D01*
X567499D01*
Y59167D01*
X565500Y56501D02*
X569499D01*
X565500Y53835D01*
X569499D01*
Y52503D02*
X565500D01*
Y50503D01*
X566166Y49837D01*
X568832D01*
X569499Y50503D01*
Y52503D01*
D69*
X22000Y10200D02*
Y30200D01*
Y360200D02*
Y380200D01*
X607000Y360200D02*
Y380200D01*
X622000Y30200D02*
Y360200D01*
X607000Y10200D02*
Y30200D01*
X4500D02*
Y360200D01*
Y30200D02*
X22000D01*
X4500Y360200D02*
X22000D01*
X607000D02*
X622000D01*
X607000Y30200D02*
X622000D01*
X22000Y10200D02*
X607000D01*
X21835Y337000D02*
X21002Y337833D01*
Y339499D01*
X21835Y340332D01*
X22668D01*
X23501Y339499D01*
X24334Y340332D01*
X25167D01*
X26000Y339499D01*
Y337833D01*
X25167Y337000D01*
X24334D01*
X23501Y337833D01*
X22668Y337000D01*
X21835D01*
X23501Y337833D02*
Y339499D01*
X31002Y337000D02*
Y340332D01*
X31835D01*
X35167Y337000D01*
X36000D01*
Y293000D02*
Y294666D01*
Y293833D01*
X31002D01*
X31835Y293000D01*
X26000Y294332D02*
Y291000D01*
X22668Y294332D01*
X21835D01*
X21002Y293499D01*
Y291833D01*
X21835Y291000D01*
M02*
