G04 Layer_Color=16711935*
%FSLAX25Y25*%
%MOIN*%
G70*
G01*
G75*
%ADD104C,0.00394*%
D104*
X544071Y129134D02*
X543807Y130118D01*
X543087Y130839D01*
X542102Y131102D01*
X541118Y130839D01*
X540398Y130118D01*
X540134Y129134D01*
X540398Y128150D01*
X541118Y127429D01*
X542102Y127165D01*
X543087Y127429D01*
X543807Y128150D01*
X544071Y129134D01*
X520071Y74134D02*
X519807Y75118D01*
X519087Y75839D01*
X518102Y76102D01*
X517118Y75839D01*
X516398Y75118D01*
X516134Y74134D01*
X516398Y73150D01*
X517118Y72429D01*
X518102Y72165D01*
X519087Y72429D01*
X519807Y73150D01*
X520071Y74134D01*
X464835Y46102D02*
X464571Y47087D01*
X463850Y47807D01*
X462866Y48071D01*
X461882Y47807D01*
X461161Y47087D01*
X460898Y46102D01*
X461161Y45118D01*
X461882Y44398D01*
X462866Y44134D01*
X463850Y44398D01*
X464571Y45118D01*
X464835Y46102D01*
X548279Y173445D02*
X548016Y174429D01*
X547295Y175150D01*
X546311Y175413D01*
X545327Y175150D01*
X544606Y174429D01*
X544343Y173445D01*
X544606Y172461D01*
X545327Y171740D01*
X546311Y171476D01*
X547295Y171740D01*
X548016Y172461D01*
X548279Y173445D01*
Y218445D02*
X548016Y219429D01*
X547295Y220150D01*
X546311Y220413D01*
X545327Y220150D01*
X544606Y219429D01*
X544343Y218445D01*
X544606Y217461D01*
X545327Y216740D01*
X546311Y216476D01*
X547295Y216740D01*
X548016Y217461D01*
X548279Y218445D01*
X548043Y263445D02*
X547780Y264429D01*
X547059Y265150D01*
X546075Y265413D01*
X545090Y265150D01*
X544370Y264429D01*
X544106Y263445D01*
X544370Y262461D01*
X545090Y261740D01*
X546075Y261476D01*
X547059Y261740D01*
X547780Y262461D01*
X548043Y263445D01*
X548279Y308445D02*
X548016Y309429D01*
X547295Y310150D01*
X546311Y310413D01*
X545327Y310150D01*
X544606Y309429D01*
X544343Y308445D01*
X544606Y307461D01*
X545327Y306740D01*
X546311Y306476D01*
X547295Y306740D01*
X548016Y307461D01*
X548279Y308445D01*
X195653Y359008D02*
X195390Y359992D01*
X194669Y360713D01*
X193685Y360976D01*
X192701Y360713D01*
X191980Y359992D01*
X191717Y359008D01*
X191980Y358024D01*
X192701Y357303D01*
X193685Y357039D01*
X194669Y357303D01*
X195390Y358024D01*
X195653Y359008D01*
X397335Y46102D02*
X397071Y47087D01*
X396350Y47807D01*
X395366Y48071D01*
X394382Y47807D01*
X393661Y47087D01*
X393398Y46102D01*
X393661Y45118D01*
X394382Y44398D01*
X395366Y44134D01*
X396350Y44398D01*
X397071Y45118D01*
X397335Y46102D01*
X235051Y190157D02*
X234788Y191142D01*
X234067Y191862D01*
X233083Y192126D01*
X232098Y191862D01*
X231378Y191142D01*
X231114Y190157D01*
X231378Y189173D01*
X232098Y188453D01*
X233083Y188189D01*
X234067Y188453D01*
X234788Y189173D01*
X235051Y190157D01*
X367610Y149626D02*
X367347Y150610D01*
X366626Y151331D01*
X365642Y151594D01*
X364657Y151331D01*
X363937Y150610D01*
X363673Y149626D01*
X363937Y148642D01*
X364657Y147921D01*
X365642Y147658D01*
X366626Y147921D01*
X367347Y148642D01*
X367610Y149626D01*
X457138Y173642D02*
X456874Y174626D01*
X456153Y175347D01*
X455169Y175610D01*
X454185Y175347D01*
X453465Y174626D01*
X453201Y173642D01*
X453465Y172658D01*
X454185Y171937D01*
X455169Y171673D01*
X456153Y171937D01*
X456874Y172658D01*
X457138Y173642D01*
X467383Y264292D02*
X467120Y265276D01*
X466399Y265997D01*
X465415Y266261D01*
X464431Y265997D01*
X463710Y265276D01*
X463447Y264292D01*
X463710Y263308D01*
X464431Y262587D01*
X465415Y262324D01*
X466399Y262587D01*
X467120Y263308D01*
X467383Y264292D01*
X405602Y78898D02*
X405339Y79882D01*
X404618Y80602D01*
X403634Y80866D01*
X402650Y80602D01*
X401929Y79882D01*
X401665Y78898D01*
X401929Y77913D01*
X402650Y77193D01*
X403634Y76929D01*
X404618Y77193D01*
X405339Y77913D01*
X405602Y78898D01*
X481665Y376614D02*
X502335D01*
X481665Y353386D02*
X502335D01*
Y376614D01*
X481665Y353386D02*
Y376614D01*
X526354Y117323D02*
Y132677D01*
X545646Y117323D02*
Y132677D01*
X526354Y117323D02*
X545646D01*
X526354Y132677D02*
X545646D01*
X502354Y62323D02*
Y77677D01*
X521646Y62323D02*
Y77677D01*
X502354Y62323D02*
X521646D01*
X502354Y77677D02*
X521646D01*
X459323Y30354D02*
X474677D01*
X459323Y49646D02*
X474677D01*
Y30354D02*
Y49646D01*
X459323Y30354D02*
Y49646D01*
X334244Y21595D02*
X339756D01*
X334244Y33406D02*
X339756D01*
Y21595D02*
Y33406D01*
X334244Y21595D02*
Y33406D01*
X248811Y43866D02*
X275189D01*
X248811Y29299D02*
X275189D01*
Y43866D01*
X248811Y29299D02*
Y43866D01*
X421283Y200811D02*
Y227189D01*
X406716Y200811D02*
Y227189D01*
Y200811D02*
X421283D01*
X406716Y227189D02*
X421283D01*
X549854Y169902D02*
Y210098D01*
X534146Y169902D02*
Y210098D01*
Y169902D02*
X549854D01*
X534146Y210098D02*
X549854D01*
Y214902D02*
Y255098D01*
X534146Y214902D02*
Y255098D01*
Y214902D02*
X549854D01*
X534146Y255098D02*
X549854D01*
X549618Y259902D02*
Y300098D01*
X533910Y259902D02*
Y300098D01*
Y259902D02*
X549618D01*
X533910Y300098D02*
X549618D01*
X549854Y304902D02*
Y345098D01*
X534146Y304902D02*
Y345098D01*
Y304902D02*
X549854D01*
X534146Y345098D02*
X549854D01*
X190142Y331449D02*
Y362551D01*
X207858Y331449D02*
Y362551D01*
X190142D02*
X207858D01*
X190142Y331449D02*
X207858D01*
X391823Y30354D02*
X407177D01*
X391823Y49646D02*
X407177D01*
Y30354D02*
Y49646D01*
X391823Y30354D02*
Y49646D01*
X229539Y122441D02*
Y193701D01*
X259461Y122441D02*
Y193701D01*
X229539D02*
X259461D01*
X229539Y122441D02*
X259461D01*
X329815Y185453D02*
X369185D01*
X329815Y146083D02*
X369185D01*
X329815D02*
Y185453D01*
X369185Y146083D02*
Y185453D01*
X451626Y137815D02*
Y177185D01*
X467374Y137815D02*
Y177185D01*
X451626D02*
X467374D01*
X451626Y137815D02*
X467374D01*
X447665Y356614D02*
X468335D01*
X447665Y333386D02*
X468335D01*
Y356614D01*
X447665Y333386D02*
Y356614D01*
X468958Y260749D02*
Y291851D01*
X451242Y260749D02*
Y291851D01*
Y260749D02*
X468958D01*
X451242Y291851D02*
X468958D01*
X407177Y75354D02*
Y94646D01*
X391823Y75354D02*
Y94646D01*
Y75354D02*
X407177D01*
X391823Y94646D02*
X407177D01*
X324716Y58811D02*
Y85189D01*
X339283Y58811D02*
Y85189D01*
X324716D02*
X339283D01*
X324716Y58811D02*
X339283D01*
M02*
