G04 Layer_Physical_Order=4*
G04 Layer_Color=16711680*
%FSLAX25Y25*%
%MOIN*%
G70*
G01*
G75*
%ADD35C,0.04000*%
%ADD36C,0.01200*%
%ADD37C,0.01500*%
%ADD38C,0.02000*%
%ADD39C,0.03000*%
%ADD40C,0.05000*%
%ADD41R,0.05905X0.05905*%
%ADD42C,0.05905*%
%ADD43C,0.05512*%
%ADD44C,0.09842*%
%ADD45R,0.05905X0.05905*%
%ADD46C,0.05000*%
%ADD47C,0.06000*%
%ADD48R,0.06000X0.06000*%
%ADD49C,0.04000*%
G36*
X626000Y162000D02*
X611666D01*
X611368Y162722D01*
X610566Y163766D01*
X609522Y164567D01*
X608648Y164929D01*
Y165471D01*
X609522Y165832D01*
X610566Y166634D01*
X611368Y167678D01*
X611871Y168895D01*
X612043Y170200D01*
X611871Y171505D01*
X611368Y172722D01*
X610566Y173766D01*
X609522Y174567D01*
X608648Y174929D01*
Y175471D01*
X609522Y175832D01*
X610566Y176634D01*
X611368Y177678D01*
X611871Y178895D01*
X612043Y180200D01*
X611871Y181505D01*
X611368Y182722D01*
X610566Y183766D01*
X609522Y184567D01*
X608648Y184929D01*
Y185471D01*
X609522Y185833D01*
X610566Y186634D01*
X611368Y187678D01*
X611871Y188895D01*
X612043Y190200D01*
X611871Y191505D01*
X611368Y192722D01*
X610566Y193766D01*
X609522Y194568D01*
X608648Y194929D01*
Y195471D01*
X609522Y195833D01*
X610566Y196634D01*
X611368Y197678D01*
X611871Y198895D01*
X612043Y200200D01*
X611871Y201505D01*
X611368Y202722D01*
X610566Y203766D01*
X609522Y204568D01*
X608648Y204929D01*
Y205471D01*
X609522Y205833D01*
X610566Y206634D01*
X611368Y207678D01*
X611871Y208895D01*
X612043Y210200D01*
X611871Y211505D01*
X611368Y212722D01*
X610566Y213766D01*
X609522Y214567D01*
X608648Y214929D01*
Y215471D01*
X609522Y215832D01*
X610566Y216634D01*
X611368Y217678D01*
X611871Y218895D01*
X612043Y220200D01*
X611871Y221505D01*
X611368Y222722D01*
X610566Y223766D01*
X609522Y224568D01*
X608648Y224929D01*
Y225471D01*
X609522Y225833D01*
X610566Y226634D01*
X611368Y227678D01*
X611871Y228895D01*
X612043Y230200D01*
X611871Y231505D01*
X611368Y232722D01*
X610566Y233766D01*
X609522Y234567D01*
X608648Y234929D01*
Y235471D01*
X609522Y235833D01*
X610566Y236634D01*
X611368Y237678D01*
X611871Y238895D01*
X612043Y240200D01*
X611871Y241505D01*
X611368Y242722D01*
X610566Y243766D01*
X609522Y244567D01*
X608648Y244929D01*
Y245471D01*
X609522Y245832D01*
X610566Y246634D01*
X611368Y247678D01*
X611871Y248895D01*
X612043Y250200D01*
X611871Y251505D01*
X611368Y252722D01*
X610566Y253766D01*
X609522Y254568D01*
X608648Y254929D01*
Y255471D01*
X609522Y255833D01*
X610566Y256634D01*
X611368Y257678D01*
X611871Y258895D01*
X612043Y260200D01*
X611871Y261505D01*
X611368Y262722D01*
X610566Y263766D01*
X609522Y264567D01*
X608648Y264929D01*
Y265471D01*
X609522Y265832D01*
X610566Y266634D01*
X611368Y267678D01*
X611871Y268895D01*
X612043Y270200D01*
X611871Y271505D01*
X611368Y272722D01*
X610566Y273766D01*
X609522Y274568D01*
X608648Y274929D01*
Y275471D01*
X609522Y275833D01*
X610566Y276634D01*
X611368Y277678D01*
X611871Y278895D01*
X612043Y280200D01*
X611871Y281505D01*
X611368Y282722D01*
X610566Y283766D01*
X609522Y284567D01*
X608648Y284929D01*
Y285471D01*
X609522Y285833D01*
X610566Y286634D01*
X611368Y287678D01*
X611871Y288895D01*
X612043Y290200D01*
X611871Y291505D01*
X611368Y292722D01*
X610566Y293766D01*
X609522Y294567D01*
X608648Y294929D01*
Y295471D01*
X609522Y295832D01*
X610566Y296634D01*
X611368Y297678D01*
X611871Y298895D01*
X612043Y300200D01*
X611871Y301505D01*
X611368Y302722D01*
X610566Y303766D01*
X609522Y304568D01*
X608648Y304929D01*
Y305471D01*
X609522Y305833D01*
X610566Y306634D01*
X611368Y307678D01*
X611871Y308895D01*
X612043Y310200D01*
X611871Y311505D01*
X611368Y312722D01*
X610566Y313766D01*
X609522Y314567D01*
X608648Y314929D01*
Y315471D01*
X609522Y315832D01*
X610566Y316634D01*
X611368Y317678D01*
X611871Y318895D01*
X612043Y320200D01*
X611871Y321505D01*
X611368Y322722D01*
X610566Y323766D01*
X609522Y324568D01*
X608648Y324929D01*
Y325471D01*
X609522Y325833D01*
X610566Y326634D01*
X611368Y327678D01*
X611871Y328895D01*
X612043Y330200D01*
X611871Y331505D01*
X611368Y332722D01*
X610566Y333766D01*
X609522Y334567D01*
X608648Y334929D01*
Y335471D01*
X609108Y335661D01*
X612200D01*
X613375Y335816D01*
X614469Y336269D01*
X615409Y336991D01*
X620209Y341791D01*
X620209Y341791D01*
X620931Y342731D01*
X621384Y343825D01*
X621539Y345000D01*
X621539Y345000D01*
Y364180D01*
X622164Y364660D01*
X622340Y364860D01*
X622540Y365036D01*
X623422Y366185D01*
X623540Y366424D01*
X623688Y366646D01*
X624242Y367984D01*
X624294Y368246D01*
X624380Y368498D01*
X624569Y369934D01*
X624560Y370068D01*
X624587Y370200D01*
X624560Y370332D01*
X624569Y370466D01*
X624380Y371902D01*
X624294Y372154D01*
X624242Y372416D01*
X623688Y373754D01*
X623540Y373976D01*
X623422Y374215D01*
X622540Y375364D01*
X622340Y375540D01*
X622164Y375741D01*
X621015Y376622D01*
X620776Y376740D01*
X620554Y376888D01*
X619216Y377442D01*
X618955Y377494D01*
X618702Y377580D01*
X617266Y377769D01*
X617000Y377752D01*
X616734Y377769D01*
X615298Y377580D01*
X615045Y377494D01*
X614784Y377442D01*
X613446Y376888D01*
X613224Y376740D01*
X612985Y376622D01*
X611836Y375740D01*
X611660Y375540D01*
X611460Y375364D01*
X610578Y374215D01*
X610460Y373976D01*
X610312Y373754D01*
X609758Y372416D01*
X609706Y372154D01*
X609620Y371902D01*
X609431Y370466D01*
X609440Y370332D01*
X609413Y370200D01*
X609440Y370068D01*
X609431Y369934D01*
X609620Y368498D01*
X609706Y368246D01*
X609758Y367984D01*
X610312Y366646D01*
X610460Y366424D01*
X610578Y366185D01*
X611460Y365036D01*
X611660Y364860D01*
X611836Y364660D01*
X612461Y364180D01*
Y353641D01*
X611961Y353592D01*
X611884Y353980D01*
X611442Y354642D01*
X610780Y355084D01*
X610000Y355239D01*
X604000D01*
X603220Y355084D01*
X602703Y354739D01*
X601297D01*
X600780Y355084D01*
X600000Y355239D01*
X594000D01*
X593220Y355084D01*
X592703Y354739D01*
X591297D01*
X590780Y355084D01*
X590000Y355239D01*
X585680D01*
X562709Y378209D01*
X561769Y378931D01*
X560675Y379384D01*
X559500Y379539D01*
X555970D01*
X555742Y379633D01*
X554500Y379797D01*
X553259Y379633D01*
X552102Y379154D01*
X551108Y378392D01*
X550346Y377398D01*
X549866Y376241D01*
X549703Y375000D01*
X549866Y373759D01*
X550346Y372602D01*
X551108Y371608D01*
X552102Y370846D01*
X553259Y370367D01*
X554127Y370252D01*
Y369748D01*
X553259Y369634D01*
X552102Y369154D01*
X551108Y368392D01*
X550346Y367399D01*
X549866Y366242D01*
X549703Y365000D01*
X549866Y363758D01*
X550346Y362601D01*
X551108Y361608D01*
X552102Y360846D01*
X553259Y360367D01*
X554127Y360252D01*
Y359748D01*
X553259Y359633D01*
X552102Y359154D01*
X551108Y358392D01*
X550346Y357399D01*
X549866Y356241D01*
X549703Y355000D01*
X549866Y353759D01*
X550346Y352602D01*
X551108Y351608D01*
X552102Y350846D01*
X553184Y350397D01*
X576590Y326991D01*
X576591Y326991D01*
X577531Y326269D01*
X578625Y325816D01*
X579800Y325661D01*
X579800Y325661D01*
X584892D01*
X585352Y325471D01*
Y324929D01*
X584478Y324568D01*
X583434Y323766D01*
X582632Y322722D01*
X582129Y321505D01*
X581957Y320200D01*
X582129Y318895D01*
X582632Y317678D01*
X583434Y316634D01*
X584478Y315832D01*
X585352Y315471D01*
Y314929D01*
X584478Y314567D01*
X583434Y313766D01*
X582632Y312722D01*
X582129Y311505D01*
X581957Y310200D01*
X582129Y308895D01*
X582632Y307678D01*
X583434Y306634D01*
X584478Y305833D01*
X585352Y305471D01*
Y304929D01*
X584478Y304568D01*
X583434Y303766D01*
X582632Y302722D01*
X582129Y301505D01*
X581957Y300200D01*
X582129Y298895D01*
X582632Y297678D01*
X583434Y296634D01*
X584478Y295832D01*
X585352Y295471D01*
Y294929D01*
X584478Y294567D01*
X583434Y293766D01*
X582632Y292722D01*
X582129Y291505D01*
X581957Y290200D01*
X582129Y288895D01*
X582632Y287678D01*
X583434Y286634D01*
X584478Y285833D01*
X585352Y285471D01*
Y284929D01*
X584478Y284567D01*
X583434Y283766D01*
X582632Y282722D01*
X582129Y281505D01*
X581957Y280200D01*
X582129Y278895D01*
X582632Y277678D01*
X583434Y276634D01*
X584478Y275833D01*
X585352Y275471D01*
Y274929D01*
X584478Y274568D01*
X583434Y273766D01*
X582632Y272722D01*
X582129Y271505D01*
X581957Y270200D01*
X582129Y268895D01*
X582632Y267678D01*
X583434Y266634D01*
X584478Y265832D01*
X585352Y265471D01*
Y264929D01*
X584478Y264567D01*
X583434Y263766D01*
X582632Y262722D01*
X582129Y261505D01*
X581957Y260200D01*
X582129Y258895D01*
X582632Y257678D01*
X583434Y256634D01*
X584478Y255833D01*
X585352Y255471D01*
Y254929D01*
X584478Y254568D01*
X583434Y253766D01*
X582632Y252722D01*
X582129Y251505D01*
X581957Y250200D01*
X582129Y248895D01*
X582632Y247678D01*
X583434Y246634D01*
X584478Y245832D01*
X585352Y245471D01*
Y244929D01*
X584478Y244567D01*
X583434Y243766D01*
X582632Y242722D01*
X582129Y241505D01*
X581957Y240200D01*
X582129Y238895D01*
X582632Y237678D01*
X583434Y236634D01*
X584478Y235833D01*
X585352Y235471D01*
Y234929D01*
X584478Y234567D01*
X583434Y233766D01*
X582632Y232722D01*
X582129Y231505D01*
X581957Y230200D01*
X582129Y228895D01*
X582632Y227678D01*
X583434Y226634D01*
X584478Y225833D01*
X585352Y225471D01*
Y224929D01*
X584478Y224568D01*
X583434Y223766D01*
X582632Y222722D01*
X582129Y221505D01*
X581957Y220200D01*
X582129Y218895D01*
X582632Y217678D01*
X583434Y216634D01*
X584478Y215832D01*
X585352Y215471D01*
Y214929D01*
X584478Y214567D01*
X583434Y213766D01*
X582632Y212722D01*
X582129Y211505D01*
X581957Y210200D01*
X582129Y208895D01*
X582632Y207678D01*
X583434Y206634D01*
X584478Y205833D01*
X585352Y205471D01*
Y204929D01*
X584478Y204568D01*
X583434Y203766D01*
X582632Y202722D01*
X582129Y201505D01*
X581957Y200200D01*
X582129Y198895D01*
X582632Y197678D01*
X583434Y196634D01*
X584478Y195833D01*
X585352Y195471D01*
Y194929D01*
X584478Y194568D01*
X583434Y193766D01*
X582632Y192722D01*
X582129Y191505D01*
X581957Y190200D01*
X582129Y188895D01*
X582632Y187678D01*
X583434Y186634D01*
X584478Y185833D01*
X585352Y185471D01*
Y184929D01*
X584478Y184567D01*
X583434Y183766D01*
X582632Y182722D01*
X582129Y181505D01*
X581957Y180200D01*
X582129Y178895D01*
X582632Y177678D01*
X583434Y176634D01*
X584478Y175832D01*
X585352Y175471D01*
Y174929D01*
X584478Y174567D01*
X583434Y173766D01*
X582632Y172722D01*
X582129Y171505D01*
X581957Y170200D01*
X582129Y168895D01*
X582632Y167678D01*
X583434Y166634D01*
X584478Y165832D01*
X585352Y165471D01*
Y164929D01*
X584478Y164567D01*
X583434Y163766D01*
X582632Y162722D01*
X582334Y162000D01*
X571034D01*
Y207000D01*
Y252000D01*
Y297000D01*
X571034Y297000D01*
X570897Y298044D01*
X570494Y299017D01*
X569853Y299853D01*
X569853Y299853D01*
X569353Y300353D01*
X568517Y300994D01*
X567544Y301397D01*
X566500Y301535D01*
X565456Y301397D01*
X564483Y300994D01*
X563647Y300353D01*
X563006Y299517D01*
X562603Y298544D01*
X562465Y297500D01*
X562603Y296456D01*
X562965Y295581D01*
Y252000D01*
Y207000D01*
Y162000D01*
X542034D01*
Y172500D01*
Y217250D01*
Y262000D01*
Y307000D01*
X541897Y308044D01*
X541494Y309017D01*
X540853Y309853D01*
X540017Y310494D01*
X539044Y310897D01*
X538000Y311034D01*
X536956Y310897D01*
X535983Y310494D01*
X535147Y309853D01*
X534506Y309017D01*
X534103Y308044D01*
X533965Y307000D01*
Y262000D01*
Y217250D01*
Y172500D01*
Y166958D01*
X533465Y166925D01*
X533419Y167279D01*
X533117Y168009D01*
X532636Y168636D01*
X532009Y169117D01*
X531279Y169419D01*
X530996Y169456D01*
Y166496D01*
Y163536D01*
X531279Y163573D01*
X532009Y163876D01*
X532636Y164356D01*
X533117Y164983D01*
X533419Y165713D01*
X533465Y166067D01*
X533965Y166034D01*
Y162000D01*
X520000D01*
X508000Y174000D01*
X493035D01*
Y332981D01*
X493384Y333825D01*
X493539Y335000D01*
X493384Y336175D01*
X492931Y337269D01*
X492209Y338209D01*
X491269Y338931D01*
X490175Y339384D01*
X489000Y339539D01*
X487825Y339384D01*
X486731Y338931D01*
X485791Y338209D01*
X485069Y337269D01*
X484616Y336175D01*
X484461Y335000D01*
X484616Y333825D01*
X484966Y332981D01*
Y174000D01*
X462661D01*
X462017Y174494D01*
X461044Y174897D01*
X460000Y175034D01*
X458956Y174897D01*
X457983Y174494D01*
X457339Y174000D01*
X456539D01*
Y374000D01*
X456384Y375175D01*
X455931Y376269D01*
X455209Y377209D01*
X454269Y377931D01*
X453175Y378384D01*
X452000Y378539D01*
X450825Y378384D01*
X449731Y377931D01*
X448791Y377209D01*
X448069Y376269D01*
X447616Y375175D01*
X447461Y374000D01*
Y174000D01*
X446696D01*
Y354842D01*
X446542Y356017D01*
X446088Y357112D01*
X445367Y358052D01*
X444427Y358773D01*
X443332Y359227D01*
X442158Y359381D01*
X440983Y359227D01*
X439888Y358773D01*
X438948Y358052D01*
X438227Y357112D01*
X437773Y356017D01*
X437619Y354842D01*
Y226611D01*
X437170Y226390D01*
X436962Y226549D01*
X435989Y226952D01*
X434945Y227090D01*
X433901Y226952D01*
X432928Y226549D01*
X432092Y225908D01*
X431451Y225072D01*
X431048Y224099D01*
X430910Y223055D01*
X431048Y222011D01*
X431451Y221038D01*
X432092Y220202D01*
X432928Y219561D01*
X433901Y219158D01*
X434945Y219021D01*
X435989Y219158D01*
X436962Y219561D01*
X437170Y219721D01*
X437619Y219500D01*
Y189572D01*
X437170Y189351D01*
X437127Y189384D01*
X436154Y189787D01*
X435110Y189924D01*
X434066Y189787D01*
X433093Y189384D01*
X432257Y188743D01*
X431616Y187907D01*
X431213Y186934D01*
X431076Y185890D01*
X431213Y184846D01*
X431616Y183872D01*
X432257Y183037D01*
X433093Y182396D01*
X434066Y181993D01*
X435110Y181855D01*
X436154Y181993D01*
X437127Y182396D01*
X437170Y182429D01*
X437619Y182207D01*
Y174000D01*
X414504D01*
X400504Y160000D01*
X358000D01*
X348000Y170000D01*
X310000D01*
X306000Y174000D01*
X244000D01*
Y0D01*
X0D01*
Y390000D01*
X626000D01*
Y162000D01*
D02*
G37*
G36*
X518000Y156000D02*
X533965D01*
Y144000D01*
X533965Y144000D01*
X534103Y142956D01*
X534506Y141983D01*
X535147Y141147D01*
X552341Y123953D01*
X552366Y123758D01*
X552846Y122601D01*
X553608Y121608D01*
X554601Y120846D01*
X555758Y120367D01*
X557000Y120203D01*
X558242Y120367D01*
X559399Y120846D01*
X560392Y121608D01*
X561154Y122601D01*
X561633Y123758D01*
X561748Y124627D01*
X562252D01*
X562366Y123758D01*
X562846Y122601D01*
X563608Y121608D01*
X564602Y120846D01*
X565759Y120367D01*
X567000Y120203D01*
X568242Y120367D01*
X569398Y120846D01*
X570392Y121608D01*
X571154Y122601D01*
X571633Y123758D01*
X571797Y125000D01*
X571633Y126242D01*
X571154Y127399D01*
X571034Y127555D01*
Y156000D01*
X584260D01*
X584478Y155833D01*
X585352Y155471D01*
Y154929D01*
X584478Y154568D01*
X583434Y153766D01*
X582632Y152722D01*
X582129Y151505D01*
X581957Y150200D01*
X582129Y148895D01*
X582632Y147678D01*
X583434Y146634D01*
X584478Y145833D01*
X585352Y145471D01*
Y144929D01*
X584478Y144568D01*
X583434Y143766D01*
X582632Y142722D01*
X582129Y141505D01*
X581957Y140200D01*
X582129Y138895D01*
X582632Y137678D01*
X583434Y136634D01*
X584478Y135833D01*
X585352Y135471D01*
Y134929D01*
X584478Y134567D01*
X583434Y133766D01*
X582632Y132722D01*
X582129Y131505D01*
X581957Y130200D01*
X582129Y128895D01*
X582632Y127678D01*
X583434Y126634D01*
X584478Y125832D01*
X585352Y125471D01*
Y124929D01*
X584478Y124567D01*
X583434Y123766D01*
X582632Y122722D01*
X582129Y121505D01*
X581957Y120200D01*
X582129Y118895D01*
X582632Y117678D01*
X583434Y116634D01*
X584478Y115832D01*
X585352Y115471D01*
Y114929D01*
X584478Y114567D01*
X583434Y113766D01*
X582632Y112722D01*
X582129Y111505D01*
X581957Y110200D01*
X582129Y108895D01*
X582632Y107678D01*
X583434Y106634D01*
X584478Y105833D01*
X585352Y105471D01*
Y104929D01*
X584478Y104568D01*
X583434Y103766D01*
X582632Y102722D01*
X582129Y101505D01*
X581957Y100200D01*
X582129Y98895D01*
X582632Y97678D01*
X583434Y96634D01*
X584478Y95833D01*
X585352Y95471D01*
Y94929D01*
X584478Y94568D01*
X583434Y93766D01*
X582632Y92722D01*
X582129Y91505D01*
X581957Y90200D01*
X582129Y88895D01*
X582632Y87678D01*
X583434Y86634D01*
X584478Y85833D01*
X585352Y85471D01*
Y84929D01*
X584478Y84567D01*
X583434Y83766D01*
X582632Y82722D01*
X582129Y81505D01*
X581957Y80200D01*
X582129Y78895D01*
X582632Y77678D01*
X583434Y76634D01*
X584478Y75832D01*
X585352Y75471D01*
Y74929D01*
X584478Y74568D01*
X583434Y73766D01*
X582632Y72722D01*
X582129Y71505D01*
X581957Y70200D01*
X582129Y68895D01*
X582632Y67678D01*
X583434Y66634D01*
X584478Y65833D01*
X585352Y65471D01*
Y64929D01*
X584478Y64568D01*
X583434Y63766D01*
X582632Y62722D01*
X582129Y61505D01*
X581957Y60200D01*
X582129Y58895D01*
X582632Y57678D01*
X583434Y56634D01*
X584478Y55832D01*
X585352Y55471D01*
Y54929D01*
X584478Y54567D01*
X583434Y53766D01*
X582632Y52722D01*
X582129Y51505D01*
X581957Y50200D01*
X582129Y48895D01*
X582632Y47678D01*
X583434Y46634D01*
X584478Y45832D01*
X585352Y45471D01*
Y44929D01*
X584478Y44567D01*
X583434Y43766D01*
X582632Y42722D01*
X582129Y41505D01*
X581957Y40200D01*
X582129Y38895D01*
X582632Y37678D01*
X583434Y36634D01*
X584478Y35833D01*
X585695Y35329D01*
X587000Y35157D01*
X588305Y35329D01*
X589522Y35833D01*
X590566Y36634D01*
X591367Y37678D01*
X591729Y38552D01*
X592271D01*
X592632Y37678D01*
X593434Y36634D01*
X594478Y35833D01*
X595695Y35329D01*
X597000Y35157D01*
X598305Y35329D01*
X599522Y35833D01*
X600566Y36634D01*
X601368Y37678D01*
X601729Y38552D01*
X602271D01*
X602633Y37678D01*
X603434Y36634D01*
X604478Y35833D01*
X605695Y35329D01*
X607000Y35157D01*
X608305Y35329D01*
X609522Y35833D01*
X610566Y36634D01*
X611368Y37678D01*
X611871Y38895D01*
X612043Y40200D01*
X611871Y41505D01*
X611368Y42722D01*
X610566Y43766D01*
X609522Y44567D01*
X608648Y44929D01*
Y45471D01*
X609522Y45832D01*
X610566Y46634D01*
X611368Y47678D01*
X611871Y48895D01*
X612043Y50200D01*
X611871Y51505D01*
X611368Y52722D01*
X610566Y53766D01*
X609522Y54567D01*
X608648Y54929D01*
Y55471D01*
X609522Y55832D01*
X610566Y56634D01*
X611368Y57678D01*
X611871Y58895D01*
X612043Y60200D01*
X611871Y61505D01*
X611368Y62722D01*
X610566Y63766D01*
X609522Y64568D01*
X608648Y64929D01*
Y65471D01*
X609522Y65833D01*
X610566Y66634D01*
X611368Y67678D01*
X611871Y68895D01*
X612043Y70200D01*
X611871Y71505D01*
X611368Y72722D01*
X610566Y73766D01*
X609522Y74568D01*
X608648Y74929D01*
Y75471D01*
X609522Y75832D01*
X610566Y76634D01*
X611368Y77678D01*
X611871Y78895D01*
X612043Y80200D01*
X611871Y81505D01*
X611368Y82722D01*
X610566Y83766D01*
X609522Y84567D01*
X608648Y84929D01*
Y85471D01*
X609522Y85833D01*
X610566Y86634D01*
X611368Y87678D01*
X611871Y88895D01*
X612043Y90200D01*
X611871Y91505D01*
X611368Y92722D01*
X610566Y93766D01*
X609522Y94568D01*
X608648Y94929D01*
Y95471D01*
X609522Y95833D01*
X610566Y96634D01*
X611368Y97678D01*
X611871Y98895D01*
X612043Y100200D01*
X611871Y101505D01*
X611368Y102722D01*
X610566Y103766D01*
X609522Y104568D01*
X608648Y104929D01*
Y105471D01*
X609522Y105833D01*
X610566Y106634D01*
X611368Y107678D01*
X611871Y108895D01*
X612043Y110200D01*
X611871Y111505D01*
X611368Y112722D01*
X610566Y113766D01*
X609522Y114567D01*
X608648Y114929D01*
Y115471D01*
X609522Y115832D01*
X610566Y116634D01*
X611368Y117678D01*
X611871Y118895D01*
X612043Y120200D01*
X611871Y121505D01*
X611368Y122722D01*
X610566Y123766D01*
X609522Y124567D01*
X608648Y124929D01*
Y125471D01*
X609522Y125832D01*
X610566Y126634D01*
X611368Y127678D01*
X611871Y128895D01*
X612043Y130200D01*
X611871Y131505D01*
X611368Y132722D01*
X610566Y133766D01*
X609522Y134567D01*
X608648Y134929D01*
Y135471D01*
X609522Y135833D01*
X610566Y136634D01*
X611368Y137678D01*
X611871Y138895D01*
X612043Y140200D01*
X611871Y141505D01*
X611368Y142722D01*
X610566Y143766D01*
X609522Y144568D01*
X608648Y144929D01*
Y145471D01*
X609522Y145833D01*
X610566Y146634D01*
X611368Y147678D01*
X611871Y148895D01*
X612043Y150200D01*
X611871Y151505D01*
X611368Y152722D01*
X610566Y153766D01*
X609522Y154568D01*
X608648Y154929D01*
Y155471D01*
X609522Y155833D01*
X609740Y156000D01*
X626000D01*
Y0D01*
X250000D01*
Y105561D01*
X250500Y105753D01*
X250987Y105379D01*
X251717Y105077D01*
X252000Y105040D01*
Y108000D01*
Y110960D01*
X251717Y110923D01*
X250987Y110620D01*
X250500Y110247D01*
X250000Y110439D01*
Y128023D01*
X250500Y128270D01*
X250916Y127950D01*
X251646Y127648D01*
X251929Y127611D01*
Y130571D01*
Y133531D01*
X251646Y133494D01*
X250916Y133191D01*
X250500Y132872D01*
X250000Y133119D01*
Y151688D01*
X250448Y151909D01*
X250487Y151880D01*
X251217Y151577D01*
X251500Y151540D01*
Y154500D01*
Y157460D01*
X251217Y157423D01*
X250487Y157121D01*
X250448Y157091D01*
X250000Y157312D01*
Y164000D01*
X304000D01*
X308000Y160000D01*
X344000D01*
X352000Y152000D01*
X381049D01*
X381327Y151584D01*
X381103Y151044D01*
X380965Y150000D01*
X381051Y149353D01*
X380978Y149236D01*
X380600Y148947D01*
X380500Y148960D01*
Y146000D01*
Y143040D01*
X380783Y143077D01*
X381513Y143379D01*
X381726Y143543D01*
X382226Y143297D01*
Y129183D01*
X382212Y129122D01*
X382208Y129000D01*
X382204Y128960D01*
X382199Y128933D01*
X382195Y128918D01*
X382193Y128911D01*
X382192Y128909D01*
X382191Y128908D01*
X382189Y128906D01*
X382184Y128898D01*
X382117Y128828D01*
X382067Y128748D01*
X381506Y128017D01*
X381103Y127044D01*
X380965Y126000D01*
X381103Y124956D01*
X381506Y123983D01*
X382147Y123147D01*
X382983Y122506D01*
X383956Y122103D01*
X385000Y121966D01*
X386044Y122103D01*
X387017Y122506D01*
X387853Y123147D01*
X388494Y123983D01*
X388897Y124956D01*
X389035Y126000D01*
X388897Y127044D01*
X388494Y128017D01*
X387933Y128748D01*
X387883Y128828D01*
X387817Y128898D01*
X387811Y128906D01*
X387809Y128908D01*
X387808Y128909D01*
X387807Y128911D01*
X387805Y128918D01*
X387801Y128933D01*
X387796Y128960D01*
X387792Y129000D01*
X387788Y129122D01*
X387774Y129183D01*
Y146817D01*
X387788Y146878D01*
X387792Y147000D01*
X387796Y147040D01*
X387801Y147067D01*
X387805Y147082D01*
X387807Y147089D01*
X387808Y147091D01*
X387809Y147092D01*
X387811Y147094D01*
X387817Y147102D01*
X387883Y147172D01*
X387933Y147252D01*
X388494Y147983D01*
X388897Y148956D01*
X389035Y150000D01*
X388897Y151044D01*
X388673Y151584D01*
X388951Y152000D01*
X406000D01*
X417577Y163577D01*
X418051Y163417D01*
X418077Y163217D01*
X418379Y162487D01*
X418860Y161860D01*
X419487Y161380D01*
X420217Y161077D01*
X420500Y161040D01*
Y164000D01*
X421500D01*
Y161040D01*
X421783Y161077D01*
X422513Y161380D01*
X423140Y161860D01*
X423621Y162487D01*
X423923Y163217D01*
X424026Y164000D01*
X437619D01*
Y152038D01*
X411791Y126209D01*
X411069Y125269D01*
X410616Y124175D01*
X410461Y123000D01*
Y104034D01*
X382000D01*
X380956Y103897D01*
X379983Y103494D01*
X379147Y102853D01*
X378506Y102017D01*
X378103Y101044D01*
X377965Y100000D01*
X378103Y98956D01*
X378506Y97983D01*
X379147Y97147D01*
X379983Y96506D01*
X380956Y96103D01*
X382000Y95965D01*
X412981D01*
X413825Y95616D01*
X415000Y95461D01*
X416175Y95616D01*
X417269Y96069D01*
X418209Y96791D01*
X418931Y97731D01*
X419384Y98825D01*
X419539Y100000D01*
X419539Y100000D01*
Y121120D01*
X444599Y146180D01*
X445367Y146948D01*
X445367Y146948D01*
X446088Y147888D01*
X446542Y148983D01*
X446696Y150157D01*
Y164000D01*
X447461D01*
Y130880D01*
X441791Y125209D01*
X441069Y124269D01*
X440616Y123175D01*
X440461Y122000D01*
Y98000D01*
Y88000D01*
Y78000D01*
X440616Y76825D01*
X441069Y75731D01*
X441791Y74791D01*
X442731Y74069D01*
X443825Y73616D01*
X445000Y73461D01*
X446175Y73616D01*
X447269Y74069D01*
X448209Y74791D01*
X448931Y75731D01*
X449384Y76825D01*
X449539Y78000D01*
Y88000D01*
Y98000D01*
Y120120D01*
X455209Y125791D01*
X455209Y125791D01*
X455931Y126731D01*
X456384Y127825D01*
X456539Y129000D01*
Y162162D01*
X457012Y162323D01*
X457147Y162147D01*
X457983Y161506D01*
X458956Y161103D01*
X460000Y160966D01*
X461044Y161103D01*
X462017Y161506D01*
X462581Y161939D01*
X462820Y161958D01*
X462970Y161961D01*
X463029Y161974D01*
X483192D01*
X483257Y161961D01*
X483973Y161957D01*
X484966Y161923D01*
Y150000D01*
Y94000D01*
Y56400D01*
X484871Y56327D01*
X484193Y56411D01*
X483857Y56849D01*
X483021Y57490D01*
X482344Y57771D01*
Y58312D01*
X482517Y58383D01*
X483144Y58864D01*
X483624Y59491D01*
X483927Y60221D01*
X483964Y60504D01*
X478044D01*
X478081Y60221D01*
X478383Y59491D01*
X478864Y58864D01*
X479491Y58383D01*
X479664Y58312D01*
Y57771D01*
X478987Y57490D01*
X478151Y56849D01*
X477510Y56013D01*
X477107Y55040D01*
X476969Y53996D01*
X477107Y52952D01*
X477510Y51979D01*
X478151Y51143D01*
X478987Y50502D01*
X479960Y50099D01*
X481004Y49962D01*
X482048Y50099D01*
X483021Y50502D01*
X483857Y51143D01*
X484193Y51581D01*
X484871Y51666D01*
X484966Y51592D01*
Y22000D01*
X485103Y20956D01*
X485506Y19983D01*
X486147Y19147D01*
X486983Y18506D01*
X487956Y18103D01*
X489000Y17966D01*
X490044Y18103D01*
X491017Y18506D01*
X491853Y19147D01*
X492494Y19983D01*
X492897Y20956D01*
X493035Y22000D01*
Y79975D01*
X493535Y80007D01*
X493573Y79713D01*
X493876Y78983D01*
X494356Y78356D01*
X494983Y77876D01*
X495713Y77573D01*
X495996Y77536D01*
Y80496D01*
Y83456D01*
X495713Y83419D01*
X494983Y83117D01*
X494356Y82636D01*
X493876Y82009D01*
X493573Y81279D01*
X493535Y80985D01*
X493035Y81018D01*
Y94000D01*
Y143886D01*
X493036Y143893D01*
X493070Y144528D01*
X493142Y144938D01*
X493239Y145228D01*
X493342Y145421D01*
X493449Y145551D01*
X493579Y145658D01*
X493772Y145761D01*
X494062Y145858D01*
X494472Y145930D01*
X495107Y145964D01*
X495114Y145966D01*
X510000D01*
X511044Y146103D01*
X512017Y146506D01*
X512853Y147147D01*
X513494Y147983D01*
X513897Y148956D01*
X514035Y150000D01*
X513897Y151044D01*
X513494Y152017D01*
X512853Y152853D01*
X512017Y153494D01*
X511044Y153897D01*
X510000Y154034D01*
X495114D01*
X495107Y154036D01*
X494472Y154070D01*
X494062Y154142D01*
X493772Y154239D01*
X493579Y154342D01*
X493449Y154449D01*
X493342Y154579D01*
X493239Y154772D01*
X493142Y155062D01*
X493070Y155472D01*
X493036Y156107D01*
X493035Y156114D01*
Y164000D01*
X497474D01*
X497577Y163217D01*
X497880Y162487D01*
X498360Y161860D01*
X498987Y161380D01*
X499717Y161077D01*
X500000Y161040D01*
Y164000D01*
X501000D01*
Y161040D01*
X501283Y161077D01*
X502013Y161380D01*
X502640Y161860D01*
X503121Y162487D01*
X503423Y163217D01*
X503526Y164000D01*
X510000D01*
X518000Y156000D01*
D02*
G37*
G36*
X461514Y166324D02*
X461614Y166256D01*
X461728Y166196D01*
X461857Y166144D01*
X462000Y166100D01*
X462158Y166064D01*
X462330Y166036D01*
X462516Y166016D01*
X462932Y166000D01*
Y164000D01*
X462717Y163996D01*
X462330Y163964D01*
X462158Y163936D01*
X462000Y163900D01*
X461857Y163856D01*
X461728Y163804D01*
X461614Y163744D01*
X461514Y163676D01*
X461428Y163600D01*
Y166400D01*
X461514Y166324D01*
D02*
G37*
G36*
X487587Y163585D02*
X487469Y163664D01*
X487281Y163734D01*
X487023Y163797D01*
X486696Y163851D01*
X485832Y163934D01*
X484014Y163996D01*
X483268Y164000D01*
Y166000D01*
X484014Y166004D01*
X487023Y166203D01*
X487281Y166266D01*
X487469Y166336D01*
X487587Y166415D01*
Y163585D01*
D02*
G37*
G36*
X491040Y155240D02*
X491160Y154560D01*
X491360Y153960D01*
X491640Y153440D01*
X492000Y153000D01*
X492440Y152640D01*
X492960Y152360D01*
X493560Y152160D01*
X494240Y152040D01*
X495000Y152000D01*
Y148000D01*
X494240Y147960D01*
X493560Y147840D01*
X492960Y147640D01*
X492440Y147360D01*
X492000Y147000D01*
X491640Y146560D01*
X491360Y146040D01*
X491160Y145440D01*
X491040Y144760D01*
X491000Y144000D01*
X487000Y150000D01*
X491000Y156000D01*
X491040Y155240D01*
D02*
G37*
G36*
X385756Y128860D02*
X385776Y128673D01*
X385808Y128492D01*
X385854Y128319D01*
X385912Y128153D01*
X385984Y127994D01*
X386069Y127842D01*
X386166Y127697D01*
X386277Y127559D01*
X386400Y127428D01*
X383600D01*
X383723Y127559D01*
X383834Y127697D01*
X383931Y127842D01*
X384016Y127994D01*
X384087Y128153D01*
X384146Y128319D01*
X384191Y128492D01*
X384224Y128673D01*
X384243Y128860D01*
X384250Y129054D01*
X385750D01*
X385756Y128860D01*
D02*
G37*
G36*
X562965Y127555D02*
X562846Y127399D01*
X562366Y126242D01*
X562252Y125373D01*
X561748D01*
X561633Y126242D01*
X561154Y127399D01*
X560392Y128392D01*
X559399Y129154D01*
X558242Y129633D01*
X558046Y129659D01*
X542034Y145671D01*
Y148115D01*
X542534Y148285D01*
X542860Y147860D01*
X543487Y147380D01*
X544217Y147077D01*
X544500Y147040D01*
Y150000D01*
Y152960D01*
X544217Y152923D01*
X543487Y152620D01*
X542860Y152140D01*
X542534Y151715D01*
X542034Y151885D01*
Y156000D01*
X562965D01*
Y127555D01*
D02*
G37*
G36*
X386277Y148441D02*
X386166Y148303D01*
X386069Y148158D01*
X385984Y148006D01*
X385912Y147847D01*
X385854Y147681D01*
X385808Y147508D01*
X385776Y147327D01*
X385756Y147140D01*
X385750Y146946D01*
X384250D01*
X384243Y147140D01*
X384224Y147327D01*
X384191Y147508D01*
X384146Y147681D01*
X384087Y147847D01*
X384016Y148006D01*
X383931Y148158D01*
X383834Y148303D01*
X383723Y148441D01*
X383600Y148572D01*
X386400D01*
X386277Y148441D01*
D02*
G37*
%LPC*%
G36*
X236004Y372464D02*
X235721Y372427D01*
X234991Y372124D01*
X234364Y371644D01*
X233883Y371017D01*
X233581Y370287D01*
X233544Y370004D01*
X236004D01*
Y372464D01*
D02*
G37*
G36*
X237004D02*
Y370004D01*
X239464D01*
X239427Y370287D01*
X239124Y371017D01*
X238644Y371644D01*
X238017Y372124D01*
X237287Y372427D01*
X237004Y372464D01*
D02*
G37*
G36*
X239464Y369004D02*
X237004D01*
Y366544D01*
X237287Y366581D01*
X238017Y366883D01*
X238644Y367364D01*
X239124Y367991D01*
X239427Y368721D01*
X239464Y369004D01*
D02*
G37*
G36*
X240571Y128531D02*
Y126071D01*
X243031D01*
X242994Y126354D01*
X242691Y127084D01*
X242211Y127710D01*
X241584Y128191D01*
X240854Y128494D01*
X240571Y128531D01*
D02*
G37*
G36*
X12000Y377587D02*
X11868Y377560D01*
X11734Y377569D01*
X10298Y377380D01*
X10046Y377294D01*
X9784Y377242D01*
X8446Y376688D01*
X8224Y376540D01*
X7985Y376422D01*
X6836Y375540D01*
X6660Y375340D01*
X6460Y375164D01*
X5578Y374015D01*
X5460Y373776D01*
X5312Y373554D01*
X4758Y372216D01*
X4706Y371954D01*
X4620Y371702D01*
X4431Y370266D01*
X4448Y370000D01*
X4431Y369734D01*
X4620Y368298D01*
X4706Y368045D01*
X4758Y367784D01*
X5312Y366446D01*
X5460Y366224D01*
X5578Y365985D01*
X6460Y364836D01*
X6660Y364660D01*
X6836Y364459D01*
X7985Y363578D01*
X8224Y363460D01*
X8446Y363312D01*
X9784Y362758D01*
X10046Y362706D01*
X10298Y362620D01*
X11734Y362431D01*
X11868Y362440D01*
X12000Y362413D01*
X12132Y362440D01*
X12266Y362431D01*
X13702Y362620D01*
X13954Y362706D01*
X14216Y362758D01*
X15554Y363312D01*
X15776Y363460D01*
X16015Y363578D01*
X17164Y364460D01*
X17340Y364660D01*
X17540Y364836D01*
X18422Y365985D01*
X18540Y366224D01*
X18688Y366446D01*
X19242Y367784D01*
X19294Y368045D01*
X19380Y368298D01*
X19569Y369734D01*
X19552Y370000D01*
X19569Y370266D01*
X19380Y371702D01*
X19294Y371954D01*
X19242Y372216D01*
X18688Y373554D01*
X18540Y373776D01*
X18422Y374015D01*
X17540Y375164D01*
X17340Y375340D01*
X17164Y375540D01*
X16015Y376422D01*
X15776Y376540D01*
X15554Y376688D01*
X14216Y377242D01*
X13954Y377294D01*
X13702Y377380D01*
X12266Y377569D01*
X12132Y377560D01*
X12000Y377587D01*
D02*
G37*
G36*
X239571Y125071D02*
X237111D01*
X237148Y124788D01*
X237450Y124058D01*
X237931Y123431D01*
X238558Y122950D01*
X239288Y122648D01*
X239571Y122611D01*
Y125071D01*
D02*
G37*
G36*
X243031D02*
X240571D01*
Y122611D01*
X240854Y122648D01*
X241584Y122950D01*
X242211Y123431D01*
X242691Y124058D01*
X242994Y124788D01*
X243031Y125071D01*
D02*
G37*
G36*
X239571Y128531D02*
X239288Y128494D01*
X238558Y128191D01*
X237931Y127710D01*
X237450Y127084D01*
X237148Y126354D01*
X237111Y126071D01*
X239571D01*
Y128531D01*
D02*
G37*
G36*
X12000Y27587D02*
X11868Y27560D01*
X11734Y27569D01*
X10298Y27380D01*
X10046Y27294D01*
X9784Y27242D01*
X8446Y26688D01*
X8224Y26540D01*
X7985Y26422D01*
X6836Y25540D01*
X6660Y25340D01*
X6460Y25164D01*
X5578Y24015D01*
X5460Y23776D01*
X5312Y23554D01*
X4758Y22216D01*
X4706Y21955D01*
X4620Y21702D01*
X4431Y20266D01*
X4448Y20000D01*
X4431Y19734D01*
X4620Y18298D01*
X4706Y18045D01*
X4758Y17784D01*
X5312Y16446D01*
X5460Y16224D01*
X5578Y15985D01*
X6460Y14836D01*
X6660Y14660D01*
X6836Y14459D01*
X7985Y13578D01*
X8224Y13460D01*
X8446Y13312D01*
X9784Y12758D01*
X10046Y12706D01*
X10298Y12620D01*
X11734Y12431D01*
X11868Y12440D01*
X12000Y12413D01*
X12132Y12440D01*
X12266Y12431D01*
X13702Y12620D01*
X13954Y12706D01*
X14216Y12758D01*
X15554Y13312D01*
X15776Y13460D01*
X16015Y13578D01*
X17164Y14460D01*
X17340Y14660D01*
X17540Y14836D01*
X18422Y15985D01*
X18540Y16224D01*
X18688Y16446D01*
X19242Y17784D01*
X19294Y18045D01*
X19380Y18298D01*
X19569Y19734D01*
X19552Y20000D01*
X19569Y20266D01*
X19380Y21702D01*
X19294Y21955D01*
X19242Y22216D01*
X18688Y23554D01*
X18540Y23776D01*
X18422Y24015D01*
X17540Y25164D01*
X17340Y25340D01*
X17164Y25541D01*
X16015Y26422D01*
X15776Y26540D01*
X15554Y26688D01*
X14216Y27242D01*
X13954Y27294D01*
X13702Y27380D01*
X12266Y27569D01*
X12132Y27560D01*
X12000Y27587D01*
D02*
G37*
G36*
X380972Y314500D02*
X377500D01*
Y311028D01*
X379953D01*
X380343Y311105D01*
X380674Y311326D01*
X380895Y311657D01*
X380972Y312047D01*
Y314500D01*
D02*
G37*
G36*
X95500D02*
X92079D01*
X92149Y313968D01*
X92547Y313007D01*
X93181Y312181D01*
X94007Y311547D01*
X94968Y311149D01*
X95500Y311079D01*
Y314500D01*
D02*
G37*
G36*
X99921D02*
X96500D01*
Y311079D01*
X97032Y311149D01*
X97993Y311547D01*
X98819Y312181D01*
X99453Y313007D01*
X99851Y313968D01*
X99921Y314500D01*
D02*
G37*
G36*
X23500Y310500D02*
X20079D01*
X20149Y309968D01*
X20547Y309007D01*
X21181Y308181D01*
X22007Y307547D01*
X22968Y307149D01*
X23500Y307079D01*
Y310500D01*
D02*
G37*
G36*
X27921D02*
X24500D01*
Y307079D01*
X25032Y307149D01*
X25993Y307547D01*
X26819Y308181D01*
X27453Y309007D01*
X27851Y309968D01*
X27921Y310500D01*
D02*
G37*
G36*
X376500Y314500D02*
X373028D01*
Y312047D01*
X373105Y311657D01*
X373326Y311326D01*
X373657Y311105D01*
X374047Y311028D01*
X376500D01*
Y314500D01*
D02*
G37*
G36*
X23500Y314921D02*
X22968Y314851D01*
X22007Y314453D01*
X21181Y313819D01*
X20547Y312993D01*
X20149Y312032D01*
X20079Y311500D01*
X23500D01*
Y314921D01*
D02*
G37*
G36*
X96500Y318921D02*
Y315500D01*
X99921D01*
X99851Y316032D01*
X99453Y316993D01*
X98819Y317819D01*
X97993Y318453D01*
X97032Y318851D01*
X96500Y318921D01*
D02*
G37*
G36*
X379953Y318972D02*
X377500D01*
Y315500D01*
X380972D01*
Y317953D01*
X380895Y318343D01*
X380674Y318674D01*
X380343Y318895D01*
X379953Y318972D01*
D02*
G37*
G36*
X367000Y319995D02*
X365707Y319825D01*
X364502Y319326D01*
X363468Y318532D01*
X362674Y317498D01*
X362271Y316524D01*
X361729D01*
X361326Y317498D01*
X360532Y318532D01*
X359498Y319326D01*
X358293Y319825D01*
X357000Y319995D01*
X355707Y319825D01*
X354502Y319326D01*
X353468Y318532D01*
X352674Y317498D01*
X352271Y316524D01*
X351729D01*
X351326Y317498D01*
X350532Y318532D01*
X349498Y319326D01*
X348293Y319825D01*
X347000Y319995D01*
X345707Y319825D01*
X344502Y319326D01*
X343468Y318532D01*
X342674Y317498D01*
X342271Y316524D01*
X341729D01*
X341326Y317498D01*
X340532Y318532D01*
X339498Y319326D01*
X338293Y319825D01*
X337000Y319995D01*
X335707Y319825D01*
X334502Y319326D01*
X333468Y318532D01*
X332674Y317498D01*
X332271Y316524D01*
X331729D01*
X331326Y317498D01*
X330532Y318532D01*
X329498Y319326D01*
X328293Y319825D01*
X327000Y319995D01*
X325707Y319825D01*
X324502Y319326D01*
X323468Y318532D01*
X322674Y317498D01*
X322271Y316524D01*
X321729D01*
X321326Y317498D01*
X320532Y318532D01*
X319498Y319326D01*
X318293Y319825D01*
X317000Y319995D01*
X315707Y319825D01*
X314502Y319326D01*
X313468Y318532D01*
X312674Y317498D01*
X312271Y316524D01*
X311729D01*
X311326Y317498D01*
X310532Y318532D01*
X309498Y319326D01*
X308293Y319825D01*
X307000Y319995D01*
X305707Y319825D01*
X304502Y319326D01*
X303468Y318532D01*
X302674Y317498D01*
X302271Y316524D01*
X301729D01*
X301326Y317498D01*
X300532Y318532D01*
X299498Y319326D01*
X298293Y319825D01*
X297000Y319995D01*
X295707Y319825D01*
X294502Y319326D01*
X293468Y318532D01*
X292674Y317498D01*
X292271Y316524D01*
X291729D01*
X291326Y317498D01*
X290532Y318532D01*
X289498Y319326D01*
X288293Y319825D01*
X287000Y319995D01*
X285707Y319825D01*
X284502Y319326D01*
X283468Y318532D01*
X282674Y317498D01*
X282271Y316524D01*
X281729D01*
X281326Y317498D01*
X280532Y318532D01*
X279498Y319326D01*
X278293Y319825D01*
X277000Y319995D01*
X275707Y319825D01*
X274502Y319326D01*
X273468Y318532D01*
X272674Y317498D01*
X272271Y316524D01*
X271729D01*
X271326Y317498D01*
X270532Y318532D01*
X269498Y319326D01*
X268293Y319825D01*
X267000Y319995D01*
X265707Y319825D01*
X264502Y319326D01*
X263468Y318532D01*
X262674Y317498D01*
X262271Y316524D01*
X261729D01*
X261326Y317498D01*
X260532Y318532D01*
X259498Y319326D01*
X258293Y319825D01*
X257000Y319995D01*
X255707Y319825D01*
X254502Y319326D01*
X253468Y318532D01*
X252674Y317498D01*
X252271Y316524D01*
X251729D01*
X251326Y317498D01*
X250532Y318532D01*
X249498Y319326D01*
X248293Y319825D01*
X247000Y319995D01*
X245707Y319825D01*
X244502Y319326D01*
X243468Y318532D01*
X242674Y317498D01*
X242271Y316524D01*
X241729D01*
X241326Y317498D01*
X240532Y318532D01*
X239498Y319326D01*
X238293Y319825D01*
X237000Y319995D01*
X235707Y319825D01*
X234502Y319326D01*
X233468Y318532D01*
X232674Y317498D01*
X232271Y316524D01*
X231729D01*
X231326Y317498D01*
X230532Y318532D01*
X229498Y319326D01*
X228293Y319825D01*
X227000Y319995D01*
X225707Y319825D01*
X224502Y319326D01*
X223468Y318532D01*
X222674Y317498D01*
X222271Y316524D01*
X221729D01*
X221326Y317498D01*
X220532Y318532D01*
X219498Y319326D01*
X218293Y319825D01*
X217000Y319995D01*
X215707Y319825D01*
X214502Y319326D01*
X213468Y318532D01*
X212674Y317498D01*
X212271Y316524D01*
X211729D01*
X211326Y317498D01*
X210532Y318532D01*
X209498Y319326D01*
X208293Y319825D01*
X207000Y319995D01*
X205707Y319825D01*
X204502Y319326D01*
X203468Y318532D01*
X202674Y317498D01*
X202271Y316524D01*
X201729D01*
X201326Y317498D01*
X200532Y318532D01*
X199498Y319326D01*
X198293Y319825D01*
X197000Y319995D01*
X195707Y319825D01*
X194502Y319326D01*
X193468Y318532D01*
X192674Y317498D01*
X192271Y316524D01*
X191729D01*
X191326Y317498D01*
X190532Y318532D01*
X189498Y319326D01*
X188293Y319825D01*
X187000Y319995D01*
X185707Y319825D01*
X184502Y319326D01*
X183468Y318532D01*
X182674Y317498D01*
X182271Y316524D01*
X181729D01*
X181326Y317498D01*
X180532Y318532D01*
X179498Y319326D01*
X178293Y319825D01*
X177000Y319995D01*
X175707Y319825D01*
X174502Y319326D01*
X173468Y318532D01*
X172674Y317498D01*
X172271Y316524D01*
X171729D01*
X171326Y317498D01*
X170532Y318532D01*
X169498Y319326D01*
X168293Y319825D01*
X167000Y319995D01*
X165707Y319825D01*
X164502Y319326D01*
X163468Y318532D01*
X162674Y317498D01*
X162271Y316524D01*
X161729D01*
X161326Y317498D01*
X160532Y318532D01*
X159498Y319326D01*
X158293Y319825D01*
X157000Y319995D01*
X155707Y319825D01*
X154502Y319326D01*
X153468Y318532D01*
X152674Y317498D01*
X152271Y316524D01*
X151729D01*
X151326Y317498D01*
X150532Y318532D01*
X149498Y319326D01*
X148293Y319825D01*
X147000Y319995D01*
X145707Y319825D01*
X144502Y319326D01*
X143468Y318532D01*
X142674Y317498D01*
X142175Y316293D01*
X142005Y315000D01*
X142175Y313707D01*
X142674Y312502D01*
X143468Y311468D01*
X144502Y310674D01*
X145707Y310175D01*
X147000Y310004D01*
X148293Y310175D01*
X149498Y310674D01*
X150532Y311468D01*
X151326Y312502D01*
X151729Y313476D01*
X152271D01*
X152674Y312502D01*
X153468Y311468D01*
X154502Y310674D01*
X155707Y310175D01*
X157000Y310004D01*
X158293Y310175D01*
X159498Y310674D01*
X160532Y311468D01*
X161326Y312502D01*
X161729Y313476D01*
X162271D01*
X162674Y312502D01*
X163468Y311468D01*
X164502Y310674D01*
X165707Y310175D01*
X167000Y310004D01*
X168293Y310175D01*
X169498Y310674D01*
X170532Y311468D01*
X171326Y312502D01*
X171729Y313476D01*
X172271D01*
X172674Y312502D01*
X173468Y311468D01*
X174502Y310674D01*
X175707Y310175D01*
X177000Y310004D01*
X178293Y310175D01*
X179498Y310674D01*
X180532Y311468D01*
X181326Y312502D01*
X181729Y313476D01*
X182271D01*
X182674Y312502D01*
X183468Y311468D01*
X184502Y310674D01*
X185707Y310175D01*
X187000Y310004D01*
X188293Y310175D01*
X189498Y310674D01*
X190532Y311468D01*
X191326Y312502D01*
X191729Y313476D01*
X192271D01*
X192674Y312502D01*
X193468Y311468D01*
X194502Y310674D01*
X195707Y310175D01*
X197000Y310004D01*
X198293Y310175D01*
X199498Y310674D01*
X200532Y311468D01*
X201326Y312502D01*
X201729Y313476D01*
X202271D01*
X202674Y312502D01*
X203468Y311468D01*
X204502Y310674D01*
X205707Y310175D01*
X207000Y310004D01*
X208293Y310175D01*
X209498Y310674D01*
X210532Y311468D01*
X211326Y312502D01*
X211729Y313476D01*
X212271D01*
X212674Y312502D01*
X213468Y311468D01*
X214502Y310674D01*
X215707Y310175D01*
X217000Y310004D01*
X218293Y310175D01*
X219498Y310674D01*
X220532Y311468D01*
X221326Y312502D01*
X221729Y313476D01*
X222271D01*
X222674Y312502D01*
X223468Y311468D01*
X224502Y310674D01*
X225707Y310175D01*
X227000Y310004D01*
X228293Y310175D01*
X229498Y310674D01*
X230532Y311468D01*
X231326Y312502D01*
X231729Y313476D01*
X232271D01*
X232674Y312502D01*
X233468Y311468D01*
X234502Y310674D01*
X235707Y310175D01*
X237000Y310004D01*
X238293Y310175D01*
X239498Y310674D01*
X240532Y311468D01*
X241326Y312502D01*
X241729Y313476D01*
X242271D01*
X242674Y312502D01*
X243468Y311468D01*
X244378Y310770D01*
Y302086D01*
X232510Y290219D01*
X231982Y290398D01*
X231897Y291044D01*
X231494Y292017D01*
X230853Y292853D01*
X230017Y293494D01*
X229044Y293897D01*
X228000Y294035D01*
X57500D01*
X57500Y294035D01*
X56456Y293897D01*
X55483Y293494D01*
X54647Y292853D01*
X47829Y286034D01*
X26878D01*
X26498Y286326D01*
X25293Y286825D01*
X24000Y286996D01*
X22707Y286825D01*
X21502Y286326D01*
X20468Y285532D01*
X19674Y284498D01*
X19175Y283293D01*
X19004Y282000D01*
X19175Y280707D01*
X19674Y279502D01*
X20468Y278468D01*
X21502Y277674D01*
X22707Y277175D01*
X24000Y277005D01*
X25293Y277175D01*
X26498Y277674D01*
X26878Y277965D01*
X49500D01*
X49500Y277965D01*
X50544Y278103D01*
X51517Y278506D01*
X52353Y279147D01*
X59088Y285882D01*
X59450Y285838D01*
X59638Y285347D01*
X38914Y264622D01*
X28231D01*
X27532Y265532D01*
X26498Y266326D01*
X25293Y266825D01*
X24000Y266996D01*
X22707Y266825D01*
X21502Y266326D01*
X20468Y265532D01*
X19674Y264498D01*
X19175Y263293D01*
X19004Y262000D01*
X19175Y260707D01*
X19674Y259502D01*
X20468Y258468D01*
X21502Y257674D01*
X22476Y257271D01*
Y256729D01*
X21502Y256326D01*
X20468Y255532D01*
X19674Y254498D01*
X19175Y253293D01*
X19004Y252000D01*
X19175Y250707D01*
X19674Y249502D01*
X20468Y248468D01*
X21502Y247674D01*
X22476Y247271D01*
Y246729D01*
X21502Y246326D01*
X20468Y245532D01*
X19674Y244498D01*
X19175Y243293D01*
X19004Y242000D01*
X19175Y240707D01*
X19674Y239502D01*
X20468Y238468D01*
X21502Y237674D01*
X21941Y237492D01*
X21842Y236992D01*
X21047D01*
X20267Y236837D01*
X19605Y236395D01*
X19163Y235733D01*
X19008Y234953D01*
Y229047D01*
X19163Y228267D01*
X19605Y227605D01*
X20267Y227163D01*
X21047Y227008D01*
X26953D01*
X27733Y227163D01*
X28395Y227605D01*
X28837Y228267D01*
X28992Y229047D01*
Y229378D01*
X34000D01*
X34000Y229378D01*
X34679Y229467D01*
X35311Y229729D01*
X35854Y230146D01*
X72086Y266378D01*
X261000D01*
X261000Y266378D01*
X261679Y266467D01*
X262311Y266729D01*
X262854Y267146D01*
X278854Y283146D01*
X278854Y283146D01*
X279271Y283689D01*
X279533Y284321D01*
X279622Y285000D01*
X279622Y285000D01*
Y310770D01*
X280532Y311468D01*
X281326Y312502D01*
X281729Y313476D01*
X282271D01*
X282674Y312502D01*
X283468Y311468D01*
X284502Y310674D01*
X285707Y310175D01*
X287000Y310004D01*
X288293Y310175D01*
X289498Y310674D01*
X290532Y311468D01*
X291326Y312502D01*
X291729Y313476D01*
X292271D01*
X292674Y312502D01*
X293468Y311468D01*
X294502Y310674D01*
X295707Y310175D01*
X297000Y310004D01*
X298293Y310175D01*
X299498Y310674D01*
X300532Y311468D01*
X301326Y312502D01*
X301729Y313476D01*
X302271D01*
X302674Y312502D01*
X303468Y311468D01*
X304502Y310674D01*
X305707Y310175D01*
X307000Y310004D01*
X308293Y310175D01*
X309498Y310674D01*
X310532Y311468D01*
X311326Y312502D01*
X311729Y313476D01*
X312271D01*
X312674Y312502D01*
X313468Y311468D01*
X314502Y310674D01*
X315707Y310175D01*
X317000Y310004D01*
X318293Y310175D01*
X319498Y310674D01*
X320532Y311468D01*
X321326Y312502D01*
X321729Y313476D01*
X322271D01*
X322674Y312502D01*
X323468Y311468D01*
X324502Y310674D01*
X325707Y310175D01*
X327000Y310004D01*
X328293Y310175D01*
X329498Y310674D01*
X330532Y311468D01*
X331326Y312502D01*
X331729Y313476D01*
X332271D01*
X332674Y312502D01*
X333468Y311468D01*
X334502Y310674D01*
X335707Y310175D01*
X337000Y310004D01*
X338293Y310175D01*
X339498Y310674D01*
X340532Y311468D01*
X341326Y312502D01*
X341729Y313476D01*
X342271D01*
X342674Y312502D01*
X343468Y311468D01*
X344502Y310674D01*
X345707Y310175D01*
X347000Y310004D01*
X348293Y310175D01*
X349498Y310674D01*
X350532Y311468D01*
X351326Y312502D01*
X351729Y313476D01*
X352271D01*
X352674Y312502D01*
X353468Y311468D01*
X354502Y310674D01*
X355707Y310175D01*
X357000Y310004D01*
X358293Y310175D01*
X359498Y310674D01*
X360532Y311468D01*
X361326Y312502D01*
X361729Y313476D01*
X362271D01*
X362674Y312502D01*
X363468Y311468D01*
X364502Y310674D01*
X365707Y310175D01*
X367000Y310004D01*
X368293Y310175D01*
X369498Y310674D01*
X370532Y311468D01*
X371326Y312502D01*
X371825Y313707D01*
X371995Y315000D01*
X371825Y316293D01*
X371326Y317498D01*
X370532Y318532D01*
X369498Y319326D01*
X368293Y319825D01*
X367000Y319995D01*
D02*
G37*
G36*
X24500Y314921D02*
Y311500D01*
X27921D01*
X27851Y312032D01*
X27453Y312993D01*
X26819Y313819D01*
X25993Y314453D01*
X25032Y314851D01*
X24500Y314921D01*
D02*
G37*
G36*
X376500Y318972D02*
X374047D01*
X373657Y318895D01*
X373326Y318674D01*
X373105Y318343D01*
X373028Y317953D01*
Y315500D01*
X376500D01*
Y318972D01*
D02*
G37*
G36*
X95500Y318921D02*
X94968Y318851D01*
X94007Y318453D01*
X93181Y317819D01*
X92547Y316993D01*
X92149Y316032D01*
X92079Y315500D01*
X95500D01*
Y318921D01*
D02*
G37*
G36*
X470821Y300280D02*
X470537Y300243D01*
X469807Y299941D01*
X469181Y299460D01*
X468700Y298833D01*
X468398Y298104D01*
X468360Y297820D01*
X470821D01*
Y300280D01*
D02*
G37*
G36*
X471820D02*
Y297820D01*
X474281D01*
X474243Y298104D01*
X473941Y298833D01*
X473460Y299460D01*
X472833Y299941D01*
X472104Y300243D01*
X471820Y300280D01*
D02*
G37*
G36*
X427508Y300968D02*
X427225Y300931D01*
X426495Y300628D01*
X425868Y300148D01*
X425387Y299521D01*
X425085Y298791D01*
X425048Y298508D01*
X427508D01*
Y300968D01*
D02*
G37*
G36*
X34000Y335996D02*
X32707Y335825D01*
X31502Y335326D01*
X30468Y334532D01*
X29674Y333498D01*
X29175Y332293D01*
X29004Y331000D01*
X29175Y329707D01*
X29674Y328502D01*
X30468Y327468D01*
X31502Y326674D01*
X32476Y326271D01*
Y325729D01*
X31502Y325326D01*
X30468Y324532D01*
X29674Y323498D01*
X29175Y322293D01*
X29004Y321000D01*
X29175Y319707D01*
X29674Y318502D01*
X30468Y317468D01*
X31502Y316674D01*
X32476Y316271D01*
Y315729D01*
X31502Y315326D01*
X30468Y314532D01*
X29674Y313498D01*
X29175Y312293D01*
X29004Y311000D01*
X29175Y309707D01*
X29674Y308502D01*
X30468Y307468D01*
X31502Y306674D01*
X31941Y306492D01*
X31842Y305992D01*
X31047D01*
X30267Y305837D01*
X29605Y305395D01*
X29163Y304733D01*
X29008Y303953D01*
Y298047D01*
X29163Y297267D01*
X29605Y296605D01*
X30267Y296163D01*
X31047Y296008D01*
X36953D01*
X37733Y296163D01*
X38395Y296605D01*
X38837Y297267D01*
X38992Y298047D01*
Y303953D01*
X38837Y304733D01*
X38395Y305395D01*
X37733Y305837D01*
X36953Y305992D01*
X36158D01*
X36059Y306492D01*
X36498Y306674D01*
X37532Y307468D01*
X38326Y308502D01*
X38825Y309707D01*
X38996Y311000D01*
X38825Y312293D01*
X38326Y313498D01*
X37532Y314532D01*
X36498Y315326D01*
X35524Y315729D01*
Y316271D01*
X36498Y316674D01*
X37532Y317468D01*
X38326Y318502D01*
X38825Y319707D01*
X38996Y321000D01*
X38825Y322293D01*
X38326Y323498D01*
X37532Y324532D01*
X36498Y325326D01*
X35524Y325729D01*
Y326271D01*
X36498Y326674D01*
X37532Y327468D01*
X38326Y328502D01*
X38825Y329707D01*
X38996Y331000D01*
X38825Y332293D01*
X38326Y333498D01*
X37532Y334532D01*
X36498Y335326D01*
X35293Y335825D01*
X34000Y335996D01*
D02*
G37*
G36*
X23500Y300500D02*
X20079D01*
X20149Y299968D01*
X20547Y299007D01*
X21181Y298181D01*
X22007Y297547D01*
X22968Y297149D01*
X23500Y297079D01*
Y300500D01*
D02*
G37*
G36*
X27921D02*
X24500D01*
Y297079D01*
X25032Y297149D01*
X25993Y297547D01*
X26819Y298181D01*
X27453Y299007D01*
X27851Y299968D01*
X27921Y300500D01*
D02*
G37*
G36*
X428508Y300968D02*
Y298508D01*
X430968D01*
X430931Y298791D01*
X430628Y299521D01*
X430148Y300148D01*
X429521Y300628D01*
X428791Y300931D01*
X428508Y300968D01*
D02*
G37*
G36*
X24500Y304921D02*
Y301500D01*
X27921D01*
X27851Y302032D01*
X27453Y302993D01*
X26819Y303819D01*
X25993Y304453D01*
X25032Y304851D01*
X24500Y304921D01*
D02*
G37*
G36*
X528996Y304456D02*
X528713Y304419D01*
X527983Y304117D01*
X527356Y303636D01*
X526876Y303009D01*
X526573Y302279D01*
X526536Y301996D01*
X528996D01*
Y304456D01*
D02*
G37*
G36*
X529996D02*
Y301996D01*
X532456D01*
X532419Y302279D01*
X532117Y303009D01*
X531636Y303636D01*
X531009Y304117D01*
X530279Y304419D01*
X529996Y304456D01*
D02*
G37*
G36*
X528996Y300996D02*
X526536D01*
X526573Y300713D01*
X526876Y299983D01*
X527356Y299356D01*
X527983Y298876D01*
X528713Y298573D01*
X528996Y298536D01*
Y300996D01*
D02*
G37*
G36*
X532456D02*
X529996D01*
Y298536D01*
X530279Y298573D01*
X531009Y298876D01*
X531636Y299356D01*
X532117Y299983D01*
X532419Y300713D01*
X532456Y300996D01*
D02*
G37*
G36*
X23500Y304921D02*
X22968Y304851D01*
X22007Y304453D01*
X21181Y303819D01*
X20547Y302993D01*
X20149Y302032D01*
X20079Y301500D01*
X23500D01*
Y304921D01*
D02*
G37*
G36*
Y320500D02*
X20079D01*
X20149Y319968D01*
X20547Y319007D01*
X21181Y318181D01*
X22007Y317547D01*
X22968Y317149D01*
X23500Y317079D01*
Y320500D01*
D02*
G37*
G36*
X171004Y333456D02*
Y330996D01*
X173464D01*
X173427Y331279D01*
X173124Y332009D01*
X172644Y332636D01*
X172017Y333117D01*
X171287Y333419D01*
X171004Y333456D01*
D02*
G37*
G36*
X23500Y334921D02*
X22968Y334851D01*
X22007Y334453D01*
X21181Y333819D01*
X20547Y332993D01*
X20149Y332032D01*
X20079Y331500D01*
X23500D01*
Y334921D01*
D02*
G37*
G36*
X24500D02*
Y331500D01*
X27921D01*
X27851Y332032D01*
X27453Y332993D01*
X26819Y333819D01*
X25993Y334453D01*
X25032Y334851D01*
X24500Y334921D01*
D02*
G37*
G36*
X170004Y329996D02*
X167544D01*
X167581Y329713D01*
X167883Y328983D01*
X168364Y328356D01*
X168991Y327876D01*
X169721Y327573D01*
X170004Y327536D01*
Y329996D01*
D02*
G37*
G36*
X173464D02*
X171004D01*
Y327536D01*
X171287Y327573D01*
X172017Y327876D01*
X172644Y328356D01*
X173124Y328983D01*
X173427Y329713D01*
X173464Y329996D01*
D02*
G37*
G36*
X170004Y333456D02*
X169721Y333419D01*
X168991Y333117D01*
X168364Y332636D01*
X167883Y332009D01*
X167581Y331279D01*
X167544Y330996D01*
X170004D01*
Y333456D01*
D02*
G37*
G36*
X199500Y351500D02*
X197040D01*
X197077Y351217D01*
X197380Y350487D01*
X197860Y349860D01*
X198487Y349379D01*
X199217Y349077D01*
X199500Y349040D01*
Y351500D01*
D02*
G37*
G36*
X200500Y354960D02*
Y352500D01*
X202960D01*
X202923Y352783D01*
X202621Y353513D01*
X202140Y354140D01*
X201513Y354621D01*
X200783Y354923D01*
X200500Y354960D01*
D02*
G37*
G36*
X170996Y358996D02*
X168536D01*
X168573Y358713D01*
X168876Y357983D01*
X169356Y357356D01*
X169983Y356876D01*
X170713Y356573D01*
X170996Y356536D01*
Y358996D01*
D02*
G37*
G36*
X174456D02*
X171996D01*
Y356536D01*
X172279Y356573D01*
X173009Y356876D01*
X173636Y357356D01*
X174117Y357983D01*
X174419Y358713D01*
X174456Y358996D01*
D02*
G37*
G36*
X202960Y351500D02*
X200500D01*
Y349040D01*
X200783Y349077D01*
X201513Y349379D01*
X202140Y349860D01*
X202621Y350487D01*
X202923Y351217D01*
X202960Y351500D01*
D02*
G37*
G36*
X514500Y379797D02*
X513259Y379633D01*
X512102Y379154D01*
X511108Y378392D01*
X510346Y377398D01*
X509867Y376241D01*
X509703Y375000D01*
X509867Y373759D01*
X510346Y372602D01*
X511108Y371608D01*
X512102Y370846D01*
X513259Y370367D01*
X514127Y370252D01*
Y369748D01*
X513259Y369634D01*
X512102Y369154D01*
X511108Y368392D01*
X510346Y367399D01*
X509867Y366242D01*
X509703Y365000D01*
X509867Y363758D01*
X510346Y362601D01*
X511108Y361608D01*
X512102Y360846D01*
X513259Y360367D01*
X514127Y360252D01*
Y359748D01*
X513259Y359633D01*
X512102Y359154D01*
X511108Y358392D01*
X510346Y357399D01*
X509867Y356241D01*
X509703Y355000D01*
X509867Y353759D01*
X510346Y352602D01*
X511108Y351608D01*
X512102Y350846D01*
X513259Y350366D01*
X514500Y350203D01*
X515741Y350366D01*
X516898Y350846D01*
X517892Y351608D01*
X518654Y352602D01*
X519134Y353759D01*
X519297Y355000D01*
X519134Y356241D01*
X518654Y357399D01*
X517892Y358392D01*
X516898Y359154D01*
X515741Y359633D01*
X514873Y359748D01*
Y360252D01*
X515741Y360367D01*
X516898Y360846D01*
X517892Y361608D01*
X518654Y362601D01*
X519134Y363758D01*
X519297Y365000D01*
X519134Y366242D01*
X518654Y367399D01*
X517892Y368392D01*
X516898Y369154D01*
X515741Y369634D01*
X514873Y369748D01*
Y370252D01*
X515741Y370367D01*
X516898Y370846D01*
X517892Y371608D01*
X518654Y372602D01*
X519134Y373759D01*
X519297Y375000D01*
X519134Y376241D01*
X518654Y377398D01*
X517892Y378392D01*
X516898Y379154D01*
X515741Y379633D01*
X514500Y379797D01*
D02*
G37*
G36*
X199500Y354960D02*
X199217Y354923D01*
X198487Y354621D01*
X197860Y354140D01*
X197380Y353513D01*
X197077Y352783D01*
X197040Y352500D01*
X199500D01*
Y354960D01*
D02*
G37*
G36*
X23500Y324921D02*
X22968Y324851D01*
X22007Y324453D01*
X21181Y323819D01*
X20547Y322993D01*
X20149Y322032D01*
X20079Y321500D01*
X23500D01*
Y324921D01*
D02*
G37*
G36*
X24500D02*
Y321500D01*
X27921D01*
X27851Y322032D01*
X27453Y322993D01*
X26819Y323819D01*
X25993Y324453D01*
X25032Y324851D01*
X24500Y324921D01*
D02*
G37*
G36*
X522000Y325460D02*
X521717Y325423D01*
X520987Y325120D01*
X520360Y324640D01*
X519879Y324013D01*
X519577Y323283D01*
X519540Y323000D01*
X522000D01*
Y325460D01*
D02*
G37*
G36*
X27921Y320500D02*
X24500D01*
Y317079D01*
X25032Y317149D01*
X25993Y317547D01*
X26819Y318181D01*
X27453Y319007D01*
X27851Y319968D01*
X27921Y320500D01*
D02*
G37*
G36*
X522000Y322000D02*
X519540D01*
X519577Y321717D01*
X519879Y320987D01*
X520360Y320360D01*
X520987Y319880D01*
X521717Y319577D01*
X522000Y319540D01*
Y322000D01*
D02*
G37*
G36*
X525460D02*
X523000D01*
Y319540D01*
X523283Y319577D01*
X524013Y319880D01*
X524640Y320360D01*
X525120Y320987D01*
X525423Y321717D01*
X525460Y322000D01*
D02*
G37*
G36*
X523000Y325460D02*
Y323000D01*
X525460D01*
X525423Y323283D01*
X525120Y324013D01*
X524640Y324640D01*
X524013Y325120D01*
X523283Y325423D01*
X523000Y325460D01*
D02*
G37*
G36*
X227004Y329456D02*
Y326996D01*
X229464D01*
X229427Y327279D01*
X229124Y328009D01*
X228644Y328636D01*
X228017Y329117D01*
X227287Y329419D01*
X227004Y329456D01*
D02*
G37*
G36*
X23500Y330500D02*
X20079D01*
X20149Y329968D01*
X20547Y329007D01*
X21181Y328181D01*
X22007Y327547D01*
X22968Y327149D01*
X23500Y327079D01*
Y330500D01*
D02*
G37*
G36*
X27921D02*
X24500D01*
Y327079D01*
X25032Y327149D01*
X25993Y327547D01*
X26819Y328181D01*
X27453Y329007D01*
X27851Y329968D01*
X27921Y330500D01*
D02*
G37*
G36*
X226004Y325996D02*
X223544D01*
X223581Y325713D01*
X223883Y324983D01*
X224364Y324356D01*
X224991Y323876D01*
X225721Y323573D01*
X226004Y323536D01*
Y325996D01*
D02*
G37*
G36*
X229464D02*
X227004D01*
Y323536D01*
X227287Y323573D01*
X228017Y323876D01*
X228644Y324356D01*
X229124Y324983D01*
X229427Y325713D01*
X229464Y325996D01*
D02*
G37*
G36*
X226004Y329456D02*
X225721Y329419D01*
X224991Y329117D01*
X224364Y328636D01*
X223883Y328009D01*
X223581Y327279D01*
X223544Y326996D01*
X226004D01*
Y329456D01*
D02*
G37*
G36*
X425500Y196960D02*
X425217Y196923D01*
X424487Y196621D01*
X423860Y196140D01*
X423380Y195513D01*
X423077Y194783D01*
X423040Y194500D01*
X425500D01*
Y196960D01*
D02*
G37*
G36*
X426500D02*
Y194500D01*
X428960D01*
X428923Y194783D01*
X428620Y195513D01*
X428140Y196140D01*
X427513Y196621D01*
X426783Y196923D01*
X426500Y196960D01*
D02*
G37*
G36*
X259000Y204034D02*
X257956Y203897D01*
X256983Y203494D01*
X256147Y202853D01*
X255506Y202017D01*
X255103Y201044D01*
X254965Y200000D01*
X255103Y198956D01*
X255506Y197983D01*
X256147Y197147D01*
X256983Y196506D01*
X257956Y196103D01*
X259000Y195966D01*
X260044Y196103D01*
X261017Y196506D01*
X261853Y197147D01*
X262494Y197983D01*
X262897Y198956D01*
X263035Y200000D01*
X262897Y201044D01*
X262494Y202017D01*
X261853Y202853D01*
X261017Y203494D01*
X260044Y203897D01*
X259000Y204034D01*
D02*
G37*
G36*
X425500Y193500D02*
X423040D01*
X423077Y193217D01*
X423380Y192487D01*
X423860Y191860D01*
X424487Y191379D01*
X425217Y191077D01*
X425500Y191040D01*
Y193500D01*
D02*
G37*
G36*
X428960D02*
X426500D01*
Y191040D01*
X426783Y191077D01*
X427513Y191379D01*
X428140Y191860D01*
X428620Y192487D01*
X428923Y193217D01*
X428960Y193500D01*
D02*
G37*
G36*
X507000Y336535D02*
X505956Y336397D01*
X504983Y335994D01*
X504147Y335353D01*
X503506Y334517D01*
X503103Y333544D01*
X502965Y332500D01*
X503103Y331456D01*
X503506Y330483D01*
X504147Y329647D01*
X504378Y329470D01*
Y290530D01*
X504147Y290353D01*
X503506Y289517D01*
X503103Y288544D01*
X502965Y287500D01*
X503103Y286456D01*
X503506Y285483D01*
X504147Y284647D01*
X504378Y284470D01*
Y245530D01*
X504147Y245353D01*
X503506Y244517D01*
X503103Y243544D01*
X502965Y242500D01*
X503103Y241456D01*
X503506Y240483D01*
X504147Y239647D01*
X504378Y239470D01*
Y200530D01*
X504147Y200353D01*
X503506Y199517D01*
X503103Y198544D01*
X502965Y197500D01*
X503103Y196456D01*
X503506Y195483D01*
X504147Y194647D01*
X504983Y194006D01*
X505956Y193603D01*
X507000Y193465D01*
X508044Y193603D01*
X509017Y194006D01*
X509853Y194647D01*
X510494Y195483D01*
X510897Y196456D01*
X511034Y197500D01*
X510897Y198544D01*
X510494Y199517D01*
X509853Y200353D01*
X509622Y200530D01*
Y239470D01*
X509853Y239647D01*
X510494Y240483D01*
X510897Y241456D01*
X511034Y242500D01*
X510897Y243544D01*
X510494Y244517D01*
X509853Y245353D01*
X509622Y245530D01*
Y284470D01*
X509853Y284647D01*
X510494Y285483D01*
X510897Y286456D01*
X511034Y287500D01*
X510897Y288544D01*
X510494Y289517D01*
X509853Y290353D01*
X509622Y290530D01*
Y329470D01*
X509853Y329647D01*
X510494Y330483D01*
X510897Y331456D01*
X511034Y332500D01*
X510897Y333544D01*
X510494Y334517D01*
X509853Y335353D01*
X509017Y335994D01*
X508044Y336397D01*
X507000Y336535D01*
D02*
G37*
G36*
X404000Y259034D02*
X402956Y258897D01*
X401983Y258494D01*
X401147Y257853D01*
X400506Y257017D01*
X400139Y256132D01*
X379538Y235530D01*
X302000D01*
X301086Y235410D01*
X300235Y235057D01*
X299504Y234496D01*
X278500Y213492D01*
X277939Y212761D01*
X277586Y211910D01*
X277466Y210996D01*
Y201930D01*
X277099Y201044D01*
X276961Y200000D01*
X277099Y198956D01*
X277502Y197983D01*
X278143Y197147D01*
X278979Y196506D01*
X279952Y196103D01*
X280996Y195966D01*
X282040Y196103D01*
X283013Y196506D01*
X283849Y197147D01*
X284490Y197983D01*
X284893Y198956D01*
X285031Y200000D01*
X284893Y201044D01*
X284526Y201930D01*
Y209534D01*
X303462Y228470D01*
X381000D01*
X381914Y228590D01*
X382765Y228943D01*
X383496Y229504D01*
X405132Y251139D01*
X406017Y251506D01*
X406853Y252147D01*
X407494Y252983D01*
X407897Y253956D01*
X408035Y255000D01*
X407897Y256044D01*
X407494Y257017D01*
X406853Y257853D01*
X406017Y258494D01*
X405044Y258897D01*
X404000Y259034D01*
D02*
G37*
G36*
X529500Y214960D02*
X529217Y214923D01*
X528487Y214620D01*
X527860Y214140D01*
X527380Y213513D01*
X527077Y212783D01*
X527040Y212500D01*
X529500D01*
Y214960D01*
D02*
G37*
G36*
X530500D02*
Y212500D01*
X532960D01*
X532923Y212783D01*
X532620Y213513D01*
X532140Y214140D01*
X531513Y214620D01*
X530783Y214923D01*
X530500Y214960D01*
D02*
G37*
G36*
X414500Y248500D02*
X412040D01*
X412077Y248217D01*
X412380Y247487D01*
X412860Y246860D01*
X413487Y246379D01*
X414217Y246077D01*
X414500Y246040D01*
Y248500D01*
D02*
G37*
G36*
X499500Y341534D02*
X498456Y341397D01*
X497483Y340994D01*
X496647Y340353D01*
X496006Y339517D01*
X495603Y338544D01*
X495466Y337500D01*
X495603Y336456D01*
X496006Y335483D01*
X496647Y334647D01*
X496878Y334470D01*
Y295530D01*
X496647Y295353D01*
X496006Y294517D01*
X495603Y293544D01*
X495466Y292500D01*
X495603Y291456D01*
X496006Y290483D01*
X496647Y289647D01*
X496878Y289470D01*
Y250530D01*
X496647Y250353D01*
X496006Y249517D01*
X495603Y248544D01*
X495466Y247500D01*
X495603Y246456D01*
X496006Y245483D01*
X496647Y244647D01*
X496878Y244470D01*
Y205530D01*
X496647Y205353D01*
X496006Y204517D01*
X495603Y203544D01*
X495466Y202500D01*
X495603Y201456D01*
X496006Y200483D01*
X496647Y199647D01*
X497483Y199006D01*
X498456Y198603D01*
X499500Y198466D01*
X500544Y198603D01*
X501517Y199006D01*
X502353Y199647D01*
X502994Y200483D01*
X503397Y201456D01*
X503535Y202500D01*
X503397Y203544D01*
X502994Y204517D01*
X502353Y205353D01*
X502122Y205530D01*
Y244470D01*
X502353Y244647D01*
X502994Y245483D01*
X503397Y246456D01*
X503535Y247500D01*
X503397Y248544D01*
X502994Y249517D01*
X502353Y250353D01*
X502122Y250530D01*
Y289470D01*
X502353Y289647D01*
X502994Y290483D01*
X503397Y291456D01*
X503535Y292500D01*
X503397Y293544D01*
X502994Y294517D01*
X502353Y295353D01*
X502122Y295530D01*
Y334470D01*
X502353Y334647D01*
X502994Y335483D01*
X503397Y336456D01*
X503535Y337500D01*
X503397Y338544D01*
X502994Y339517D01*
X502353Y340353D01*
X501517Y340994D01*
X500544Y341397D01*
X499500Y341534D01*
D02*
G37*
G36*
X529500Y211500D02*
X527040D01*
X527077Y211217D01*
X527380Y210487D01*
X527860Y209860D01*
X528487Y209380D01*
X529217Y209077D01*
X529500Y209040D01*
Y211500D01*
D02*
G37*
G36*
X532960D02*
X530500D01*
Y209040D01*
X530783Y209077D01*
X531513Y209380D01*
X532140Y209860D01*
X532620Y210487D01*
X532923Y211217D01*
X532960Y211500D01*
D02*
G37*
G36*
X529996Y165996D02*
X527536D01*
X527573Y165713D01*
X527876Y164983D01*
X528356Y164356D01*
X528983Y163876D01*
X529713Y163573D01*
X529996Y163536D01*
Y165996D01*
D02*
G37*
G36*
X171996Y362456D02*
Y359996D01*
X174456D01*
X174419Y360279D01*
X174117Y361009D01*
X173636Y361636D01*
X173009Y362117D01*
X172279Y362419D01*
X171996Y362456D01*
D02*
G37*
G36*
X170996D02*
X170713Y362419D01*
X169983Y362117D01*
X169356Y361636D01*
X168876Y361009D01*
X168573Y360279D01*
X168536Y359996D01*
X170996D01*
Y362456D01*
D02*
G37*
G36*
X236004Y369004D02*
X233544D01*
X233581Y368721D01*
X233883Y367991D01*
X234364Y367364D01*
X234991Y366883D01*
X235721Y366581D01*
X236004Y366544D01*
Y369004D01*
D02*
G37*
G36*
X165504Y370538D02*
X164460Y370401D01*
X163487Y369998D01*
X162877Y369530D01*
X146504D01*
X145721Y369427D01*
X144991Y369124D01*
X144364Y368644D01*
X103860Y328140D01*
X103379Y327513D01*
X103077Y326783D01*
X102974Y326000D01*
Y318921D01*
X102468Y318532D01*
X101674Y317498D01*
X101175Y316293D01*
X101005Y315000D01*
X101175Y313707D01*
X101674Y312502D01*
X102468Y311468D01*
X103502Y310674D01*
X104707Y310175D01*
X106000Y310004D01*
X107293Y310175D01*
X108498Y310674D01*
X109532Y311468D01*
X110326Y312502D01*
X110729Y313476D01*
X111271D01*
X111674Y312502D01*
X112468Y311468D01*
X113502Y310674D01*
X114707Y310175D01*
X116000Y310004D01*
X117293Y310175D01*
X118498Y310674D01*
X119532Y311468D01*
X120326Y312502D01*
X120508Y312941D01*
X121008Y312842D01*
Y312047D01*
X121163Y311267D01*
X121605Y310605D01*
X122267Y310163D01*
X123047Y310008D01*
X128953D01*
X129733Y310163D01*
X130395Y310605D01*
X130837Y311267D01*
X130992Y312047D01*
Y317953D01*
X130837Y318733D01*
X130395Y319395D01*
X129733Y319837D01*
X128953Y319992D01*
X123047D01*
X122267Y319837D01*
X121605Y319395D01*
X121163Y318733D01*
X121008Y317953D01*
Y317158D01*
X120508Y317059D01*
X120326Y317498D01*
X119532Y318532D01*
X118498Y319326D01*
X117293Y319825D01*
X116000Y319995D01*
X114707Y319825D01*
X113502Y319326D01*
X112468Y318532D01*
X111674Y317498D01*
X111271Y316524D01*
X110729D01*
X110326Y317498D01*
X109532Y318532D01*
X109026Y318921D01*
Y324747D01*
X147757Y363478D01*
X162877D01*
X163487Y363010D01*
X164460Y362607D01*
X165504Y362469D01*
X166548Y362607D01*
X167521Y363010D01*
X168357Y363651D01*
X168998Y364487D01*
X169401Y365460D01*
X169538Y366504D01*
X169401Y367548D01*
X168998Y368521D01*
X168357Y369357D01*
X167521Y369998D01*
X166548Y370401D01*
X165504Y370538D01*
D02*
G37*
G36*
X529996Y169456D02*
X529713Y169419D01*
X528983Y169117D01*
X528356Y168636D01*
X527876Y168009D01*
X527573Y167279D01*
X527536Y166996D01*
X529996D01*
Y169456D01*
D02*
G37*
G36*
X298390Y187070D02*
X298107Y187033D01*
X297377Y186731D01*
X296750Y186250D01*
X296269Y185623D01*
X295967Y184893D01*
X295930Y184610D01*
X298390D01*
Y187070D01*
D02*
G37*
G36*
X299390D02*
Y184610D01*
X301850D01*
X301813Y184893D01*
X301510Y185623D01*
X301029Y186250D01*
X300403Y186731D01*
X299673Y187033D01*
X299390Y187070D01*
D02*
G37*
G36*
X514500Y331535D02*
X513456Y331397D01*
X512483Y330994D01*
X511647Y330353D01*
X511006Y329517D01*
X510603Y328544D01*
X510465Y327500D01*
X510603Y326456D01*
X511006Y325483D01*
X511647Y324647D01*
X511878Y324470D01*
Y285530D01*
X511647Y285353D01*
X511006Y284517D01*
X510603Y283544D01*
X510465Y282500D01*
X510603Y281456D01*
X511006Y280483D01*
X511647Y279647D01*
X511878Y279470D01*
Y240530D01*
X511647Y240353D01*
X511006Y239517D01*
X510603Y238544D01*
X510465Y237500D01*
X510603Y236456D01*
X511006Y235483D01*
X511647Y234647D01*
X511878Y234470D01*
Y195530D01*
X511647Y195353D01*
X511006Y194517D01*
X510603Y193544D01*
X510465Y192500D01*
X510603Y191456D01*
X511006Y190483D01*
X511647Y189647D01*
X512483Y189006D01*
X513456Y188603D01*
X514500Y188465D01*
X515544Y188603D01*
X516517Y189006D01*
X517353Y189647D01*
X517994Y190483D01*
X518397Y191456D01*
X518535Y192500D01*
X518397Y193544D01*
X517994Y194517D01*
X517353Y195353D01*
X517122Y195530D01*
Y234470D01*
X517353Y234647D01*
X517994Y235483D01*
X518397Y236456D01*
X518535Y237500D01*
X518397Y238544D01*
X517994Y239517D01*
X517353Y240353D01*
X517122Y240530D01*
Y279470D01*
X517353Y279647D01*
X517994Y280483D01*
X518397Y281456D01*
X518535Y282500D01*
X518397Y283544D01*
X517994Y284517D01*
X517353Y285353D01*
X517122Y285530D01*
Y324470D01*
X517353Y324647D01*
X517994Y325483D01*
X518397Y326456D01*
X518535Y327500D01*
X518397Y328544D01*
X517994Y329517D01*
X517353Y330353D01*
X516517Y330994D01*
X515544Y331397D01*
X514500Y331535D01*
D02*
G37*
G36*
X346500Y181035D02*
X345456Y180897D01*
X344483Y180494D01*
X343647Y179853D01*
X343006Y179017D01*
X342603Y178044D01*
X342465Y177000D01*
X342603Y175956D01*
X343006Y174983D01*
X343647Y174147D01*
X344483Y173506D01*
X345456Y173103D01*
X346500Y172966D01*
X347544Y173103D01*
X348517Y173506D01*
X349353Y174147D01*
X349994Y174983D01*
X350397Y175956D01*
X350535Y177000D01*
X350397Y178044D01*
X349994Y179017D01*
X349353Y179853D01*
X348517Y180494D01*
X347544Y180897D01*
X346500Y181035D01*
D02*
G37*
G36*
X298390Y183610D02*
X295930D01*
X295967Y183327D01*
X296269Y182597D01*
X296750Y181971D01*
X297377Y181490D01*
X298107Y181187D01*
X298390Y181150D01*
Y183610D01*
D02*
G37*
G36*
X301850D02*
X299390D01*
Y181150D01*
X299673Y181187D01*
X300403Y181490D01*
X301029Y181971D01*
X301510Y182597D01*
X301813Y183327D01*
X301850Y183610D01*
D02*
G37*
G36*
X417960Y248500D02*
X415500D01*
Y246040D01*
X415783Y246077D01*
X416513Y246379D01*
X417140Y246860D01*
X417621Y247487D01*
X417923Y248217D01*
X417960Y248500D01*
D02*
G37*
G36*
X23500Y275921D02*
X22968Y275851D01*
X22007Y275453D01*
X21181Y274819D01*
X20547Y273993D01*
X20149Y273032D01*
X20079Y272500D01*
X23500D01*
Y275921D01*
D02*
G37*
G36*
X24500D02*
Y272500D01*
X27921D01*
X27851Y273032D01*
X27453Y273993D01*
X26819Y274819D01*
X25993Y275453D01*
X25032Y275851D01*
X24500Y275921D01*
D02*
G37*
G36*
X294000Y289000D02*
X291540D01*
X291577Y288717D01*
X291880Y287987D01*
X292360Y287360D01*
X292987Y286879D01*
X293717Y286577D01*
X294000Y286540D01*
Y289000D01*
D02*
G37*
G36*
X424500Y264960D02*
Y262500D01*
X426960D01*
X426923Y262783D01*
X426620Y263513D01*
X426140Y264140D01*
X425513Y264620D01*
X424783Y264923D01*
X424500Y264960D01*
D02*
G37*
G36*
X23500Y271500D02*
X20079D01*
X20149Y270968D01*
X20547Y270007D01*
X21181Y269181D01*
X22007Y268547D01*
X22968Y268149D01*
X23500Y268079D01*
Y271500D01*
D02*
G37*
G36*
X27921D02*
X24500D01*
Y268079D01*
X25032Y268149D01*
X25993Y268547D01*
X26819Y269181D01*
X27453Y270007D01*
X27851Y270968D01*
X27921Y271500D01*
D02*
G37*
G36*
X297460Y289000D02*
X295000D01*
Y286540D01*
X295283Y286577D01*
X296013Y286879D01*
X296640Y287360D01*
X297120Y287987D01*
X297423Y288717D01*
X297460Y289000D01*
D02*
G37*
G36*
X474281Y296820D02*
X471820D01*
Y294360D01*
X472104Y294398D01*
X472833Y294700D01*
X473460Y295181D01*
X473941Y295808D01*
X474243Y296537D01*
X474281Y296820D01*
D02*
G37*
G36*
X427508Y297508D02*
X425048D01*
X425085Y297225D01*
X425387Y296495D01*
X425868Y295868D01*
X426495Y295387D01*
X427225Y295085D01*
X427508Y295048D01*
Y297508D01*
D02*
G37*
G36*
X430968D02*
X428508D01*
Y295048D01*
X428791Y295085D01*
X429521Y295387D01*
X430148Y295868D01*
X430628Y296495D01*
X430931Y297225D01*
X430968Y297508D01*
D02*
G37*
G36*
X294000Y292460D02*
X293717Y292423D01*
X292987Y292121D01*
X292360Y291640D01*
X291880Y291013D01*
X291577Y290283D01*
X291540Y290000D01*
X294000D01*
Y292460D01*
D02*
G37*
G36*
X295000D02*
Y290000D01*
X297460D01*
X297423Y290283D01*
X297120Y291013D01*
X296640Y291640D01*
X296013Y292121D01*
X295283Y292423D01*
X295000Y292460D01*
D02*
G37*
G36*
X470821Y296820D02*
X468360D01*
X468398Y296537D01*
X468700Y295808D01*
X469181Y295181D01*
X469807Y294700D01*
X470537Y294398D01*
X470821Y294360D01*
Y296820D01*
D02*
G37*
G36*
X532464Y255996D02*
X530004D01*
Y253536D01*
X530287Y253573D01*
X531017Y253876D01*
X531644Y254356D01*
X532124Y254983D01*
X532427Y255713D01*
X532464Y255996D01*
D02*
G37*
G36*
X465500Y256500D02*
X463040D01*
X463077Y256217D01*
X463379Y255487D01*
X463860Y254860D01*
X464487Y254380D01*
X465217Y254077D01*
X465500Y254040D01*
Y256500D01*
D02*
G37*
G36*
X377000Y259996D02*
X375707Y259825D01*
X374502Y259326D01*
X373468Y258532D01*
X372674Y257498D01*
X372271Y256524D01*
X371729D01*
X371326Y257498D01*
X370532Y258532D01*
X369498Y259326D01*
X368293Y259825D01*
X367000Y259996D01*
X365707Y259825D01*
X364502Y259326D01*
X363468Y258532D01*
X362674Y257498D01*
X362271Y256524D01*
X361729D01*
X361326Y257498D01*
X360532Y258532D01*
X359498Y259326D01*
X358293Y259825D01*
X357000Y259996D01*
X355707Y259825D01*
X354502Y259326D01*
X353468Y258532D01*
X352674Y257498D01*
X352271Y256524D01*
X351729D01*
X351326Y257498D01*
X350532Y258532D01*
X349498Y259326D01*
X348293Y259825D01*
X347000Y259996D01*
X345707Y259825D01*
X344502Y259326D01*
X343468Y258532D01*
X342674Y257498D01*
X342271Y256524D01*
X341729D01*
X341326Y257498D01*
X340532Y258532D01*
X339498Y259326D01*
X338293Y259825D01*
X337000Y259996D01*
X335707Y259825D01*
X334502Y259326D01*
X333468Y258532D01*
X332674Y257498D01*
X332271Y256524D01*
X331729D01*
X331326Y257498D01*
X330532Y258532D01*
X329498Y259326D01*
X328293Y259825D01*
X327000Y259996D01*
X325707Y259825D01*
X324502Y259326D01*
X323468Y258532D01*
X322674Y257498D01*
X322271Y256524D01*
X321729D01*
X321326Y257498D01*
X320532Y258532D01*
X319498Y259326D01*
X318293Y259825D01*
X317000Y259996D01*
X315707Y259825D01*
X314502Y259326D01*
X313468Y258532D01*
X312674Y257498D01*
X312271Y256524D01*
X311729D01*
X311326Y257498D01*
X310532Y258532D01*
X309498Y259326D01*
X308293Y259825D01*
X307000Y259996D01*
X305707Y259825D01*
X304502Y259326D01*
X303468Y258532D01*
X302674Y257498D01*
X302271Y256524D01*
X301729D01*
X301326Y257498D01*
X300532Y258532D01*
X299498Y259326D01*
X298293Y259825D01*
X297000Y259996D01*
X295707Y259825D01*
X294502Y259326D01*
X293468Y258532D01*
X292674Y257498D01*
X292271Y256524D01*
X291729D01*
X291326Y257498D01*
X290532Y258532D01*
X289498Y259326D01*
X288293Y259825D01*
X287000Y259996D01*
X285707Y259825D01*
X284502Y259326D01*
X283468Y258532D01*
X282674Y257498D01*
X282271Y256524D01*
X281729D01*
X281326Y257498D01*
X280532Y258532D01*
X279498Y259326D01*
X278293Y259825D01*
X277000Y259996D01*
X275707Y259825D01*
X274502Y259326D01*
X273468Y258532D01*
X272674Y257498D01*
X272271Y256524D01*
X271729D01*
X271326Y257498D01*
X270532Y258532D01*
X269498Y259326D01*
X268293Y259825D01*
X267000Y259996D01*
X265707Y259825D01*
X264502Y259326D01*
X263468Y258532D01*
X262674Y257498D01*
X262271Y256524D01*
X261729D01*
X261326Y257498D01*
X260532Y258532D01*
X259498Y259326D01*
X258293Y259825D01*
X257000Y259996D01*
X255707Y259825D01*
X254502Y259326D01*
X253468Y258532D01*
X252674Y257498D01*
X252271Y256524D01*
X251729D01*
X251326Y257498D01*
X250532Y258532D01*
X249498Y259326D01*
X248293Y259825D01*
X247000Y259996D01*
X245707Y259825D01*
X244502Y259326D01*
X243468Y258532D01*
X242674Y257498D01*
X242271Y256524D01*
X241729D01*
X241326Y257498D01*
X240532Y258532D01*
X239498Y259326D01*
X238293Y259825D01*
X237000Y259996D01*
X235707Y259825D01*
X234502Y259326D01*
X233468Y258532D01*
X232674Y257498D01*
X232271Y256524D01*
X231729D01*
X231326Y257498D01*
X230532Y258532D01*
X229498Y259326D01*
X228293Y259825D01*
X227000Y259996D01*
X225707Y259825D01*
X224502Y259326D01*
X223468Y258532D01*
X222674Y257498D01*
X222271Y256524D01*
X221729D01*
X221326Y257498D01*
X220532Y258532D01*
X219498Y259326D01*
X218293Y259825D01*
X217000Y259996D01*
X215707Y259825D01*
X214502Y259326D01*
X213468Y258532D01*
X212674Y257498D01*
X212271Y256524D01*
X211729D01*
X211326Y257498D01*
X210532Y258532D01*
X209498Y259326D01*
X208293Y259825D01*
X207000Y259996D01*
X205707Y259825D01*
X204502Y259326D01*
X203468Y258532D01*
X202674Y257498D01*
X202271Y256524D01*
X201729D01*
X201326Y257498D01*
X200532Y258532D01*
X199498Y259326D01*
X198293Y259825D01*
X197000Y259996D01*
X195707Y259825D01*
X194502Y259326D01*
X193468Y258532D01*
X192674Y257498D01*
X192271Y256524D01*
X191729D01*
X191326Y257498D01*
X190532Y258532D01*
X189498Y259326D01*
X188293Y259825D01*
X187000Y259996D01*
X185707Y259825D01*
X184502Y259326D01*
X183468Y258532D01*
X182674Y257498D01*
X182271Y256524D01*
X181729D01*
X181326Y257498D01*
X180532Y258532D01*
X179498Y259326D01*
X178293Y259825D01*
X177000Y259996D01*
X175707Y259825D01*
X174502Y259326D01*
X173468Y258532D01*
X172674Y257498D01*
X172271Y256524D01*
X171729D01*
X171326Y257498D01*
X170532Y258532D01*
X169498Y259326D01*
X168293Y259825D01*
X167000Y259996D01*
X165707Y259825D01*
X164502Y259326D01*
X163468Y258532D01*
X162674Y257498D01*
X162271Y256524D01*
X161729D01*
X161326Y257498D01*
X160532Y258532D01*
X159498Y259326D01*
X158293Y259825D01*
X157000Y259996D01*
X155707Y259825D01*
X154502Y259326D01*
X153468Y258532D01*
X152674Y257498D01*
X152492Y257059D01*
X151992Y257158D01*
Y257953D01*
X151837Y258733D01*
X151395Y259395D01*
X150733Y259837D01*
X149953Y259992D01*
X144047D01*
X143267Y259837D01*
X142605Y259395D01*
X142163Y258733D01*
X142008Y257953D01*
Y252047D01*
X142163Y251267D01*
X142605Y250605D01*
X143267Y250163D01*
X144047Y250008D01*
X149953D01*
X150733Y250163D01*
X151395Y250605D01*
X151837Y251267D01*
X151992Y252047D01*
Y252842D01*
X152492Y252941D01*
X152674Y252502D01*
X153468Y251468D01*
X154502Y250674D01*
X155707Y250175D01*
X157000Y250005D01*
X158293Y250175D01*
X159498Y250674D01*
X160532Y251468D01*
X161326Y252502D01*
X161729Y253476D01*
X162271D01*
X162674Y252502D01*
X163468Y251468D01*
X164502Y250674D01*
X165707Y250175D01*
X167000Y250005D01*
X168293Y250175D01*
X169498Y250674D01*
X170532Y251468D01*
X171326Y252502D01*
X171729Y253476D01*
X172271D01*
X172674Y252502D01*
X173468Y251468D01*
X174502Y250674D01*
X175707Y250175D01*
X177000Y250005D01*
X178293Y250175D01*
X179498Y250674D01*
X180532Y251468D01*
X181326Y252502D01*
X181729Y253476D01*
X182271D01*
X182674Y252502D01*
X183468Y251468D01*
X184502Y250674D01*
X185707Y250175D01*
X187000Y250005D01*
X188293Y250175D01*
X189498Y250674D01*
X190532Y251468D01*
X191326Y252502D01*
X191729Y253476D01*
X192271D01*
X192674Y252502D01*
X193468Y251468D01*
X194502Y250674D01*
X195707Y250175D01*
X197000Y250005D01*
X198293Y250175D01*
X199498Y250674D01*
X200532Y251468D01*
X201326Y252502D01*
X201729Y253476D01*
X202271D01*
X202674Y252502D01*
X203468Y251468D01*
X204502Y250674D01*
X205707Y250175D01*
X207000Y250005D01*
X208293Y250175D01*
X209498Y250674D01*
X210532Y251468D01*
X211326Y252502D01*
X211729Y253476D01*
X212271D01*
X212674Y252502D01*
X213468Y251468D01*
X214502Y250674D01*
X215707Y250175D01*
X217000Y250005D01*
X218293Y250175D01*
X219498Y250674D01*
X220532Y251468D01*
X221326Y252502D01*
X221729Y253476D01*
X222271D01*
X222674Y252502D01*
X223468Y251468D01*
X224502Y250674D01*
X225707Y250175D01*
X227000Y250005D01*
X228293Y250175D01*
X229498Y250674D01*
X230532Y251468D01*
X231326Y252502D01*
X231729Y253476D01*
X232271D01*
X232674Y252502D01*
X233468Y251468D01*
X234502Y250674D01*
X235707Y250175D01*
X237000Y250005D01*
X238293Y250175D01*
X239498Y250674D01*
X240532Y251468D01*
X241326Y252502D01*
X241729Y253476D01*
X242271D01*
X242674Y252502D01*
X243468Y251468D01*
X244502Y250674D01*
X245707Y250175D01*
X247000Y250005D01*
X248293Y250175D01*
X249498Y250674D01*
X250532Y251468D01*
X251326Y252502D01*
X251729Y253476D01*
X252271D01*
X252674Y252502D01*
X253468Y251468D01*
X254502Y250674D01*
X255707Y250175D01*
X257000Y250005D01*
X258293Y250175D01*
X259498Y250674D01*
X260532Y251468D01*
X261326Y252502D01*
X261729Y253476D01*
X262271D01*
X262674Y252502D01*
X263468Y251468D01*
X264502Y250674D01*
X265707Y250175D01*
X267000Y250005D01*
X268293Y250175D01*
X269498Y250674D01*
X270532Y251468D01*
X271326Y252502D01*
X271729Y253476D01*
X272271D01*
X272674Y252502D01*
X273468Y251468D01*
X274502Y250674D01*
X275707Y250175D01*
X277000Y250005D01*
X278293Y250175D01*
X279498Y250674D01*
X280532Y251468D01*
X281326Y252502D01*
X281729Y253476D01*
X282271D01*
X282674Y252502D01*
X283468Y251468D01*
X284502Y250674D01*
X285707Y250175D01*
X287000Y250005D01*
X288293Y250175D01*
X289498Y250674D01*
X290532Y251468D01*
X291326Y252502D01*
X291729Y253476D01*
X292271D01*
X292674Y252502D01*
X293468Y251468D01*
X294502Y250674D01*
X295707Y250175D01*
X297000Y250005D01*
X298293Y250175D01*
X299498Y250674D01*
X300532Y251468D01*
X301326Y252502D01*
X301729Y253476D01*
X302271D01*
X302674Y252502D01*
X303468Y251468D01*
X304502Y250674D01*
X305707Y250175D01*
X307000Y250005D01*
X308293Y250175D01*
X309498Y250674D01*
X310532Y251468D01*
X311326Y252502D01*
X311729Y253476D01*
X312271D01*
X312674Y252502D01*
X313468Y251468D01*
X314502Y250674D01*
X315707Y250175D01*
X317000Y250005D01*
X318293Y250175D01*
X319498Y250674D01*
X320532Y251468D01*
X321326Y252502D01*
X321729Y253476D01*
X322271D01*
X322674Y252502D01*
X323468Y251468D01*
X324502Y250674D01*
X325707Y250175D01*
X327000Y250005D01*
X328293Y250175D01*
X329498Y250674D01*
X330532Y251468D01*
X331326Y252502D01*
X331729Y253476D01*
X332271D01*
X332674Y252502D01*
X333468Y251468D01*
X334502Y250674D01*
X335707Y250175D01*
X337000Y250005D01*
X338293Y250175D01*
X339498Y250674D01*
X340532Y251468D01*
X341326Y252502D01*
X341729Y253476D01*
X342271D01*
X342674Y252502D01*
X343468Y251468D01*
X344502Y250674D01*
X345707Y250175D01*
X347000Y250005D01*
X348293Y250175D01*
X349498Y250674D01*
X350532Y251468D01*
X351326Y252502D01*
X351729Y253476D01*
X352271D01*
X352674Y252502D01*
X353468Y251468D01*
X354502Y250674D01*
X355707Y250175D01*
X357000Y250005D01*
X358293Y250175D01*
X359498Y250674D01*
X360532Y251468D01*
X361326Y252502D01*
X361729Y253476D01*
X362271D01*
X362674Y252502D01*
X363468Y251468D01*
X364502Y250674D01*
X365707Y250175D01*
X367000Y250005D01*
X368293Y250175D01*
X369498Y250674D01*
X370532Y251468D01*
X371326Y252502D01*
X371729Y253476D01*
X372271D01*
X372674Y252502D01*
X373468Y251468D01*
X374502Y250674D01*
X375707Y250175D01*
X377000Y250005D01*
X378293Y250175D01*
X379498Y250674D01*
X380532Y251468D01*
X381326Y252502D01*
X381825Y253707D01*
X381996Y255000D01*
X381825Y256293D01*
X381326Y257498D01*
X380532Y258532D01*
X379498Y259326D01*
X378293Y259825D01*
X377000Y259996D01*
D02*
G37*
G36*
X414500Y251960D02*
X414217Y251923D01*
X413487Y251621D01*
X412860Y251140D01*
X412380Y250513D01*
X412077Y249783D01*
X412040Y249500D01*
X414500D01*
Y251960D01*
D02*
G37*
G36*
X415500D02*
Y249500D01*
X417960D01*
X417923Y249783D01*
X417621Y250513D01*
X417140Y251140D01*
X416513Y251621D01*
X415783Y251923D01*
X415500Y251960D01*
D02*
G37*
G36*
X529004Y255996D02*
X526544D01*
X526581Y255713D01*
X526883Y254983D01*
X527364Y254356D01*
X527991Y253876D01*
X528721Y253573D01*
X529004Y253536D01*
Y255996D01*
D02*
G37*
G36*
Y259456D02*
X528721Y259419D01*
X527991Y259117D01*
X527364Y258636D01*
X526883Y258009D01*
X526581Y257279D01*
X526544Y256996D01*
X529004D01*
Y259456D01*
D02*
G37*
G36*
X423500Y261500D02*
X421040D01*
X421077Y261217D01*
X421380Y260487D01*
X421860Y259860D01*
X422487Y259380D01*
X423217Y259077D01*
X423500Y259040D01*
Y261500D01*
D02*
G37*
G36*
X426960D02*
X424500D01*
Y259040D01*
X424783Y259077D01*
X425513Y259380D01*
X426140Y259860D01*
X426620Y260487D01*
X426923Y261217D01*
X426960Y261500D01*
D02*
G37*
G36*
X423500Y264960D02*
X423217Y264923D01*
X422487Y264620D01*
X421860Y264140D01*
X421380Y263513D01*
X421077Y262783D01*
X421040Y262500D01*
X423500D01*
Y264960D01*
D02*
G37*
G36*
X530004Y259456D02*
Y256996D01*
X532464D01*
X532427Y257279D01*
X532124Y258009D01*
X531644Y258636D01*
X531017Y259117D01*
X530287Y259419D01*
X530004Y259456D01*
D02*
G37*
G36*
X473504Y261034D02*
X472460Y260897D01*
X471487Y260494D01*
X470651Y259853D01*
X470010Y259017D01*
X469607Y258044D01*
X469505Y257267D01*
X469500Y257231D01*
X468996D01*
X468991Y257267D01*
X468923Y257783D01*
X468620Y258513D01*
X468140Y259140D01*
X467513Y259620D01*
X466783Y259923D01*
X466500Y259960D01*
Y257000D01*
Y254040D01*
X466783Y254077D01*
X467513Y254380D01*
X468140Y254860D01*
X468620Y255487D01*
X468923Y256217D01*
X468991Y256733D01*
X468996Y256769D01*
X469500D01*
X469505Y256733D01*
X469607Y255956D01*
X470010Y254983D01*
X470651Y254147D01*
X471487Y253506D01*
X472460Y253103D01*
X473504Y252965D01*
X474548Y253103D01*
X475521Y253506D01*
X476357Y254147D01*
X476998Y254983D01*
X477401Y255956D01*
X477538Y257000D01*
X477401Y258044D01*
X476998Y259017D01*
X476357Y259853D01*
X475521Y260494D01*
X474548Y260897D01*
X473504Y261034D01*
D02*
G37*
G36*
X465500Y259960D02*
X465217Y259923D01*
X464487Y259620D01*
X463860Y259140D01*
X463379Y258513D01*
X463077Y257783D01*
X463040Y257500D01*
X465500D01*
Y259960D01*
D02*
G37*
G36*
X462602Y104602D02*
X460142D01*
X460180Y104319D01*
X460482Y103589D01*
X460963Y102963D01*
X461589Y102482D01*
X462319Y102180D01*
X462602Y102142D01*
Y104602D01*
D02*
G37*
G36*
X466062D02*
X463602D01*
Y102142D01*
X463885Y102180D01*
X464615Y102482D01*
X465242Y102963D01*
X465723Y103589D01*
X466025Y104319D01*
X466062Y104602D01*
D02*
G37*
G36*
X255460Y107500D02*
X253000D01*
Y105040D01*
X253283Y105077D01*
X254013Y105379D01*
X254640Y105860D01*
X255120Y106487D01*
X255423Y107217D01*
X255460Y107500D01*
D02*
G37*
G36*
X331500Y93117D02*
X331217Y93080D01*
X330487Y92778D01*
X329860Y92297D01*
X329380Y91670D01*
X329077Y90941D01*
X329040Y90658D01*
X331500D01*
Y93117D01*
D02*
G37*
G36*
X332500D02*
Y90658D01*
X334960D01*
X334923Y90941D01*
X334620Y91670D01*
X334140Y92297D01*
X333513Y92778D01*
X332783Y93080D01*
X332500Y93117D01*
D02*
G37*
G36*
X536000Y104034D02*
X534956Y103897D01*
X533983Y103494D01*
X533147Y102853D01*
X532506Y102017D01*
X532103Y101044D01*
X531965Y100000D01*
X532103Y98956D01*
X532506Y97983D01*
X533147Y97147D01*
X533983Y96506D01*
X534956Y96103D01*
X536000Y95965D01*
X537044Y96103D01*
X538017Y96506D01*
X538853Y97147D01*
X539494Y97983D01*
X539897Y98956D01*
X540034Y100000D01*
X539897Y101044D01*
X539494Y102017D01*
X538853Y102853D01*
X538017Y103494D01*
X537044Y103897D01*
X536000Y104034D01*
D02*
G37*
G36*
X462602Y108062D02*
X462319Y108025D01*
X461589Y107723D01*
X460963Y107242D01*
X460482Y106615D01*
X460180Y105886D01*
X460142Y105602D01*
X462602D01*
Y108062D01*
D02*
G37*
G36*
X502460Y111000D02*
X500000D01*
Y108540D01*
X500283Y108577D01*
X501013Y108879D01*
X501640Y109360D01*
X502120Y109987D01*
X502423Y110717D01*
X502460Y111000D01*
D02*
G37*
G36*
X499000Y114460D02*
X498717Y114423D01*
X497987Y114120D01*
X497360Y113640D01*
X496879Y113013D01*
X496577Y112283D01*
X496540Y112000D01*
X499000D01*
Y114460D01*
D02*
G37*
G36*
X500000D02*
Y112000D01*
X502460D01*
X502423Y112283D01*
X502120Y113013D01*
X501640Y113640D01*
X501013Y114120D01*
X500283Y114423D01*
X500000Y114460D01*
D02*
G37*
G36*
X463602Y108062D02*
Y105602D01*
X466062D01*
X466025Y105886D01*
X465723Y106615D01*
X465242Y107242D01*
X464615Y107723D01*
X463885Y108025D01*
X463602Y108062D01*
D02*
G37*
G36*
X253000Y110960D02*
Y108500D01*
X255460D01*
X255423Y108783D01*
X255120Y109513D01*
X254640Y110140D01*
X254013Y110620D01*
X253283Y110923D01*
X253000Y110960D01*
D02*
G37*
G36*
X499000Y111000D02*
X496540D01*
X496577Y110717D01*
X496879Y109987D01*
X497360Y109360D01*
X497987Y108879D01*
X498717Y108577D01*
X499000Y108540D01*
Y111000D01*
D02*
G37*
G36*
X277508Y72960D02*
Y70500D01*
X279968D01*
X279931Y70783D01*
X279628Y71513D01*
X279148Y72140D01*
X278521Y72620D01*
X277791Y72923D01*
X277508Y72960D01*
D02*
G37*
G36*
X424000Y89034D02*
X422956Y88897D01*
X421983Y88494D01*
X421147Y87853D01*
X420506Y87017D01*
X420139Y86132D01*
X409538Y75530D01*
X355930D01*
X355044Y75897D01*
X354000Y76034D01*
X352956Y75897D01*
X351983Y75494D01*
X351147Y74853D01*
X350506Y74017D01*
X350103Y73044D01*
X349966Y72000D01*
X350103Y70956D01*
X350506Y69983D01*
X351147Y69147D01*
X351983Y68506D01*
X352956Y68103D01*
X354000Y67966D01*
X355044Y68103D01*
X355930Y68470D01*
X411000D01*
X411914Y68590D01*
X412765Y68943D01*
X413496Y69504D01*
X425132Y81139D01*
X426017Y81506D01*
X426853Y82147D01*
X427494Y82983D01*
X427897Y83956D01*
X428034Y85000D01*
X427897Y86044D01*
X427494Y87017D01*
X426853Y87853D01*
X426017Y88494D01*
X425044Y88897D01*
X424000Y89034D01*
D02*
G37*
G36*
X499456Y79996D02*
X496996D01*
Y77536D01*
X497279Y77573D01*
X498009Y77876D01*
X498636Y78356D01*
X499117Y78983D01*
X499419Y79713D01*
X499456Y79996D01*
D02*
G37*
G36*
X276508Y69500D02*
X274048D01*
X274085Y69217D01*
X274387Y68487D01*
X274868Y67860D01*
X275495Y67379D01*
X276225Y67077D01*
X276508Y67040D01*
Y69500D01*
D02*
G37*
G36*
X279968D02*
X277508D01*
Y67040D01*
X277791Y67077D01*
X278521Y67379D01*
X279148Y67860D01*
X279628Y68487D01*
X279931Y69217D01*
X279968Y69500D01*
D02*
G37*
G36*
X276508Y72960D02*
X276225Y72923D01*
X275495Y72620D01*
X274868Y72140D01*
X274387Y71513D01*
X274085Y70783D01*
X274048Y70500D01*
X276508D01*
Y72960D01*
D02*
G37*
G36*
X496996Y83456D02*
Y80996D01*
X499456D01*
X499419Y81279D01*
X499117Y82009D01*
X498636Y82636D01*
X498009Y83117D01*
X497279Y83419D01*
X496996Y83456D01*
D02*
G37*
G36*
X529000Y88460D02*
X528717Y88423D01*
X527987Y88121D01*
X527360Y87640D01*
X526880Y87013D01*
X526577Y86283D01*
X526540Y86000D01*
X529000D01*
Y88460D01*
D02*
G37*
G36*
X530000D02*
Y86000D01*
X532460D01*
X532423Y86283D01*
X532121Y87013D01*
X531640Y87640D01*
X531013Y88121D01*
X530283Y88423D01*
X530000Y88460D01*
D02*
G37*
G36*
X334960Y89657D02*
X329040D01*
X329077Y89374D01*
X329380Y88644D01*
X329851Y88030D01*
X329843Y87971D01*
X329675Y87530D01*
X256930D01*
X256044Y87897D01*
X255000Y88034D01*
X253956Y87897D01*
X252983Y87494D01*
X252147Y86853D01*
X251506Y86017D01*
X251103Y85044D01*
X250965Y84000D01*
X251103Y82956D01*
X251506Y81983D01*
X252147Y81147D01*
X252983Y80506D01*
X253956Y80103D01*
X255000Y79966D01*
X256044Y80103D01*
X256930Y80470D01*
X372070D01*
X372956Y80103D01*
X374000Y79966D01*
X375044Y80103D01*
X376017Y80506D01*
X376853Y81147D01*
X377494Y81983D01*
X377897Y82956D01*
X378034Y84000D01*
X377897Y85044D01*
X377494Y86017D01*
X376853Y86853D01*
X376017Y87494D01*
X375044Y87897D01*
X374000Y88034D01*
X372956Y87897D01*
X372070Y87530D01*
X334326D01*
X334157Y87971D01*
X334149Y88030D01*
X334620Y88644D01*
X334923Y89374D01*
X334960Y89657D01*
D02*
G37*
G36*
X529000Y85000D02*
X526540D01*
X526577Y84717D01*
X526880Y83987D01*
X527360Y83360D01*
X527987Y82880D01*
X528717Y82577D01*
X529000Y82540D01*
Y85000D01*
D02*
G37*
G36*
X532460D02*
X530000D01*
Y82540D01*
X530283Y82577D01*
X531013Y82880D01*
X531640Y83360D01*
X532121Y83987D01*
X532423Y84717D01*
X532460Y85000D01*
D02*
G37*
G36*
X567000Y89797D02*
X565759Y89634D01*
X564602Y89154D01*
X563608Y88392D01*
X562846Y87398D01*
X562366Y86242D01*
X562252Y85373D01*
X561748D01*
X561633Y86242D01*
X561154Y87398D01*
X560392Y88392D01*
X559399Y89154D01*
X558242Y89634D01*
X557000Y89797D01*
X555758Y89634D01*
X554601Y89154D01*
X553608Y88392D01*
X552846Y87398D01*
X552366Y86242D01*
X552203Y85000D01*
X552366Y83758D01*
X552846Y82601D01*
X553608Y81608D01*
X554601Y80846D01*
X555758Y80366D01*
X557000Y80203D01*
X558242Y80366D01*
X559399Y80846D01*
X560392Y81608D01*
X561154Y82601D01*
X561633Y83758D01*
X561748Y84627D01*
X562252D01*
X562366Y83758D01*
X562846Y82601D01*
X563608Y81608D01*
X564602Y80846D01*
X565759Y80366D01*
X567000Y80203D01*
X568242Y80366D01*
X569398Y80846D01*
X570392Y81608D01*
X571154Y82601D01*
X571633Y83758D01*
X571797Y85000D01*
X571633Y86242D01*
X571154Y87398D01*
X570392Y88392D01*
X569398Y89154D01*
X568242Y89634D01*
X567000Y89797D01*
D02*
G37*
G36*
X309000Y117000D02*
X306540D01*
X306577Y116717D01*
X306879Y115987D01*
X307360Y115360D01*
X307987Y114880D01*
X308717Y114577D01*
X309000Y114540D01*
Y117000D01*
D02*
G37*
G36*
X379500Y148960D02*
X379217Y148923D01*
X378487Y148620D01*
X377860Y148140D01*
X377379Y147513D01*
X377077Y146783D01*
X377040Y146500D01*
X379500D01*
Y148960D01*
D02*
G37*
G36*
X299000Y149500D02*
X296540D01*
X296577Y149217D01*
X296880Y148487D01*
X297360Y147860D01*
X297987Y147380D01*
X298717Y147077D01*
X299000Y147040D01*
Y149500D01*
D02*
G37*
G36*
X252929Y133531D02*
Y131071D01*
X255389D01*
X255352Y131354D01*
X255050Y132084D01*
X254569Y132711D01*
X253942Y133191D01*
X253212Y133494D01*
X252929Y133531D01*
D02*
G37*
G36*
X379500Y145500D02*
X377040D01*
X377077Y145217D01*
X377379Y144487D01*
X377860Y143860D01*
X378487Y143379D01*
X379217Y143077D01*
X379500Y143040D01*
Y145500D01*
D02*
G37*
G36*
X302460Y149500D02*
X300000D01*
Y147040D01*
X300283Y147077D01*
X301013Y147380D01*
X301640Y147860D01*
X302120Y148487D01*
X302423Y149217D01*
X302460Y149500D01*
D02*
G37*
G36*
X300000Y152960D02*
Y150500D01*
X302460D01*
X302423Y150783D01*
X302120Y151513D01*
X301640Y152140D01*
X301013Y152620D01*
X300283Y152923D01*
X300000Y152960D01*
D02*
G37*
G36*
X254960Y154000D02*
X252500D01*
Y151540D01*
X252783Y151577D01*
X253513Y151880D01*
X254140Y152360D01*
X254621Y152987D01*
X254923Y153717D01*
X254960Y154000D01*
D02*
G37*
G36*
X299000Y152960D02*
X298717Y152923D01*
X297987Y152620D01*
X297360Y152140D01*
X296880Y151513D01*
X296577Y150783D01*
X296540Y150500D01*
X299000D01*
Y152960D01*
D02*
G37*
G36*
X309000Y120460D02*
X308717Y120423D01*
X307987Y120121D01*
X307360Y119640D01*
X306879Y119013D01*
X306577Y118283D01*
X306540Y118000D01*
X309000D01*
Y120460D01*
D02*
G37*
G36*
X310000D02*
Y118000D01*
X312460D01*
X312423Y118283D01*
X312121Y119013D01*
X311640Y119640D01*
X311013Y120121D01*
X310283Y120423D01*
X310000Y120460D01*
D02*
G37*
G36*
X355004Y122464D02*
X354721Y122427D01*
X353991Y122124D01*
X353364Y121644D01*
X352883Y121017D01*
X352581Y120287D01*
X352544Y120004D01*
X355004D01*
Y122464D01*
D02*
G37*
G36*
X312460Y117000D02*
X310000D01*
Y114540D01*
X310283Y114577D01*
X311013Y114880D01*
X311640Y115360D01*
X312121Y115987D01*
X312423Y116717D01*
X312460Y117000D01*
D02*
G37*
G36*
X355004Y119004D02*
X352544D01*
X352581Y118721D01*
X352883Y117991D01*
X353364Y117364D01*
X353991Y116883D01*
X354721Y116581D01*
X355004Y116544D01*
Y119004D01*
D02*
G37*
G36*
X358464D02*
X356004D01*
Y116544D01*
X356287Y116581D01*
X357017Y116883D01*
X357644Y117364D01*
X358124Y117991D01*
X358427Y118721D01*
X358464Y119004D01*
D02*
G37*
G36*
X356004Y122464D02*
Y120004D01*
X358464D01*
X358427Y120287D01*
X358124Y121017D01*
X357644Y121644D01*
X357017Y122124D01*
X356287Y122427D01*
X356004Y122464D01*
D02*
G37*
G36*
X255389Y130071D02*
X252929D01*
Y127611D01*
X253212Y127648D01*
X253942Y127950D01*
X254569Y128431D01*
X255050Y129058D01*
X255352Y129788D01*
X255389Y130071D01*
D02*
G37*
G36*
X375000Y21460D02*
Y19000D01*
X377460D01*
X377423Y19283D01*
X377120Y20013D01*
X376640Y20640D01*
X376013Y21121D01*
X375283Y21423D01*
X375000Y21460D01*
D02*
G37*
G36*
X449500Y21500D02*
X447040D01*
X447077Y21217D01*
X447379Y20487D01*
X447860Y19860D01*
X448487Y19379D01*
X449217Y19077D01*
X449500Y19040D01*
Y21500D01*
D02*
G37*
G36*
X452960D02*
X450500D01*
Y19040D01*
X450783Y19077D01*
X451513Y19379D01*
X452140Y19860D01*
X452621Y20487D01*
X452923Y21217D01*
X452960Y21500D01*
D02*
G37*
G36*
X479500Y26035D02*
X471500D01*
X470456Y25897D01*
X469483Y25494D01*
X468647Y24853D01*
X468006Y24017D01*
X467603Y23044D01*
X467465Y22000D01*
X467603Y20956D01*
X468006Y19983D01*
X468647Y19147D01*
X469483Y18506D01*
X470456Y18103D01*
X471500Y17966D01*
X479500D01*
X480544Y18103D01*
X481517Y18506D01*
X482353Y19147D01*
X482994Y19983D01*
X483397Y20956D01*
X483534Y22000D01*
X483397Y23044D01*
X482994Y24017D01*
X482353Y24853D01*
X481517Y25494D01*
X480544Y25897D01*
X479500Y26035D01*
D02*
G37*
G36*
X522000Y31955D02*
X520643Y31821D01*
X519339Y31425D01*
X518136Y30783D01*
X517082Y29918D01*
X516217Y28864D01*
X515575Y27661D01*
X515179Y26357D01*
X515045Y25000D01*
X515179Y23643D01*
X515575Y22339D01*
X516217Y21136D01*
X517082Y20082D01*
X518136Y19217D01*
X519339Y18575D01*
X520643Y18179D01*
X522000Y18045D01*
X523357Y18179D01*
X524661Y18575D01*
X525864Y19217D01*
X526918Y20082D01*
X527783Y21136D01*
X528425Y22339D01*
X528821Y23643D01*
X528955Y25000D01*
X528821Y26357D01*
X528425Y27661D01*
X527783Y28864D01*
X526918Y29918D01*
X525864Y30783D01*
X524661Y31425D01*
X523357Y31821D01*
X522000Y31955D01*
D02*
G37*
G36*
X374000Y21460D02*
X373717Y21423D01*
X372987Y21121D01*
X372360Y20640D01*
X371880Y20013D01*
X371577Y19283D01*
X371540Y19000D01*
X374000D01*
Y21460D01*
D02*
G37*
G36*
X424000Y22460D02*
X423717Y22423D01*
X422987Y22120D01*
X422360Y21640D01*
X421879Y21013D01*
X421577Y20283D01*
X421540Y20000D01*
X424000D01*
Y22460D01*
D02*
G37*
G36*
X450500Y24960D02*
Y22500D01*
X452960D01*
X452923Y22783D01*
X452621Y23513D01*
X452140Y24140D01*
X451513Y24621D01*
X450783Y24923D01*
X450500Y24960D01*
D02*
G37*
G36*
X617266Y27769D02*
X617000Y27752D01*
X616734Y27769D01*
X615298Y27580D01*
X615045Y27494D01*
X614784Y27442D01*
X613446Y26888D01*
X613224Y26740D01*
X612985Y26622D01*
X611836Y25740D01*
X611660Y25540D01*
X611460Y25364D01*
X610578Y24215D01*
X610460Y23976D01*
X610312Y23754D01*
X609758Y22416D01*
X609706Y22154D01*
X609620Y21902D01*
X609431Y20466D01*
X609440Y20332D01*
X609413Y20200D01*
X609440Y20068D01*
X609431Y19934D01*
X609620Y18498D01*
X609706Y18246D01*
X609758Y17984D01*
X610312Y16646D01*
X610460Y16424D01*
X610578Y16185D01*
X611460Y15036D01*
X611660Y14860D01*
X611836Y14660D01*
X612985Y13778D01*
X613224Y13660D01*
X613446Y13512D01*
X614784Y12958D01*
X615045Y12906D01*
X615298Y12820D01*
X616734Y12631D01*
X617000Y12648D01*
X617266Y12631D01*
X618702Y12820D01*
X618955Y12906D01*
X619216Y12958D01*
X620554Y13512D01*
X620776Y13660D01*
X621015Y13778D01*
X622164Y14660D01*
X622340Y14860D01*
X622540Y15036D01*
X623422Y16185D01*
X623540Y16424D01*
X623688Y16646D01*
X624242Y17984D01*
X624294Y18246D01*
X624380Y18498D01*
X624569Y19934D01*
X624560Y20068D01*
X624587Y20200D01*
X624560Y20332D01*
X624569Y20466D01*
X624380Y21902D01*
X624294Y22154D01*
X624242Y22416D01*
X623688Y23754D01*
X623540Y23976D01*
X623422Y24215D01*
X622540Y25364D01*
X622340Y25540D01*
X622164Y25740D01*
X621015Y26622D01*
X620776Y26740D01*
X620554Y26888D01*
X619216Y27442D01*
X618955Y27494D01*
X618702Y27580D01*
X617266Y27769D01*
D02*
G37*
G36*
X425000Y22460D02*
Y20000D01*
X427460D01*
X427423Y20283D01*
X427120Y21013D01*
X426640Y21640D01*
X426013Y22120D01*
X425283Y22423D01*
X425000Y22460D01*
D02*
G37*
G36*
X281835Y29200D02*
X280790Y29062D01*
X279817Y28659D01*
X278982Y28018D01*
X278341Y27183D01*
X277938Y26210D01*
X277800Y25165D01*
X277938Y24121D01*
X278341Y23148D01*
X278982Y22312D01*
X279817Y21671D01*
X280790Y21268D01*
X281835Y21131D01*
X282879Y21268D01*
X283852Y21671D01*
X284687Y22312D01*
X285329Y23148D01*
X285732Y24121D01*
X285869Y25165D01*
X285732Y26210D01*
X285329Y27183D01*
X284687Y28018D01*
X283852Y28659D01*
X282879Y29062D01*
X281835Y29200D01*
D02*
G37*
G36*
X449500Y24960D02*
X449217Y24923D01*
X448487Y24621D01*
X447860Y24140D01*
X447379Y23513D01*
X447077Y22783D01*
X447040Y22500D01*
X449500D01*
Y24960D01*
D02*
G37*
G36*
X537743Y14658D02*
X532343D01*
Y9257D01*
X533003Y9322D01*
X534119Y9661D01*
X535148Y10210D01*
X536050Y10950D01*
X536790Y11852D01*
X537339Y12880D01*
X537678Y13997D01*
X537743Y14658D01*
D02*
G37*
G36*
X374000Y18000D02*
X371540D01*
X371577Y17717D01*
X371880Y16987D01*
X372360Y16360D01*
X372987Y15879D01*
X373717Y15577D01*
X374000Y15540D01*
Y18000D01*
D02*
G37*
G36*
X377460D02*
X375000D01*
Y15540D01*
X375283Y15577D01*
X376013Y15879D01*
X376640Y16360D01*
X377120Y16987D01*
X377423Y17717D01*
X377460Y18000D01*
D02*
G37*
G36*
X531343Y14658D02*
X525942D01*
X526007Y13997D01*
X526345Y12880D01*
X526895Y11852D01*
X527635Y10950D01*
X528537Y10210D01*
X529566Y9661D01*
X530682Y9322D01*
X531343Y9257D01*
Y14658D01*
D02*
G37*
G36*
X518058D02*
X512657D01*
Y9257D01*
X513318Y9322D01*
X514434Y9661D01*
X515463Y10210D01*
X516365Y10950D01*
X517105Y11852D01*
X517655Y12880D01*
X517993Y13997D01*
X518058Y14658D01*
D02*
G37*
G36*
X511657D02*
X506257D01*
X506322Y13997D01*
X506661Y12880D01*
X507210Y11852D01*
X507950Y10950D01*
X508852Y10210D01*
X509881Y9661D01*
X510997Y9322D01*
X511657Y9257D01*
Y14658D01*
D02*
G37*
G36*
X531343Y21058D02*
X530682Y20993D01*
X529566Y20654D01*
X528537Y20105D01*
X527635Y19365D01*
X526895Y18463D01*
X526345Y17434D01*
X526007Y16318D01*
X525942Y15657D01*
X531343D01*
Y21058D01*
D02*
G37*
G36*
X424000Y19000D02*
X421540D01*
X421577Y18717D01*
X421879Y17987D01*
X422360Y17360D01*
X422987Y16880D01*
X423717Y16577D01*
X424000Y16540D01*
Y19000D01*
D02*
G37*
G36*
X427460D02*
X425000D01*
Y16540D01*
X425283Y16577D01*
X426013Y16880D01*
X426640Y17360D01*
X427120Y17987D01*
X427423Y18717D01*
X427460Y19000D01*
D02*
G37*
G36*
X382004Y25038D02*
X380960Y24901D01*
X379987Y24498D01*
X379151Y23857D01*
X378510Y23021D01*
X378107Y22048D01*
X377969Y21004D01*
X378107Y19960D01*
X378510Y18987D01*
X379151Y18151D01*
X379987Y17510D01*
X380960Y17107D01*
X382004Y16969D01*
X383048Y17107D01*
X384021Y17510D01*
X384857Y18151D01*
X385498Y18987D01*
X385901Y19960D01*
X386038Y21004D01*
X385901Y22048D01*
X385498Y23021D01*
X384857Y23857D01*
X384021Y24498D01*
X383048Y24901D01*
X382004Y25038D01*
D02*
G37*
G36*
X511657Y21058D02*
X510997Y20993D01*
X509881Y20654D01*
X508852Y20105D01*
X507950Y19365D01*
X507210Y18463D01*
X506661Y17434D01*
X506322Y16318D01*
X506257Y15657D01*
X511657D01*
Y21058D01*
D02*
G37*
G36*
X512657Y21058D02*
Y15657D01*
X518058D01*
X517993Y16318D01*
X517655Y17434D01*
X517105Y18463D01*
X516365Y19365D01*
X515463Y20105D01*
X514434Y20654D01*
X513318Y20993D01*
X512657Y21058D01*
D02*
G37*
G36*
X532343Y21058D02*
Y15657D01*
X537743D01*
X537678Y16318D01*
X537339Y17434D01*
X536790Y18463D01*
X536050Y19365D01*
X535148Y20105D01*
X534119Y20654D01*
X533003Y20993D01*
X532343Y21058D01*
D02*
G37*
G36*
X531343Y34343D02*
X525942D01*
X526007Y33682D01*
X526345Y32566D01*
X526895Y31537D01*
X527635Y30635D01*
X528537Y29895D01*
X529566Y29346D01*
X530682Y29007D01*
X531343Y28942D01*
Y34343D01*
D02*
G37*
G36*
X530500Y57960D02*
Y55500D01*
X532960D01*
X532923Y55783D01*
X532620Y56513D01*
X532140Y57140D01*
X531513Y57621D01*
X530783Y57923D01*
X530500Y57960D01*
D02*
G37*
G36*
X445496Y58496D02*
X443036D01*
X443073Y58213D01*
X443376Y57483D01*
X443856Y56856D01*
X444483Y56376D01*
X445213Y56073D01*
X445496Y56036D01*
Y58496D01*
D02*
G37*
G36*
X448956D02*
X446496D01*
Y56036D01*
X446779Y56073D01*
X447509Y56376D01*
X448136Y56856D01*
X448617Y57483D01*
X448919Y58213D01*
X448956Y58496D01*
D02*
G37*
G36*
X532960Y54500D02*
X530500D01*
Y52040D01*
X530783Y52077D01*
X531513Y52380D01*
X532140Y52860D01*
X532620Y53487D01*
X532923Y54217D01*
X532960Y54500D01*
D02*
G37*
G36*
X418460Y65500D02*
X412540D01*
X412577Y65217D01*
X412880Y64487D01*
X413360Y63860D01*
X413987Y63380D01*
X414407Y63205D01*
Y62664D01*
X413987Y62490D01*
X413151Y61849D01*
X412510Y61013D01*
X412107Y60040D01*
X411969Y58996D01*
X412107Y57952D01*
X412510Y56979D01*
X413151Y56143D01*
X413987Y55502D01*
X414960Y55099D01*
X416004Y54962D01*
X417048Y55099D01*
X418021Y55502D01*
X418857Y56143D01*
X419498Y56979D01*
X419901Y57952D01*
X420039Y58996D01*
X419901Y60040D01*
X419498Y61013D01*
X418857Y61849D01*
X418021Y62490D01*
X417097Y62873D01*
X417034Y63083D01*
X417025Y63210D01*
X417038Y63399D01*
X417640Y63860D01*
X418120Y64487D01*
X418423Y65217D01*
X418460Y65500D01*
D02*
G37*
G36*
X529500Y57960D02*
X529217Y57923D01*
X528487Y57621D01*
X527860Y57140D01*
X527380Y56513D01*
X527077Y55783D01*
X527040Y55500D01*
X529500D01*
Y57960D01*
D02*
G37*
G36*
X310055Y66979D02*
X309011Y66842D01*
X308038Y66439D01*
X307202Y65798D01*
X306561Y64962D01*
X306158Y63989D01*
X306021Y62945D01*
X306158Y61901D01*
X306561Y60928D01*
X307202Y60092D01*
X308038Y59451D01*
X309011Y59048D01*
X310055Y58910D01*
X311099Y59048D01*
X312072Y59451D01*
X312908Y60092D01*
X313549Y60928D01*
X313952Y61901D01*
X314090Y62945D01*
X313952Y63989D01*
X313549Y64962D01*
X312908Y65798D01*
X312072Y66439D01*
X311099Y66842D01*
X310055Y66979D01*
D02*
G37*
G36*
X481504Y63964D02*
Y61504D01*
X483964D01*
X483927Y61787D01*
X483624Y62517D01*
X483144Y63144D01*
X482517Y63624D01*
X481787Y63927D01*
X481504Y63964D01*
D02*
G37*
G36*
X415000Y68960D02*
X414717Y68923D01*
X413987Y68621D01*
X413360Y68140D01*
X412880Y67513D01*
X412577Y66783D01*
X412540Y66500D01*
X415000D01*
Y68960D01*
D02*
G37*
G36*
X416000D02*
Y66500D01*
X418460D01*
X418423Y66783D01*
X418120Y67513D01*
X417640Y68140D01*
X417013Y68621D01*
X416283Y68923D01*
X416000Y68960D01*
D02*
G37*
G36*
X445496Y61956D02*
X445213Y61919D01*
X444483Y61617D01*
X443856Y61136D01*
X443376Y60509D01*
X443073Y59779D01*
X443036Y59496D01*
X445496D01*
Y61956D01*
D02*
G37*
G36*
X446496D02*
Y59496D01*
X448956D01*
X448919Y59779D01*
X448617Y60509D01*
X448136Y61136D01*
X447509Y61617D01*
X446779Y61919D01*
X446496Y61956D01*
D02*
G37*
G36*
X480504Y63964D02*
X480221Y63927D01*
X479491Y63624D01*
X478864Y63144D01*
X478383Y62517D01*
X478081Y61787D01*
X478044Y61504D01*
X480504D01*
Y63964D01*
D02*
G37*
G36*
X531343Y40743D02*
X530682Y40678D01*
X529566Y40339D01*
X528537Y39790D01*
X527635Y39050D01*
X526895Y38148D01*
X526345Y37119D01*
X526007Y36003D01*
X525942Y35342D01*
X531343D01*
Y40743D01*
D02*
G37*
G36*
X511657Y40743D02*
X510997Y40678D01*
X509881Y40339D01*
X508852Y39790D01*
X507950Y39050D01*
X507210Y38148D01*
X506661Y37119D01*
X506322Y36003D01*
X506257Y35342D01*
X511657D01*
Y40743D01*
D02*
G37*
G36*
X512657Y40743D02*
Y35342D01*
X518058D01*
X517993Y36003D01*
X517655Y37119D01*
X517105Y38148D01*
X516365Y39050D01*
X515463Y39790D01*
X514434Y40339D01*
X513318Y40678D01*
X512657Y40743D01*
D02*
G37*
G36*
X518058Y34343D02*
X512657D01*
Y28942D01*
X513318Y29007D01*
X514434Y29346D01*
X515463Y29895D01*
X516365Y30635D01*
X517105Y31537D01*
X517655Y32566D01*
X517993Y33682D01*
X518058Y34343D01*
D02*
G37*
G36*
X511657D02*
X506257D01*
X506322Y33682D01*
X506661Y32566D01*
X507210Y31537D01*
X507950Y30635D01*
X508852Y29895D01*
X509881Y29346D01*
X510997Y29007D01*
X511657Y28942D01*
Y34343D01*
D02*
G37*
G36*
X537743D02*
X532343D01*
Y28942D01*
X533003Y29007D01*
X534119Y29346D01*
X535148Y29895D01*
X536050Y30635D01*
X536790Y31537D01*
X537339Y32566D01*
X537678Y33682D01*
X537743Y34343D01*
D02*
G37*
G36*
X532343Y40743D02*
Y35342D01*
X537743D01*
X537678Y36003D01*
X537339Y37119D01*
X536790Y38148D01*
X536050Y39050D01*
X535148Y39790D01*
X534119Y40339D01*
X533003Y40678D01*
X532343Y40743D01*
D02*
G37*
G36*
X337996Y44456D02*
Y41996D01*
X340456D01*
X340419Y42279D01*
X340117Y43009D01*
X339636Y43636D01*
X339009Y44117D01*
X338279Y44419D01*
X337996Y44456D01*
D02*
G37*
G36*
X519500Y56534D02*
X518456Y56397D01*
X517483Y55994D01*
X516647Y55353D01*
X516006Y54517D01*
X515603Y53544D01*
X515465Y52500D01*
X515603Y51456D01*
X516006Y50483D01*
X516647Y49647D01*
X517483Y49006D01*
X518456Y48603D01*
X519500Y48465D01*
X520544Y48603D01*
X521517Y49006D01*
X522353Y49647D01*
X522994Y50483D01*
X523397Y51456D01*
X523534Y52500D01*
X523397Y53544D01*
X522994Y54517D01*
X522353Y55353D01*
X521517Y55994D01*
X520544Y56397D01*
X519500Y56534D01*
D02*
G37*
G36*
X529500Y54500D02*
X527040D01*
X527077Y54217D01*
X527380Y53487D01*
X527860Y52860D01*
X528487Y52380D01*
X529217Y52077D01*
X529500Y52040D01*
Y54500D01*
D02*
G37*
G36*
X336996Y40996D02*
X334536D01*
X334573Y40713D01*
X334876Y39983D01*
X335356Y39356D01*
X335983Y38876D01*
X336713Y38573D01*
X336996Y38536D01*
Y40996D01*
D02*
G37*
G36*
X340456D02*
X337996D01*
Y38536D01*
X338279Y38573D01*
X339009Y38876D01*
X339636Y39356D01*
X340117Y39983D01*
X340419Y40713D01*
X340456Y40996D01*
D02*
G37*
G36*
X336996Y44456D02*
X336713Y44419D01*
X335983Y44117D01*
X335356Y43636D01*
X334876Y43009D01*
X334573Y42279D01*
X334536Y41996D01*
X336996D01*
Y44456D01*
D02*
G37*
G36*
X252500Y157460D02*
Y155000D01*
X254960D01*
X254923Y155283D01*
X254621Y156013D01*
X254140Y156640D01*
X253513Y157121D01*
X252783Y157423D01*
X252500Y157460D01*
D02*
G37*
G36*
X545500Y152960D02*
Y150500D01*
X547960D01*
X547923Y150783D01*
X547620Y151513D01*
X547140Y152140D01*
X546513Y152620D01*
X545783Y152923D01*
X545500Y152960D01*
D02*
G37*
G36*
X547960Y149500D02*
X545500D01*
Y147040D01*
X545783Y147077D01*
X546513Y147380D01*
X547140Y147860D01*
X547620Y148487D01*
X547923Y149217D01*
X547960Y149500D01*
D02*
G37*
%LPD*%
D35*
X471500Y22000D02*
X479500D01*
X57500Y290000D02*
X228000D01*
X24000Y282000D02*
X49500D01*
X57500Y290000D01*
X415000Y100000D02*
X415000Y100000D01*
X382000Y100000D02*
X415000D01*
X538000Y144000D02*
X557000Y125000D01*
X489000Y165000D02*
Y335000D01*
Y150000D02*
Y165000D01*
Y22000D02*
Y94000D01*
Y150000D01*
X510000D01*
X567000Y252000D02*
Y297000D01*
Y207000D02*
Y252000D01*
X566500Y297500D02*
X567000Y297000D01*
Y125000D02*
Y207000D01*
X538000Y172500D02*
Y217250D01*
Y144000D02*
Y172500D01*
Y217250D02*
Y262000D01*
Y307000D01*
D36*
X247000Y301000D02*
Y315000D01*
X230000Y284000D02*
X247000Y301000D01*
X514500Y192500D02*
Y237500D01*
Y282500D01*
Y327500D01*
X507000Y197500D02*
Y242500D01*
Y287500D01*
Y332500D01*
X499500Y292500D02*
Y337500D01*
Y202500D02*
Y247500D01*
Y292500D01*
X257000Y297000D02*
Y315000D01*
X239000Y279000D02*
X257000Y297000D01*
X267000Y292000D02*
Y315000D01*
X249000Y274000D02*
X267000Y292000D01*
X277000Y285000D02*
Y315000D01*
X261000Y269000D02*
X277000Y285000D01*
X40000Y262000D02*
X62000Y284000D01*
X24000Y262000D02*
X40000D01*
X62000Y284000D02*
X230000D01*
X37000Y252000D02*
X64000Y279000D01*
X24000Y252000D02*
X37000D01*
X64000Y279000D02*
X239000D01*
X36000Y242000D02*
X68000Y274000D01*
X24000Y242000D02*
X36000D01*
X68000Y274000D02*
X249000D01*
X34000Y232000D02*
X71000Y269000D01*
X24000Y232000D02*
X34000D01*
X71000Y269000D02*
X261000D01*
D37*
X452000Y171000D02*
X460000D01*
X385000Y126000D02*
X385000Y126000D01*
X385000Y126000D02*
Y150000D01*
D38*
X50000Y282000D02*
X57750Y289750D01*
X49500Y282000D02*
X50000D01*
X146504Y366504D02*
X165504D01*
X106000Y326000D02*
X146504Y366504D01*
X106000Y315000D02*
Y326000D01*
X460000Y165000D02*
X489000D01*
D39*
X302000Y232000D02*
X381000D01*
X280996Y210996D02*
X302000Y232000D01*
X280996Y200000D02*
Y210996D01*
X381000Y232000D02*
X404000Y255000D01*
X255000Y84000D02*
X374000D01*
X411000Y72000D02*
X424000Y85000D01*
X354000Y72000D02*
X411000D01*
D40*
X617000Y345000D02*
Y370200D01*
X612200Y340200D02*
X617000Y345000D01*
X607000Y340200D02*
X612200D01*
X441390Y149390D02*
X442158Y150157D01*
X415000Y123000D02*
X441390Y149390D01*
X442158Y150157D02*
Y354842D01*
X415000Y100000D02*
X415000Y100000D01*
X415000Y100000D02*
Y123000D01*
X452000Y171000D02*
Y374000D01*
Y129000D02*
Y171000D01*
X445000Y98000D02*
Y122000D01*
X452000Y129000D01*
X554500Y355000D02*
X555000D01*
X554500Y375000D02*
X559500D01*
X554500Y365000D02*
X557000D01*
X581800Y340200D01*
X587000D01*
X579800Y330200D02*
X587000D01*
X555000Y355000D02*
X579800Y330200D01*
X587000Y350200D02*
X597000D01*
X607000D01*
X584300D02*
X587000D01*
Y340200D02*
X597000D01*
X607000D01*
X587000Y330200D02*
X597000D01*
X607000D01*
X559500Y375000D02*
X584300Y350200D01*
X445000Y88000D02*
Y98000D01*
Y78000D02*
Y88000D01*
D41*
X34000Y301000D02*
D03*
X24000Y232000D02*
D03*
D42*
Y301000D02*
D03*
X34000Y311000D02*
D03*
X24000D02*
D03*
X34000Y321000D02*
D03*
X24000D02*
D03*
X34000Y331000D02*
D03*
X24000D02*
D03*
Y242000D02*
D03*
Y252000D02*
D03*
Y262000D02*
D03*
Y272000D02*
D03*
Y282000D02*
D03*
X377000Y255000D02*
D03*
X367000D02*
D03*
X357000D02*
D03*
X347000D02*
D03*
X337000D02*
D03*
X327000D02*
D03*
X317000D02*
D03*
X307000D02*
D03*
X297000D02*
D03*
X287000D02*
D03*
X277000D02*
D03*
X267000D02*
D03*
X257000D02*
D03*
X247000D02*
D03*
X237000D02*
D03*
X227000D02*
D03*
X217000D02*
D03*
X207000D02*
D03*
X197000D02*
D03*
X187000D02*
D03*
X177000D02*
D03*
X167000D02*
D03*
X157000D02*
D03*
X147000Y315000D02*
D03*
X157000D02*
D03*
X167000D02*
D03*
X177000D02*
D03*
X187000D02*
D03*
X197000D02*
D03*
X207000D02*
D03*
X217000D02*
D03*
X227000D02*
D03*
X237000D02*
D03*
X247000D02*
D03*
X257000D02*
D03*
X267000D02*
D03*
X277000D02*
D03*
X287000D02*
D03*
X297000D02*
D03*
X307000D02*
D03*
X317000D02*
D03*
X327000D02*
D03*
X337000D02*
D03*
X347000D02*
D03*
X357000D02*
D03*
X367000D02*
D03*
X96000D02*
D03*
X106000D02*
D03*
X116000D02*
D03*
D43*
X554500Y355000D02*
D03*
X514500D02*
D03*
X554500Y365000D02*
D03*
X514500D02*
D03*
X554500Y375000D02*
D03*
X514500D02*
D03*
X557000Y85000D02*
D03*
Y125000D02*
D03*
X567000Y85000D02*
D03*
Y125000D02*
D03*
D44*
X522000Y25000D02*
D03*
X512157Y15157D02*
D03*
X531843D02*
D03*
Y34843D02*
D03*
X512157D02*
D03*
D45*
X147000Y255000D02*
D03*
X377000Y315000D02*
D03*
X126000D02*
D03*
D46*
X617000Y20200D02*
D03*
Y370200D02*
D03*
X12000Y370000D02*
D03*
Y20000D02*
D03*
X452000Y374000D02*
D03*
X489000Y335000D02*
D03*
D47*
X607000Y340200D02*
D03*
Y330200D02*
D03*
Y320200D02*
D03*
Y310200D02*
D03*
Y300200D02*
D03*
Y290200D02*
D03*
Y280200D02*
D03*
Y270200D02*
D03*
Y260200D02*
D03*
Y250200D02*
D03*
Y240200D02*
D03*
Y230200D02*
D03*
Y220200D02*
D03*
Y210200D02*
D03*
Y200200D02*
D03*
Y190200D02*
D03*
Y180200D02*
D03*
Y170200D02*
D03*
Y160200D02*
D03*
Y150200D02*
D03*
Y140200D02*
D03*
Y130200D02*
D03*
Y120200D02*
D03*
Y110200D02*
D03*
Y100200D02*
D03*
Y90200D02*
D03*
Y80200D02*
D03*
Y70200D02*
D03*
Y60200D02*
D03*
Y50200D02*
D03*
Y40200D02*
D03*
X597000D02*
D03*
X587000D02*
D03*
X597000Y50200D02*
D03*
X587000D02*
D03*
X597000Y60200D02*
D03*
X587000D02*
D03*
X597000Y70200D02*
D03*
X587000D02*
D03*
X597000Y80200D02*
D03*
Y90200D02*
D03*
Y100200D02*
D03*
X587000D02*
D03*
Y90200D02*
D03*
Y80200D02*
D03*
X597000Y340200D02*
D03*
Y330200D02*
D03*
X587000Y340200D02*
D03*
Y330200D02*
D03*
X597000Y320200D02*
D03*
Y310200D02*
D03*
Y300200D02*
D03*
Y290200D02*
D03*
X587000Y320200D02*
D03*
Y310200D02*
D03*
Y300200D02*
D03*
Y290200D02*
D03*
Y280200D02*
D03*
Y270200D02*
D03*
Y260200D02*
D03*
Y250200D02*
D03*
X597000Y280200D02*
D03*
Y270200D02*
D03*
Y260200D02*
D03*
Y250200D02*
D03*
Y240200D02*
D03*
Y230200D02*
D03*
Y220200D02*
D03*
Y210200D02*
D03*
Y200200D02*
D03*
X587000Y240200D02*
D03*
Y230200D02*
D03*
Y220200D02*
D03*
Y210200D02*
D03*
Y200200D02*
D03*
Y190200D02*
D03*
Y180200D02*
D03*
Y170200D02*
D03*
Y160200D02*
D03*
Y150200D02*
D03*
X597000Y190200D02*
D03*
Y180200D02*
D03*
Y170200D02*
D03*
Y160200D02*
D03*
Y150200D02*
D03*
X587000Y140200D02*
D03*
Y130200D02*
D03*
Y120200D02*
D03*
Y110200D02*
D03*
X597000Y140200D02*
D03*
Y130200D02*
D03*
Y120200D02*
D03*
Y110200D02*
D03*
D48*
Y350200D02*
D03*
X607000D02*
D03*
X587000D02*
D03*
D49*
X545000Y150000D02*
D03*
X500500Y164000D02*
D03*
X471500Y22000D02*
D03*
X479500D02*
D03*
X346500Y177000D02*
D03*
X259000Y200000D02*
D03*
X252429Y130571D02*
D03*
X252000Y154500D02*
D03*
X252500Y108000D02*
D03*
X240071Y125571D02*
D03*
X294500Y289500D02*
D03*
X228000Y290000D02*
D03*
X165504Y366504D02*
D03*
X171496Y359496D02*
D03*
X428008Y298008D02*
D03*
X280996Y200000D02*
D03*
X299500Y150000D02*
D03*
X442158Y354842D02*
D03*
X460000Y165000D02*
D03*
Y171000D02*
D03*
X445000Y78000D02*
D03*
Y98000D02*
D03*
X310055Y62945D02*
D03*
X536000Y100000D02*
D03*
X519500Y52500D02*
D03*
X481004Y53996D02*
D03*
X416004Y58996D02*
D03*
X489000Y22000D02*
D03*
X510000Y150000D02*
D03*
X489000Y94000D02*
D03*
X496496Y80496D02*
D03*
X499500Y111500D02*
D03*
X281835Y25165D02*
D03*
X382004Y21004D02*
D03*
X424000Y262000D02*
D03*
X415000Y249000D02*
D03*
X404000Y255000D02*
D03*
X380000Y146000D02*
D03*
X473504Y257000D02*
D03*
X466000D02*
D03*
X255000Y84000D02*
D03*
X374000D02*
D03*
X424000Y85000D02*
D03*
X277008Y70000D02*
D03*
X354000Y72000D02*
D03*
X332000Y90158D02*
D03*
X435110Y185890D02*
D03*
X298890Y184110D02*
D03*
X426000Y194000D02*
D03*
X434945Y223055D02*
D03*
X567000Y252000D02*
D03*
X566500Y297500D02*
D03*
X522500Y322500D02*
D03*
X567000Y207000D02*
D03*
X538000Y217250D02*
D03*
Y262000D02*
D03*
Y307000D02*
D03*
Y172500D02*
D03*
X514500Y237500D02*
D03*
X471320Y297321D02*
D03*
X463102Y105102D02*
D03*
X529500Y85500D02*
D03*
X421000Y164000D02*
D03*
X441390Y149390D02*
D03*
X415000Y100000D02*
D03*
X385000Y126000D02*
D03*
Y150000D02*
D03*
X445996Y58996D02*
D03*
X415500Y66000D02*
D03*
X309500Y117500D02*
D03*
X355504Y119504D02*
D03*
X382000Y100000D02*
D03*
X337496Y41496D02*
D03*
X374500Y18500D02*
D03*
X424500Y19500D02*
D03*
X450000Y22000D02*
D03*
X481004Y61004D02*
D03*
X530000Y55000D02*
D03*
X530496Y166496D02*
D03*
X530000Y212000D02*
D03*
X529504Y256496D02*
D03*
X529496Y301496D02*
D03*
X514500Y327500D02*
D03*
Y192500D02*
D03*
Y282500D02*
D03*
X507000Y332500D02*
D03*
Y197500D02*
D03*
Y242500D02*
D03*
Y287500D02*
D03*
X499500Y337500D02*
D03*
Y202500D02*
D03*
Y292500D02*
D03*
Y247500D02*
D03*
X170504Y330496D02*
D03*
X236504Y369504D02*
D03*
X200000Y352000D02*
D03*
X226504Y326496D02*
D03*
X445000Y88000D02*
D03*
M02*
