M48
;Layer_Color=9474304
;FILE_FORMAT=2:5
INCH,LZ
;TYPE=PLATED
T1F00S00C0.02000
T2F00S00C0.02800
T3F00S00C0.03346
T4F00S00C0.03543
T5F00S00C0.03700
T6F00S00C0.05906
T7F00S00C0.11000
%
T01
X0382004Y0021004
X04245Y00195
X045Y0022
X04715
X04795
X0489
X03745Y00185
X0337496Y0041496
X0354Y0072
X0374Y0084
X0332Y0090158
X0310055Y0062945
X0277008Y007
X0255Y0084
X02525Y0108
X0252429Y0130571
X0240071Y0125571
X0252Y01545
X02995Y015
X03095Y01175
X0355504Y0119504
X03465Y0177
X0281835Y0025165
X0416004Y0058996
X04155Y0066
X0424Y0085
X0415Y01
X0445Y0098
Y0088
Y0078
X0445996Y0058996
X0481004Y0061004
Y0053996
X05195Y00525
X053Y0055
X05295Y00855
X0496496Y0080496
X0489Y0094
X04995Y01115
X0463102Y0105102
X046Y0165
Y0171
X044139Y014939
X0421Y0164
X0385Y015
X038Y0146
X0385Y0126
X0382Y01
X051Y015
X05005Y0164
X0530496Y0166496
X0538Y01725
X0545Y015
X0536Y01
X0538Y021725
X0567Y0207
Y0252
X0538Y0262
Y0307
X05665Y02975
X0529496Y0301496
X05225Y03225
X05145Y03275
X0507Y03325
Y02875
X05145Y02825
X04995Y02925
X047132Y0297321
X0473504Y0257
X0466
X04995Y02475
X0507Y02425
X05145Y02375
X0529504Y0256496
X053Y0212
X05145Y01925
X0507Y01975
X04995Y02025
X043511Y018589
X0426Y0194
X0434945Y0223055
X0415Y0249
X0404Y0255
X0424Y0262
X0428008Y0298008
X02945Y02895
X0228Y029
X0226504Y0326496
X0259Y02
X0280996
X029889Y018411
X0170504Y0330496
X0171496Y0359496
X0165504Y0366504
X02Y0352
X0236504Y0369504
X0442158Y0354842
X04995Y03375
T02
X0489Y0335
X0452Y0374
T03
X0557Y0085
X0567
Y0125
X0557
X05145Y0355
Y0365
Y0375
X05545
Y0365
Y0355
T04
X0227Y0255
X0237
X0247
X0257
X0267
X0277
X0287
X0297
X0307
X0317
X0327
X0337
X0347
X0357
X0367
X0377
Y0315
X0367
X0357
X0347
X0337
X0327
X0317
X0307
X0297
X0287
X0277
X0267
X0257
X0247
X0237
X0227
X0217
X0207
X0197
X0187
X0177
X0167
X0157
X0147
X0126
X0116
X0106
X0096
X0147Y0255
X0157
X0167
X0177
X0187
X0197
X0207
X0217
X0024Y0252
Y0262
Y0272
Y0282
Y0301
X0034
Y0311
X0024
Y0321
X0034
Y0331
X0024
Y0242
Y0232
T05
X0587Y00402
X0597
X0607
Y00502
Y00602
Y00702
Y00802
Y00902
Y01002
Y01102
Y01202
Y01302
Y01402
Y01502
Y01602
Y01702
X0597
X0587
Y01602
Y01502
X0597
Y01602
Y01402
X0587
Y01302
Y01202
Y01102
Y01002
X0597
Y00902
Y00802
Y00702
Y00602
Y00502
X0587
Y00602
Y00702
Y00802
Y00902
X0597Y01102
Y01202
Y01302
Y01802
X0607
Y01902
Y02002
Y02102
Y02202
Y02302
Y02402
Y02502
Y02602
Y02702
Y02802
Y02902
Y03002
Y03102
Y03202
Y03302
X0597
X0587
Y03202
X0597
Y03102
Y03002
Y02902
X0587
Y03002
Y03102
Y02802
Y02702
Y02602
Y02502
X0597
Y02602
Y02702
Y02802
Y02402
Y02302
Y02202
Y02102
Y02002
X0587
Y02102
Y02202
Y02302
Y02402
Y01902
Y01802
X0597Y01902
Y03402
X0607
Y03502
X0597
X0587
Y03402
T06
X0512157Y0015157
X0531843
X0522Y0025
X0531843Y0034843
X0512157
T07
X0617Y00202
X0012Y002
Y037
X0617Y03702
M30
