G04 Layer_Color=2752767*
%FSLAX25Y25*%
%MOIN*%
G70*
G01*
G75*
%ADD68C,0.01000*%
%ADD106C,0.00200*%
%ADD107C,0.00267*%
D68*
X-500Y401299D02*
Y397300D01*
X2166D01*
X5498D02*
X4165D01*
X3499Y397966D01*
Y399299D01*
X4165Y399966D01*
X5498D01*
X6165Y399299D01*
Y398633D01*
X3499D01*
X8830Y395967D02*
X9497D01*
X10163Y396634D01*
Y399966D01*
X8164D01*
X7497Y399299D01*
Y397966D01*
X8164Y397300D01*
X10163D01*
X13496D02*
X12163D01*
X11496Y397966D01*
Y399299D01*
X12163Y399966D01*
X13496D01*
X14162Y399299D01*
Y398633D01*
X11496D01*
X15495Y397300D02*
Y399966D01*
X17494D01*
X18161Y399299D01*
Y397300D01*
X22159Y401299D02*
Y397300D01*
X20160D01*
X19493Y397966D01*
Y399299D01*
X20160Y399966D01*
X22159D01*
X27491Y397300D02*
X28824D01*
X28157D01*
Y399966D01*
X27491D01*
X30823Y397300D02*
X32823D01*
X33489Y397966D01*
X32823Y398633D01*
X31490D01*
X30823Y399299D01*
X31490Y399966D01*
X33489D01*
X38821Y397300D02*
Y399966D01*
X40820D01*
X41486Y399299D01*
Y397300D01*
X43486D02*
X44819D01*
X45485Y397966D01*
Y399299D01*
X44819Y399966D01*
X43486D01*
X42819Y399299D01*
Y397966D01*
X43486Y397300D01*
X47484Y400632D02*
Y399966D01*
X46818D01*
X48151D01*
X47484D01*
Y397966D01*
X48151Y397300D01*
X54149D02*
X55482D01*
X54816D01*
Y399966D01*
X54149D01*
X57481Y397300D02*
Y399966D01*
X59481D01*
X60147Y399299D01*
Y397300D01*
X62147Y400632D02*
Y399966D01*
X61480D01*
X62813D01*
X62147D01*
Y397966D01*
X62813Y397300D01*
X66812D02*
X65479D01*
X64812Y397966D01*
Y399299D01*
X65479Y399966D01*
X66812D01*
X67478Y399299D01*
Y398633D01*
X64812D01*
X68811Y399966D02*
Y397300D01*
Y398633D01*
X69477Y399299D01*
X70144Y399966D01*
X70810D01*
X72810Y395967D02*
Y399966D01*
X74809D01*
X75476Y399299D01*
Y397966D01*
X74809Y397300D01*
X72810D01*
X76808Y399966D02*
Y397300D01*
Y398633D01*
X77475Y399299D01*
X78141Y399966D01*
X78808D01*
X82806Y397300D02*
X81474D01*
X80807Y397966D01*
Y399299D01*
X81474Y399966D01*
X82806D01*
X83473Y399299D01*
Y398633D01*
X80807D01*
X85472Y400632D02*
Y399966D01*
X84806D01*
X86139D01*
X85472D01*
Y397966D01*
X86139Y397300D01*
X90137D02*
X88805D01*
X88138Y397966D01*
Y399299D01*
X88805Y399966D01*
X90137D01*
X90804Y399299D01*
Y398633D01*
X88138D01*
X94803Y401299D02*
Y397300D01*
X92803D01*
X92137Y397966D01*
Y399299D01*
X92803Y399966D01*
X94803D01*
X100134D02*
Y397966D01*
X100801Y397300D01*
X102800D01*
Y399966D01*
X104133Y397300D02*
Y399966D01*
X106132D01*
X106799Y399299D01*
Y397300D01*
X108798Y400632D02*
Y399966D01*
X108132D01*
X109465D01*
X108798D01*
Y397966D01*
X109465Y397300D01*
X111464D02*
X112797D01*
X112130D01*
Y399966D01*
X111464D01*
X114796Y397300D02*
X116129D01*
X115463D01*
Y401299D01*
X114796D01*
X122794Y397300D02*
X124127D01*
X124793Y397966D01*
Y399299D01*
X124127Y399966D01*
X122794D01*
X122127Y399299D01*
Y397966D01*
X122794Y397300D01*
X126126Y399966D02*
Y397966D01*
X126792Y397300D01*
X128792D01*
Y399966D01*
X130791Y400632D02*
Y399966D01*
X130124D01*
X131457D01*
X130791D01*
Y397966D01*
X131457Y397300D01*
X133457Y395967D02*
Y399966D01*
X135456D01*
X136123Y399299D01*
Y397966D01*
X135456Y397300D01*
X133457D01*
X137455Y399966D02*
Y397966D01*
X138122Y397300D01*
X140121D01*
Y399966D01*
X142121Y400632D02*
Y399966D01*
X141454D01*
X142787D01*
X142121D01*
Y397966D01*
X142787Y397300D01*
D106*
X33200Y300200D02*
Y301800D01*
X34800D01*
Y300200D01*
X33200D01*
X23200D02*
Y301800D01*
X24800D01*
Y300200D01*
X23200D01*
X33200Y310200D02*
Y311800D01*
X34800D01*
Y310200D01*
X33200D01*
X23200D02*
Y311800D01*
X24800D01*
Y310200D01*
X23200D01*
X33200Y320200D02*
Y321800D01*
X34800D01*
Y320200D01*
X33200D01*
X23200D02*
Y321800D01*
X24800D01*
Y320200D01*
X23200D01*
X33200Y330200D02*
Y331800D01*
X34800D01*
Y330200D01*
X33200D01*
X23200D02*
Y331800D01*
X24800D01*
Y330200D01*
X23200D01*
Y231200D02*
Y232800D01*
X24800D01*
Y231200D01*
X23200D01*
Y241200D02*
Y242800D01*
X24800D01*
Y241200D01*
X23200D01*
Y251200D02*
Y252800D01*
X24800D01*
Y251200D01*
X23200D01*
Y261200D02*
Y262800D01*
X24800D01*
Y261200D01*
X23200D01*
Y271200D02*
Y272800D01*
X24800D01*
Y271200D01*
X23200D01*
Y281200D02*
Y282800D01*
X24800D01*
Y281200D01*
X23200D01*
X522000Y24200D02*
X521200Y25800D01*
X522800D01*
X522000Y24200D01*
X512157Y14357D02*
X511357Y15958D01*
X512957D01*
X512157Y14357D01*
X531843D02*
X531042Y15958D01*
X532643D01*
X531843Y14357D01*
Y34043D02*
X531042Y35642D01*
X532643D01*
X531843Y34043D01*
X512157D02*
X511357Y35642D01*
X512957D01*
X512157Y34043D01*
X146200Y254200D02*
Y255800D01*
X147800D01*
Y254200D01*
X146200D01*
X376200D02*
Y255800D01*
X377800D01*
Y254200D01*
X376200D01*
X366200D02*
Y255800D01*
X367800D01*
Y254200D01*
X366200D01*
X356200D02*
Y255800D01*
X357800D01*
Y254200D01*
X356200D01*
X346200D02*
Y255800D01*
X347800D01*
Y254200D01*
X346200D01*
X336200D02*
Y255800D01*
X337800D01*
Y254200D01*
X336200D01*
X326200D02*
Y255800D01*
X327800D01*
Y254200D01*
X326200D01*
X316200D02*
Y255800D01*
X317800D01*
Y254200D01*
X316200D01*
X306200D02*
Y255800D01*
X307800D01*
Y254200D01*
X306200D01*
X296200D02*
Y255800D01*
X297800D01*
Y254200D01*
X296200D01*
X286200D02*
Y255800D01*
X287800D01*
Y254200D01*
X286200D01*
X276200D02*
Y255800D01*
X277800D01*
Y254200D01*
X276200D01*
X266200D02*
Y255800D01*
X267800D01*
Y254200D01*
X266200D01*
X256200D02*
Y255800D01*
X257800D01*
Y254200D01*
X256200D01*
X246200D02*
Y255800D01*
X247800D01*
Y254200D01*
X246200D01*
X236200D02*
Y255800D01*
X237800D01*
Y254200D01*
X236200D01*
X226200D02*
Y255800D01*
X227800D01*
Y254200D01*
X226200D01*
X216200D02*
Y255800D01*
X217800D01*
Y254200D01*
X216200D01*
X206200D02*
Y255800D01*
X207800D01*
Y254200D01*
X206200D01*
X196200D02*
Y255800D01*
X197800D01*
Y254200D01*
X196200D01*
X186200D02*
Y255800D01*
X187800D01*
Y254200D01*
X186200D01*
X176200D02*
Y255800D01*
X177800D01*
Y254200D01*
X176200D01*
X166200D02*
Y255800D01*
X167800D01*
Y254200D01*
X166200D01*
X156200D02*
Y255800D01*
X157800D01*
Y254200D01*
X156200D01*
X376200Y314200D02*
Y315800D01*
X377800D01*
Y314200D01*
X376200D01*
X146200D02*
Y315800D01*
X147800D01*
Y314200D01*
X146200D01*
X156200D02*
Y315800D01*
X157800D01*
Y314200D01*
X156200D01*
X166200D02*
Y315800D01*
X167800D01*
Y314200D01*
X166200D01*
X176200D02*
Y315800D01*
X177800D01*
Y314200D01*
X176200D01*
X186200D02*
Y315800D01*
X187800D01*
Y314200D01*
X186200D01*
X196200D02*
Y315800D01*
X197800D01*
Y314200D01*
X196200D01*
X206200D02*
Y315800D01*
X207800D01*
Y314200D01*
X206200D01*
X216200D02*
Y315800D01*
X217800D01*
Y314200D01*
X216200D01*
X226200D02*
Y315800D01*
X227800D01*
Y314200D01*
X226200D01*
X236200D02*
Y315800D01*
X237800D01*
Y314200D01*
X236200D01*
X246200D02*
Y315800D01*
X247800D01*
Y314200D01*
X246200D01*
X256200D02*
Y315800D01*
X257800D01*
Y314200D01*
X256200D01*
X266200D02*
Y315800D01*
X267800D01*
Y314200D01*
X266200D01*
X276200D02*
Y315800D01*
X277800D01*
Y314200D01*
X276200D01*
X286200D02*
Y315800D01*
X287800D01*
Y314200D01*
X286200D01*
X296200D02*
Y315800D01*
X297800D01*
Y314200D01*
X296200D01*
X306200D02*
Y315800D01*
X307800D01*
Y314200D01*
X306200D01*
X316200D02*
Y315800D01*
X317800D01*
Y314200D01*
X316200D01*
X326200D02*
Y315800D01*
X327800D01*
Y314200D01*
X326200D01*
X336200D02*
Y315800D01*
X337800D01*
Y314200D01*
X336200D01*
X346200D02*
Y315800D01*
X347800D01*
Y314200D01*
X346200D01*
X356200D02*
Y315800D01*
X357800D01*
Y314200D01*
X356200D01*
X366200D02*
Y315800D01*
X367800D01*
Y314200D01*
X366200D01*
X95200D02*
Y315800D01*
X96800D01*
Y314200D01*
X95200D01*
X105200D02*
Y315800D01*
X106800D01*
Y314200D01*
X105200D01*
X115200D02*
Y315800D01*
X116800D01*
Y314200D01*
X115200D01*
X125200D02*
Y315800D01*
X126800D01*
Y314200D01*
X125200D01*
X617000Y19400D02*
X617400Y19800D01*
X617800D01*
X617400Y20200D01*
X617800Y20600D01*
X617400D01*
X617000Y21000D01*
X616600Y20600D01*
X616200D01*
X616600Y20200D01*
X616200Y19800D01*
X616600D01*
X617000Y19400D01*
Y369400D02*
X617400Y369800D01*
X617800D01*
X617400Y370200D01*
X617800Y370600D01*
X617400D01*
X617000Y371000D01*
X616600Y370600D01*
X616200D01*
X616600Y370200D01*
X616200Y369800D01*
X616600D01*
X617000Y369400D01*
X606200Y339400D02*
X606600Y340200D01*
X606200Y341000D01*
X607000Y340600D01*
X607800Y341000D01*
X607400Y340200D01*
X607800Y339400D01*
X607000Y339800D01*
X606200Y339400D01*
Y329400D02*
X606600Y330200D01*
X606200Y331000D01*
X607000Y330600D01*
X607800Y331000D01*
X607400Y330200D01*
X607800Y329400D01*
X607000Y329800D01*
X606200Y329400D01*
Y319400D02*
X606600Y320200D01*
X606200Y321000D01*
X607000Y320600D01*
X607800Y321000D01*
X607400Y320200D01*
X607800Y319400D01*
X607000Y319800D01*
X606200Y319400D01*
Y309400D02*
X606600Y310200D01*
X606200Y311000D01*
X607000Y310600D01*
X607800Y311000D01*
X607400Y310200D01*
X607800Y309400D01*
X607000Y309800D01*
X606200Y309400D01*
Y299400D02*
X606600Y300200D01*
X606200Y301000D01*
X607000Y300600D01*
X607800Y301000D01*
X607400Y300200D01*
X607800Y299400D01*
X607000Y299800D01*
X606200Y299400D01*
Y289400D02*
X606600Y290200D01*
X606200Y291000D01*
X607000Y290600D01*
X607800Y291000D01*
X607400Y290200D01*
X607800Y289400D01*
X607000Y289800D01*
X606200Y289400D01*
Y279400D02*
X606600Y280200D01*
X606200Y281000D01*
X607000Y280600D01*
X607800Y281000D01*
X607400Y280200D01*
X607800Y279400D01*
X607000Y279800D01*
X606200Y279400D01*
Y269400D02*
X606600Y270200D01*
X606200Y271000D01*
X607000Y270600D01*
X607800Y271000D01*
X607400Y270200D01*
X607800Y269400D01*
X607000Y269800D01*
X606200Y269400D01*
Y259400D02*
X606600Y260200D01*
X606200Y261000D01*
X607000Y260600D01*
X607800Y261000D01*
X607400Y260200D01*
X607800Y259400D01*
X607000Y259800D01*
X606200Y259400D01*
Y249400D02*
X606600Y250200D01*
X606200Y251000D01*
X607000Y250600D01*
X607800Y251000D01*
X607400Y250200D01*
X607800Y249400D01*
X607000Y249800D01*
X606200Y249400D01*
Y239400D02*
X606600Y240200D01*
X606200Y241000D01*
X607000Y240600D01*
X607800Y241000D01*
X607400Y240200D01*
X607800Y239400D01*
X607000Y239800D01*
X606200Y239400D01*
Y229400D02*
X606600Y230200D01*
X606200Y231000D01*
X607000Y230600D01*
X607800Y231000D01*
X607400Y230200D01*
X607800Y229400D01*
X607000Y229800D01*
X606200Y229400D01*
Y219400D02*
X606600Y220200D01*
X606200Y221000D01*
X607000Y220600D01*
X607800Y221000D01*
X607400Y220200D01*
X607800Y219400D01*
X607000Y219800D01*
X606200Y219400D01*
Y209400D02*
X606600Y210200D01*
X606200Y211000D01*
X607000Y210600D01*
X607800Y211000D01*
X607400Y210200D01*
X607800Y209400D01*
X607000Y209800D01*
X606200Y209400D01*
Y199400D02*
X606600Y200200D01*
X606200Y201000D01*
X607000Y200600D01*
X607800Y201000D01*
X607400Y200200D01*
X607800Y199400D01*
X607000Y199800D01*
X606200Y199400D01*
Y189400D02*
X606600Y190200D01*
X606200Y191000D01*
X607000Y190600D01*
X607800Y191000D01*
X607400Y190200D01*
X607800Y189400D01*
X607000Y189800D01*
X606200Y189400D01*
Y179400D02*
X606600Y180200D01*
X606200Y181000D01*
X607000Y180600D01*
X607800Y181000D01*
X607400Y180200D01*
X607800Y179400D01*
X607000Y179800D01*
X606200Y179400D01*
Y169400D02*
X606600Y170200D01*
X606200Y171000D01*
X607000Y170600D01*
X607800Y171000D01*
X607400Y170200D01*
X607800Y169400D01*
X607000Y169800D01*
X606200Y169400D01*
Y159400D02*
X606600Y160200D01*
X606200Y161000D01*
X607000Y160600D01*
X607800Y161000D01*
X607400Y160200D01*
X607800Y159400D01*
X607000Y159800D01*
X606200Y159400D01*
Y149400D02*
X606600Y150200D01*
X606200Y151000D01*
X607000Y150600D01*
X607800Y151000D01*
X607400Y150200D01*
X607800Y149400D01*
X607000Y149800D01*
X606200Y149400D01*
Y139400D02*
X606600Y140200D01*
X606200Y141000D01*
X607000Y140600D01*
X607800Y141000D01*
X607400Y140200D01*
X607800Y139400D01*
X607000Y139800D01*
X606200Y139400D01*
Y129400D02*
X606600Y130200D01*
X606200Y131000D01*
X607000Y130600D01*
X607800Y131000D01*
X607400Y130200D01*
X607800Y129400D01*
X607000Y129800D01*
X606200Y129400D01*
Y119400D02*
X606600Y120200D01*
X606200Y121000D01*
X607000Y120600D01*
X607800Y121000D01*
X607400Y120200D01*
X607800Y119400D01*
X607000Y119800D01*
X606200Y119400D01*
Y109400D02*
X606600Y110200D01*
X606200Y111000D01*
X607000Y110600D01*
X607800Y111000D01*
X607400Y110200D01*
X607800Y109400D01*
X607000Y109800D01*
X606200Y109400D01*
Y99400D02*
X606600Y100200D01*
X606200Y101000D01*
X607000Y100600D01*
X607800Y101000D01*
X607400Y100200D01*
X607800Y99400D01*
X607000Y99800D01*
X606200Y99400D01*
Y89400D02*
X606600Y90200D01*
X606200Y91000D01*
X607000Y90600D01*
X607800Y91000D01*
X607400Y90200D01*
X607800Y89400D01*
X607000Y89800D01*
X606200Y89400D01*
Y79400D02*
X606600Y80200D01*
X606200Y81000D01*
X607000Y80600D01*
X607800Y81000D01*
X607400Y80200D01*
X607800Y79400D01*
X607000Y79800D01*
X606200Y79400D01*
Y69400D02*
X606600Y70200D01*
X606200Y71000D01*
X607000Y70600D01*
X607800Y71000D01*
X607400Y70200D01*
X607800Y69400D01*
X607000Y69800D01*
X606200Y69400D01*
Y59400D02*
X606600Y60200D01*
X606200Y61000D01*
X607000Y60600D01*
X607800Y61000D01*
X607400Y60200D01*
X607800Y59400D01*
X607000Y59800D01*
X606200Y59400D01*
Y49400D02*
X606600Y50200D01*
X606200Y51000D01*
X607000Y50600D01*
X607800Y51000D01*
X607400Y50200D01*
X607800Y49400D01*
X607000Y49800D01*
X606200Y49400D01*
Y39400D02*
X606600Y40200D01*
X606200Y41000D01*
X607000Y40600D01*
X607800Y41000D01*
X607400Y40200D01*
X607800Y39400D01*
X607000Y39800D01*
X606200Y39400D01*
X596200D02*
X596600Y40200D01*
X596200Y41000D01*
X597000Y40600D01*
X597800Y41000D01*
X597400Y40200D01*
X597800Y39400D01*
X597000Y39800D01*
X596200Y39400D01*
X586200D02*
X586600Y40200D01*
X586200Y41000D01*
X587000Y40600D01*
X587800Y41000D01*
X587400Y40200D01*
X587800Y39400D01*
X587000Y39800D01*
X586200Y39400D01*
X596200Y49400D02*
X596600Y50200D01*
X596200Y51000D01*
X597000Y50600D01*
X597800Y51000D01*
X597400Y50200D01*
X597800Y49400D01*
X597000Y49800D01*
X596200Y49400D01*
X586200D02*
X586600Y50200D01*
X586200Y51000D01*
X587000Y50600D01*
X587800Y51000D01*
X587400Y50200D01*
X587800Y49400D01*
X587000Y49800D01*
X586200Y49400D01*
X596200Y59400D02*
X596600Y60200D01*
X596200Y61000D01*
X597000Y60600D01*
X597800Y61000D01*
X597400Y60200D01*
X597800Y59400D01*
X597000Y59800D01*
X596200Y59400D01*
X586200D02*
X586600Y60200D01*
X586200Y61000D01*
X587000Y60600D01*
X587800Y61000D01*
X587400Y60200D01*
X587800Y59400D01*
X587000Y59800D01*
X586200Y59400D01*
X596200Y69400D02*
X596600Y70200D01*
X596200Y71000D01*
X597000Y70600D01*
X597800Y71000D01*
X597400Y70200D01*
X597800Y69400D01*
X597000Y69800D01*
X596200Y69400D01*
X586200D02*
X586600Y70200D01*
X586200Y71000D01*
X587000Y70600D01*
X587800Y71000D01*
X587400Y70200D01*
X587800Y69400D01*
X587000Y69800D01*
X586200Y69400D01*
X596200Y79400D02*
X596600Y80200D01*
X596200Y81000D01*
X597000Y80600D01*
X597800Y81000D01*
X597400Y80200D01*
X597800Y79400D01*
X597000Y79800D01*
X596200Y79400D01*
Y89400D02*
X596600Y90200D01*
X596200Y91000D01*
X597000Y90600D01*
X597800Y91000D01*
X597400Y90200D01*
X597800Y89400D01*
X597000Y89800D01*
X596200Y89400D01*
Y99400D02*
X596600Y100200D01*
X596200Y101000D01*
X597000Y100600D01*
X597800Y101000D01*
X597400Y100200D01*
X597800Y99400D01*
X597000Y99800D01*
X596200Y99400D01*
X586200D02*
X586600Y100200D01*
X586200Y101000D01*
X587000Y100600D01*
X587800Y101000D01*
X587400Y100200D01*
X587800Y99400D01*
X587000Y99800D01*
X586200Y99400D01*
Y89400D02*
X586600Y90200D01*
X586200Y91000D01*
X587000Y90600D01*
X587800Y91000D01*
X587400Y90200D01*
X587800Y89400D01*
X587000Y89800D01*
X586200Y89400D01*
Y79400D02*
X586600Y80200D01*
X586200Y81000D01*
X587000Y80600D01*
X587800Y81000D01*
X587400Y80200D01*
X587800Y79400D01*
X587000Y79800D01*
X586200Y79400D01*
X596200Y349400D02*
X596600Y350200D01*
X596200Y351000D01*
X597000Y350600D01*
X597800Y351000D01*
X597400Y350200D01*
X597800Y349400D01*
X597000Y349800D01*
X596200Y349400D01*
X606200D02*
X606600Y350200D01*
X606200Y351000D01*
X607000Y350600D01*
X607800Y351000D01*
X607400Y350200D01*
X607800Y349400D01*
X607000Y349800D01*
X606200Y349400D01*
X586200D02*
X586600Y350200D01*
X586200Y351000D01*
X587000Y350600D01*
X587800Y351000D01*
X587400Y350200D01*
X587800Y349400D01*
X587000Y349800D01*
X586200Y349400D01*
X596200Y339400D02*
X596600Y340200D01*
X596200Y341000D01*
X597000Y340600D01*
X597800Y341000D01*
X597400Y340200D01*
X597800Y339400D01*
X597000Y339800D01*
X596200Y339400D01*
Y329400D02*
X596600Y330200D01*
X596200Y331000D01*
X597000Y330600D01*
X597800Y331000D01*
X597400Y330200D01*
X597800Y329400D01*
X597000Y329800D01*
X596200Y329400D01*
X586200Y339400D02*
X586600Y340200D01*
X586200Y341000D01*
X587000Y340600D01*
X587800Y341000D01*
X587400Y340200D01*
X587800Y339400D01*
X587000Y339800D01*
X586200Y339400D01*
Y329400D02*
X586600Y330200D01*
X586200Y331000D01*
X587000Y330600D01*
X587800Y331000D01*
X587400Y330200D01*
X587800Y329400D01*
X587000Y329800D01*
X586200Y329400D01*
X596200Y319400D02*
X596600Y320200D01*
X596200Y321000D01*
X597000Y320600D01*
X597800Y321000D01*
X597400Y320200D01*
X597800Y319400D01*
X597000Y319800D01*
X596200Y319400D01*
Y309400D02*
X596600Y310200D01*
X596200Y311000D01*
X597000Y310600D01*
X597800Y311000D01*
X597400Y310200D01*
X597800Y309400D01*
X597000Y309800D01*
X596200Y309400D01*
Y299400D02*
X596600Y300200D01*
X596200Y301000D01*
X597000Y300600D01*
X597800Y301000D01*
X597400Y300200D01*
X597800Y299400D01*
X597000Y299800D01*
X596200Y299400D01*
Y289400D02*
X596600Y290200D01*
X596200Y291000D01*
X597000Y290600D01*
X597800Y291000D01*
X597400Y290200D01*
X597800Y289400D01*
X597000Y289800D01*
X596200Y289400D01*
X586200Y319400D02*
X586600Y320200D01*
X586200Y321000D01*
X587000Y320600D01*
X587800Y321000D01*
X587400Y320200D01*
X587800Y319400D01*
X587000Y319800D01*
X586200Y319400D01*
Y309400D02*
X586600Y310200D01*
X586200Y311000D01*
X587000Y310600D01*
X587800Y311000D01*
X587400Y310200D01*
X587800Y309400D01*
X587000Y309800D01*
X586200Y309400D01*
Y299400D02*
X586600Y300200D01*
X586200Y301000D01*
X587000Y300600D01*
X587800Y301000D01*
X587400Y300200D01*
X587800Y299400D01*
X587000Y299800D01*
X586200Y299400D01*
Y289400D02*
X586600Y290200D01*
X586200Y291000D01*
X587000Y290600D01*
X587800Y291000D01*
X587400Y290200D01*
X587800Y289400D01*
X587000Y289800D01*
X586200Y289400D01*
Y279400D02*
X586600Y280200D01*
X586200Y281000D01*
X587000Y280600D01*
X587800Y281000D01*
X587400Y280200D01*
X587800Y279400D01*
X587000Y279800D01*
X586200Y279400D01*
Y269400D02*
X586600Y270200D01*
X586200Y271000D01*
X587000Y270600D01*
X587800Y271000D01*
X587400Y270200D01*
X587800Y269400D01*
X587000Y269800D01*
X586200Y269400D01*
Y259400D02*
X586600Y260200D01*
X586200Y261000D01*
X587000Y260600D01*
X587800Y261000D01*
X587400Y260200D01*
X587800Y259400D01*
X587000Y259800D01*
X586200Y259400D01*
Y249400D02*
X586600Y250200D01*
X586200Y251000D01*
X587000Y250600D01*
X587800Y251000D01*
X587400Y250200D01*
X587800Y249400D01*
X587000Y249800D01*
X586200Y249400D01*
X596200Y279400D02*
X596600Y280200D01*
X596200Y281000D01*
X597000Y280600D01*
X597800Y281000D01*
X597400Y280200D01*
X597800Y279400D01*
X597000Y279800D01*
X596200Y279400D01*
Y269400D02*
X596600Y270200D01*
X596200Y271000D01*
X597000Y270600D01*
X597800Y271000D01*
X597400Y270200D01*
X597800Y269400D01*
X597000Y269800D01*
X596200Y269400D01*
Y259400D02*
X596600Y260200D01*
X596200Y261000D01*
X597000Y260600D01*
X597800Y261000D01*
X597400Y260200D01*
X597800Y259400D01*
X597000Y259800D01*
X596200Y259400D01*
Y249400D02*
X596600Y250200D01*
X596200Y251000D01*
X597000Y250600D01*
X597800Y251000D01*
X597400Y250200D01*
X597800Y249400D01*
X597000Y249800D01*
X596200Y249400D01*
Y239400D02*
X596600Y240200D01*
X596200Y241000D01*
X597000Y240600D01*
X597800Y241000D01*
X597400Y240200D01*
X597800Y239400D01*
X597000Y239800D01*
X596200Y239400D01*
Y229400D02*
X596600Y230200D01*
X596200Y231000D01*
X597000Y230600D01*
X597800Y231000D01*
X597400Y230200D01*
X597800Y229400D01*
X597000Y229800D01*
X596200Y229400D01*
Y219400D02*
X596600Y220200D01*
X596200Y221000D01*
X597000Y220600D01*
X597800Y221000D01*
X597400Y220200D01*
X597800Y219400D01*
X597000Y219800D01*
X596200Y219400D01*
Y209400D02*
X596600Y210200D01*
X596200Y211000D01*
X597000Y210600D01*
X597800Y211000D01*
X597400Y210200D01*
X597800Y209400D01*
X597000Y209800D01*
X596200Y209400D01*
Y199400D02*
X596600Y200200D01*
X596200Y201000D01*
X597000Y200600D01*
X597800Y201000D01*
X597400Y200200D01*
X597800Y199400D01*
X597000Y199800D01*
X596200Y199400D01*
X586200Y239400D02*
X586600Y240200D01*
X586200Y241000D01*
X587000Y240600D01*
X587800Y241000D01*
X587400Y240200D01*
X587800Y239400D01*
X587000Y239800D01*
X586200Y239400D01*
Y229400D02*
X586600Y230200D01*
X586200Y231000D01*
X587000Y230600D01*
X587800Y231000D01*
X587400Y230200D01*
X587800Y229400D01*
X587000Y229800D01*
X586200Y229400D01*
Y219400D02*
X586600Y220200D01*
X586200Y221000D01*
X587000Y220600D01*
X587800Y221000D01*
X587400Y220200D01*
X587800Y219400D01*
X587000Y219800D01*
X586200Y219400D01*
Y209400D02*
X586600Y210200D01*
X586200Y211000D01*
X587000Y210600D01*
X587800Y211000D01*
X587400Y210200D01*
X587800Y209400D01*
X587000Y209800D01*
X586200Y209400D01*
Y199400D02*
X586600Y200200D01*
X586200Y201000D01*
X587000Y200600D01*
X587800Y201000D01*
X587400Y200200D01*
X587800Y199400D01*
X587000Y199800D01*
X586200Y199400D01*
Y189400D02*
X586600Y190200D01*
X586200Y191000D01*
X587000Y190600D01*
X587800Y191000D01*
X587400Y190200D01*
X587800Y189400D01*
X587000Y189800D01*
X586200Y189400D01*
Y179400D02*
X586600Y180200D01*
X586200Y181000D01*
X587000Y180600D01*
X587800Y181000D01*
X587400Y180200D01*
X587800Y179400D01*
X587000Y179800D01*
X586200Y179400D01*
Y169400D02*
X586600Y170200D01*
X586200Y171000D01*
X587000Y170600D01*
X587800Y171000D01*
X587400Y170200D01*
X587800Y169400D01*
X587000Y169800D01*
X586200Y169400D01*
Y159400D02*
X586600Y160200D01*
X586200Y161000D01*
X587000Y160600D01*
X587800Y161000D01*
X587400Y160200D01*
X587800Y159400D01*
X587000Y159800D01*
X586200Y159400D01*
Y149400D02*
X586600Y150200D01*
X586200Y151000D01*
X587000Y150600D01*
X587800Y151000D01*
X587400Y150200D01*
X587800Y149400D01*
X587000Y149800D01*
X586200Y149400D01*
X596200Y189400D02*
X596600Y190200D01*
X596200Y191000D01*
X597000Y190600D01*
X597800Y191000D01*
X597400Y190200D01*
X597800Y189400D01*
X597000Y189800D01*
X596200Y189400D01*
Y179400D02*
X596600Y180200D01*
X596200Y181000D01*
X597000Y180600D01*
X597800Y181000D01*
X597400Y180200D01*
X597800Y179400D01*
X597000Y179800D01*
X596200Y179400D01*
Y169400D02*
X596600Y170200D01*
X596200Y171000D01*
X597000Y170600D01*
X597800Y171000D01*
X597400Y170200D01*
X597800Y169400D01*
X597000Y169800D01*
X596200Y169400D01*
Y159400D02*
X596600Y160200D01*
X596200Y161000D01*
X597000Y160600D01*
X597800Y161000D01*
X597400Y160200D01*
X597800Y159400D01*
X597000Y159800D01*
X596200Y159400D01*
Y149400D02*
X596600Y150200D01*
X596200Y151000D01*
X597000Y150600D01*
X597800Y151000D01*
X597400Y150200D01*
X597800Y149400D01*
X597000Y149800D01*
X596200Y149400D01*
X586200Y139400D02*
X586600Y140200D01*
X586200Y141000D01*
X587000Y140600D01*
X587800Y141000D01*
X587400Y140200D01*
X587800Y139400D01*
X587000Y139800D01*
X586200Y139400D01*
Y129400D02*
X586600Y130200D01*
X586200Y131000D01*
X587000Y130600D01*
X587800Y131000D01*
X587400Y130200D01*
X587800Y129400D01*
X587000Y129800D01*
X586200Y129400D01*
Y119400D02*
X586600Y120200D01*
X586200Y121000D01*
X587000Y120600D01*
X587800Y121000D01*
X587400Y120200D01*
X587800Y119400D01*
X587000Y119800D01*
X586200Y119400D01*
Y109400D02*
X586600Y110200D01*
X586200Y111000D01*
X587000Y110600D01*
X587800Y111000D01*
X587400Y110200D01*
X587800Y109400D01*
X587000Y109800D01*
X586200Y109400D01*
X596200Y139400D02*
X596600Y140200D01*
X596200Y141000D01*
X597000Y140600D01*
X597800Y141000D01*
X597400Y140200D01*
X597800Y139400D01*
X597000Y139800D01*
X596200Y139400D01*
Y129400D02*
X596600Y130200D01*
X596200Y131000D01*
X597000Y130600D01*
X597800Y131000D01*
X597400Y130200D01*
X597800Y129400D01*
X597000Y129800D01*
X596200Y129400D01*
Y119400D02*
X596600Y120200D01*
X596200Y121000D01*
X597000Y120600D01*
X597800Y121000D01*
X597400Y120200D01*
X597800Y119400D01*
X597000Y119800D01*
X596200Y119400D01*
Y109400D02*
X596600Y110200D01*
X596200Y111000D01*
X597000Y110600D01*
X597800Y111000D01*
X597400Y110200D01*
X597800Y109400D01*
X597000Y109800D01*
X596200Y109400D01*
X12000Y369200D02*
X12400Y369600D01*
X12800D01*
X12400Y370000D01*
X12800Y370400D01*
X12400D01*
X12000Y370800D01*
X11600Y370400D01*
X11200D01*
X11600Y370000D01*
X11200Y369600D01*
X11600D01*
X12000Y369200D01*
Y19200D02*
X12400Y19600D01*
X12800D01*
X12400Y20000D01*
X12800Y20400D01*
X12400D01*
X12000Y20800D01*
X11600Y20400D01*
X11200D01*
X11600Y20000D01*
X11200Y19600D01*
X11600D01*
X12000Y19200D01*
X544600Y149600D02*
Y149200D01*
X545400D01*
Y149600D01*
X545800D01*
Y150400D01*
X545400D01*
Y150800D01*
X544600D01*
Y150400D01*
X544200D01*
Y149600D01*
X544600D01*
X500100Y163600D02*
Y163200D01*
X500900D01*
Y163600D01*
X501300D01*
Y164400D01*
X500900D01*
Y164800D01*
X500100D01*
Y164400D01*
X499700D01*
Y163600D01*
X500100D01*
X471100Y21600D02*
Y21200D01*
X471900D01*
Y21600D01*
X472300D01*
Y22400D01*
X471900D01*
Y22800D01*
X471100D01*
Y22400D01*
X470700D01*
Y21600D01*
X471100D01*
X479100D02*
Y21200D01*
X479900D01*
Y21600D01*
X480300D01*
Y22400D01*
X479900D01*
Y22800D01*
X479100D01*
Y22400D01*
X478700D01*
Y21600D01*
X479100D01*
X346100Y176600D02*
Y176200D01*
X346900D01*
Y176600D01*
X347300D01*
Y177400D01*
X346900D01*
Y177800D01*
X346100D01*
Y177400D01*
X345700D01*
Y176600D01*
X346100D01*
X258600Y199600D02*
Y199200D01*
X259400D01*
Y199600D01*
X259800D01*
Y200400D01*
X259400D01*
Y200800D01*
X258600D01*
Y200400D01*
X258200D01*
Y199600D01*
X258600D01*
X252029Y130171D02*
Y129771D01*
X252829D01*
Y130171D01*
X253229D01*
Y130971D01*
X252829D01*
Y131371D01*
X252029D01*
Y130971D01*
X251629D01*
Y130171D01*
X252029D01*
X251600Y154100D02*
Y153700D01*
X252400D01*
Y154100D01*
X252800D01*
Y154900D01*
X252400D01*
Y155300D01*
X251600D01*
Y154900D01*
X251200D01*
Y154100D01*
X251600D01*
X252100Y107600D02*
Y107200D01*
X252900D01*
Y107600D01*
X253300D01*
Y108400D01*
X252900D01*
Y108800D01*
X252100D01*
Y108400D01*
X251700D01*
Y107600D01*
X252100D01*
X239671Y125171D02*
Y124771D01*
X240471D01*
Y125171D01*
X240871D01*
Y125971D01*
X240471D01*
Y126371D01*
X239671D01*
Y125971D01*
X239271D01*
Y125171D01*
X239671D01*
X294100Y289100D02*
Y288700D01*
X294900D01*
Y289100D01*
X295300D01*
Y289900D01*
X294900D01*
Y290300D01*
X294100D01*
Y289900D01*
X293700D01*
Y289100D01*
X294100D01*
X227600Y289600D02*
Y289200D01*
X228400D01*
Y289600D01*
X228800D01*
Y290400D01*
X228400D01*
Y290800D01*
X227600D01*
Y290400D01*
X227200D01*
Y289600D01*
X227600D01*
X165104Y366104D02*
Y365704D01*
X165904D01*
Y366104D01*
X166304D01*
Y366904D01*
X165904D01*
Y367304D01*
X165104D01*
Y366904D01*
X164704D01*
Y366104D01*
X165104D01*
X171096Y359096D02*
Y358696D01*
X171896D01*
Y359096D01*
X172296D01*
Y359896D01*
X171896D01*
Y360296D01*
X171096D01*
Y359896D01*
X170696D01*
Y359096D01*
X171096D01*
X427608Y297608D02*
Y297208D01*
X428408D01*
Y297608D01*
X428808D01*
Y298408D01*
X428408D01*
Y298808D01*
X427608D01*
Y298408D01*
X427208D01*
Y297608D01*
X427608D01*
X280596Y199600D02*
Y199200D01*
X281396D01*
Y199600D01*
X281796D01*
Y200400D01*
X281396D01*
Y200800D01*
X280596D01*
Y200400D01*
X280196D01*
Y199600D01*
X280596D01*
X299100Y149600D02*
Y149200D01*
X299900D01*
Y149600D01*
X300300D01*
Y150400D01*
X299900D01*
Y150800D01*
X299100D01*
Y150400D01*
X298700D01*
Y149600D01*
X299100D01*
X441757Y354443D02*
Y354043D01*
X442557D01*
Y354443D01*
X442957D01*
Y355242D01*
X442557D01*
Y355643D01*
X441757D01*
Y355242D01*
X441358D01*
Y354443D01*
X441757D01*
X459600Y164600D02*
Y164200D01*
X460400D01*
Y164600D01*
X460800D01*
Y165400D01*
X460400D01*
Y165800D01*
X459600D01*
Y165400D01*
X459200D01*
Y164600D01*
X459600D01*
Y170600D02*
Y170200D01*
X460400D01*
Y170600D01*
X460800D01*
Y171400D01*
X460400D01*
Y171800D01*
X459600D01*
Y171400D01*
X459200D01*
Y170600D01*
X459600D01*
X444600Y77600D02*
Y77200D01*
X445400D01*
Y77600D01*
X445800D01*
Y78400D01*
X445400D01*
Y78800D01*
X444600D01*
Y78400D01*
X444200D01*
Y77600D01*
X444600D01*
Y97600D02*
Y97200D01*
X445400D01*
Y97600D01*
X445800D01*
Y98400D01*
X445400D01*
Y98800D01*
X444600D01*
Y98400D01*
X444200D01*
Y97600D01*
X444600D01*
X451200Y373200D02*
X451600D01*
X452000Y373600D01*
X452400Y373200D01*
X452800D01*
Y373600D01*
X452400Y374000D01*
X452800Y374400D01*
Y374800D01*
X452400D01*
X452000Y374400D01*
X451600Y374800D01*
X451200D01*
Y374400D01*
X451600Y374000D01*
X451200Y373600D01*
Y373200D01*
X309655Y62545D02*
Y62145D01*
X310455D01*
Y62545D01*
X310855D01*
Y63345D01*
X310455D01*
Y63745D01*
X309655D01*
Y63345D01*
X309255D01*
Y62545D01*
X309655D01*
X535600Y99600D02*
Y99200D01*
X536400D01*
Y99600D01*
X536800D01*
Y100400D01*
X536400D01*
Y100800D01*
X535600D01*
Y100400D01*
X535200D01*
Y99600D01*
X535600D01*
X519100Y52100D02*
Y51700D01*
X519900D01*
Y52100D01*
X520300D01*
Y52900D01*
X519900D01*
Y53300D01*
X519100D01*
Y52900D01*
X518700D01*
Y52100D01*
X519100D01*
X480604Y53596D02*
Y53196D01*
X481404D01*
Y53596D01*
X481804D01*
Y54396D01*
X481404D01*
Y54796D01*
X480604D01*
Y54396D01*
X480204D01*
Y53596D01*
X480604D01*
X415604Y58596D02*
Y58196D01*
X416404D01*
Y58596D01*
X416804D01*
Y59396D01*
X416404D01*
Y59796D01*
X415604D01*
Y59396D01*
X415204D01*
Y58596D01*
X415604D01*
X488600Y21600D02*
Y21200D01*
X489400D01*
Y21600D01*
X489800D01*
Y22400D01*
X489400D01*
Y22800D01*
X488600D01*
Y22400D01*
X488200D01*
Y21600D01*
X488600D01*
X509600Y149600D02*
Y149200D01*
X510400D01*
Y149600D01*
X510800D01*
Y150400D01*
X510400D01*
Y150800D01*
X509600D01*
Y150400D01*
X509200D01*
Y149600D01*
X509600D01*
X488600Y93600D02*
Y93200D01*
X489400D01*
Y93600D01*
X489800D01*
Y94400D01*
X489400D01*
Y94800D01*
X488600D01*
Y94400D01*
X488200D01*
Y93600D01*
X488600D01*
X496096Y80096D02*
Y79696D01*
X496896D01*
Y80096D01*
X497296D01*
Y80896D01*
X496896D01*
Y81296D01*
X496096D01*
Y80896D01*
X495696D01*
Y80096D01*
X496096D01*
X499100Y111100D02*
Y110700D01*
X499900D01*
Y111100D01*
X500300D01*
Y111900D01*
X499900D01*
Y112300D01*
X499100D01*
Y111900D01*
X498700D01*
Y111100D01*
X499100D01*
X281435Y24765D02*
Y24365D01*
X282235D01*
Y24765D01*
X282635D01*
Y25565D01*
X282235D01*
Y25965D01*
X281435D01*
Y25565D01*
X281035D01*
Y24765D01*
X281435D01*
X381604Y20604D02*
Y20204D01*
X382404D01*
Y20604D01*
X382804D01*
Y21404D01*
X382404D01*
Y21804D01*
X381604D01*
Y21404D01*
X381204D01*
Y20604D01*
X381604D01*
X423600Y261600D02*
Y261200D01*
X424400D01*
Y261600D01*
X424800D01*
Y262400D01*
X424400D01*
Y262800D01*
X423600D01*
Y262400D01*
X423200D01*
Y261600D01*
X423600D01*
X414600Y248600D02*
Y248200D01*
X415400D01*
Y248600D01*
X415800D01*
Y249400D01*
X415400D01*
Y249800D01*
X414600D01*
Y249400D01*
X414200D01*
Y248600D01*
X414600D01*
X403600Y254600D02*
Y254200D01*
X404400D01*
Y254600D01*
X404800D01*
Y255400D01*
X404400D01*
Y255800D01*
X403600D01*
Y255400D01*
X403200D01*
Y254600D01*
X403600D01*
X379600Y145600D02*
Y145200D01*
X380400D01*
Y145600D01*
X380800D01*
Y146400D01*
X380400D01*
Y146800D01*
X379600D01*
Y146400D01*
X379200D01*
Y145600D01*
X379600D01*
X473104Y256600D02*
Y256200D01*
X473904D01*
Y256600D01*
X474304D01*
Y257400D01*
X473904D01*
Y257800D01*
X473104D01*
Y257400D01*
X472704D01*
Y256600D01*
X473104D01*
X465600D02*
Y256200D01*
X466400D01*
Y256600D01*
X466800D01*
Y257400D01*
X466400D01*
Y257800D01*
X465600D01*
Y257400D01*
X465200D01*
Y256600D01*
X465600D01*
X254600Y83600D02*
Y83200D01*
X255400D01*
Y83600D01*
X255800D01*
Y84400D01*
X255400D01*
Y84800D01*
X254600D01*
Y84400D01*
X254200D01*
Y83600D01*
X254600D01*
X373600D02*
Y83200D01*
X374400D01*
Y83600D01*
X374800D01*
Y84400D01*
X374400D01*
Y84800D01*
X373600D01*
Y84400D01*
X373200D01*
Y83600D01*
X373600D01*
X423600Y84600D02*
Y84200D01*
X424400D01*
Y84600D01*
X424800D01*
Y85400D01*
X424400D01*
Y85800D01*
X423600D01*
Y85400D01*
X423200D01*
Y84600D01*
X423600D01*
X276608Y69600D02*
Y69200D01*
X277408D01*
Y69600D01*
X277808D01*
Y70400D01*
X277408D01*
Y70800D01*
X276608D01*
Y70400D01*
X276208D01*
Y69600D01*
X276608D01*
X353600Y71600D02*
Y71200D01*
X354400D01*
Y71600D01*
X354800D01*
Y72400D01*
X354400D01*
Y72800D01*
X353600D01*
Y72400D01*
X353200D01*
Y71600D01*
X353600D01*
X331600Y89758D02*
Y89358D01*
X332400D01*
Y89758D01*
X332800D01*
Y90557D01*
X332400D01*
Y90957D01*
X331600D01*
Y90557D01*
X331200D01*
Y89758D01*
X331600D01*
X434710Y185490D02*
Y185090D01*
X435510D01*
Y185490D01*
X435910D01*
Y186290D01*
X435510D01*
Y186690D01*
X434710D01*
Y186290D01*
X434310D01*
Y185490D01*
X434710D01*
X298490Y183710D02*
Y183310D01*
X299290D01*
Y183710D01*
X299690D01*
Y184510D01*
X299290D01*
Y184910D01*
X298490D01*
Y184510D01*
X298090D01*
Y183710D01*
X298490D01*
X425600Y193600D02*
Y193200D01*
X426400D01*
Y193600D01*
X426800D01*
Y194400D01*
X426400D01*
Y194800D01*
X425600D01*
Y194400D01*
X425200D01*
Y193600D01*
X425600D01*
X434545Y222655D02*
Y222255D01*
X435345D01*
Y222655D01*
X435745D01*
Y223455D01*
X435345D01*
Y223855D01*
X434545D01*
Y223455D01*
X434145D01*
Y222655D01*
X434545D01*
X566600Y251600D02*
Y251200D01*
X567400D01*
Y251600D01*
X567800D01*
Y252400D01*
X567400D01*
Y252800D01*
X566600D01*
Y252400D01*
X566200D01*
Y251600D01*
X566600D01*
X566100Y297100D02*
Y296700D01*
X566900D01*
Y297100D01*
X567300D01*
Y297900D01*
X566900D01*
Y298300D01*
X566100D01*
Y297900D01*
X565700D01*
Y297100D01*
X566100D01*
X522100Y322100D02*
Y321700D01*
X522900D01*
Y322100D01*
X523300D01*
Y322900D01*
X522900D01*
Y323300D01*
X522100D01*
Y322900D01*
X521700D01*
Y322100D01*
X522100D01*
X566600Y206600D02*
Y206200D01*
X567400D01*
Y206600D01*
X567800D01*
Y207400D01*
X567400D01*
Y207800D01*
X566600D01*
Y207400D01*
X566200D01*
Y206600D01*
X566600D01*
X537600Y216850D02*
Y216450D01*
X538400D01*
Y216850D01*
X538800D01*
Y217650D01*
X538400D01*
Y218050D01*
X537600D01*
Y217650D01*
X537200D01*
Y216850D01*
X537600D01*
Y261600D02*
Y261200D01*
X538400D01*
Y261600D01*
X538800D01*
Y262400D01*
X538400D01*
Y262800D01*
X537600D01*
Y262400D01*
X537200D01*
Y261600D01*
X537600D01*
Y306600D02*
Y306200D01*
X538400D01*
Y306600D01*
X538800D01*
Y307400D01*
X538400D01*
Y307800D01*
X537600D01*
Y307400D01*
X537200D01*
Y306600D01*
X537600D01*
Y172100D02*
Y171700D01*
X538400D01*
Y172100D01*
X538800D01*
Y172900D01*
X538400D01*
Y173300D01*
X537600D01*
Y172900D01*
X537200D01*
Y172100D01*
X537600D01*
X514100Y237100D02*
Y236700D01*
X514900D01*
Y237100D01*
X515300D01*
Y237900D01*
X514900D01*
Y238300D01*
X514100D01*
Y237900D01*
X513700D01*
Y237100D01*
X514100D01*
X470921Y296920D02*
Y296520D01*
X471721D01*
Y296920D01*
X472121D01*
Y297721D01*
X471721D01*
Y298120D01*
X470921D01*
Y297721D01*
X470520D01*
Y296920D01*
X470921D01*
X462702Y104702D02*
Y104302D01*
X463502D01*
Y104702D01*
X463902D01*
Y105502D01*
X463502D01*
Y105902D01*
X462702D01*
Y105502D01*
X462302D01*
Y104702D01*
X462702D01*
X529100Y85100D02*
Y84700D01*
X529900D01*
Y85100D01*
X530300D01*
Y85900D01*
X529900D01*
Y86300D01*
X529100D01*
Y85900D01*
X528700D01*
Y85100D01*
X529100D01*
X420600Y163600D02*
Y163200D01*
X421400D01*
Y163600D01*
X421800D01*
Y164400D01*
X421400D01*
Y164800D01*
X420600D01*
Y164400D01*
X420200D01*
Y163600D01*
X420600D01*
X440990Y148990D02*
Y148590D01*
X441790D01*
Y148990D01*
X442190D01*
Y149790D01*
X441790D01*
Y150190D01*
X440990D01*
Y149790D01*
X440590D01*
Y148990D01*
X440990D01*
X414600Y99600D02*
Y99200D01*
X415400D01*
Y99600D01*
X415800D01*
Y100400D01*
X415400D01*
Y100800D01*
X414600D01*
Y100400D01*
X414200D01*
Y99600D01*
X414600D01*
X384600Y125600D02*
Y125200D01*
X385400D01*
Y125600D01*
X385800D01*
Y126400D01*
X385400D01*
Y126800D01*
X384600D01*
Y126400D01*
X384200D01*
Y125600D01*
X384600D01*
Y149600D02*
Y149200D01*
X385400D01*
Y149600D01*
X385800D01*
Y150400D01*
X385400D01*
Y150800D01*
X384600D01*
Y150400D01*
X384200D01*
Y149600D01*
X384600D01*
X445596Y58596D02*
Y58196D01*
X446396D01*
Y58596D01*
X446796D01*
Y59396D01*
X446396D01*
Y59796D01*
X445596D01*
Y59396D01*
X445196D01*
Y58596D01*
X445596D01*
X415100Y65600D02*
Y65200D01*
X415900D01*
Y65600D01*
X416300D01*
Y66400D01*
X415900D01*
Y66800D01*
X415100D01*
Y66400D01*
X414700D01*
Y65600D01*
X415100D01*
X309100Y117100D02*
Y116700D01*
X309900D01*
Y117100D01*
X310300D01*
Y117900D01*
X309900D01*
Y118300D01*
X309100D01*
Y117900D01*
X308700D01*
Y117100D01*
X309100D01*
X355104Y119104D02*
Y118704D01*
X355904D01*
Y119104D01*
X356304D01*
Y119904D01*
X355904D01*
Y120304D01*
X355104D01*
Y119904D01*
X354704D01*
Y119104D01*
X355104D01*
X381600Y99600D02*
Y99200D01*
X382400D01*
Y99600D01*
X382800D01*
Y100400D01*
X382400D01*
Y100800D01*
X381600D01*
Y100400D01*
X381200D01*
Y99600D01*
X381600D01*
X337096Y41096D02*
Y40696D01*
X337896D01*
Y41096D01*
X338296D01*
Y41896D01*
X337896D01*
Y42296D01*
X337096D01*
Y41896D01*
X336696D01*
Y41096D01*
X337096D01*
X374100Y18100D02*
Y17700D01*
X374900D01*
Y18100D01*
X375300D01*
Y18900D01*
X374900D01*
Y19300D01*
X374100D01*
Y18900D01*
X373700D01*
Y18100D01*
X374100D01*
X424100Y19100D02*
Y18700D01*
X424900D01*
Y19100D01*
X425300D01*
Y19900D01*
X424900D01*
Y20300D01*
X424100D01*
Y19900D01*
X423700D01*
Y19100D01*
X424100D01*
X449600Y21600D02*
Y21200D01*
X450400D01*
Y21600D01*
X450800D01*
Y22400D01*
X450400D01*
Y22800D01*
X449600D01*
Y22400D01*
X449200D01*
Y21600D01*
X449600D01*
X480604Y60604D02*
Y60204D01*
X481404D01*
Y60604D01*
X481804D01*
Y61404D01*
X481404D01*
Y61804D01*
X480604D01*
Y61404D01*
X480204D01*
Y60604D01*
X480604D01*
X529600Y54600D02*
Y54200D01*
X530400D01*
Y54600D01*
X530800D01*
Y55400D01*
X530400D01*
Y55800D01*
X529600D01*
Y55400D01*
X529200D01*
Y54600D01*
X529600D01*
X530096Y166096D02*
Y165696D01*
X530896D01*
Y166096D01*
X531296D01*
Y166896D01*
X530896D01*
Y167296D01*
X530096D01*
Y166896D01*
X529696D01*
Y166096D01*
X530096D01*
X529600Y211600D02*
Y211200D01*
X530400D01*
Y211600D01*
X530800D01*
Y212400D01*
X530400D01*
Y212800D01*
X529600D01*
Y212400D01*
X529200D01*
Y211600D01*
X529600D01*
X529104Y256096D02*
Y255696D01*
X529904D01*
Y256096D01*
X530304D01*
Y256896D01*
X529904D01*
Y257296D01*
X529104D01*
Y256896D01*
X528704D01*
Y256096D01*
X529104D01*
X529096Y301096D02*
Y300696D01*
X529896D01*
Y301096D01*
X530296D01*
Y301896D01*
X529896D01*
Y302296D01*
X529096D01*
Y301896D01*
X528696D01*
Y301096D01*
X529096D01*
X514100Y327100D02*
Y326700D01*
X514900D01*
Y327100D01*
X515300D01*
Y327900D01*
X514900D01*
Y328300D01*
X514100D01*
Y327900D01*
X513700D01*
Y327100D01*
X514100D01*
Y192100D02*
Y191700D01*
X514900D01*
Y192100D01*
X515300D01*
Y192900D01*
X514900D01*
Y193300D01*
X514100D01*
Y192900D01*
X513700D01*
Y192100D01*
X514100D01*
Y282100D02*
Y281700D01*
X514900D01*
Y282100D01*
X515300D01*
Y282900D01*
X514900D01*
Y283300D01*
X514100D01*
Y282900D01*
X513700D01*
Y282100D01*
X514100D01*
X506600Y332100D02*
Y331700D01*
X507400D01*
Y332100D01*
X507800D01*
Y332900D01*
X507400D01*
Y333300D01*
X506600D01*
Y332900D01*
X506200D01*
Y332100D01*
X506600D01*
Y197100D02*
Y196700D01*
X507400D01*
Y197100D01*
X507800D01*
Y197900D01*
X507400D01*
Y198300D01*
X506600D01*
Y197900D01*
X506200D01*
Y197100D01*
X506600D01*
Y242100D02*
Y241700D01*
X507400D01*
Y242100D01*
X507800D01*
Y242900D01*
X507400D01*
Y243300D01*
X506600D01*
Y242900D01*
X506200D01*
Y242100D01*
X506600D01*
Y287100D02*
Y286700D01*
X507400D01*
Y287100D01*
X507800D01*
Y287900D01*
X507400D01*
Y288300D01*
X506600D01*
Y287900D01*
X506200D01*
Y287100D01*
X506600D01*
X499100Y337100D02*
Y336700D01*
X499900D01*
Y337100D01*
X500300D01*
Y337900D01*
X499900D01*
Y338300D01*
X499100D01*
Y337900D01*
X498700D01*
Y337100D01*
X499100D01*
Y202100D02*
Y201700D01*
X499900D01*
Y202100D01*
X500300D01*
Y202900D01*
X499900D01*
Y203300D01*
X499100D01*
Y202900D01*
X498700D01*
Y202100D01*
X499100D01*
Y292100D02*
Y291700D01*
X499900D01*
Y292100D01*
X500300D01*
Y292900D01*
X499900D01*
Y293300D01*
X499100D01*
Y292900D01*
X498700D01*
Y292100D01*
X499100D01*
Y247100D02*
Y246700D01*
X499900D01*
Y247100D01*
X500300D01*
Y247900D01*
X499900D01*
Y248300D01*
X499100D01*
Y247900D01*
X498700D01*
Y247100D01*
X499100D01*
X488200Y334200D02*
X488600D01*
X489000Y334600D01*
X489400Y334200D01*
X489800D01*
Y334600D01*
X489400Y335000D01*
X489800Y335400D01*
Y335800D01*
X489400D01*
X489000Y335400D01*
X488600Y335800D01*
X488200D01*
Y335400D01*
X488600Y335000D01*
X488200Y334600D01*
Y334200D01*
X170104Y330096D02*
Y329696D01*
X170904D01*
Y330096D01*
X171304D01*
Y330896D01*
X170904D01*
Y331296D01*
X170104D01*
Y330896D01*
X169704D01*
Y330096D01*
X170104D01*
X236104Y369104D02*
Y368704D01*
X236904D01*
Y369104D01*
X237304D01*
Y369904D01*
X236904D01*
Y370304D01*
X236104D01*
Y369904D01*
X235704D01*
Y369104D01*
X236104D01*
X199600Y351600D02*
Y351200D01*
X200400D01*
Y351600D01*
X200800D01*
Y352400D01*
X200400D01*
Y352800D01*
X199600D01*
Y352400D01*
X199200D01*
Y351600D01*
X199600D01*
X226104Y326096D02*
Y325696D01*
X226904D01*
Y326096D01*
X227304D01*
Y326896D01*
X226904D01*
Y327296D01*
X226104D01*
Y326896D01*
X225704D01*
Y326096D01*
X226104D01*
X444600Y87600D02*
Y87200D01*
X445400D01*
Y87600D01*
X445800D01*
Y88400D01*
X445400D01*
Y88800D01*
X444600D01*
Y88400D01*
X444200D01*
Y87600D01*
X444600D01*
D107*
X555300Y355000D02*
X554747Y355761D01*
X553853Y355470D01*
Y354530D01*
X554747Y354239D01*
X555300Y355000D01*
X515300D02*
X514747Y355761D01*
X513853Y355470D01*
Y354530D01*
X514747Y354239D01*
X515300Y355000D01*
X555300Y365000D02*
X554747Y365761D01*
X553853Y365470D01*
Y364530D01*
X554747Y364239D01*
X555300Y365000D01*
X515300D02*
X514747Y365761D01*
X513853Y365470D01*
Y364530D01*
X514747Y364239D01*
X515300Y365000D01*
X555300Y375000D02*
X554747Y375761D01*
X553853Y375470D01*
Y374530D01*
X554747Y374239D01*
X555300Y375000D01*
X515300D02*
X514747Y375761D01*
X513853Y375470D01*
Y374530D01*
X514747Y374239D01*
X515300Y375000D01*
X557800Y85000D02*
X557247Y85761D01*
X556353Y85470D01*
Y84530D01*
X557247Y84239D01*
X557800Y85000D01*
Y125000D02*
X557247Y125761D01*
X556353Y125470D01*
Y124530D01*
X557247Y124239D01*
X557800Y125000D01*
X567800Y85000D02*
X567247Y85761D01*
X566353Y85470D01*
Y84530D01*
X567247Y84239D01*
X567800Y85000D01*
Y125000D02*
X567247Y125761D01*
X566353Y125470D01*
Y124530D01*
X567247Y124239D01*
X567800Y125000D01*
M02*
