G04 Layer_Color=255*
%FSLAX25Y25*%
%MOIN*%
G70*
G01*
G75*
%ADD41R,0.05905X0.05905*%
%ADD42C,0.05905*%
%ADD43C,0.05512*%
%ADD44C,0.09842*%
%ADD45R,0.05905X0.05905*%
%ADD46C,0.05000*%
%ADD47C,0.06000*%
%ADD48R,0.06000X0.06000*%
D41*
X34000Y301000D02*
D03*
X24000Y232000D02*
D03*
D42*
Y301000D02*
D03*
X34000Y311000D02*
D03*
X24000D02*
D03*
X34000Y321000D02*
D03*
X24000D02*
D03*
X34000Y331000D02*
D03*
X24000D02*
D03*
Y242000D02*
D03*
Y252000D02*
D03*
Y262000D02*
D03*
Y272000D02*
D03*
Y282000D02*
D03*
X377000Y255000D02*
D03*
X367000D02*
D03*
X357000D02*
D03*
X347000D02*
D03*
X337000D02*
D03*
X327000D02*
D03*
X317000D02*
D03*
X307000D02*
D03*
X297000D02*
D03*
X287000D02*
D03*
X277000D02*
D03*
X267000D02*
D03*
X257000D02*
D03*
X247000D02*
D03*
X237000D02*
D03*
X227000D02*
D03*
X217000D02*
D03*
X207000D02*
D03*
X197000D02*
D03*
X187000D02*
D03*
X177000D02*
D03*
X167000D02*
D03*
X157000D02*
D03*
X147000Y315000D02*
D03*
X157000D02*
D03*
X167000D02*
D03*
X177000D02*
D03*
X187000D02*
D03*
X197000D02*
D03*
X207000D02*
D03*
X217000D02*
D03*
X227000D02*
D03*
X237000D02*
D03*
X247000D02*
D03*
X257000D02*
D03*
X267000D02*
D03*
X277000D02*
D03*
X287000D02*
D03*
X297000D02*
D03*
X307000D02*
D03*
X317000D02*
D03*
X327000D02*
D03*
X337000D02*
D03*
X347000D02*
D03*
X357000D02*
D03*
X367000D02*
D03*
X96000D02*
D03*
X106000D02*
D03*
X116000D02*
D03*
D43*
X554500Y355000D02*
D03*
X514500D02*
D03*
X554500Y365000D02*
D03*
X514500D02*
D03*
X554500Y375000D02*
D03*
X514500D02*
D03*
X557000Y85000D02*
D03*
Y125000D02*
D03*
X567000Y85000D02*
D03*
Y125000D02*
D03*
D44*
X522000Y25000D02*
D03*
X512157Y15157D02*
D03*
X531843D02*
D03*
Y34843D02*
D03*
X512157D02*
D03*
D45*
X147000Y255000D02*
D03*
X377000Y315000D02*
D03*
X126000D02*
D03*
D46*
X617000Y20200D02*
D03*
Y370200D02*
D03*
X12000Y370000D02*
D03*
Y20000D02*
D03*
D47*
X607000Y340200D02*
D03*
Y330200D02*
D03*
Y320200D02*
D03*
Y310200D02*
D03*
Y300200D02*
D03*
Y290200D02*
D03*
Y280200D02*
D03*
Y270200D02*
D03*
Y260200D02*
D03*
Y250200D02*
D03*
Y240200D02*
D03*
Y230200D02*
D03*
Y220200D02*
D03*
Y210200D02*
D03*
Y200200D02*
D03*
Y190200D02*
D03*
Y180200D02*
D03*
Y170200D02*
D03*
Y160200D02*
D03*
Y150200D02*
D03*
Y140200D02*
D03*
Y130200D02*
D03*
Y120200D02*
D03*
Y110200D02*
D03*
Y100200D02*
D03*
Y90200D02*
D03*
Y80200D02*
D03*
Y70200D02*
D03*
Y60200D02*
D03*
Y50200D02*
D03*
Y40200D02*
D03*
X597000D02*
D03*
X587000D02*
D03*
X597000Y50200D02*
D03*
X587000D02*
D03*
X597000Y60200D02*
D03*
X587000D02*
D03*
X597000Y70200D02*
D03*
X587000D02*
D03*
X597000Y80200D02*
D03*
Y90200D02*
D03*
Y100200D02*
D03*
X587000D02*
D03*
Y90200D02*
D03*
Y80200D02*
D03*
X597000Y340200D02*
D03*
Y330200D02*
D03*
X587000Y340200D02*
D03*
Y330200D02*
D03*
X597000Y320200D02*
D03*
Y310200D02*
D03*
Y300200D02*
D03*
Y290200D02*
D03*
X587000Y320200D02*
D03*
Y310200D02*
D03*
Y300200D02*
D03*
Y290200D02*
D03*
Y280200D02*
D03*
Y270200D02*
D03*
Y260200D02*
D03*
Y250200D02*
D03*
X597000Y280200D02*
D03*
Y270200D02*
D03*
Y260200D02*
D03*
Y250200D02*
D03*
Y240200D02*
D03*
Y230200D02*
D03*
Y220200D02*
D03*
Y210200D02*
D03*
Y200200D02*
D03*
X587000Y240200D02*
D03*
Y230200D02*
D03*
Y220200D02*
D03*
Y210200D02*
D03*
Y200200D02*
D03*
Y190200D02*
D03*
Y180200D02*
D03*
Y170200D02*
D03*
Y160200D02*
D03*
Y150200D02*
D03*
X597000Y190200D02*
D03*
Y180200D02*
D03*
Y170200D02*
D03*
Y160200D02*
D03*
Y150200D02*
D03*
X587000Y140200D02*
D03*
Y130200D02*
D03*
Y120200D02*
D03*
Y110200D02*
D03*
X597000Y140200D02*
D03*
Y130200D02*
D03*
Y120200D02*
D03*
Y110200D02*
D03*
D48*
Y350200D02*
D03*
X607000D02*
D03*
X587000D02*
D03*
M02*
