G04 Layer_Color=8388736*
%FSLAX25Y25*%
%MOIN*%
G70*
G01*
G75*
%ADD70C,0.11811*%
%ADD71R,0.05518X0.08274*%
%ADD72R,0.08274X0.08274*%
%ADD73R,0.20872X0.05912*%
%ADD74R,0.06187X0.04967*%
%ADD75R,0.07487X0.05715*%
%ADD76O,0.02762X0.09061*%
%ADD77R,0.04967X0.06187*%
%ADD78O,0.09061X0.02762*%
%ADD79R,0.06109X0.02762*%
%ADD80R,0.04337X0.09849*%
%ADD81R,0.13392X0.09849*%
%ADD82R,0.05715X0.07487*%
%ADD83R,0.09061X0.04337*%
%ADD84R,0.09061X0.14179*%
%ADD85O,0.07487X0.02762*%
%ADD86O,0.06305X0.01778*%
%ADD87O,0.09455X0.02762*%
%ADD88O,0.02565X0.08077*%
%ADD89O,0.08077X0.02565*%
%ADD90R,0.02959X0.07487*%
%ADD91C,0.02400*%
%ADD92R,0.09849X0.04337*%
%ADD93R,0.09849X0.13392*%
%ADD94R,0.06305X0.06305*%
%ADD95C,0.06305*%
%ADD96C,0.05912*%
%ADD97C,0.10243*%
%ADD98R,0.06305X0.06305*%
%ADD99C,0.05400*%
%ADD100C,0.06400*%
%ADD101R,0.06400X0.06400*%
%ADD102C,0.04400*%
D70*
X556500Y41900D02*
D03*
X413200Y133400D02*
D03*
X228900Y211700D02*
D03*
X40500Y360800D02*
D03*
D71*
X504972Y139374D02*
D03*
X514028D02*
D03*
X276445Y124000D02*
D03*
X285500D02*
D03*
D72*
X509500Y123626D02*
D03*
X280972Y108252D02*
D03*
D73*
X492000Y374843D02*
D03*
Y355157D02*
D03*
X458000Y354842D02*
D03*
Y335157D02*
D03*
D74*
X476000Y374504D02*
D03*
Y367496D02*
D03*
X529500Y100000D02*
D03*
Y92992D02*
D03*
X509500Y107496D02*
D03*
Y114504D02*
D03*
X519500Y92992D02*
D03*
Y100000D02*
D03*
X509500Y92992D02*
D03*
Y100000D02*
D03*
X499500Y92992D02*
D03*
Y100000D02*
D03*
X479500Y92992D02*
D03*
Y100000D02*
D03*
X469500Y92992D02*
D03*
Y100000D02*
D03*
X489000Y80496D02*
D03*
Y87504D02*
D03*
X479000Y73496D02*
D03*
Y80504D02*
D03*
X434500Y58996D02*
D03*
Y66004D02*
D03*
Y51004D02*
D03*
Y43996D02*
D03*
X424500Y33504D02*
D03*
Y26496D02*
D03*
X389500Y13996D02*
D03*
Y21004D02*
D03*
X399500Y13996D02*
D03*
Y21004D02*
D03*
X409500Y13996D02*
D03*
Y21004D02*
D03*
X374500Y26496D02*
D03*
Y33504D02*
D03*
X364500D02*
D03*
Y26496D02*
D03*
X354500Y26004D02*
D03*
Y18996D02*
D03*
X287000Y171496D02*
D03*
Y178504D02*
D03*
X298890Y171496D02*
D03*
Y178504D02*
D03*
X374500Y118504D02*
D03*
Y111496D02*
D03*
X384500D02*
D03*
Y118504D02*
D03*
X394500Y111496D02*
D03*
Y118504D02*
D03*
X404500Y111496D02*
D03*
Y118504D02*
D03*
X414500D02*
D03*
Y111496D02*
D03*
X424500Y111496D02*
D03*
Y118504D02*
D03*
Y92992D02*
D03*
Y100000D02*
D03*
X374500Y100000D02*
D03*
Y92992D02*
D03*
X414500Y171496D02*
D03*
Y178504D02*
D03*
X404500Y171496D02*
D03*
Y178504D02*
D03*
X434500Y149390D02*
D03*
Y156398D02*
D03*
X424500Y149390D02*
D03*
Y156398D02*
D03*
X522000Y173504D02*
D03*
Y166496D02*
D03*
X435000Y255504D02*
D03*
Y248496D02*
D03*
X424000Y241496D02*
D03*
Y248504D02*
D03*
X229000Y362496D02*
D03*
Y369504D02*
D03*
X219000Y362496D02*
D03*
Y369504D02*
D03*
Y333504D02*
D03*
Y326496D02*
D03*
X424500Y58996D02*
D03*
Y66004D02*
D03*
X489500Y53996D02*
D03*
Y61004D02*
D03*
X530000Y69000D02*
D03*
Y61992D02*
D03*
X476000Y342504D02*
D03*
Y335496D02*
D03*
X178000Y366504D02*
D03*
Y359496D02*
D03*
X445000Y255504D02*
D03*
Y248496D02*
D03*
X309500Y149390D02*
D03*
Y156398D02*
D03*
X481000Y297000D02*
D03*
Y304008D02*
D03*
X435000Y298008D02*
D03*
Y291000D02*
D03*
X489500Y118504D02*
D03*
Y111496D02*
D03*
X434500Y73996D02*
D03*
Y81004D02*
D03*
X276500Y141504D02*
D03*
Y134496D02*
D03*
X289500Y272004D02*
D03*
Y264996D02*
D03*
X344500Y41496D02*
D03*
Y48504D02*
D03*
X354500D02*
D03*
Y41496D02*
D03*
X364500D02*
D03*
Y48504D02*
D03*
X374500Y41496D02*
D03*
Y48504D02*
D03*
X178000Y330496D02*
D03*
Y337504D02*
D03*
X522000Y308504D02*
D03*
Y301496D02*
D03*
Y263504D02*
D03*
Y256496D02*
D03*
Y218008D02*
D03*
Y211000D02*
D03*
X309000Y72496D02*
D03*
Y79504D02*
D03*
D75*
X567158Y70000D02*
D03*
X556843D02*
D03*
X349658Y102500D02*
D03*
X339342D02*
D03*
X414843Y233000D02*
D03*
X425157D02*
D03*
X254842Y70000D02*
D03*
X265158D02*
D03*
X414157Y194000D02*
D03*
X403842D02*
D03*
D76*
X528500Y115551D02*
D03*
X533500D02*
D03*
X538500D02*
D03*
X543500D02*
D03*
X528500Y134449D02*
D03*
X533500D02*
D03*
X538500D02*
D03*
X543500D02*
D03*
X504500Y60551D02*
D03*
X509500D02*
D03*
X514500D02*
D03*
X519500D02*
D03*
X504500Y79449D02*
D03*
X509500D02*
D03*
X514500D02*
D03*
X519500D02*
D03*
D77*
X457496Y22000D02*
D03*
X464504D02*
D03*
X277504Y59606D02*
D03*
X270496D02*
D03*
X260000D02*
D03*
X252992D02*
D03*
X280996Y190000D02*
D03*
X288004D02*
D03*
X292492Y157500D02*
D03*
X299500D02*
D03*
X355504Y112106D02*
D03*
X348496D02*
D03*
X333496Y112106D02*
D03*
X340504D02*
D03*
X389496Y178000D02*
D03*
X396504D02*
D03*
X428102Y167106D02*
D03*
X435110D02*
D03*
X435110Y177500D02*
D03*
X428102D02*
D03*
X473504Y249106D02*
D03*
X466496D02*
D03*
X63504Y301000D02*
D03*
X56496D02*
D03*
Y311000D02*
D03*
X63504D02*
D03*
Y331000D02*
D03*
X56496D02*
D03*
X63504Y321000D02*
D03*
X56496D02*
D03*
X487000Y164000D02*
D03*
X494008D02*
D03*
X532508Y150000D02*
D03*
X525500D02*
D03*
X348004Y122500D02*
D03*
X340996D02*
D03*
X236496Y108583D02*
D03*
X243504D02*
D03*
X252000Y200000D02*
D03*
X244992D02*
D03*
X308496Y91000D02*
D03*
X315504D02*
D03*
X470110Y112106D02*
D03*
X463102D02*
D03*
X414500Y150000D02*
D03*
X407492D02*
D03*
X325996Y122500D02*
D03*
X333004D02*
D03*
X470504Y60000D02*
D03*
X463496D02*
D03*
X399496Y66000D02*
D03*
X406504D02*
D03*
D78*
X476449Y32500D02*
D03*
Y37500D02*
D03*
Y42500D02*
D03*
Y47500D02*
D03*
X457551Y32500D02*
D03*
Y37500D02*
D03*
Y42500D02*
D03*
Y47500D02*
D03*
X408949Y32500D02*
D03*
Y37500D02*
D03*
Y42500D02*
D03*
Y47500D02*
D03*
X390051Y32500D02*
D03*
Y37500D02*
D03*
Y42500D02*
D03*
Y47500D02*
D03*
X450051Y175000D02*
D03*
Y170000D02*
D03*
Y165000D02*
D03*
Y160000D02*
D03*
Y155000D02*
D03*
Y150000D02*
D03*
Y145000D02*
D03*
Y140000D02*
D03*
X468949Y175000D02*
D03*
Y170000D02*
D03*
Y165000D02*
D03*
Y160000D02*
D03*
Y155000D02*
D03*
Y150000D02*
D03*
Y145000D02*
D03*
Y140000D02*
D03*
X408949Y77500D02*
D03*
Y82500D02*
D03*
Y87500D02*
D03*
X390051Y77500D02*
D03*
Y82500D02*
D03*
Y87500D02*
D03*
X408949Y92500D02*
D03*
X390051D02*
D03*
D79*
X341626Y27500D02*
D03*
X332374Y23760D02*
D03*
Y31240D02*
D03*
D80*
X271055Y48000D02*
D03*
X262000D02*
D03*
X252945D02*
D03*
D81*
X262000Y25165D02*
D03*
D82*
X309500Y135158D02*
D03*
Y124843D02*
D03*
X354000Y90158D02*
D03*
Y79843D02*
D03*
D83*
X425811Y204945D02*
D03*
Y214000D02*
D03*
Y223055D02*
D03*
D84*
X402189Y214000D02*
D03*
D85*
X552236Y172500D02*
D03*
Y177500D02*
D03*
Y182500D02*
D03*
Y187500D02*
D03*
Y192500D02*
D03*
Y197500D02*
D03*
Y202500D02*
D03*
Y207500D02*
D03*
X531764Y172500D02*
D03*
Y177500D02*
D03*
Y182500D02*
D03*
Y187500D02*
D03*
Y192500D02*
D03*
Y197500D02*
D03*
Y202500D02*
D03*
Y207500D02*
D03*
X552236Y217500D02*
D03*
Y222500D02*
D03*
Y227500D02*
D03*
Y232500D02*
D03*
Y237500D02*
D03*
Y242500D02*
D03*
Y247500D02*
D03*
Y252500D02*
D03*
X531764Y217500D02*
D03*
Y222500D02*
D03*
Y227500D02*
D03*
Y232500D02*
D03*
Y237500D02*
D03*
Y242500D02*
D03*
Y247500D02*
D03*
Y252500D02*
D03*
X552000Y262500D02*
D03*
Y267500D02*
D03*
Y272500D02*
D03*
Y277500D02*
D03*
Y282500D02*
D03*
Y287500D02*
D03*
Y292500D02*
D03*
Y297500D02*
D03*
X531528Y262500D02*
D03*
Y267500D02*
D03*
Y272500D02*
D03*
Y277500D02*
D03*
Y282500D02*
D03*
Y287500D02*
D03*
Y292500D02*
D03*
Y297500D02*
D03*
X552236Y307500D02*
D03*
Y312500D02*
D03*
Y317500D02*
D03*
Y322500D02*
D03*
Y327500D02*
D03*
Y332500D02*
D03*
Y337500D02*
D03*
Y342500D02*
D03*
X531764Y307500D02*
D03*
Y312500D02*
D03*
Y317500D02*
D03*
Y322500D02*
D03*
Y327500D02*
D03*
Y332500D02*
D03*
Y337500D02*
D03*
Y342500D02*
D03*
D86*
X187779Y361075D02*
D03*
Y358516D02*
D03*
Y355957D02*
D03*
Y353398D02*
D03*
Y350839D02*
D03*
Y348280D02*
D03*
Y345721D02*
D03*
Y343161D02*
D03*
Y340602D02*
D03*
Y338043D02*
D03*
Y335484D02*
D03*
Y332925D02*
D03*
X210221Y361075D02*
D03*
Y358516D02*
D03*
Y355957D02*
D03*
Y353398D02*
D03*
Y350839D02*
D03*
Y348280D02*
D03*
Y345721D02*
D03*
Y343161D02*
D03*
Y340602D02*
D03*
Y338043D02*
D03*
Y335484D02*
D03*
Y332925D02*
D03*
X471320Y262225D02*
D03*
Y264784D02*
D03*
Y267343D02*
D03*
Y269902D02*
D03*
Y272461D02*
D03*
Y275021D02*
D03*
Y277579D02*
D03*
Y280139D02*
D03*
Y282698D02*
D03*
Y285257D02*
D03*
Y287816D02*
D03*
Y290375D02*
D03*
X448879Y262225D02*
D03*
Y264784D02*
D03*
Y267343D02*
D03*
Y269902D02*
D03*
Y272461D02*
D03*
Y275021D02*
D03*
Y277579D02*
D03*
Y280139D02*
D03*
Y282698D02*
D03*
Y285257D02*
D03*
Y287816D02*
D03*
Y290375D02*
D03*
D87*
X226587Y190571D02*
D03*
Y185571D02*
D03*
Y180571D02*
D03*
Y175571D02*
D03*
Y170571D02*
D03*
Y165571D02*
D03*
Y160571D02*
D03*
Y155571D02*
D03*
Y150571D02*
D03*
Y145571D02*
D03*
Y140571D02*
D03*
Y135571D02*
D03*
Y130571D02*
D03*
Y125571D02*
D03*
X262413Y190571D02*
D03*
Y185571D02*
D03*
Y180571D02*
D03*
Y175571D02*
D03*
X262413Y170571D02*
D03*
X262413Y165571D02*
D03*
Y160571D02*
D03*
Y155571D02*
D03*
Y150571D02*
D03*
X262413Y145571D02*
D03*
X262413Y140571D02*
D03*
Y135571D02*
D03*
Y130571D02*
D03*
Y125571D02*
D03*
D88*
X365248Y141555D02*
D03*
X362098Y141555D02*
D03*
X358949D02*
D03*
X355799D02*
D03*
X352650Y141555D02*
D03*
X349500D02*
D03*
X346350Y141555D02*
D03*
X343201D02*
D03*
X340051D02*
D03*
X336902D02*
D03*
X333752Y141555D02*
D03*
Y189980D02*
D03*
X336902Y189980D02*
D03*
X340051D02*
D03*
X343201D02*
D03*
X346350D02*
D03*
X349500Y189980D02*
D03*
X352650D02*
D03*
X355799Y189980D02*
D03*
X358949D02*
D03*
X362098D02*
D03*
X365248Y189980D02*
D03*
D89*
X325287Y150020D02*
D03*
X325287Y153169D02*
D03*
Y156319D02*
D03*
Y159468D02*
D03*
X325287Y162618D02*
D03*
Y165768D02*
D03*
X325287Y168917D02*
D03*
Y172067D02*
D03*
Y175216D02*
D03*
Y178366D02*
D03*
X325287Y181516D02*
D03*
X373713D02*
D03*
X373713Y178366D02*
D03*
Y175216D02*
D03*
Y172067D02*
D03*
Y168917D02*
D03*
X373713Y165768D02*
D03*
Y162618D02*
D03*
X373713Y159468D02*
D03*
Y156319D02*
D03*
Y153169D02*
D03*
X373713Y150020D02*
D03*
D90*
X294500Y297480D02*
D03*
X289500D02*
D03*
X284500D02*
D03*
X294500Y282520D02*
D03*
X289500D02*
D03*
X284500D02*
D03*
D91*
X507000Y317500D02*
D03*
Y272500D02*
D03*
Y227500D02*
D03*
X514500Y182500D02*
D03*
X347500Y333000D02*
D03*
Y327000D02*
D03*
D92*
X320583Y81055D02*
D03*
Y72000D02*
D03*
Y62945D02*
D03*
D93*
X343417Y72000D02*
D03*
D94*
X34000Y301000D02*
D03*
X24000Y232000D02*
D03*
D95*
Y301000D02*
D03*
X34000Y311000D02*
D03*
X24000D02*
D03*
X34000Y321000D02*
D03*
X24000D02*
D03*
X34000Y331000D02*
D03*
X24000D02*
D03*
Y242000D02*
D03*
Y252000D02*
D03*
Y262000D02*
D03*
Y272000D02*
D03*
Y282000D02*
D03*
X377000Y255000D02*
D03*
X367000D02*
D03*
X357000D02*
D03*
X347000D02*
D03*
X337000D02*
D03*
X327000D02*
D03*
X317000D02*
D03*
X307000D02*
D03*
X297000D02*
D03*
X287000D02*
D03*
X277000D02*
D03*
X267000D02*
D03*
X257000D02*
D03*
X247000D02*
D03*
X237000D02*
D03*
X227000D02*
D03*
X217000D02*
D03*
X207000D02*
D03*
X197000D02*
D03*
X187000D02*
D03*
X177000D02*
D03*
X167000D02*
D03*
X157000D02*
D03*
X147000Y315000D02*
D03*
X157000D02*
D03*
X167000D02*
D03*
X177000D02*
D03*
X187000D02*
D03*
X197000D02*
D03*
X207000D02*
D03*
X217000D02*
D03*
X227000D02*
D03*
X237000D02*
D03*
X247000D02*
D03*
X257000D02*
D03*
X267000D02*
D03*
X277000D02*
D03*
X287000D02*
D03*
X297000D02*
D03*
X307000D02*
D03*
X317000D02*
D03*
X327000D02*
D03*
X337000D02*
D03*
X347000D02*
D03*
X357000D02*
D03*
X367000D02*
D03*
X96000D02*
D03*
X106000D02*
D03*
X116000D02*
D03*
D96*
X554500Y355000D02*
D03*
X514500D02*
D03*
X554500Y365000D02*
D03*
X514500D02*
D03*
X554500Y375000D02*
D03*
X514500D02*
D03*
X557000Y85000D02*
D03*
Y125000D02*
D03*
X567000Y85000D02*
D03*
Y125000D02*
D03*
D97*
X522000Y25000D02*
D03*
X512157Y15157D02*
D03*
X531843D02*
D03*
Y34843D02*
D03*
X512157D02*
D03*
D98*
X147000Y255000D02*
D03*
X377000Y315000D02*
D03*
X126000D02*
D03*
D99*
X617000Y20200D02*
D03*
Y370200D02*
D03*
X12000Y370000D02*
D03*
Y20000D02*
D03*
X452000Y374000D02*
D03*
X489000Y335000D02*
D03*
D100*
X607000Y340200D02*
D03*
Y330200D02*
D03*
Y320200D02*
D03*
Y310200D02*
D03*
Y300200D02*
D03*
Y290200D02*
D03*
Y280200D02*
D03*
Y270200D02*
D03*
Y260200D02*
D03*
Y250200D02*
D03*
Y240200D02*
D03*
Y230200D02*
D03*
Y220200D02*
D03*
Y210200D02*
D03*
Y200200D02*
D03*
Y190200D02*
D03*
Y180200D02*
D03*
Y170200D02*
D03*
Y160200D02*
D03*
Y150200D02*
D03*
Y140200D02*
D03*
Y130200D02*
D03*
Y120200D02*
D03*
Y110200D02*
D03*
Y100200D02*
D03*
Y90200D02*
D03*
Y80200D02*
D03*
Y70200D02*
D03*
Y60200D02*
D03*
Y50200D02*
D03*
Y40200D02*
D03*
X597000D02*
D03*
X587000D02*
D03*
X597000Y50200D02*
D03*
X587000D02*
D03*
X597000Y60200D02*
D03*
X587000D02*
D03*
X597000Y70200D02*
D03*
X587000D02*
D03*
X597000Y80200D02*
D03*
Y90200D02*
D03*
Y100200D02*
D03*
X587000D02*
D03*
Y90200D02*
D03*
Y80200D02*
D03*
X597000Y340200D02*
D03*
Y330200D02*
D03*
X587000Y340200D02*
D03*
Y330200D02*
D03*
X597000Y320200D02*
D03*
Y310200D02*
D03*
Y300200D02*
D03*
Y290200D02*
D03*
X587000Y320200D02*
D03*
Y310200D02*
D03*
Y300200D02*
D03*
Y290200D02*
D03*
Y280200D02*
D03*
Y270200D02*
D03*
Y260200D02*
D03*
Y250200D02*
D03*
X597000Y280200D02*
D03*
Y270200D02*
D03*
Y260200D02*
D03*
Y250200D02*
D03*
Y240200D02*
D03*
Y230200D02*
D03*
Y220200D02*
D03*
Y210200D02*
D03*
Y200200D02*
D03*
X587000Y240200D02*
D03*
Y230200D02*
D03*
Y220200D02*
D03*
Y210200D02*
D03*
Y200200D02*
D03*
Y190200D02*
D03*
Y180200D02*
D03*
Y170200D02*
D03*
Y160200D02*
D03*
Y150200D02*
D03*
X597000Y190200D02*
D03*
Y180200D02*
D03*
Y170200D02*
D03*
Y160200D02*
D03*
Y150200D02*
D03*
X587000Y140200D02*
D03*
Y130200D02*
D03*
Y120200D02*
D03*
Y110200D02*
D03*
X597000Y140200D02*
D03*
Y130200D02*
D03*
Y120200D02*
D03*
Y110200D02*
D03*
D101*
Y350200D02*
D03*
X607000D02*
D03*
X587000D02*
D03*
D102*
X545000Y150000D02*
D03*
X500500Y164000D02*
D03*
X471500Y22000D02*
D03*
X479500D02*
D03*
X346500Y177000D02*
D03*
X259000Y200000D02*
D03*
X252429Y130571D02*
D03*
X252000Y154500D02*
D03*
X252500Y108000D02*
D03*
X240071Y125571D02*
D03*
X294500Y289500D02*
D03*
X228000Y290000D02*
D03*
X165504Y366504D02*
D03*
X171496Y359496D02*
D03*
X428008Y298008D02*
D03*
X280996Y200000D02*
D03*
X299500Y150000D02*
D03*
X442158Y354842D02*
D03*
X460000Y165000D02*
D03*
Y171000D02*
D03*
X445000Y78000D02*
D03*
Y98000D02*
D03*
X310055Y62945D02*
D03*
X536000Y100000D02*
D03*
X519500Y52500D02*
D03*
X481004Y53996D02*
D03*
X416004Y58996D02*
D03*
X489000Y22000D02*
D03*
X510000Y150000D02*
D03*
X489000Y94000D02*
D03*
X496496Y80496D02*
D03*
X499500Y111500D02*
D03*
X281835Y25165D02*
D03*
X382004Y21004D02*
D03*
X424000Y262000D02*
D03*
X415000Y249000D02*
D03*
X404000Y255000D02*
D03*
X380000Y146000D02*
D03*
X473504Y257000D02*
D03*
X466000D02*
D03*
X255000Y84000D02*
D03*
X374000D02*
D03*
X424000Y85000D02*
D03*
X277008Y70000D02*
D03*
X354000Y72000D02*
D03*
X332000Y90158D02*
D03*
X435110Y185890D02*
D03*
X298890Y184110D02*
D03*
X426000Y194000D02*
D03*
X434945Y223055D02*
D03*
X567000Y252000D02*
D03*
X566500Y297500D02*
D03*
X522500Y322500D02*
D03*
X567000Y207000D02*
D03*
X538000Y217250D02*
D03*
Y262000D02*
D03*
Y307000D02*
D03*
Y172500D02*
D03*
X514500Y237500D02*
D03*
X471320Y297321D02*
D03*
X463102Y105102D02*
D03*
X529500Y85500D02*
D03*
X421000Y164000D02*
D03*
X441390Y149390D02*
D03*
X415000Y100000D02*
D03*
X385000Y126000D02*
D03*
Y150000D02*
D03*
X445996Y58996D02*
D03*
X415500Y66000D02*
D03*
X309500Y117500D02*
D03*
X355504Y119504D02*
D03*
X382000Y100000D02*
D03*
X337496Y41496D02*
D03*
X374500Y18500D02*
D03*
X424500Y19500D02*
D03*
X450000Y22000D02*
D03*
X481004Y61004D02*
D03*
X530000Y55000D02*
D03*
X530496Y166496D02*
D03*
X530000Y212000D02*
D03*
X529504Y256496D02*
D03*
X529496Y301496D02*
D03*
X514500Y327500D02*
D03*
Y192500D02*
D03*
Y282500D02*
D03*
X507000Y332500D02*
D03*
Y197500D02*
D03*
Y242500D02*
D03*
Y287500D02*
D03*
X499500Y337500D02*
D03*
Y202500D02*
D03*
Y292500D02*
D03*
Y247500D02*
D03*
X170504Y330496D02*
D03*
X236504Y369504D02*
D03*
X200000Y352000D02*
D03*
X226504Y326496D02*
D03*
X445000Y88000D02*
D03*
M02*
